<svg width="1440" height="218" viewBox="0 0 1440 218" fill="none" xmlns="http://www.w3.org/2000/svg">
<rect width="1440" height="40" fill="#D9FBFF"/>
<path d="M37.4346 21.0879H34.4814V24H33.3535V14.7168H37.4551C39.1982 14.7168 40.6953 15.7285 40.6953 17.9229C40.6953 19.4404 39.8203 20.4863 38.6309 20.8965L41.1875 24H39.7725L37.4346 21.0879ZM34.4814 15.749V20.0693H37.3252C38.5283 20.0693 39.54 19.2627 39.54 17.9297C39.54 16.4531 38.5283 15.749 37.3252 15.749H34.4814ZM48.2148 22.5098L48.4062 23.4941C47.6406 23.9385 46.8135 24.1367 45.9316 24.1367C43.7236 24.1367 42.1992 22.7422 42.1992 20.7188C42.1992 18.7637 43.6074 17.3008 45.5762 17.3008C47.7979 17.3008 49.0557 19.0986 48.7002 21.1152H43.334C43.5186 22.4072 44.6123 23.1182 45.8838 23.1182C46.6494 23.1182 47.333 22.9883 48.2148 22.5098ZM43.3613 20.2266H47.709C47.6338 19.1055 46.8613 18.3125 45.6104 18.3125C44.373 18.3125 43.4639 19.1055 43.3613 20.2266ZM54.0869 18.374H51.9951V21.9219C51.9951 22.7832 52.46 23.1592 53.1299 23.1592C53.4854 23.1592 53.9365 23.0908 54.251 22.9746L54.3945 23.9111C54.1143 24.0342 53.5469 24.1367 53.0137 24.1367C51.749 24.1367 50.9082 23.4395 50.9082 22.0996V18.374H49.6982V17.4375H50.915V15.332H51.9883V17.4375H54.0869V18.374ZM60.5264 21.1768V17.4375H61.5996V21.334C61.5996 22.9814 60.4375 24.1367 58.626 24.1367C56.8145 24.1367 55.6523 22.9951 55.6523 21.375V17.4375H56.7324V21.1768C56.7324 22.4072 57.4912 23.1182 58.626 23.1182C59.7676 23.1182 60.5264 22.4072 60.5264 21.1768ZM64.8672 17.4375V18.4082C65.2363 17.6494 65.8857 17.3008 66.6377 17.3008C67.1025 17.3008 67.4443 17.417 67.5674 17.4717L67.458 18.4766C67.2734 18.4082 67.0205 18.3125 66.5967 18.3125C65.7217 18.3125 64.8672 18.8867 64.8672 20.3564V24H63.7734V17.4375H64.8672ZM72.2705 17.3008C74 17.3008 75.0391 18.3193 75.0391 20.0078V24H73.959V20.2744C73.959 18.9961 73.2891 18.3262 72.0996 18.3262C70.9785 18.3262 70.0693 19.0986 70.0693 20.2949V24H68.9824V17.4375H70.0762V18.4219C70.4453 17.8135 71.2246 17.3008 72.2705 17.3008ZM84.0967 18.374H82.0049V21.9219C82.0049 22.7832 82.4697 23.1592 83.1396 23.1592C83.4951 23.1592 83.9463 23.0908 84.2607 22.9746L84.4043 23.9111C84.124 24.0342 83.5566 24.1367 83.0234 24.1367C81.7588 24.1367 80.918 23.4395 80.918 22.0996V18.374H79.708V17.4375H80.9248V15.332H81.998V17.4375H84.0967V18.374ZM85.2451 20.7188C85.2451 18.7979 86.7354 17.3008 88.7314 17.3008C90.7275 17.3008 92.2178 18.7979 92.2178 20.7188C92.2178 22.6396 90.7275 24.1367 88.7314 24.1367C86.7354 24.1367 85.2451 22.6396 85.2451 20.7188ZM86.332 20.7188C86.332 22.0723 87.3506 23.125 88.7314 23.125C90.1123 23.125 91.1309 22.0723 91.1309 20.7188C91.1309 19.3652 90.1123 18.3125 88.7314 18.3125C87.3506 18.3125 86.332 19.3652 86.332 20.7188ZM98.3701 24H97.2832V14.375H98.3701V18.5176C98.8623 17.8135 99.7236 17.3008 100.899 17.3008C102.779 17.3008 104.208 18.7363 104.208 20.7051C104.208 22.6738 102.779 24.1367 100.899 24.1367C99.7236 24.1367 98.8623 23.6309 98.3701 22.9336V24ZM100.79 23.1523C102.157 23.1523 103.128 22.0586 103.128 20.7051C103.128 19.3447 102.157 18.2852 100.79 18.2852C99.3887 18.2852 98.3564 19.3447 98.3564 20.7051C98.3564 22.0586 99.3887 23.1523 100.79 23.1523ZM105.979 24V14.375H107.065V24H105.979ZM114.12 21.1768V17.4375H115.193V21.334C115.193 22.9814 114.031 24.1367 112.22 24.1367C110.408 24.1367 109.246 22.9951 109.246 21.375V17.4375H110.326V21.1768C110.326 22.4072 111.085 23.1182 112.22 23.1182C113.361 23.1182 114.12 22.4072 114.12 21.1768ZM122.877 22.5098L123.068 23.4941C122.303 23.9385 121.476 24.1367 120.594 24.1367C118.386 24.1367 116.861 22.7422 116.861 20.7188C116.861 18.7637 118.27 17.3008 120.238 17.3008C122.46 17.3008 123.718 19.0986 123.362 21.1152H117.996C118.181 22.4072 119.274 23.1182 120.546 23.1182C121.312 23.1182 121.995 22.9883 122.877 22.5098ZM118.023 20.2266H122.371C122.296 19.1055 121.523 18.3125 120.272 18.3125C119.035 18.3125 118.126 19.1055 118.023 20.2266ZM127.143 20.165L127.826 20.3018C129.132 20.5615 129.822 21.1494 129.822 22.1748C129.822 23.4531 128.804 24.1367 127.211 24.1367C126.281 24.1367 125.365 23.9521 124.75 23.6445L124.9 22.6738C125.502 22.9814 126.343 23.166 127.136 23.166C128.188 23.166 128.756 22.8379 128.756 22.2295C128.756 21.6416 128.25 21.3955 127.327 21.2178L126.473 21.0469C125.386 20.835 124.688 20.2607 124.688 19.249C124.688 18.0801 125.721 17.3008 127.354 17.3008C128.147 17.3008 128.947 17.4512 129.46 17.6631L129.323 18.6133C128.79 18.4014 128.065 18.2646 127.423 18.2646C126.356 18.2646 125.769 18.6201 125.769 19.2217C125.769 19.7891 126.22 19.9873 127.143 20.165ZM134.819 17.3008C136.535 17.3008 137.574 18.3193 137.574 20.0078V24H136.494V20.2744C136.494 18.9961 135.824 18.3262 134.648 18.3262C133.527 18.3262 132.618 19.0986 132.618 20.2949V24H131.531V14.375H132.625V18.4219C132.994 17.8135 133.773 17.3008 134.819 17.3008ZM139.762 24V17.4375H140.849V24H139.762ZM140.302 15.9131C139.905 15.9131 139.632 15.6328 139.632 15.2363C139.632 14.8398 139.905 14.5664 140.302 14.5664C140.698 14.5664 140.985 14.8398 140.985 15.2363C140.985 15.6328 140.698 15.9131 140.302 15.9131ZM148.635 22.5098L148.826 23.4941C148.061 23.9385 147.233 24.1367 146.352 24.1367C144.144 24.1367 142.619 22.7422 142.619 20.7188C142.619 18.7637 144.027 17.3008 145.996 17.3008C148.218 17.3008 149.476 19.0986 149.12 21.1152H143.754C143.938 22.4072 145.032 23.1182 146.304 23.1182C147.069 23.1182 147.753 22.9883 148.635 22.5098ZM143.781 20.2266H148.129C148.054 19.1055 147.281 18.3125 146.03 18.3125C144.793 18.3125 143.884 19.1055 143.781 20.2266ZM150.945 24V14.375H152.032V24H150.945ZM159.647 24V22.9336C159.155 23.6309 158.294 24.1367 157.118 24.1367C155.238 24.1367 153.81 22.6738 153.81 20.7051C153.81 18.7363 155.238 17.3008 157.118 17.3008C158.294 17.3008 159.155 17.8135 159.647 18.5176V14.375H160.734V24H159.647ZM157.228 23.1523C158.629 23.1523 159.661 22.0586 159.661 20.7051C159.661 19.3447 158.629 18.2852 157.228 18.2852C155.86 18.2852 154.89 19.3447 154.89 20.7051C154.89 22.0586 155.86 23.1523 157.228 23.1523ZM162.498 20.6982C162.498 18.6816 163.995 17.3008 166.189 17.3008C167.078 17.3008 167.837 17.5605 168.158 17.7383L168.042 18.7158C167.604 18.5039 166.948 18.3193 166.189 18.3193C164.651 18.3193 163.599 19.2832 163.599 20.6982C163.599 22.127 164.658 23.1182 166.203 23.1182C166.866 23.1182 167.611 22.9473 168.097 22.7012L168.274 23.6924C167.693 23.9521 166.928 24.1367 166.203 24.1367C164.002 24.1367 162.498 22.7422 162.498 20.6982ZM176.348 17.4375V24H175.261V22.9199C174.769 23.624 173.907 24.1367 172.731 24.1367C170.852 24.1367 169.423 22.6738 169.423 20.6982C169.423 18.7295 170.852 17.3008 172.731 17.3008C173.907 17.3008 174.769 17.8066 175.261 18.5107V17.4375H176.348ZM172.841 18.2852C171.474 18.2852 170.503 19.3447 170.503 20.6982C170.503 22.0586 171.474 23.1523 172.841 23.1523C174.242 23.1523 175.274 22.0586 175.274 20.6982C175.274 19.3447 174.242 18.2852 172.841 18.2852ZM178.945 24.0957C178.556 24.0957 178.269 23.8018 178.269 23.4189C178.269 23.0361 178.556 22.7422 178.945 22.7422C179.335 22.7422 179.622 23.0361 179.622 23.4189C179.622 23.8018 179.335 24.0957 178.945 24.0957ZM181.037 20.6982C181.037 18.6816 182.534 17.3008 184.729 17.3008C185.617 17.3008 186.376 17.5605 186.697 17.7383L186.581 18.7158C186.144 18.5039 185.487 18.3193 184.729 18.3193C183.19 18.3193 182.138 19.2832 182.138 20.6982C182.138 22.127 183.197 23.1182 184.742 23.1182C185.405 23.1182 186.15 22.9473 186.636 22.7012L186.813 23.6924C186.232 23.9521 185.467 24.1367 184.742 24.1367C182.541 24.1367 181.037 22.7422 181.037 20.6982ZM187.948 20.7188C187.948 18.7979 189.438 17.3008 191.435 17.3008C193.431 17.3008 194.921 18.7979 194.921 20.7188C194.921 22.6396 193.431 24.1367 191.435 24.1367C189.438 24.1367 187.948 22.6396 187.948 20.7188ZM189.035 20.7188C189.035 22.0723 190.054 23.125 191.435 23.125C192.815 23.125 193.834 22.0723 193.834 20.7188C193.834 19.3652 192.815 18.3125 191.435 18.3125C190.054 18.3125 189.035 19.3652 189.035 20.7188ZM204.717 17.3008C206.426 17.3008 207.444 18.3809 207.444 19.9873V24H206.357V20.2539C206.357 19.0439 205.688 18.3262 204.546 18.3262C203.479 18.3262 202.598 19.0713 202.598 20.2334V24H201.511V20.2539C201.511 19.0439 200.841 18.3262 199.74 18.3262C198.64 18.3262 197.765 19.085 197.765 20.2744V24H196.678V17.4375H197.765V18.415C198.127 17.8066 198.893 17.3008 199.918 17.3008C201.08 17.3008 201.921 17.8203 202.317 18.6816C202.762 17.8271 203.65 17.3008 204.717 17.3008Z" fill="#162C55"/>
<path d="M1346.87 23.5352C1346.62 23.6445 1345.63 24.1367 1343.97 24.1367C1340.84 24.1367 1338.7 22.1885 1338.7 19.3516C1338.7 16.5215 1340.8 14.5801 1343.89 14.5801C1345.09 14.5801 1346.12 14.874 1346.71 15.1611L1346.59 16.2207C1346.02 15.9541 1345.03 15.6602 1343.89 15.6602C1341.51 15.6602 1339.89 17.1572 1339.89 19.3516C1339.89 21.5527 1341.58 23.0635 1344.04 23.0635C1345.47 23.0635 1346.42 22.6123 1346.69 22.4619L1346.87 23.5352ZM1347.99 20.7188C1347.99 18.7979 1349.48 17.3008 1351.47 17.3008C1353.47 17.3008 1354.96 18.7979 1354.96 20.7188C1354.96 22.6396 1353.47 24.1367 1351.47 24.1367C1349.48 24.1367 1347.99 22.6396 1347.99 20.7188ZM1349.07 20.7188C1349.07 22.0723 1350.09 23.125 1351.47 23.125C1352.85 23.125 1353.87 22.0723 1353.87 20.7188C1353.87 19.3652 1352.85 18.3125 1351.47 18.3125C1350.09 18.3125 1349.07 19.3652 1349.07 20.7188ZM1360 17.3008C1361.73 17.3008 1362.77 18.3193 1362.77 20.0078V24H1361.69V20.2744C1361.69 18.9961 1361.02 18.3262 1359.83 18.3262C1358.71 18.3262 1357.8 19.0986 1357.8 20.2949V24H1356.72V17.4375H1357.81V18.4219C1358.18 17.8135 1358.96 17.3008 1360 17.3008ZM1368.52 18.374H1366.43V21.9219C1366.43 22.7832 1366.9 23.1592 1367.57 23.1592C1367.92 23.1592 1368.37 23.0908 1368.69 22.9746L1368.83 23.9111C1368.55 24.0342 1367.98 24.1367 1367.45 24.1367C1366.18 24.1367 1365.34 23.4395 1365.34 22.0996V18.374H1364.13V17.4375H1365.35V15.332H1366.42V17.4375H1368.52V18.374ZM1376.61 17.4375V24H1375.52V22.9199C1375.03 23.624 1374.17 24.1367 1372.99 24.1367C1371.11 24.1367 1369.68 22.6738 1369.68 20.6982C1369.68 18.7295 1371.11 17.3008 1372.99 17.3008C1374.17 17.3008 1375.03 17.8066 1375.52 18.5107V17.4375H1376.61ZM1373.1 18.2852C1371.74 18.2852 1370.76 19.3447 1370.76 20.6982C1370.76 22.0586 1371.74 23.1523 1373.1 23.1523C1374.5 23.1523 1375.54 22.0586 1375.54 20.6982C1375.54 19.3447 1374.5 18.2852 1373.1 18.2852ZM1378.37 20.6982C1378.37 18.6816 1379.87 17.3008 1382.06 17.3008C1382.95 17.3008 1383.71 17.5605 1384.03 17.7383L1383.92 18.7158C1383.48 18.5039 1382.82 18.3193 1382.06 18.3193C1380.53 18.3193 1379.47 19.2832 1379.47 20.6982C1379.47 22.127 1380.53 23.1182 1382.08 23.1182C1382.74 23.1182 1383.49 22.9473 1383.97 22.7012L1384.15 23.6924C1383.57 23.9521 1382.8 24.1367 1382.08 24.1367C1379.88 24.1367 1378.37 22.7422 1378.37 20.6982ZM1389.36 18.374H1387.27V21.9219C1387.27 22.7832 1387.73 23.1592 1388.4 23.1592C1388.76 23.1592 1389.21 23.0908 1389.52 22.9746L1389.67 23.9111C1389.39 24.0342 1388.82 24.1367 1388.29 24.1367C1387.02 24.1367 1386.18 23.4395 1386.18 22.0996V18.374H1384.97V17.4375H1386.19V15.332H1387.26V17.4375H1389.36V18.374ZM1399.11 21.1768V17.4375H1400.18V21.334C1400.18 22.9814 1399.02 24.1367 1397.21 24.1367C1395.39 24.1367 1394.23 22.9951 1394.23 21.375V17.4375H1395.31V21.1768C1395.31 22.4072 1396.07 23.1182 1397.21 23.1182C1398.35 23.1182 1399.11 22.4072 1399.11 21.1768ZM1404.31 20.165L1404.99 20.3018C1406.3 20.5615 1406.99 21.1494 1406.99 22.1748C1406.99 23.4531 1405.97 24.1367 1404.38 24.1367C1403.45 24.1367 1402.53 23.9521 1401.92 23.6445L1402.07 22.6738C1402.67 22.9814 1403.51 23.166 1404.3 23.166C1405.35 23.166 1405.92 22.8379 1405.92 22.2295C1405.92 21.6416 1405.42 21.3955 1404.49 21.2178L1403.64 21.0469C1402.55 20.835 1401.85 20.2607 1401.85 19.249C1401.85 18.0801 1402.89 17.3008 1404.52 17.3008C1405.31 17.3008 1406.11 17.4512 1406.63 17.6631L1406.49 18.6133C1405.96 18.4014 1405.23 18.2646 1404.59 18.2646C1403.52 18.2646 1402.93 18.6201 1402.93 19.2217C1402.93 19.7891 1403.39 19.9873 1404.31 20.165Z" fill="#162C55"/>
<path d="M40.1553 72H33.3535V62.7168H40.0117V63.7422H34.4814V66.7158H39.2939V67.7412H34.4814V70.9814H40.1553V72ZM45.2686 65.3008C46.998 65.3008 48.0371 66.3193 48.0371 68.0078V72H46.957V68.2744C46.957 66.9961 46.2871 66.3262 45.0977 66.3262C43.9766 66.3262 43.0674 67.0986 43.0674 68.2949V72H41.9805V65.4375H43.0742V66.4219C43.4434 65.8135 44.2227 65.3008 45.2686 65.3008ZM55.5635 70.9199C55.085 71.6104 54.21 72.1367 53.0342 72.1367C51.1543 72.1367 49.7256 70.6738 49.7256 68.6982C49.7256 66.7295 51.1543 65.3008 53.0342 65.3008C54.21 65.3008 55.0713 65.8066 55.5635 66.5107V65.4375H56.6504V71.5625C56.6504 73.4697 55.3447 74.8711 52.9385 74.8711C52.125 74.8711 51.0449 74.6865 50.3545 74.3242L50.5254 73.333C51.2568 73.6953 52.125 73.8867 52.9316 73.8867C54.4561 73.8867 55.5635 73.1143 55.5635 71.6445V70.9199ZM53.1436 66.2852C51.7764 66.2852 50.8057 67.3447 50.8057 68.6982C50.8057 70.0586 51.7764 71.1523 53.1436 71.1523C54.5449 71.1523 55.5771 70.0586 55.5771 68.6982C55.5771 67.3447 54.5449 66.2852 53.1436 66.2852ZM58.9199 72V62.375H60.0068V72H58.9199ZM62.2832 72V65.4375H63.3701V72H62.2832ZM62.8232 63.9131C62.4268 63.9131 62.1533 63.6328 62.1533 63.2363C62.1533 62.8398 62.4268 62.5664 62.8232 62.5664C63.2197 62.5664 63.5068 62.8398 63.5068 63.2363C63.5068 63.6328 63.2197 63.9131 62.8232 63.9131ZM67.6016 68.165L68.2852 68.3018C69.5908 68.5615 70.2812 69.1494 70.2812 70.1748C70.2812 71.4531 69.2627 72.1367 67.6699 72.1367C66.7402 72.1367 65.8242 71.9521 65.209 71.6445L65.3594 70.6738C65.9609 70.9814 66.8018 71.166 67.5947 71.166C68.6475 71.166 69.2148 70.8379 69.2148 70.2295C69.2148 69.6416 68.709 69.3955 67.7861 69.2178L66.9316 69.0469C65.8447 68.835 65.1475 68.2607 65.1475 67.249C65.1475 66.0801 66.1797 65.3008 67.8135 65.3008C68.6064 65.3008 69.4062 65.4512 69.9189 65.6631L69.7822 66.6133C69.249 66.4014 68.5244 66.2646 67.8818 66.2646C66.8154 66.2646 66.2275 66.6201 66.2275 67.2217C66.2275 67.7891 66.6787 67.9873 67.6016 68.165ZM75.2783 65.3008C76.9941 65.3008 78.0332 66.3193 78.0332 68.0078V72H76.9531V68.2744C76.9531 66.9961 76.2832 66.3262 75.1074 66.3262C73.9863 66.3262 73.0771 67.0986 73.0771 68.2949V72H71.9902V62.375H73.084V66.4219C73.4531 65.8135 74.2324 65.3008 75.2783 65.3008Z" fill="#162C55"/>
<path d="M91.4375 65.5625L95.4844 69.6094L99.5312 65.5625" stroke="#162C55" stroke-linecap="square"/>
<path d="M135.258 68.6846V62.7168H136.386V68.623C136.386 70.1953 137.548 71.0771 139.271 71.0771C141.034 71.0771 142.169 70.1475 142.169 68.623V62.7168H143.297V68.6846C143.297 70.9199 141.561 72.1367 139.271 72.1367C136.878 72.1367 135.258 70.8926 135.258 68.6846ZM149.251 66.374H147.159V69.9219C147.159 70.7832 147.624 71.1592 148.294 71.1592C148.649 71.1592 149.101 71.0908 149.415 70.9746L149.559 71.9111C149.278 72.0342 148.711 72.1367 148.178 72.1367C146.913 72.1367 146.072 71.4395 146.072 70.0996V66.374H144.862V65.4375H146.079V63.332H147.152V65.4375H149.251V66.374ZM150.912 72V65.4375H151.999V72H150.912ZM151.452 63.9131C151.056 63.9131 150.782 63.6328 150.782 63.2363C150.782 62.8398 151.056 62.5664 151.452 62.5664C151.849 62.5664 152.136 62.8398 152.136 63.2363C152.136 63.6328 151.849 63.9131 151.452 63.9131ZM154.275 72V62.375H155.362V72H154.275ZM157.639 72V65.4375H158.726V72H157.639ZM158.179 63.9131C157.782 63.9131 157.509 63.6328 157.509 63.2363C157.509 62.8398 157.782 62.5664 158.179 62.5664C158.575 62.5664 158.862 62.8398 158.862 63.2363C158.862 63.6328 158.575 63.9131 158.179 63.9131ZM164.563 66.374H162.472V69.9219C162.472 70.7832 162.937 71.1592 163.606 71.1592C163.962 71.1592 164.413 71.0908 164.728 70.9746L164.871 71.9111C164.591 72.0342 164.023 72.1367 163.49 72.1367C162.226 72.1367 161.385 71.4395 161.385 70.0996V66.374H160.175V65.4375H161.392V63.332H162.465V65.4375H164.563V66.374ZM168.72 70.9336L170.914 65.4375H172.11L169.014 72.834C168.453 74.1396 167.838 74.8711 166.512 74.8711C165.985 74.8711 165.575 74.7412 165.391 74.6455L165.521 73.7227C165.746 73.8252 166.108 73.9004 166.45 73.9004C167.195 73.9004 167.64 73.4287 168.022 72.4922L168.139 72.1846L165.302 65.4375H166.484L168.72 70.9336ZM176.738 72V62.375H177.825V72H176.738ZM180.102 72V65.4375H181.188V72H180.102ZM180.642 63.9131C180.245 63.9131 179.972 63.6328 179.972 63.2363C179.972 62.8398 180.245 62.5664 180.642 62.5664C181.038 62.5664 181.325 62.8398 181.325 63.2363C181.325 63.6328 181.038 63.9131 180.642 63.9131ZM186.753 65.3008C188.482 65.3008 189.521 66.3193 189.521 68.0078V72H188.441V68.2744C188.441 66.9961 187.771 66.3262 186.582 66.3262C185.461 66.3262 184.552 67.0986 184.552 68.2949V72H183.465V65.4375H184.559V66.4219C184.928 65.8135 185.707 65.3008 186.753 65.3008ZM191.709 72V62.375H192.796V68.1377H194.197L195.961 65.4375H197.171L195.045 68.6367L197.513 72H196.241L194.129 69.0742H192.796V72H191.709Z" fill="#162C55"/>
<path d="M980.258 68.6846V62.7168H981.386V68.623C981.386 70.1953 982.548 71.0771 984.271 71.0771C986.034 71.0771 987.169 70.1475 987.169 68.623V62.7168H988.297V68.6846C988.297 70.9199 986.561 72.1367 984.271 72.1367C981.878 72.1367 980.258 70.8926 980.258 68.6846ZM994.251 66.374H992.159V69.9219C992.159 70.7832 992.624 71.1592 993.294 71.1592C993.649 71.1592 994.101 71.0908 994.415 70.9746L994.559 71.9111C994.278 72.0342 993.711 72.1367 993.178 72.1367C991.913 72.1367 991.072 71.4395 991.072 70.0996V66.374H989.862V65.4375H991.079V63.332H992.152V65.4375H994.251V66.374ZM995.912 72V65.4375H996.999V72H995.912ZM996.452 63.9131C996.056 63.9131 995.782 63.6328 995.782 63.2363C995.782 62.8398 996.056 62.5664 996.452 62.5664C996.849 62.5664 997.136 62.8398 997.136 63.2363C997.136 63.6328 996.849 63.9131 996.452 63.9131ZM999.275 72V62.375H1000.36V72H999.275ZM1002.64 72V65.4375H1003.73V72H1002.64ZM1003.18 63.9131C1002.78 63.9131 1002.51 63.6328 1002.51 63.2363C1002.51 62.8398 1002.78 62.5664 1003.18 62.5664C1003.58 62.5664 1003.86 62.8398 1003.86 63.2363C1003.86 63.6328 1003.58 63.9131 1003.18 63.9131ZM1009.56 66.374H1007.47V69.9219C1007.47 70.7832 1007.94 71.1592 1008.61 71.1592C1008.96 71.1592 1009.41 71.0908 1009.73 70.9746L1009.87 71.9111C1009.59 72.0342 1009.02 72.1367 1008.49 72.1367C1007.23 72.1367 1006.38 71.4395 1006.38 70.0996V66.374H1005.17V65.4375H1006.39V63.332H1007.46V65.4375H1009.56V66.374ZM1013.72 70.9336L1015.91 65.4375H1017.11L1014.01 72.834C1013.45 74.1396 1012.84 74.8711 1011.51 74.8711C1010.99 74.8711 1010.58 74.7412 1010.39 74.6455L1010.52 73.7227C1010.75 73.8252 1011.11 73.9004 1011.45 73.9004C1012.2 73.9004 1012.64 73.4287 1013.02 72.4922L1013.14 72.1846L1010.3 65.4375H1011.48L1013.72 70.9336ZM1021.74 72V62.375H1022.83V72H1021.74ZM1025.1 72V65.4375H1026.19V72H1025.1ZM1025.64 63.9131C1025.25 63.9131 1024.97 63.6328 1024.97 63.2363C1024.97 62.8398 1025.25 62.5664 1025.64 62.5664C1026.04 62.5664 1026.33 62.8398 1026.33 63.2363C1026.33 63.6328 1026.04 63.9131 1025.64 63.9131ZM1031.75 65.3008C1033.48 65.3008 1034.52 66.3193 1034.52 68.0078V72H1033.44V68.2744C1033.44 66.9961 1032.77 66.3262 1031.58 66.3262C1030.46 66.3262 1029.55 67.0986 1029.55 68.2949V72H1028.46V65.4375H1029.56V66.4219C1029.93 65.8135 1030.71 65.3008 1031.75 65.3008ZM1036.71 72V62.375H1037.8V68.1377H1039.2L1040.96 65.4375H1042.17L1040.04 68.6367L1042.51 72H1041.24L1039.13 69.0742H1037.8V72H1036.71Z" fill="#162C55"/>
<path d="M1076.26 68.6846V62.7168H1077.39V68.623C1077.39 70.1953 1078.55 71.0771 1080.27 71.0771C1082.03 71.0771 1083.17 70.1475 1083.17 68.623V62.7168H1084.3V68.6846C1084.3 70.9199 1082.56 72.1367 1080.27 72.1367C1077.88 72.1367 1076.26 70.8926 1076.26 68.6846ZM1090.25 66.374H1088.16V69.9219C1088.16 70.7832 1088.62 71.1592 1089.29 71.1592C1089.65 71.1592 1090.1 71.0908 1090.42 70.9746L1090.56 71.9111C1090.28 72.0342 1089.71 72.1367 1089.18 72.1367C1087.91 72.1367 1087.07 71.4395 1087.07 70.0996V66.374H1085.86V65.4375H1087.08V63.332H1088.15V65.4375H1090.25V66.374ZM1091.91 72V65.4375H1093V72H1091.91ZM1092.45 63.9131C1092.06 63.9131 1091.78 63.6328 1091.78 63.2363C1091.78 62.8398 1092.06 62.5664 1092.45 62.5664C1092.85 62.5664 1093.14 62.8398 1093.14 63.2363C1093.14 63.6328 1092.85 63.9131 1092.45 63.9131ZM1095.28 72V62.375H1096.36V72H1095.28ZM1098.64 72V65.4375H1099.73V72H1098.64ZM1099.18 63.9131C1098.78 63.9131 1098.51 63.6328 1098.51 63.2363C1098.51 62.8398 1098.78 62.5664 1099.18 62.5664C1099.58 62.5664 1099.86 62.8398 1099.86 63.2363C1099.86 63.6328 1099.58 63.9131 1099.18 63.9131ZM1105.56 66.374H1103.47V69.9219C1103.47 70.7832 1103.94 71.1592 1104.61 71.1592C1104.96 71.1592 1105.41 71.0908 1105.73 70.9746L1105.87 71.9111C1105.59 72.0342 1105.02 72.1367 1104.49 72.1367C1103.23 72.1367 1102.38 71.4395 1102.38 70.0996V66.374H1101.17V65.4375H1102.39V63.332H1103.46V65.4375H1105.56V66.374ZM1109.72 70.9336L1111.91 65.4375H1113.11L1110.01 72.834C1109.45 74.1396 1108.84 74.8711 1107.51 74.8711C1106.99 74.8711 1106.58 74.7412 1106.39 74.6455L1106.52 73.7227C1106.75 73.8252 1107.11 73.9004 1107.45 73.9004C1108.2 73.9004 1108.64 73.4287 1109.02 72.4922L1109.14 72.1846L1106.3 65.4375H1107.48L1109.72 70.9336ZM1117.74 72V62.375H1118.83V72H1117.74ZM1121.1 72V65.4375H1122.19V72H1121.1ZM1121.64 63.9131C1121.25 63.9131 1120.97 63.6328 1120.97 63.2363C1120.97 62.8398 1121.25 62.5664 1121.64 62.5664C1122.04 62.5664 1122.33 62.8398 1122.33 63.2363C1122.33 63.6328 1122.04 63.9131 1121.64 63.9131ZM1127.75 65.3008C1129.48 65.3008 1130.52 66.3193 1130.52 68.0078V72H1129.44V68.2744C1129.44 66.9961 1128.77 66.3262 1127.58 66.3262C1126.46 66.3262 1125.55 67.0986 1125.55 68.2949V72H1124.46V65.4375H1125.56V66.4219C1125.93 65.8135 1126.71 65.3008 1127.75 65.3008ZM1132.71 72V62.375H1133.8V68.1377H1135.2L1136.96 65.4375H1138.17L1136.04 68.6367L1138.51 72H1137.24L1135.13 69.0742H1133.8V72H1132.71Z" fill="#162C55"/>
<path d="M1172.26 68.6846V62.7168H1173.39V68.623C1173.39 70.1953 1174.55 71.0771 1176.27 71.0771C1178.03 71.0771 1179.17 70.1475 1179.17 68.623V62.7168H1180.3V68.6846C1180.3 70.9199 1178.56 72.1367 1176.27 72.1367C1173.88 72.1367 1172.26 70.8926 1172.26 68.6846ZM1186.25 66.374H1184.16V69.9219C1184.16 70.7832 1184.62 71.1592 1185.29 71.1592C1185.65 71.1592 1186.1 71.0908 1186.42 70.9746L1186.56 71.9111C1186.28 72.0342 1185.71 72.1367 1185.18 72.1367C1183.91 72.1367 1183.07 71.4395 1183.07 70.0996V66.374H1181.86V65.4375H1183.08V63.332H1184.15V65.4375H1186.25V66.374ZM1187.91 72V65.4375H1189V72H1187.91ZM1188.45 63.9131C1188.06 63.9131 1187.78 63.6328 1187.78 63.2363C1187.78 62.8398 1188.06 62.5664 1188.45 62.5664C1188.85 62.5664 1189.14 62.8398 1189.14 63.2363C1189.14 63.6328 1188.85 63.9131 1188.45 63.9131ZM1191.28 72V62.375H1192.36V72H1191.28ZM1194.64 72V65.4375H1195.73V72H1194.64ZM1195.18 63.9131C1194.78 63.9131 1194.51 63.6328 1194.51 63.2363C1194.51 62.8398 1194.78 62.5664 1195.18 62.5664C1195.58 62.5664 1195.86 62.8398 1195.86 63.2363C1195.86 63.6328 1195.58 63.9131 1195.18 63.9131ZM1201.56 66.374H1199.47V69.9219C1199.47 70.7832 1199.94 71.1592 1200.61 71.1592C1200.96 71.1592 1201.41 71.0908 1201.73 70.9746L1201.87 71.9111C1201.59 72.0342 1201.02 72.1367 1200.49 72.1367C1199.23 72.1367 1198.38 71.4395 1198.38 70.0996V66.374H1197.17V65.4375H1198.39V63.332H1199.46V65.4375H1201.56V66.374ZM1205.72 70.9336L1207.91 65.4375H1209.11L1206.01 72.834C1205.45 74.1396 1204.84 74.8711 1203.51 74.8711C1202.99 74.8711 1202.58 74.7412 1202.39 74.6455L1202.52 73.7227C1202.75 73.8252 1203.11 73.9004 1203.45 73.9004C1204.2 73.9004 1204.64 73.4287 1205.02 72.4922L1205.14 72.1846L1202.3 65.4375H1203.48L1205.72 70.9336ZM1213.74 72V62.375H1214.83V72H1213.74ZM1217.1 72V65.4375H1218.19V72H1217.1ZM1217.64 63.9131C1217.25 63.9131 1216.97 63.6328 1216.97 63.2363C1216.97 62.8398 1217.25 62.5664 1217.64 62.5664C1218.04 62.5664 1218.33 62.8398 1218.33 63.2363C1218.33 63.6328 1218.04 63.9131 1217.64 63.9131ZM1223.75 65.3008C1225.48 65.3008 1226.52 66.3193 1226.52 68.0078V72H1225.44V68.2744C1225.44 66.9961 1224.77 66.3262 1223.58 66.3262C1222.46 66.3262 1221.55 67.0986 1221.55 68.2949V72H1220.46V65.4375H1221.56V66.4219C1221.93 65.8135 1222.71 65.3008 1223.75 65.3008ZM1228.71 72V62.375H1229.8V68.1377H1231.2L1232.96 65.4375H1234.17L1232.04 68.6367L1234.51 72H1233.24L1231.13 69.0742H1229.8V72H1228.71Z" fill="#162C55"/>
<rect x="1268" y="53" width="30" height="30" rx="15" stroke="#162C55" stroke-width="2"/>
<path fill-rule="evenodd" clip-rule="evenodd" d="M1285.5 69.2416C1284.76 69.7361 1283.89 70 1283 70C1281.81 69.9974 1280.67 69.5224 1279.82 68.6791C1278.98 67.8357 1278.5 66.6927 1278.5 65.5C1278.5 64.61 1278.76 63.74 1279.26 62.9999C1279.75 62.2599 1280.46 61.6831 1281.28 61.3425C1282.1 61.0019 1283.01 60.9128 1283.88 61.0865C1284.75 61.2601 1285.56 61.6887 1286.19 62.318C1286.82 62.9474 1287.25 63.7492 1287.42 64.6221C1287.59 65.495 1287.5 66.3998 1287.16 67.2221C1286.82 68.0443 1286.24 68.7471 1285.5 69.2416ZM1284.95 62.5899C1284.37 62.2053 1283.7 62 1283 62C1282.07 62 1281.18 62.3688 1280.53 63.0251C1279.87 63.6815 1279.5 64.5717 1279.5 65.5C1279.5 66.1922 1279.71 66.8689 1280.09 67.4445C1280.48 68.0201 1281.02 68.4687 1281.66 68.7336C1282.3 68.9985 1283.01 69.0678 1283.69 68.9328C1284.37 68.7977 1284.99 68.4644 1285.48 67.9749C1285.97 67.4854 1286.3 66.8618 1286.44 66.1828C1286.57 65.5039 1286.5 64.8002 1286.24 64.1606C1285.97 63.5211 1285.52 62.9744 1284.95 62.5899ZM1286.25 72.1873C1287.27 72.6395 1288.18 73.3174 1288.9 74.17C1288.97 74.2751 1289.01 74.4041 1289 74.5342C1288.99 74.6642 1288.94 74.7868 1288.85 74.88C1288.77 74.9566 1288.66 74.9995 1288.55 75C1288.48 74.999 1288.41 74.9832 1288.35 74.9538C1288.29 74.9245 1288.24 74.8822 1288.2 74.83C1287.56 74.0834 1286.76 73.4911 1285.86 73.0978C1284.96 72.7046 1283.98 72.5207 1283 72.56C1282.02 72.5473 1281.05 72.7442 1280.15 73.1374C1279.25 73.5306 1278.45 74.1111 1277.79 74.84C1277.75 74.8866 1277.7 74.924 1277.64 74.9496C1277.59 74.9752 1277.53 74.9884 1277.47 74.9884C1277.4 74.9884 1277.34 74.9752 1277.29 74.9496C1277.23 74.924 1277.18 74.8866 1277.14 74.84C1277.05 74.7426 1277 74.6161 1277 74.485C1277 74.3539 1277.05 74.2274 1277.14 74.13C1277.88 73.3141 1278.79 72.6636 1279.8 72.2208C1280.81 71.778 1281.9 71.5529 1283 71.56C1284.12 71.5207 1285.23 71.7352 1286.25 72.1873Z" fill="#162C55"/>
<path d="M1283 70L1283 70.5H1283V70ZM1285.5 69.2416L1285.23 68.8258L1285.23 68.8258L1285.5 69.2416ZM1279.82 68.6791L1279.47 69.0327L1279.47 69.0327L1279.82 68.6791ZM1278.5 65.5L1278 65.5L1278 65.5011L1278.5 65.5ZM1279.26 62.9999L1279.67 63.2778L1279.67 63.2778L1279.26 62.9999ZM1281.28 61.3425L1281.09 60.8806L1281.09 60.8806L1281.28 61.3425ZM1286.19 62.318L1286.54 61.9644L1286.54 61.9644L1286.19 62.318ZM1280.53 63.0251L1280.17 62.6715L1280.17 62.6715L1280.53 63.0251ZM1280.09 67.4445L1280.51 67.1666L1280.51 67.1666L1280.09 67.4445ZM1281.66 68.7336L1281.85 68.2716L1281.85 68.2716L1281.66 68.7336ZM1283.69 68.9328L1283.78 69.4232L1283.78 69.4232L1283.69 68.9328ZM1286.44 66.1828L1286.93 66.2804L1286.93 66.2804L1286.44 66.1828ZM1286.24 64.1606L1285.78 64.352L1285.78 64.352L1286.24 64.1606ZM1288.9 74.17L1289.3 73.8739L1289.29 73.8603L1289.28 73.8473L1288.9 74.17ZM1286.25 72.1873L1286.05 72.6445L1286.05 72.6445L1286.25 72.1873ZM1289 74.5342L1289.5 74.5693L1289.5 74.5693L1289 74.5342ZM1288.85 74.88L1289.19 75.2437L1289.2 75.2368L1289.2 75.2296L1288.85 74.88ZM1288.55 75L1288.54 75.5L1288.55 75.5L1288.55 75ZM1288.35 74.9538L1288.57 74.504L1288.57 74.504L1288.35 74.9538ZM1288.2 74.83L1288.58 74.5146L1288.58 74.5055L1288.2 74.83ZM1285.86 73.0978L1285.66 73.556L1285.66 73.556L1285.86 73.0978ZM1283 72.56L1283 73.06L1283.01 73.0601L1283.02 73.0596L1283 72.56ZM1280.15 73.1374L1280.35 73.5955L1280.35 73.5955L1280.15 73.1374ZM1277.79 74.84L1277.42 74.5053L1277.41 74.5125L1277.79 74.84ZM1277.64 74.9496L1277.85 75.4044L1277.85 75.4044L1277.64 74.9496ZM1277.29 74.9496L1277.08 75.4044L1277.08 75.4044L1277.29 74.9496ZM1277.14 74.84L1277.52 74.5124L1277.51 74.505L1277.14 74.84ZM1277.14 74.13L1276.77 73.7936L1276.77 73.795L1277.14 74.13ZM1279.8 72.2208L1280 72.6788L1280 72.6788L1279.8 72.2208ZM1283 71.56L1283 72.06L1283.01 72.0601L1283.02 72.0597L1283 71.56ZM1283 70V70.5C1283.99 70.5 1284.96 70.2068 1285.78 69.6574L1285.5 69.2416L1285.23 68.8258C1284.57 69.2654 1283.79 69.5 1283 69.5V70ZM1279.82 68.6791L1279.47 69.0327C1280.41 69.9695 1281.68 70.4971 1283 70.5L1283 70L1283 69.5C1281.94 69.4977 1280.93 69.0753 1280.18 68.3254L1279.82 68.6791ZM1278.5 65.5L1278 65.5011C1278 66.8261 1278.53 68.0959 1279.47 69.0327L1279.82 68.6791L1280.18 68.3254C1279.43 67.5755 1279 66.5592 1279 65.4989L1278.5 65.5ZM1279.26 62.9999L1278.84 62.722C1278.29 63.5443 1278 64.511 1278 65.5H1278.5H1279C1279 64.7089 1279.24 63.9356 1279.67 63.2778L1279.26 62.9999ZM1281.28 61.3425L1281.09 60.8806C1280.17 61.259 1279.39 61.8998 1278.84 62.722L1279.26 62.9999L1279.67 63.2778C1280.11 62.62 1280.74 62.1073 1281.47 61.8045L1281.28 61.3425ZM1283.88 61.0865L1283.98 60.5961C1283.01 60.4032 1282 60.5022 1281.09 60.8806L1281.28 61.3425L1281.47 61.8045C1282.2 61.5017 1283.01 61.4225 1283.78 61.5769L1283.88 61.0865ZM1286.19 62.318L1286.54 61.9644C1285.84 61.2651 1284.95 60.789 1283.98 60.5961L1283.88 61.0865L1283.78 61.5769C1284.56 61.7312 1285.27 62.1122 1285.83 62.6717L1286.19 62.318ZM1287.42 64.6221L1287.91 64.5245C1287.72 63.5545 1287.24 62.6636 1286.54 61.9644L1286.19 62.318L1285.83 62.6717C1286.39 63.2311 1286.77 63.9438 1286.93 64.7197L1287.42 64.6221ZM1287.16 67.2221L1287.62 67.4135C1288 66.4998 1288.1 65.4945 1287.91 64.5245L1287.42 64.6221L1286.93 64.7197C1287.08 65.4956 1287 66.2998 1286.7 67.0306L1287.16 67.2221ZM1285.5 69.2416L1285.78 69.6574C1286.6 69.1081 1287.25 68.3272 1287.62 67.4135L1287.16 67.2221L1286.7 67.0306C1286.4 67.7615 1285.89 68.3862 1285.23 68.8258L1285.5 69.2416ZM1283 62V62.5C1283.6 62.5 1284.18 62.676 1284.67 63.0057L1284.95 62.5899L1285.23 62.1741C1284.57 61.7346 1283.79 61.5 1283 61.5V62ZM1280.53 63.0251L1280.88 63.3788C1281.44 62.8161 1282.21 62.5 1283 62.5V62V61.5C1281.94 61.5 1280.92 61.9214 1280.17 62.6715L1280.53 63.0251ZM1279.5 65.5H1280C1280 64.7044 1280.32 63.9414 1280.88 63.3788L1280.53 63.0251L1280.17 62.6715C1279.42 63.4216 1279 64.439 1279 65.5H1279.5ZM1280.09 67.4445L1280.51 67.1666C1280.18 66.6733 1280 66.0933 1280 65.5H1279.5H1279C1279 66.2912 1279.24 67.0646 1279.68 67.7224L1280.09 67.4445ZM1281.66 68.7336L1281.85 68.2716C1281.31 68.0445 1280.84 67.6599 1280.51 67.1666L1280.09 67.4445L1279.68 67.7224C1280.12 68.3802 1280.74 68.8928 1281.47 69.1956L1281.66 68.7336ZM1283.69 68.9328L1283.59 68.4423C1283.01 68.5581 1282.4 68.4987 1281.85 68.2716L1281.66 68.7336L1281.47 69.1956C1282.2 69.4983 1283.01 69.5775 1283.78 69.4232L1283.69 68.9328ZM1285.48 67.9749L1285.13 67.6212C1284.71 68.0408 1284.17 68.3266 1283.59 68.4423L1283.69 68.9328L1283.78 69.4232C1284.56 69.2688 1285.27 68.8879 1285.83 68.3285L1285.48 67.9749ZM1286.44 66.1828L1285.95 66.0852C1285.83 66.6671 1285.55 67.2016 1285.13 67.6212L1285.48 67.9749L1285.83 68.3285C1286.39 67.7691 1286.77 67.0564 1286.93 66.2804L1286.44 66.1828ZM1286.24 64.1606L1285.78 64.352C1286 64.9002 1286.06 65.5033 1285.95 66.0852L1286.44 66.1828L1286.93 66.2804C1287.08 65.5044 1287 64.7001 1286.7 63.9692L1286.24 64.1606ZM1284.95 62.5899L1284.67 63.0057C1285.16 63.3353 1285.55 63.8039 1285.78 64.352L1286.24 64.1606L1286.7 63.9692C1286.4 63.2382 1285.88 62.6135 1285.23 62.1741L1284.95 62.5899ZM1288.9 74.17L1289.28 73.8473C1288.51 72.9368 1287.54 72.2129 1286.45 71.7302L1286.25 72.1873L1286.05 72.6445C1287 73.066 1287.84 73.698 1288.52 74.4927L1288.9 74.17ZM1289 74.5342L1289.5 74.5693C1289.52 74.321 1289.45 74.0745 1289.3 73.8739L1288.9 74.17L1288.49 74.4661C1288.5 74.4756 1288.5 74.4873 1288.5 74.499L1289 74.5342ZM1288.85 74.88L1289.2 75.2296C1289.38 75.0517 1289.48 74.8177 1289.5 74.5693L1289 74.5342L1288.5 74.499C1288.5 74.5108 1288.5 74.5219 1288.49 74.5304L1288.85 74.88ZM1288.55 75L1288.55 75.5C1288.79 75.4989 1289.02 75.4073 1289.19 75.2437L1288.85 74.88L1288.5 74.5163C1288.52 74.5059 1288.53 74.5001 1288.54 74.5L1288.55 75ZM1288.35 74.9538L1288.13 75.4036C1288.26 75.4649 1288.4 75.4978 1288.54 75.4999L1288.55 75L1288.55 74.5001C1288.56 74.5002 1288.57 74.5015 1288.57 74.504L1288.35 74.9538ZM1288.2 74.83L1287.81 75.1453C1287.9 75.2542 1288.01 75.3424 1288.13 75.4036L1288.35 74.9538L1288.57 74.504C1288.58 74.5066 1288.58 74.5102 1288.58 74.5147L1288.2 74.83ZM1285.86 73.0978L1285.66 73.556C1286.49 73.9189 1287.23 74.4655 1287.82 75.1546L1288.2 74.83L1288.58 74.5055C1287.89 73.7012 1287.03 73.0632 1286.06 72.6397L1285.86 73.0978ZM1283 72.56L1283.02 73.0596C1283.93 73.0233 1284.83 73.1931 1285.66 73.556L1285.86 73.0978L1286.06 72.6397C1285.09 72.2162 1284.04 72.0181 1282.98 72.0604L1283 72.56ZM1280.15 73.1374L1280.35 73.5955C1281.19 73.2308 1282.09 73.0482 1283 73.06L1283 72.56L1283.01 72.06C1281.96 72.0465 1280.91 72.2576 1279.95 72.6793L1280.15 73.1374ZM1277.79 74.84L1278.16 75.1746C1278.77 74.4985 1279.52 73.9602 1280.35 73.5955L1280.15 73.1374L1279.95 72.6793C1278.99 73.101 1278.12 73.7236 1277.42 74.5054L1277.79 74.84ZM1277.64 74.9496L1277.85 75.4044C1277.97 75.3491 1278.08 75.2683 1278.17 75.1675L1277.79 74.84L1277.41 74.5125C1277.42 74.5049 1277.43 74.4989 1277.44 74.4947L1277.64 74.9496ZM1277.47 74.9884V75.4884C1277.6 75.4884 1277.73 75.4598 1277.85 75.4044L1277.64 74.9496L1277.44 74.4947C1277.45 74.4906 1277.46 74.4884 1277.47 74.4884V74.9884ZM1277.29 74.9496L1277.08 75.4044C1277.2 75.4598 1277.33 75.4884 1277.47 75.4884V74.9884V74.4884C1277.48 74.4884 1277.49 74.4906 1277.49 74.4947L1277.29 74.9496ZM1277.14 74.84L1276.76 75.1675C1276.85 75.2683 1276.96 75.3491 1277.08 75.4044L1277.29 74.9496L1277.49 74.4947C1277.5 74.4989 1277.51 74.5049 1277.52 74.5125L1277.14 74.84ZM1277 74.485H1276.5C1276.5 74.7399 1276.6 74.9858 1276.77 75.175L1277.14 74.84L1277.51 74.505C1277.51 74.4995 1277.5 74.4923 1277.5 74.485H1277ZM1277.14 74.13L1276.77 73.795C1276.6 73.9842 1276.5 74.2301 1276.5 74.485H1277H1277.5C1277.5 74.4777 1277.51 74.4705 1277.51 74.465L1277.14 74.13ZM1279.8 72.2208L1279.6 71.7629C1278.52 72.2339 1277.56 72.9258 1276.77 73.7936L1277.14 74.13L1277.51 74.4664C1278.21 73.7025 1279.05 73.0934 1280 72.6788L1279.8 72.2208ZM1283 71.56L1283.01 71.06C1281.83 71.0524 1280.67 71.2919 1279.6 71.7629L1279.8 72.2208L1280 72.6788C1280.94 72.2641 1281.97 72.0533 1283 72.06L1283 71.56ZM1286.25 72.1873L1286.45 71.7302C1285.36 71.2474 1284.18 71.0184 1282.99 71.0603L1283 71.56L1283.02 72.0597C1284.06 72.0231 1285.1 72.223 1286.05 72.6445L1286.25 72.1873Z" fill="#162C55"/>
<path d="M1314.83 70.4072V72H1307.99V62.7168H1309.84V70.4072H1314.83ZM1315.48 68.7188C1315.48 66.7842 1316.98 65.3008 1318.99 65.3008C1321.01 65.3008 1322.5 66.7842 1322.5 68.7188C1322.5 70.6602 1321.01 72.1367 1318.99 72.1367C1316.98 72.1367 1315.48 70.6602 1315.48 68.7188ZM1317.23 68.7188C1317.23 69.7715 1317.96 70.5508 1318.99 70.5508C1320.02 70.5508 1320.75 69.7715 1320.75 68.7188C1320.75 67.6729 1320.02 66.8936 1318.99 66.8936C1317.96 66.8936 1317.23 67.6729 1317.23 68.7188ZM1326.61 72.1367C1324.75 72.1367 1323.43 70.6943 1323.43 68.7119C1323.43 66.7158 1324.75 65.3008 1326.61 65.3008C1327.66 65.3008 1328.33 65.6836 1328.77 66.2305L1328.81 65.4375H1330.49V71.7676C1330.49 73.8457 1328.72 74.8711 1326.67 74.8711C1325.6 74.8711 1324.63 74.6182 1324.06 74.3242L1324.26 72.8203C1324.76 73.0869 1325.72 73.3125 1326.56 73.3125C1327.66 73.3125 1328.74 72.8203 1328.74 71.7266V71.2617C1328.34 71.7881 1327.57 72.1367 1326.61 72.1367ZM1328.75 68.7051C1328.75 67.6592 1328 66.873 1326.97 66.873C1325.92 66.873 1325.19 67.6455 1325.19 68.7051C1325.19 69.7441 1325.92 70.5645 1326.97 70.5645C1328 70.5645 1328.75 69.7441 1328.75 68.7051ZM1337.27 72H1335.51V65.4375H1337.27V72ZM1336.39 64.3369C1335.79 64.3369 1335.38 63.9268 1335.38 63.332C1335.38 62.7373 1335.79 62.3203 1336.39 62.3203C1336.98 62.3203 1337.4 62.7305 1337.4 63.332C1337.4 63.9268 1336.98 64.3369 1336.39 64.3369ZM1342.66 65.3008C1344.17 65.3008 1345.25 66.2988 1345.25 67.8779V72H1343.49V68.3291C1343.49 67.4199 1342.9 66.9277 1342.14 66.9277C1341.36 66.9277 1340.68 67.4199 1340.68 68.3291V72H1338.93V65.4375H1340.6L1340.63 66.1963C1340.97 65.7383 1341.68 65.3008 1342.66 65.3008ZM1353.38 61.5479L1348.06 74.7344H1346.27L1351.58 61.5479H1353.38ZM1360.72 71.9932L1358.59 69.2656H1356.44V72H1354.6V62.7168H1358.91C1360.78 62.7168 1362.3 63.9062 1362.3 65.998C1362.3 67.3447 1361.54 68.4043 1360.48 68.917L1362.95 71.9932H1360.72ZM1358.69 64.3164H1356.44V67.6729H1358.69C1359.68 67.6729 1360.4 66.9961 1360.4 66.0049C1360.4 64.9248 1359.66 64.3164 1358.69 64.3164ZM1369.74 70.0996L1369.99 71.5215C1369.35 71.8838 1368.47 72.1367 1367.51 72.1367C1365.19 72.1367 1363.7 70.7627 1363.7 68.7188C1363.7 66.709 1365.12 65.3008 1367.07 65.3008C1369.08 65.3008 1370.62 66.8184 1370.18 69.2451H1365.44C1365.62 70.1611 1366.44 70.5986 1367.52 70.5986C1368.33 70.5986 1369.09 70.4072 1369.74 70.0996ZM1365.47 68.0693H1368.61C1368.56 67.3379 1368.01 66.7773 1367.11 66.7773C1366.17 66.7773 1365.54 67.3242 1365.47 68.0693ZM1374.38 72.1367C1372.52 72.1367 1371.2 70.6943 1371.2 68.7119C1371.2 66.7158 1372.52 65.3008 1374.38 65.3008C1375.43 65.3008 1376.1 65.6836 1376.54 66.2305L1376.58 65.4375H1378.26V71.7676C1378.26 73.8457 1376.49 74.8711 1374.44 74.8711C1373.37 74.8711 1372.4 74.6182 1371.83 74.3242L1372.03 72.8203C1372.53 73.0869 1373.49 73.3125 1374.33 73.3125C1375.43 73.3125 1376.51 72.8203 1376.51 71.7266V71.2617C1376.11 71.7881 1375.34 72.1367 1374.38 72.1367ZM1376.52 68.7051C1376.52 67.6592 1375.77 66.873 1374.74 66.873C1373.69 66.873 1372.96 67.6455 1372.96 68.7051C1372.96 69.7441 1373.69 70.5645 1374.74 70.5645C1375.77 70.5645 1376.52 69.7441 1376.52 68.7051ZM1381.68 72H1379.92V65.4375H1381.68V72ZM1380.79 64.3369C1380.2 64.3369 1379.79 63.9268 1379.79 63.332C1379.79 62.7373 1380.2 62.3203 1380.79 62.3203C1381.39 62.3203 1381.81 62.7305 1381.81 63.332C1381.81 63.9268 1381.39 64.3369 1380.79 64.3369ZM1385.74 67.9941L1386.44 68.124C1387.74 68.3633 1388.39 68.9512 1388.39 70.0859C1388.39 71.4053 1387.29 72.1367 1385.61 72.1367C1384.63 72.1367 1383.68 71.959 1383.08 71.665L1383.27 70.2295C1383.92 70.5029 1384.81 70.6875 1385.48 70.6875C1386.33 70.6875 1386.69 70.5098 1386.69 70.1201C1386.69 69.7715 1386.41 69.6006 1385.65 69.4639L1384.86 69.3135C1383.6 69.0947 1382.98 68.4521 1382.98 67.3652C1382.98 66.1416 1384.12 65.3008 1385.86 65.3008C1386.68 65.3008 1387.49 65.4512 1388.08 65.7109L1387.93 67.1396C1387.45 66.9346 1386.58 66.7705 1385.95 66.7705C1385.09 66.7705 1384.67 66.9756 1384.67 67.3652C1384.67 67.6865 1384.96 67.8506 1385.74 67.9941ZM1393.75 66.8936H1391.9V69.5938C1391.9 70.2773 1392.28 70.5781 1392.87 70.5781C1393.19 70.5781 1393.61 70.5234 1393.98 70.4209L1394.14 71.877C1393.74 72.0342 1393.09 72.1367 1392.56 72.1367C1391.12 72.1367 1390.15 71.3916 1390.15 69.8467V66.8936H1389.04V65.4375H1390.15V63.332H1391.85V65.4375H1393.75V66.8936ZM1400.82 70.0996L1401.06 71.5215C1400.43 71.8838 1399.54 72.1367 1398.59 72.1367C1396.26 72.1367 1394.77 70.7627 1394.77 68.7188C1394.77 66.709 1396.2 65.3008 1398.14 65.3008C1400.16 65.3008 1401.69 66.8184 1401.26 69.2451H1396.52C1396.69 70.1611 1397.51 70.5986 1398.59 70.5986C1399.41 70.5986 1400.17 70.4072 1400.82 70.0996ZM1396.54 68.0693H1399.69C1399.64 67.3379 1399.09 66.7773 1398.18 66.7773C1397.25 66.7773 1396.62 67.3242 1396.54 68.0693ZM1404.32 65.4375L1404.36 66.333C1404.69 65.6494 1405.33 65.3008 1406.07 65.3008C1406.46 65.3008 1406.78 65.4033 1406.92 65.4512L1406.78 67.0166C1406.61 66.9551 1406.32 66.8662 1405.97 66.8662C1405.2 66.8662 1404.38 67.2832 1404.38 68.6367V72H1402.63V65.4375H1404.32Z" fill="#162C55"/>
<rect x="16" y="96" width="1408" height="88" rx="44" fill="#FBF9F7"/>
<path d="M164.248 120C164.248 120 158.15 123.144 150.836 123.144C143.522 123.144 137.424 120 137.424 120C135.513 123.505 135.104 127.391 135.075 131.282C134.978 143.651 141.501 154.978 150.836 159.992C160.175 154.978 166.69 143.651 166.593 131.282C166.564 127.387 166.154 123.505 164.248 120Z" fill="#0095DA"/>
<path d="M162.552 158.06H162.824C163.015 158.06 163.161 158.036 163.238 157.987C163.319 157.943 163.356 157.858 163.356 157.744C163.356 157.634 163.323 157.545 163.242 157.517C163.169 157.464 163.043 157.444 162.857 157.444H162.544V158.06H162.552ZM162.349 157.281H163.039C163.214 157.281 163.347 157.322 163.453 157.407C163.554 157.476 163.603 157.582 163.603 157.728C163.603 157.983 163.453 158.142 163.149 158.194C163.266 158.267 163.356 158.344 163.408 158.421C163.461 158.494 163.55 158.681 163.672 158.965H163.42C163.266 158.632 163.153 158.425 163.063 158.348C162.978 158.267 162.84 158.219 162.65 158.219H162.552V158.965H162.349V157.281ZM164.617 158.105C164.617 157.655 164.459 157.257 164.139 156.945C163.818 156.616 163.433 156.454 162.986 156.454C162.536 156.454 162.155 156.612 161.834 156.945C161.514 157.257 161.36 157.655 161.36 158.105C161.36 158.555 161.514 158.941 161.834 159.273C162.155 159.594 162.532 159.756 162.986 159.756C163.433 159.756 163.818 159.594 164.139 159.273C164.459 158.945 164.617 158.555 164.617 158.105ZM161.116 158.105C161.116 157.59 161.295 157.139 161.668 156.766C162.029 156.405 162.467 156.223 162.982 156.223C163.498 156.223 163.936 156.405 164.301 156.766C164.666 157.139 164.853 157.59 164.853 158.105C164.853 158.624 164.67 159.075 164.301 159.44C163.936 159.805 163.498 160 162.982 160C162.467 160 162.029 159.809 161.668 159.44C161.295 159.075 161.116 158.624 161.116 158.105Z" fill="#0095DA"/>
<path d="M61.1278 158.877C60.8154 159.015 60.288 159.254 59.2819 159.254C57.3306 159.254 56 158.057 56 156.305C56 154.556 57.3266 153.359 59.2698 153.359C60.0365 153.359 60.7302 153.566 61.0548 153.72L60.9655 154.556C60.6572 154.41 60.0325 154.203 59.2698 154.203C57.8905 154.203 56.9533 155.055 56.9533 156.305C56.9533 157.558 57.9391 158.418 59.3793 158.418C60.0568 158.418 60.6613 158.228 60.998 158.037L61.1278 158.877Z" fill="black"/>
<path d="M68.4622 157.98H65.5737L65.1112 159.173H64.166L66.5271 153.44H67.4966L69.8658 159.173H68.9206L68.4622 157.98ZM65.8131 157.242H68.1944L67.0139 154.434L65.8131 157.242Z" fill="black"/>
<path d="M77.3182 159.173H73.1641V153.44H74.0525V158.365H77.3142V159.173H77.3182Z" fill="black"/>
<path d="M81.5533 159.173H80.6689V153.44H81.5533V159.173Z" fill="black"/>
<path d="M86.4459 159.173H85.5615V153.44H89.5494V154.248H86.4459V155.846H88.88V156.653H86.4459V159.173Z" fill="black"/>
<path d="M95.4319 153.359C97.1763 153.359 98.4663 154.609 98.4663 156.337C98.4663 158.053 97.1763 159.258 95.4319 159.258C93.7199 159.258 92.4258 158.057 92.4258 156.337C92.4258 154.605 93.7158 153.359 95.4319 153.359ZM95.4319 158.418C96.6935 158.418 97.5373 157.578 97.5373 156.329C97.5373 155.084 96.6935 154.199 95.4319 154.199C94.2027 154.199 93.3629 155.084 93.3629 156.329C93.3629 157.578 94.2027 158.418 95.4319 158.418Z" fill="black"/>
<path d="M104.592 157.416H103.014V159.173H102.13V153.44H104.726C105.801 153.44 106.726 154.069 106.726 155.44C106.726 156.357 106.219 156.998 105.521 157.27L107.091 159.165H106.008L104.592 157.416ZM103.014 154.248V156.621H104.56C105.246 156.621 105.801 156.179 105.801 155.453C105.801 154.649 105.246 154.252 104.56 154.252H103.014V154.248Z" fill="black"/>
<path d="M111.423 159.173H110.539V153.44H111.423L115.083 157.81V153.44H115.967V159.173H115.071L111.419 154.848V159.173H111.423Z" fill="black"/>
<path d="M120.864 159.173H119.979V153.44H120.864V159.173Z" fill="black"/>
<path d="M128.471 157.98H125.583L125.12 159.173H124.175L126.536 153.44H127.505L129.875 159.173H128.929L128.471 157.98ZM125.822 157.242H128.203L127.023 154.434L125.822 157.242Z" fill="black"/>
<path d="M56.1787 148.75V121.797H58.4749V133.915C59.8542 131.712 62.6087 129.992 66.0935 129.992C71.3957 129.992 75.3957 134.182 75.3957 139.582C75.3957 144.961 71.3957 149.136 66.0935 149.136C62.629 149.136 59.8704 147.452 58.4749 145.269V148.754H56.1787V148.75ZM73.1402 139.582C73.1402 135.351 70.057 132.097 65.9434 132.097C61.6189 132.097 58.3613 135.351 58.3613 139.582C58.3613 143.773 61.6148 147.03 65.9434 147.03C70.057 147.026 73.1402 143.773 73.1402 139.582Z" fill="black"/>
<path d="M80.8154 121.797H83.1116V148.75H80.8154V121.797Z" fill="black"/>
<path d="M103.883 130.373H106.142V141.286C106.142 145.862 103.043 149.136 97.8544 149.136C92.6658 149.136 89.5664 145.862 89.5664 141.403V130.377H91.826V140.925C91.826 144.982 94.2196 146.994 97.8544 146.994C101.489 146.994 103.883 144.986 103.883 140.925V130.373Z" fill="black"/>
<path d="M128.459 147.315C126.296 148.617 124 149.132 121.623 149.132C115.42 149.132 111.152 145.225 111.152 139.562C111.152 134.085 115.075 129.992 120.609 129.992C127.079 129.992 130.276 135.063 129.396 140.406H113.623C113.988 144.637 117.797 146.954 121.355 146.954C123.481 146.954 125.489 146.783 127.96 145.27L128.459 147.315ZM127.25 138.451C127.079 134.832 124.666 132.171 120.682 132.171C116.775 132.171 113.943 134.812 113.676 138.451H127.25Z" fill="black"/>
<path d="M56.1787 148.75V121.797H58.4749V133.915C59.8542 131.712 62.6087 129.992 66.0935 129.992C71.3957 129.992 75.3957 134.182 75.3957 139.582C75.3957 144.961 71.3957 149.136 66.0935 149.136C62.629 149.136 59.8704 147.452 58.4749 145.269V148.754H56.1787V148.75ZM73.1402 139.582C73.1402 135.351 70.057 132.097 65.9434 132.097C61.6189 132.097 58.3613 135.351 58.3613 139.582C58.3613 143.773 61.6148 147.03 65.9434 147.03C70.057 147.026 73.1402 143.773 73.1402 139.582Z" fill="black"/>
<path d="M80.8154 121.797H83.1116V148.75H80.8154V121.797Z" fill="black"/>
<path d="M103.883 130.373H106.142V141.286C106.142 145.862 103.043 149.136 97.8544 149.136C92.6658 149.136 89.5664 145.862 89.5664 141.403V130.377H91.826V140.925C91.826 144.982 94.2196 146.994 97.8544 146.994C101.489 146.994 103.883 144.986 103.883 140.925V130.373Z" fill="black"/>
<path d="M128.459 147.315C126.296 148.617 124 149.132 121.623 149.132C115.42 149.132 111.152 145.225 111.152 139.562C111.152 134.085 115.075 129.992 120.609 129.992C127.079 129.992 130.276 135.063 129.396 140.406H113.623C113.988 144.637 117.797 146.954 121.355 146.954C123.481 146.954 125.489 146.783 127.96 145.27L128.459 147.315ZM127.25 138.451C127.079 134.832 124.666 132.171 120.682 132.171C116.775 132.171 113.943 134.812 113.676 138.451H127.25Z" fill="black"/>
<path d="M182.594 120V160" stroke="#B8B9BB"/>
<path d="M206.908 141.896H206.557L201.775 136.341V146H200.334V134.064H201.758L206.724 140.015L211.672 134.064H213.078V146H211.637V136.323L206.908 141.896ZM224.539 137.562V146H223.142V144.611C222.509 145.517 221.401 146.176 219.89 146.176C217.473 146.176 215.636 144.295 215.636 141.755C215.636 139.224 217.473 137.387 219.89 137.387C221.401 137.387 222.509 138.037 223.142 138.942V137.562H224.539ZM220.03 138.652C218.272 138.652 217.024 140.015 217.024 141.755C217.024 143.504 218.272 144.91 220.03 144.91C221.832 144.91 223.159 143.504 223.159 141.755C223.159 140.015 221.832 138.652 220.03 138.652ZM228.863 137.562V138.811C229.338 137.835 230.173 137.387 231.14 137.387C231.737 137.387 232.177 137.536 232.335 137.606L232.194 138.898C231.957 138.811 231.632 138.688 231.087 138.688C229.962 138.688 228.863 139.426 228.863 141.315V146H227.457V137.562H228.863ZM234.154 146V133.625H235.552V141.034H237.354L239.621 137.562H241.177L238.443 141.676L241.616 146H239.981L237.266 142.238H235.552V146H234.154ZM250.379 144.084L250.625 145.35C249.641 145.921 248.577 146.176 247.443 146.176C244.604 146.176 242.645 144.383 242.645 141.781C242.645 139.268 244.455 137.387 246.986 137.387C249.843 137.387 251.46 139.698 251.003 142.291H244.104C244.341 143.952 245.747 144.866 247.382 144.866C248.366 144.866 249.245 144.699 250.379 144.084ZM244.139 141.148H249.729C249.632 139.707 248.639 138.688 247.03 138.688C245.439 138.688 244.271 139.707 244.139 141.148ZM257.929 138.767H255.239V143.328C255.239 144.436 255.837 144.919 256.698 144.919C257.155 144.919 257.735 144.831 258.14 144.682L258.324 145.886C257.964 146.044 257.234 146.176 256.549 146.176C254.923 146.176 253.842 145.279 253.842 143.557V138.767H252.286V137.562H253.851V134.855H255.23V137.562H257.929V138.767Z" fill="black"/>
<path d="M509.406 134.391V145H508.055L500.844 136.336V145H499.547V134.391H500.898L508.117 143.086V134.391H509.406ZM519.594 137.5V145H518.352V143.766C517.789 144.57 516.805 145.156 515.461 145.156C513.312 145.156 511.68 143.484 511.68 141.227C511.68 138.977 513.312 137.344 515.461 137.344C516.805 137.344 517.789 137.922 518.352 138.727V137.5H519.594ZM515.586 138.469C514.023 138.469 512.914 139.68 512.914 141.227C512.914 142.781 514.023 144.031 515.586 144.031C517.188 144.031 518.367 142.781 518.367 141.227C518.367 139.68 517.188 138.469 515.586 138.469ZM528.836 137.5L525.773 145H524.242L521.18 137.5H522.508L525.008 143.812L527.5 137.5H528.836ZM534.203 145V137.5H535.445V145H534.203ZM534.82 135.758C534.367 135.758 534.055 135.438 534.055 134.984C534.055 134.531 534.367 134.219 534.82 134.219C535.273 134.219 535.602 134.531 535.602 134.984C535.602 135.438 535.273 135.758 534.82 135.758ZM542.117 138.57H539.727V142.625C539.727 143.609 540.258 144.039 541.023 144.039C541.43 144.039 541.945 143.961 542.305 143.828L542.469 144.898C542.148 145.039 541.5 145.156 540.891 145.156C539.445 145.156 538.484 144.359 538.484 142.828V138.57H537.102V137.5H538.492V135.094H539.719V137.5H542.117V138.57ZM550.312 143.297L550.531 144.422C549.656 144.93 548.711 145.156 547.703 145.156C545.18 145.156 543.438 143.562 543.438 141.25C543.438 139.016 545.047 137.344 547.297 137.344C549.836 137.344 551.273 139.398 550.867 141.703H544.734C544.945 143.18 546.195 143.992 547.648 143.992C548.523 143.992 549.305 143.844 550.312 143.297ZM544.766 140.688H549.734C549.648 139.406 548.766 138.5 547.336 138.5C545.922 138.5 544.883 139.406 544.766 140.688ZM562.141 137.344C564.094 137.344 565.258 138.578 565.258 140.414V145H564.016V140.719C564.016 139.336 563.25 138.516 561.945 138.516C560.727 138.516 559.719 139.367 559.719 140.695V145H558.477V140.719C558.477 139.336 557.711 138.516 556.453 138.516C555.195 138.516 554.195 139.383 554.195 140.742V145H552.953V137.5H554.195V138.617C554.609 137.922 555.484 137.344 556.656 137.344C557.984 137.344 558.945 137.938 559.398 138.922C559.906 137.945 560.922 137.344 562.141 137.344Z" fill="#162C55"/>
<path d="M578.438 137.562L582.484 141.609L586.531 137.562" stroke="#162C55" stroke-linecap="square"/>
<path d="M640.406 134.391V145H639.055L631.844 136.336V145H630.547V134.391H631.898L639.117 143.086V134.391H640.406ZM650.594 137.5V145H649.352V143.766C648.789 144.57 647.805 145.156 646.461 145.156C644.312 145.156 642.68 143.484 642.68 141.227C642.68 138.977 644.312 137.344 646.461 137.344C647.805 137.344 648.789 137.922 649.352 138.727V137.5H650.594ZM646.586 138.469C645.023 138.469 643.914 139.68 643.914 141.227C643.914 142.781 645.023 144.031 646.586 144.031C648.188 144.031 649.367 142.781 649.367 141.227C649.367 139.68 648.188 138.469 646.586 138.469ZM659.836 137.5L656.773 145H655.242L652.18 137.5H653.508L656.008 143.812L658.5 137.5H659.836ZM665.203 145V137.5H666.445V145H665.203ZM665.82 135.758C665.367 135.758 665.055 135.438 665.055 134.984C665.055 134.531 665.367 134.219 665.82 134.219C666.273 134.219 666.602 134.531 666.602 134.984C666.602 135.438 666.273 135.758 665.82 135.758ZM673.117 138.57H670.727V142.625C670.727 143.609 671.258 144.039 672.023 144.039C672.43 144.039 672.945 143.961 673.305 143.828L673.469 144.898C673.148 145.039 672.5 145.156 671.891 145.156C670.445 145.156 669.484 144.359 669.484 142.828V138.57H668.102V137.5H669.492V135.094H670.719V137.5H673.117V138.57ZM681.312 143.297L681.531 144.422C680.656 144.93 679.711 145.156 678.703 145.156C676.18 145.156 674.438 143.562 674.438 141.25C674.438 139.016 676.047 137.344 678.297 137.344C680.836 137.344 682.273 139.398 681.867 141.703H675.734C675.945 143.18 677.195 143.992 678.648 143.992C679.523 143.992 680.305 143.844 681.312 143.297ZM675.766 140.688H680.734C680.648 139.406 679.766 138.5 678.336 138.5C676.922 138.5 675.883 139.406 675.766 140.688ZM693.141 137.344C695.094 137.344 696.258 138.578 696.258 140.414V145H695.016V140.719C695.016 139.336 694.25 138.516 692.945 138.516C691.727 138.516 690.719 139.367 690.719 140.695V145H689.477V140.719C689.477 139.336 688.711 138.516 687.453 138.516C686.195 138.516 685.195 139.383 685.195 140.742V145H683.953V137.5H685.195V138.617C685.609 137.922 686.484 137.344 687.656 137.344C688.984 137.344 689.945 137.938 690.398 138.922C690.906 137.945 691.922 137.344 693.141 137.344Z" fill="#162C55"/>
<path d="M709.438 137.562L713.484 141.609L717.531 137.562" stroke="#162C55" stroke-linecap="square"/>
<path d="M771.406 134.391V145H770.055L762.844 136.336V145H761.547V134.391H762.898L770.117 143.086V134.391H771.406ZM781.594 137.5V145H780.352V143.766C779.789 144.57 778.805 145.156 777.461 145.156C775.312 145.156 773.68 143.484 773.68 141.227C773.68 138.977 775.312 137.344 777.461 137.344C778.805 137.344 779.789 137.922 780.352 138.727V137.5H781.594ZM777.586 138.469C776.023 138.469 774.914 139.68 774.914 141.227C774.914 142.781 776.023 144.031 777.586 144.031C779.188 144.031 780.367 142.781 780.367 141.227C780.367 139.68 779.188 138.469 777.586 138.469ZM790.836 137.5L787.773 145H786.242L783.18 137.5H784.508L787.008 143.812L789.5 137.5H790.836ZM796.203 145V137.5H797.445V145H796.203ZM796.82 135.758C796.367 135.758 796.055 135.438 796.055 134.984C796.055 134.531 796.367 134.219 796.82 134.219C797.273 134.219 797.602 134.531 797.602 134.984C797.602 135.438 797.273 135.758 796.82 135.758ZM804.117 138.57H801.727V142.625C801.727 143.609 802.258 144.039 803.023 144.039C803.43 144.039 803.945 143.961 804.305 143.828L804.469 144.898C804.148 145.039 803.5 145.156 802.891 145.156C801.445 145.156 800.484 144.359 800.484 142.828V138.57H799.102V137.5H800.492V135.094H801.719V137.5H804.117V138.57ZM812.312 143.297L812.531 144.422C811.656 144.93 810.711 145.156 809.703 145.156C807.18 145.156 805.438 143.562 805.438 141.25C805.438 139.016 807.047 137.344 809.297 137.344C811.836 137.344 813.273 139.398 812.867 141.703H806.734C806.945 143.18 808.195 143.992 809.648 143.992C810.523 143.992 811.305 143.844 812.312 143.297ZM806.766 140.688H811.734C811.648 139.406 810.766 138.5 809.336 138.5C807.922 138.5 806.883 139.406 806.766 140.688ZM824.141 137.344C826.094 137.344 827.258 138.578 827.258 140.414V145H826.016V140.719C826.016 139.336 825.25 138.516 823.945 138.516C822.727 138.516 821.719 139.367 821.719 140.695V145H820.477V140.719C820.477 139.336 819.711 138.516 818.453 138.516C817.195 138.516 816.195 139.383 816.195 140.742V145H814.953V137.5H816.195V138.617C816.609 137.922 817.484 137.344 818.656 137.344C819.984 137.344 820.945 137.938 821.398 138.922C821.906 137.945 822.922 137.344 824.141 137.344Z" fill="#162C55"/>
<path d="M840.438 137.562L844.484 141.609L848.531 137.562" stroke="#162C55" stroke-linecap="square"/>
<path d="M902.406 134.391V145H901.055L893.844 136.336V145H892.547V134.391H893.898L901.117 143.086V134.391H902.406ZM912.594 137.5V145H911.352V143.766C910.789 144.57 909.805 145.156 908.461 145.156C906.312 145.156 904.68 143.484 904.68 141.227C904.68 138.977 906.312 137.344 908.461 137.344C909.805 137.344 910.789 137.922 911.352 138.727V137.5H912.594ZM908.586 138.469C907.023 138.469 905.914 139.68 905.914 141.227C905.914 142.781 907.023 144.031 908.586 144.031C910.188 144.031 911.367 142.781 911.367 141.227C911.367 139.68 910.188 138.469 908.586 138.469ZM921.836 137.5L918.773 145H917.242L914.18 137.5H915.508L918.008 143.812L920.5 137.5H921.836ZM927.203 145V137.5H928.445V145H927.203ZM927.82 135.758C927.367 135.758 927.055 135.438 927.055 134.984C927.055 134.531 927.367 134.219 927.82 134.219C928.273 134.219 928.602 134.531 928.602 134.984C928.602 135.438 928.273 135.758 927.82 135.758ZM935.117 138.57H932.727V142.625C932.727 143.609 933.258 144.039 934.023 144.039C934.43 144.039 934.945 143.961 935.305 143.828L935.469 144.898C935.148 145.039 934.5 145.156 933.891 145.156C932.445 145.156 931.484 144.359 931.484 142.828V138.57H930.102V137.5H931.492V135.094H932.719V137.5H935.117V138.57ZM943.312 143.297L943.531 144.422C942.656 144.93 941.711 145.156 940.703 145.156C938.18 145.156 936.438 143.562 936.438 141.25C936.438 139.016 938.047 137.344 940.297 137.344C942.836 137.344 944.273 139.398 943.867 141.703H937.734C937.945 143.18 939.195 143.992 940.648 143.992C941.523 143.992 942.305 143.844 943.312 143.297ZM937.766 140.688H942.734C942.648 139.406 941.766 138.5 940.336 138.5C938.922 138.5 937.883 139.406 937.766 140.688ZM955.141 137.344C957.094 137.344 958.258 138.578 958.258 140.414V145H957.016V140.719C957.016 139.336 956.25 138.516 954.945 138.516C953.727 138.516 952.719 139.367 952.719 140.695V145H951.477V140.719C951.477 139.336 950.711 138.516 949.453 138.516C948.195 138.516 947.195 139.383 947.195 140.742V145H945.953V137.5H947.195V138.617C947.609 137.922 948.484 137.344 949.656 137.344C950.984 137.344 951.945 137.938 952.398 138.922C952.906 137.945 953.922 137.344 955.141 137.344Z" fill="#162C55"/>
<path d="M971.438 137.562L975.484 141.609L979.531 137.562" stroke="#162C55" stroke-linecap="square"/>
<path d="M1033.41 134.391V145H1032.05L1024.84 136.336V145H1023.55V134.391H1024.9L1032.12 143.086V134.391H1033.41ZM1043.59 137.5V145H1042.35V143.766C1041.79 144.57 1040.8 145.156 1039.46 145.156C1037.31 145.156 1035.68 143.484 1035.68 141.227C1035.68 138.977 1037.31 137.344 1039.46 137.344C1040.8 137.344 1041.79 137.922 1042.35 138.727V137.5H1043.59ZM1039.59 138.469C1038.02 138.469 1036.91 139.68 1036.91 141.227C1036.91 142.781 1038.02 144.031 1039.59 144.031C1041.19 144.031 1042.37 142.781 1042.37 141.227C1042.37 139.68 1041.19 138.469 1039.59 138.469ZM1052.84 137.5L1049.77 145H1048.24L1045.18 137.5H1046.51L1049.01 143.812L1051.5 137.5H1052.84ZM1058.2 145V137.5H1059.45V145H1058.2ZM1058.82 135.758C1058.37 135.758 1058.05 135.438 1058.05 134.984C1058.05 134.531 1058.37 134.219 1058.82 134.219C1059.27 134.219 1059.6 134.531 1059.6 134.984C1059.6 135.438 1059.27 135.758 1058.82 135.758ZM1066.12 138.57H1063.73V142.625C1063.73 143.609 1064.26 144.039 1065.02 144.039C1065.43 144.039 1065.95 143.961 1066.3 143.828L1066.47 144.898C1066.15 145.039 1065.5 145.156 1064.89 145.156C1063.45 145.156 1062.48 144.359 1062.48 142.828V138.57H1061.1V137.5H1062.49V135.094H1063.72V137.5H1066.12V138.57ZM1074.31 143.297L1074.53 144.422C1073.66 144.93 1072.71 145.156 1071.7 145.156C1069.18 145.156 1067.44 143.562 1067.44 141.25C1067.44 139.016 1069.05 137.344 1071.3 137.344C1073.84 137.344 1075.27 139.398 1074.87 141.703H1068.73C1068.95 143.18 1070.2 143.992 1071.65 143.992C1072.52 143.992 1073.3 143.844 1074.31 143.297ZM1068.77 140.688H1073.73C1073.65 139.406 1072.77 138.5 1071.34 138.5C1069.92 138.5 1068.88 139.406 1068.77 140.688ZM1086.14 137.344C1088.09 137.344 1089.26 138.578 1089.26 140.414V145H1088.02V140.719C1088.02 139.336 1087.25 138.516 1085.95 138.516C1084.73 138.516 1083.72 139.367 1083.72 140.695V145H1082.48V140.719C1082.48 139.336 1081.71 138.516 1080.45 138.516C1079.2 138.516 1078.2 139.383 1078.2 140.742V145H1076.95V137.5H1078.2V138.617C1078.61 137.922 1079.48 137.344 1080.66 137.344C1081.98 137.344 1082.95 137.938 1083.4 138.922C1083.91 137.945 1084.92 137.344 1086.14 137.344Z" fill="#162C55"/>
<path d="M1102.44 137.562L1106.48 141.609L1110.53 137.562" stroke="#162C55" stroke-linecap="square"/>
<path d="M1164.41 134.391V145H1163.05L1155.84 136.336V145H1154.55V134.391H1155.9L1163.12 143.086V134.391H1164.41ZM1174.59 137.5V145H1173.35V143.766C1172.79 144.57 1171.8 145.156 1170.46 145.156C1168.31 145.156 1166.68 143.484 1166.68 141.227C1166.68 138.977 1168.31 137.344 1170.46 137.344C1171.8 137.344 1172.79 137.922 1173.35 138.727V137.5H1174.59ZM1170.59 138.469C1169.02 138.469 1167.91 139.68 1167.91 141.227C1167.91 142.781 1169.02 144.031 1170.59 144.031C1172.19 144.031 1173.37 142.781 1173.37 141.227C1173.37 139.68 1172.19 138.469 1170.59 138.469ZM1183.84 137.5L1180.77 145H1179.24L1176.18 137.5H1177.51L1180.01 143.812L1182.5 137.5H1183.84ZM1189.2 145V137.5H1190.45V145H1189.2ZM1189.82 135.758C1189.37 135.758 1189.05 135.438 1189.05 134.984C1189.05 134.531 1189.37 134.219 1189.82 134.219C1190.27 134.219 1190.6 134.531 1190.6 134.984C1190.6 135.438 1190.27 135.758 1189.82 135.758ZM1197.12 138.57H1194.73V142.625C1194.73 143.609 1195.26 144.039 1196.02 144.039C1196.43 144.039 1196.95 143.961 1197.3 143.828L1197.47 144.898C1197.15 145.039 1196.5 145.156 1195.89 145.156C1194.45 145.156 1193.48 144.359 1193.48 142.828V138.57H1192.1V137.5H1193.49V135.094H1194.72V137.5H1197.12V138.57ZM1205.31 143.297L1205.53 144.422C1204.66 144.93 1203.71 145.156 1202.7 145.156C1200.18 145.156 1198.44 143.562 1198.44 141.25C1198.44 139.016 1200.05 137.344 1202.3 137.344C1204.84 137.344 1206.27 139.398 1205.87 141.703H1199.73C1199.95 143.18 1201.2 143.992 1202.65 143.992C1203.52 143.992 1204.3 143.844 1205.31 143.297ZM1199.77 140.688H1204.73C1204.65 139.406 1203.77 138.5 1202.34 138.5C1200.92 138.5 1199.88 139.406 1199.77 140.688ZM1217.14 137.344C1219.09 137.344 1220.26 138.578 1220.26 140.414V145H1219.02V140.719C1219.02 139.336 1218.25 138.516 1216.95 138.516C1215.73 138.516 1214.72 139.367 1214.72 140.695V145H1213.48V140.719C1213.48 139.336 1212.71 138.516 1211.45 138.516C1210.2 138.516 1209.2 139.383 1209.2 140.742V145H1207.95V137.5H1209.2V138.617C1209.61 137.922 1210.48 137.344 1211.66 137.344C1212.98 137.344 1213.95 137.938 1214.4 138.922C1214.91 137.945 1215.92 137.344 1217.14 137.344Z" fill="#162C55"/>
<path d="M1233.44 137.562L1237.48 141.609L1241.53 137.562" stroke="#162C55" stroke-linecap="square"/>
<rect x="1277" y="121" width="114" height="38" rx="19" fill="white"/>
<rect x="1277" y="121" width="114" height="38" rx="19" stroke="#162C55" stroke-width="2"/>
<path d="M1306.85 146.196L1302.89 142.185C1303.81 141.08 1304.27 139.661 1304.18 138.223C1304.08 136.785 1303.43 135.44 1302.37 134.467C1301.31 133.494 1299.91 132.969 1298.47 133.001C1297.03 133.033 1295.66 133.62 1294.64 134.639C1293.62 135.658 1293.03 137.03 1293 138.471C1292.97 139.912 1293.49 141.309 1294.47 142.372C1295.44 143.435 1296.78 144.082 1298.22 144.178C1299.66 144.274 1301.08 143.812 1302.18 142.887V142.887L1306.19 146.848C1306.24 146.896 1306.29 146.934 1306.35 146.96C1306.41 146.987 1306.48 147 1306.55 147C1306.61 147 1306.68 146.987 1306.74 146.96C1306.8 146.934 1306.85 146.896 1306.9 146.848C1306.97 146.753 1307.01 146.633 1307 146.512C1306.99 146.392 1306.93 146.279 1306.85 146.196ZM1298.55 143.188C1297.64 143.188 1296.75 142.918 1296 142.412C1295.24 141.905 1294.65 141.186 1294.3 140.344C1293.95 139.503 1293.86 138.577 1294.04 137.684C1294.22 136.791 1294.66 135.971 1295.3 135.327C1295.95 134.684 1296.77 134.246 1297.66 134.07C1298.56 133.894 1299.48 133.986 1300.32 134.336C1301.16 134.686 1301.88 135.277 1302.39 136.036C1302.89 136.794 1303.16 137.685 1303.16 138.595C1303.16 139.817 1302.67 140.989 1301.81 141.854C1300.95 142.718 1299.78 143.205 1298.55 143.208V143.188Z" fill="#162C55"/>
<path d="M1322.15 140.477L1320.36 139.914C1318.94 139.469 1317.73 138.773 1317.73 137.266C1317.73 135.406 1319.14 134.234 1321.52 134.234C1322.73 134.234 1323.78 134.477 1324.64 134.812L1324.51 136.008C1323.68 135.625 1322.56 135.406 1321.62 135.406C1320.07 135.406 1319.1 136.016 1319.1 137.148C1319.1 138.258 1320.03 138.508 1320.96 138.812L1322.62 139.344C1324.36 139.914 1325.17 140.672 1325.17 142.117C1325.17 143.938 1323.68 145.156 1321.35 145.156C1320.1 145.156 1318.63 144.867 1317.71 144.43L1317.84 143.211C1318.74 143.641 1320.14 143.977 1321.25 143.977C1322.8 143.977 1323.83 143.312 1323.83 142.156C1323.83 141.305 1323.36 140.859 1322.15 140.477ZM1333.45 143.297L1333.67 144.422C1332.8 144.93 1331.85 145.156 1330.84 145.156C1328.32 145.156 1326.58 143.562 1326.58 141.25C1326.58 139.016 1328.19 137.344 1330.44 137.344C1332.98 137.344 1334.41 139.398 1334.01 141.703H1327.88C1328.09 143.18 1329.34 143.992 1330.79 143.992C1331.66 143.992 1332.45 143.844 1333.45 143.297ZM1327.91 140.688H1332.88C1332.79 139.406 1331.91 138.5 1330.48 138.5C1329.06 138.5 1328.02 139.406 1327.91 140.688ZM1343.44 137.5V145H1342.2V143.766C1341.63 144.57 1340.65 145.156 1339.3 145.156C1337.16 145.156 1335.52 143.484 1335.52 141.227C1335.52 138.977 1337.16 137.344 1339.3 137.344C1340.65 137.344 1341.63 137.922 1342.2 138.727V137.5H1343.44ZM1339.43 138.469C1337.87 138.469 1336.76 139.68 1336.76 141.227C1336.76 142.781 1337.87 144.031 1339.43 144.031C1341.03 144.031 1342.21 142.781 1342.21 141.227C1342.21 139.68 1341.03 138.469 1339.43 138.469ZM1347.28 137.5V138.609C1347.7 137.742 1348.45 137.344 1349.3 137.344C1349.84 137.344 1350.23 137.477 1350.37 137.539L1350.24 138.688C1350.03 138.609 1349.74 138.5 1349.26 138.5C1348.26 138.5 1347.28 139.156 1347.28 140.836V145H1346.03V137.5H1347.28ZM1351.41 141.227C1351.41 138.922 1353.12 137.344 1355.62 137.344C1356.64 137.344 1357.51 137.641 1357.88 137.844L1357.74 138.961C1357.24 138.719 1356.49 138.508 1355.62 138.508C1353.87 138.508 1352.66 139.609 1352.66 141.227C1352.66 142.859 1353.88 143.992 1355.64 143.992C1356.4 143.992 1357.25 143.797 1357.8 143.516L1358.01 144.648C1357.34 144.945 1356.47 145.156 1355.64 145.156C1353.12 145.156 1351.41 143.562 1351.41 141.227ZM1363.65 137.344C1365.61 137.344 1366.8 138.508 1366.8 140.438V145H1365.56V140.742C1365.56 139.281 1364.8 138.516 1363.45 138.516C1362.17 138.516 1361.13 139.398 1361.13 140.766V145H1359.89V134H1361.14V138.625C1361.56 137.93 1362.45 137.344 1363.65 137.344Z" fill="#707275"/>
<path d="M39.4839 205V201.058H34.3042V205H33.2568V196.38H34.3042V200.106H39.4839V196.38H40.5312V205H39.4839ZM42.3657 201.953C42.3657 200.169 43.7495 198.779 45.603 198.779C47.4565 198.779 48.8403 200.169 48.8403 201.953C48.8403 203.737 47.4565 205.127 45.603 205.127C43.7495 205.127 42.3657 203.737 42.3657 201.953ZM43.375 201.953C43.375 203.21 44.3208 204.188 45.603 204.188C46.8853 204.188 47.8311 203.21 47.8311 201.953C47.8311 200.696 46.8853 199.719 45.603 199.719C44.3208 199.719 43.375 200.696 43.375 201.953ZM57.9365 198.779C59.5234 198.779 60.4692 199.782 60.4692 201.274V205H59.46V201.521C59.46 200.398 58.8379 199.731 57.7778 199.731C56.7876 199.731 55.9688 200.423 55.9688 201.502V205H54.9595V201.521C54.9595 200.398 54.3374 199.731 53.3154 199.731C52.2935 199.731 51.481 200.436 51.481 201.541V205H50.4717V198.906H51.481V199.814C51.8174 199.249 52.5283 198.779 53.4805 198.779C54.5596 198.779 55.3403 199.262 55.7085 200.062C56.1211 199.268 56.9463 198.779 57.9365 198.779ZM67.6104 203.616L67.7881 204.53C67.0771 204.943 66.3091 205.127 65.4902 205.127C63.4399 205.127 62.0244 203.832 62.0244 201.953C62.0244 200.138 63.332 198.779 65.1602 198.779C67.2231 198.779 68.3911 200.449 68.061 202.321H63.0781C63.2495 203.521 64.2651 204.181 65.4458 204.181C66.1567 204.181 66.7915 204.061 67.6104 203.616ZM63.1035 201.496H67.1406C67.0708 200.455 66.3535 199.719 65.1919 199.719C64.043 199.719 63.1987 200.455 63.1035 201.496Z" fill="#707275"/>
<path d="M79.532 204.502C79.4327 204.503 79.3355 204.474 79.2527 204.419C79.17 204.364 79.1054 204.286 79.0674 204.194C79.0293 204.102 79.0194 204.001 79.0389 203.904C79.0584 203.806 79.1065 203.717 79.177 203.647L81.807 201.002L79.147 198.357C79.1004 198.31 79.0634 198.255 79.0382 198.194C79.013 198.133 79 198.068 79 198.002C79 197.869 79.0529 197.741 79.147 197.647C79.2412 197.553 79.3689 197.5 79.502 197.5C79.6352 197.5 79.7629 197.553 79.857 197.647L83.222 201.002L79.882 204.357C79.7889 204.449 79.6632 204.501 79.532 204.502Z" fill="#94989E"/>
<path d="M100.097 202.594C100.097 201.699 99.5254 201.045 98.4399 201.045H95.3042V204.061H98.4399C99.3984 204.061 100.097 203.546 100.097 202.594ZM95.3042 197.313V200.163H97.9448C98.897 200.163 99.5635 199.617 99.5635 198.76C99.5635 197.878 98.9478 197.313 97.9258 197.313H95.3042ZM94.2568 205V196.38H97.9766C99.5635 196.38 100.636 197.288 100.636 198.754C100.636 199.433 100.344 200.062 99.6396 200.461C100.592 200.779 101.169 201.528 101.169 202.588C101.169 203.934 100.211 205 98.3574 205H94.2568ZM103.893 198.906V199.808C104.235 199.103 104.838 198.779 105.537 198.779C105.968 198.779 106.286 198.887 106.4 198.938L106.298 199.871C106.127 199.808 105.892 199.719 105.499 199.719C104.686 199.719 103.893 200.252 103.893 201.617V205H102.877V198.906H103.893ZM112.83 203.616L113.008 204.53C112.297 204.943 111.529 205.127 110.71 205.127C108.66 205.127 107.244 203.832 107.244 201.953C107.244 200.138 108.552 198.779 110.38 198.779C112.443 198.779 113.611 200.449 113.281 202.321H108.298C108.469 203.521 109.485 204.181 110.666 204.181C111.376 204.181 112.011 204.061 112.83 203.616ZM108.323 201.496H112.36C112.291 200.455 111.573 199.719 110.412 199.719C109.263 199.719 108.418 200.455 108.323 201.496ZM120.942 198.906V205H119.933V203.997C119.476 204.651 118.676 205.127 117.584 205.127C115.839 205.127 114.512 203.769 114.512 201.934C114.512 200.106 115.839 198.779 117.584 198.779C118.676 198.779 119.476 199.249 119.933 199.903V198.906H120.942ZM117.686 199.693C116.417 199.693 115.515 200.677 115.515 201.934C115.515 203.197 116.417 204.213 117.686 204.213C118.987 204.213 119.946 203.197 119.946 201.934C119.946 200.677 118.987 199.693 117.686 199.693ZM128.007 205V204.01C127.55 204.657 126.75 205.127 125.659 205.127C123.913 205.127 122.586 203.769 122.586 201.94C122.586 200.112 123.913 198.779 125.659 198.779C126.75 198.779 127.55 199.255 128.007 199.909V196.062H129.017V205H128.007ZM125.76 204.213C127.062 204.213 128.02 203.197 128.02 201.94C128.02 200.677 127.062 199.693 125.76 199.693C124.491 199.693 123.589 200.677 123.589 201.94C123.589 203.197 124.491 204.213 125.76 204.213ZM130.654 201.934C130.654 200.062 132.044 198.779 134.082 198.779C134.907 198.779 135.612 199.021 135.91 199.186L135.802 200.093C135.396 199.896 134.787 199.725 134.082 199.725C132.654 199.725 131.676 200.62 131.676 201.934C131.676 203.261 132.66 204.181 134.095 204.181C134.71 204.181 135.402 204.022 135.853 203.794L136.018 204.714C135.479 204.956 134.768 205.127 134.095 205.127C132.051 205.127 130.654 203.832 130.654 201.934ZM138.563 198.906V199.808C138.906 199.103 139.509 198.779 140.208 198.779C140.639 198.779 140.957 198.887 141.071 198.938L140.969 199.871C140.798 199.808 140.563 199.719 140.169 199.719C139.357 199.719 138.563 200.252 138.563 201.617V205H137.548V198.906H138.563ZM146.822 202.378V198.906H147.818V202.524C147.818 204.054 146.739 205.127 145.057 205.127C143.375 205.127 142.296 204.067 142.296 202.562V198.906H143.299V202.378C143.299 203.521 144.003 204.181 145.057 204.181C146.117 204.181 146.822 203.521 146.822 202.378ZM157.302 198.779C158.889 198.779 159.834 199.782 159.834 201.274V205H158.825V201.521C158.825 200.398 158.203 199.731 157.143 199.731C156.153 199.731 155.334 200.423 155.334 201.502V205H154.325V201.521C154.325 200.398 153.703 199.731 152.681 199.731C151.659 199.731 150.846 200.436 150.846 201.541V205H149.837V198.906H150.846V199.814C151.183 199.249 151.894 198.779 152.846 198.779C153.925 198.779 154.706 199.262 155.074 200.062C155.486 199.268 156.312 198.779 157.302 198.779ZM162.869 205H161.859V196.062H162.869V199.909C163.326 199.255 164.125 198.779 165.217 198.779C166.963 198.779 168.29 200.112 168.29 201.94C168.29 203.769 166.963 205.127 165.217 205.127C164.125 205.127 163.326 204.657 162.869 204.01V205ZM165.116 204.213C166.385 204.213 167.287 203.197 167.287 201.94C167.287 200.677 166.385 199.693 165.116 199.693C163.814 199.693 162.856 200.677 162.856 201.94C162.856 203.197 163.814 204.213 165.116 204.213ZM173.952 204.048H178.249V204.994H172.568V204.08L175.266 201.452C176.332 200.411 176.757 199.738 176.757 198.875C176.757 197.688 175.9 197.23 174.885 197.23C174.174 197.23 173.368 197.484 172.803 197.865L172.638 196.919C173.355 196.494 174.244 196.259 175.05 196.259C176.567 196.259 177.887 197.027 177.887 198.855C177.887 200.068 177.094 201.045 176.008 202.074L173.952 204.048Z" fill="#707275"/>
<path d="M189.532 204.502C189.433 204.503 189.335 204.474 189.253 204.419C189.17 204.364 189.105 204.286 189.067 204.194C189.029 204.102 189.019 204.001 189.039 203.904C189.058 203.806 189.107 203.717 189.177 203.647L191.807 201.002L189.147 198.357C189.1 198.31 189.063 198.255 189.038 198.194C189.013 198.133 189 198.068 189 198.002C189 197.869 189.053 197.741 189.147 197.647C189.241 197.553 189.369 197.5 189.502 197.5C189.635 197.5 189.763 197.553 189.857 197.647L193.222 201.002L189.882 204.357C189.789 204.449 189.663 204.501 189.532 204.502Z" fill="#94989E"/>
<path d="M210.097 202.594C210.097 201.699 209.525 201.045 208.44 201.045H205.304V204.061H208.44C209.398 204.061 210.097 203.546 210.097 202.594ZM205.304 197.313V200.163H207.945C208.897 200.163 209.563 199.617 209.563 198.76C209.563 197.878 208.948 197.313 207.926 197.313H205.304ZM204.257 205V196.38H207.977C209.563 196.38 210.636 197.288 210.636 198.754C210.636 199.433 210.344 200.062 209.64 200.461C210.592 200.779 211.169 201.528 211.169 202.588C211.169 203.934 210.211 205 208.357 205H204.257ZM213.893 198.906V199.808C214.235 199.103 214.838 198.779 215.537 198.779C215.968 198.779 216.286 198.887 216.4 198.938L216.298 199.871C216.127 199.808 215.892 199.719 215.499 199.719C214.686 199.719 213.893 200.252 213.893 201.617V205H212.877V198.906H213.893ZM222.83 203.616L223.008 204.53C222.297 204.943 221.529 205.127 220.71 205.127C218.66 205.127 217.244 203.832 217.244 201.953C217.244 200.138 218.552 198.779 220.38 198.779C222.443 198.779 223.611 200.449 223.281 202.321H218.298C218.469 203.521 219.485 204.181 220.666 204.181C221.376 204.181 222.011 204.061 222.83 203.616ZM218.323 201.496H222.36C222.291 200.455 221.573 199.719 220.412 199.719C219.263 199.719 218.418 200.455 218.323 201.496ZM230.942 198.906V205H229.933V203.997C229.476 204.651 228.676 205.127 227.584 205.127C225.839 205.127 224.512 203.769 224.512 201.934C224.512 200.106 225.839 198.779 227.584 198.779C228.676 198.779 229.476 199.249 229.933 199.903V198.906H230.942ZM227.686 199.693C226.417 199.693 225.515 200.677 225.515 201.934C225.515 203.197 226.417 204.213 227.686 204.213C228.987 204.213 229.946 203.197 229.946 201.934C229.946 200.677 228.987 199.693 227.686 199.693ZM238.007 205V204.01C237.55 204.657 236.75 205.127 235.659 205.127C233.913 205.127 232.586 203.769 232.586 201.94C232.586 200.112 233.913 198.779 235.659 198.779C236.75 198.779 237.55 199.255 238.007 199.909V196.062H239.017V205H238.007ZM235.76 204.213C237.062 204.213 238.02 203.197 238.02 201.94C238.02 200.677 237.062 199.693 235.76 199.693C234.491 199.693 233.589 200.677 233.589 201.94C233.589 203.197 234.491 204.213 235.76 204.213ZM240.654 201.934C240.654 200.062 242.044 198.779 244.082 198.779C244.907 198.779 245.612 199.021 245.91 199.186L245.802 200.093C245.396 199.896 244.787 199.725 244.082 199.725C242.654 199.725 241.676 200.62 241.676 201.934C241.676 203.261 242.66 204.181 244.095 204.181C244.71 204.181 245.402 204.022 245.853 203.794L246.018 204.714C245.479 204.956 244.768 205.127 244.095 205.127C242.051 205.127 240.654 203.832 240.654 201.934ZM248.563 198.906V199.808C248.906 199.103 249.509 198.779 250.208 198.779C250.639 198.779 250.957 198.887 251.071 198.938L250.969 199.871C250.798 199.808 250.563 199.719 250.169 199.719C249.357 199.719 248.563 200.252 248.563 201.617V205H247.548V198.906H248.563ZM256.822 202.378V198.906H257.818V202.524C257.818 204.054 256.739 205.127 255.057 205.127C253.375 205.127 252.296 204.067 252.296 202.562V198.906H253.299V202.378C253.299 203.521 254.003 204.181 255.057 204.181C256.117 204.181 256.822 203.521 256.822 202.378ZM267.302 198.779C268.889 198.779 269.834 199.782 269.834 201.274V205H268.825V201.521C268.825 200.398 268.203 199.731 267.143 199.731C266.153 199.731 265.334 200.423 265.334 201.502V205H264.325V201.521C264.325 200.398 263.703 199.731 262.681 199.731C261.659 199.731 260.846 200.436 260.846 201.541V205H259.837V198.906H260.846V199.814C261.183 199.249 261.894 198.779 262.846 198.779C263.925 198.779 264.706 199.262 265.074 200.062C265.486 199.268 266.312 198.779 267.302 198.779ZM272.869 205H271.859V196.062H272.869V199.909C273.326 199.255 274.125 198.779 275.217 198.779C276.963 198.779 278.29 200.112 278.29 201.94C278.29 203.769 276.963 205.127 275.217 205.127C274.125 205.127 273.326 204.657 272.869 204.01V205ZM275.116 204.213C276.385 204.213 277.287 203.197 277.287 201.94C277.287 200.677 276.385 199.693 275.116 199.693C273.814 199.693 272.856 200.677 272.856 201.94C272.856 203.197 273.814 204.213 275.116 204.213ZM283.85 200.163L286.637 197.338H282.904V196.38H288.052V197.237L285.31 199.954C285.367 199.947 285.418 199.947 285.475 199.947C286.903 199.947 288.604 200.703 288.604 202.455C288.604 204.194 287.227 205.14 285.164 205.14C284.174 205.14 283.228 204.949 282.473 204.524L282.625 203.546C283.457 203.965 284.263 204.149 285.056 204.149C286.611 204.149 287.487 203.527 287.487 202.537C287.487 201.401 286.478 200.817 285.12 200.817C284.688 200.817 284.25 200.88 283.85 200.988V200.163Z" fill="#707275"/>
<path d="M300.532 204.502C300.433 204.503 300.335 204.474 300.253 204.419C300.17 204.364 300.105 204.286 300.067 204.194C300.029 204.102 300.019 204.001 300.039 203.904C300.058 203.806 300.107 203.717 300.177 203.647L302.807 201.002L300.147 198.357C300.1 198.31 300.063 198.255 300.038 198.194C300.013 198.133 300 198.068 300 198.002C300 197.869 300.053 197.741 300.147 197.647C300.241 197.553 300.369 197.5 300.502 197.5C300.635 197.5 300.763 197.553 300.857 197.647L304.222 201.002L300.882 204.357C300.789 204.449 300.663 204.501 300.532 204.502Z" fill="#94989E"/>
<path d="M321.097 202.594C321.097 201.699 320.525 201.045 319.44 201.045H316.304V204.061H319.44C320.398 204.061 321.097 203.546 321.097 202.594ZM316.304 197.313V200.163H318.945C319.897 200.163 320.563 199.617 320.563 198.76C320.563 197.878 319.948 197.313 318.926 197.313H316.304ZM315.257 205V196.38H318.977C320.563 196.38 321.636 197.288 321.636 198.754C321.636 199.433 321.344 200.062 320.64 200.461C321.592 200.779 322.169 201.528 322.169 202.588C322.169 203.934 321.211 205 319.357 205H315.257ZM324.893 198.906V199.808C325.235 199.103 325.838 198.779 326.537 198.779C326.968 198.779 327.286 198.887 327.4 198.938L327.298 199.871C327.127 199.808 326.892 199.719 326.499 199.719C325.686 199.719 324.893 200.252 324.893 201.617V205H323.877V198.906H324.893ZM333.83 203.616L334.008 204.53C333.297 204.943 332.529 205.127 331.71 205.127C329.66 205.127 328.244 203.832 328.244 201.953C328.244 200.138 329.552 198.779 331.38 198.779C333.443 198.779 334.611 200.449 334.281 202.321H329.298C329.469 203.521 330.485 204.181 331.666 204.181C332.376 204.181 333.011 204.061 333.83 203.616ZM329.323 201.496H333.36C333.291 200.455 332.573 199.719 331.412 199.719C330.263 199.719 329.418 200.455 329.323 201.496ZM341.942 198.906V205H340.933V203.997C340.476 204.651 339.676 205.127 338.584 205.127C336.839 205.127 335.512 203.769 335.512 201.934C335.512 200.106 336.839 198.779 338.584 198.779C339.676 198.779 340.476 199.249 340.933 199.903V198.906H341.942ZM338.686 199.693C337.417 199.693 336.515 200.677 336.515 201.934C336.515 203.197 337.417 204.213 338.686 204.213C339.987 204.213 340.946 203.197 340.946 201.934C340.946 200.677 339.987 199.693 338.686 199.693ZM349.007 205V204.01C348.55 204.657 347.75 205.127 346.659 205.127C344.913 205.127 343.586 203.769 343.586 201.94C343.586 200.112 344.913 198.779 346.659 198.779C347.75 198.779 348.55 199.255 349.007 199.909V196.062H350.017V205H349.007ZM346.76 204.213C348.062 204.213 349.02 203.197 349.02 201.94C349.02 200.677 348.062 199.693 346.76 199.693C345.491 199.693 344.589 200.677 344.589 201.94C344.589 203.197 345.491 204.213 346.76 204.213ZM351.654 201.934C351.654 200.062 353.044 198.779 355.082 198.779C355.907 198.779 356.612 199.021 356.91 199.186L356.802 200.093C356.396 199.896 355.787 199.725 355.082 199.725C353.654 199.725 352.676 200.62 352.676 201.934C352.676 203.261 353.66 204.181 355.095 204.181C355.71 204.181 356.402 204.022 356.853 203.794L357.018 204.714C356.479 204.956 355.768 205.127 355.095 205.127C353.051 205.127 351.654 203.832 351.654 201.934ZM359.563 198.906V199.808C359.906 199.103 360.509 198.779 361.208 198.779C361.639 198.779 361.957 198.887 362.071 198.938L361.969 199.871C361.798 199.808 361.563 199.719 361.169 199.719C360.357 199.719 359.563 200.252 359.563 201.617V205H358.548V198.906H359.563ZM367.822 202.378V198.906H368.818V202.524C368.818 204.054 367.739 205.127 366.057 205.127C364.375 205.127 363.296 204.067 363.296 202.562V198.906H364.299V202.378C364.299 203.521 365.003 204.181 366.057 204.181C367.117 204.181 367.822 203.521 367.822 202.378ZM378.302 198.779C379.889 198.779 380.834 199.782 380.834 201.274V205H379.825V201.521C379.825 200.398 379.203 199.731 378.143 199.731C377.153 199.731 376.334 200.423 376.334 201.502V205H375.325V201.521C375.325 200.398 374.703 199.731 373.681 199.731C372.659 199.731 371.846 200.436 371.846 201.541V205H370.837V198.906H371.846V199.814C372.183 199.249 372.894 198.779 373.846 198.779C374.925 198.779 375.706 199.262 376.074 200.062C376.486 199.268 377.312 198.779 378.302 198.779ZM383.869 205H382.859V196.062H383.869V199.909C384.326 199.255 385.125 198.779 386.217 198.779C387.963 198.779 389.29 200.112 389.29 201.94C389.29 203.769 387.963 205.127 386.217 205.127C385.125 205.127 384.326 204.657 383.869 204.01V205ZM386.116 204.213C387.385 204.213 388.287 203.197 388.287 201.94C388.287 200.677 387.385 199.693 386.116 199.693C384.814 199.693 383.856 200.677 383.856 201.94C383.856 203.197 384.814 204.213 386.116 204.213ZM397.307 196.38L394.495 201.94H397.643V199.674H398.684V201.94H399.935V202.886H398.684V205.006H397.643V202.886H393.352V201.972L396.164 196.38H397.307Z" fill="#707275"/>
<path d="M411.532 204.502C411.433 204.503 411.335 204.474 411.253 204.419C411.17 204.364 411.105 204.286 411.067 204.194C411.029 204.102 411.019 204.001 411.039 203.904C411.058 203.806 411.107 203.717 411.177 203.647L413.807 201.002L411.147 198.357C411.1 198.31 411.063 198.255 411.038 198.194C411.013 198.133 411 198.068 411 198.002C411 197.869 411.053 197.741 411.147 197.647C411.241 197.553 411.369 197.5 411.502 197.5C411.635 197.5 411.763 197.553 411.857 197.647L415.222 201.002L411.882 204.357C411.789 204.449 411.663 204.501 411.532 204.502Z" fill="#94989E"/>
<path d="M432.186 205L431.551 203.312H427.552L426.911 205H425.083L428.561 196.38H430.529L434.014 205H432.186ZM429.551 198.17L428.034 201.947H431.056L429.551 198.17ZM434.521 201.947C434.521 199.966 435.969 198.779 437.937 198.779C438.686 198.779 439.333 198.951 439.854 199.186L439.714 200.601C439.276 200.411 438.717 200.271 438.114 200.271C437.003 200.271 436.153 200.842 436.153 201.94C436.153 202.981 436.959 203.629 438.063 203.629C438.679 203.629 439.212 203.477 439.739 203.229L439.93 204.676C439.289 204.962 438.698 205.127 437.956 205.127C435.95 205.127 434.521 203.832 434.521 201.947ZM444.875 200.258H443.148V202.766C443.148 203.4 443.503 203.68 444.049 203.68C444.354 203.68 444.741 203.629 445.084 203.534L445.236 204.886C444.862 205.032 444.259 205.127 443.764 205.127C442.424 205.127 441.523 204.435 441.523 203V200.258H440.495V198.906H441.529V196.951H443.11V198.906H444.875V200.258ZM447.788 205H446.157V198.906H447.788V205ZM446.969 197.884C446.417 197.884 446.036 197.503 446.036 196.951C446.036 196.399 446.417 196.012 446.969 196.012C447.521 196.012 447.909 196.393 447.909 196.951C447.909 197.503 447.521 197.884 446.969 197.884ZM452.054 203.407L453.634 198.906H455.361L453.044 205H451.063L448.74 198.906H450.467L452.054 203.407ZM461.588 203.235L461.816 204.556C461.226 204.892 460.407 205.127 459.519 205.127C457.36 205.127 455.977 203.851 455.977 201.953C455.977 200.087 457.297 198.779 459.106 198.779C460.979 198.779 462.4 200.188 462 202.442H457.595C457.76 203.292 458.522 203.699 459.525 203.699C460.28 203.699 460.985 203.521 461.588 203.235ZM457.621 201.35H460.541C460.496 200.671 459.982 200.15 459.144 200.15C458.274 200.15 457.69 200.658 457.621 201.35ZM469.999 205.127C469.104 205.127 468.412 204.816 468.018 204.353L467.986 205H466.393V196.056H467.993V199.643C468.393 199.135 469.021 198.779 469.999 198.779C471.725 198.779 472.95 200.093 472.95 201.947C472.95 203.788 471.725 205.127 469.999 205.127ZM468.012 201.94C468.012 202.905 468.704 203.667 469.668 203.667C470.633 203.667 471.319 202.905 471.319 201.94C471.319 200.957 470.64 200.239 469.668 200.239C468.71 200.239 468.012 200.969 468.012 201.94ZM475.737 198.906L475.769 199.738C476.08 199.103 476.67 198.779 477.355 198.779C477.717 198.779 478.022 198.875 478.149 198.919L478.022 200.373C477.857 200.315 477.59 200.233 477.267 200.233C476.549 200.233 475.794 200.62 475.794 201.877V205H474.163V198.906H475.737ZM484.389 203.235L484.617 204.556C484.027 204.892 483.208 205.127 482.319 205.127C480.161 205.127 478.777 203.851 478.777 201.953C478.777 200.087 480.098 198.779 481.907 198.779C483.779 198.779 485.201 200.188 484.801 202.442H480.396C480.561 203.292 481.323 203.699 482.326 203.699C483.081 203.699 483.786 203.521 484.389 203.235ZM480.421 201.35H483.341C483.297 200.671 482.783 200.15 481.945 200.15C481.075 200.15 480.491 200.658 480.421 201.35ZM488.68 205.127C487.004 205.127 485.741 203.788 485.741 201.94C485.741 200.093 487.004 198.779 488.68 198.779C489.625 198.779 490.267 199.141 490.667 199.643L490.698 198.906H492.292V205H490.698L490.667 204.264C490.267 204.771 489.625 205.127 488.68 205.127ZM490.66 201.94C490.66 200.969 489.968 200.233 488.997 200.233C488.02 200.233 487.359 200.969 487.359 201.94C487.359 202.918 488.02 203.68 488.997 203.68C489.968 203.68 490.66 202.918 490.66 201.94ZM496.449 205.127C494.723 205.127 493.498 203.788 493.498 201.947C493.498 200.093 494.723 198.779 496.449 198.779C497.427 198.779 498.055 199.135 498.461 199.643V196.056H500.061V205H498.461L498.43 204.353C498.023 204.822 497.344 205.127 496.449 205.127ZM498.442 201.94C498.442 200.969 497.744 200.239 496.786 200.239C495.814 200.239 495.135 200.957 495.135 201.94C495.135 202.905 495.814 203.667 496.786 203.667C497.744 203.667 498.442 202.905 498.442 201.94ZM501.261 201.947C501.261 199.966 502.708 198.779 504.676 198.779C505.425 198.779 506.072 198.951 506.593 199.186L506.453 200.601C506.015 200.411 505.457 200.271 504.854 200.271C503.743 200.271 502.892 200.842 502.892 201.94C502.892 202.981 503.698 203.629 504.803 203.629C505.418 203.629 505.952 203.477 506.479 203.229L506.669 204.676C506.028 204.962 505.438 205.127 504.695 205.127C502.689 205.127 501.261 203.832 501.261 201.947ZM509.367 198.906L509.398 199.738C509.709 199.103 510.3 198.779 510.985 198.779C511.347 198.779 511.652 198.875 511.779 198.919L511.652 200.373C511.487 200.315 511.22 200.233 510.896 200.233C510.179 200.233 509.424 200.62 509.424 201.877V205H507.792V198.906H509.367ZM516.787 202.328V198.906H518.412V202.493C518.412 204.035 517.25 205.127 515.53 205.127C513.804 205.127 512.68 204.048 512.68 202.531V198.906H514.312V202.328C514.312 203.102 514.813 203.629 515.53 203.629C516.286 203.629 516.787 203.102 516.787 202.328ZM523.325 198.779C524.252 198.779 525.014 199.167 525.369 199.858C525.801 199.211 526.575 198.779 527.483 198.779C528.879 198.779 529.876 199.687 529.876 201.172V205H528.245V201.591C528.245 200.747 527.724 200.29 527.026 200.29C526.328 200.29 525.687 200.728 525.687 201.553V205H524.055V201.591C524.055 200.747 523.528 200.29 522.843 200.29C522.138 200.29 521.51 200.747 521.51 201.591V205H519.878V198.906H521.427L521.459 199.611C521.77 199.186 522.43 198.779 523.325 198.779ZM534.96 205.127C534.065 205.127 533.374 204.816 532.98 204.353L532.948 205H531.355V196.056H532.955V199.643C533.354 199.135 533.983 198.779 534.96 198.779C536.687 198.779 537.912 200.093 537.912 201.947C537.912 203.788 536.687 205.127 534.96 205.127ZM532.974 201.94C532.974 202.905 533.666 203.667 534.63 203.667C535.595 203.667 536.281 202.905 536.281 201.94C536.281 200.957 535.602 200.239 534.63 200.239C533.672 200.239 532.974 200.969 532.974 201.94Z" fill="#707275"/>
</svg>
