<svg width="768" height="194" viewBox="0 0 768 194" fill="none" xmlns="http://www.w3.org/2000/svg">
<rect width="768" height="40" fill="#D9FBFF"/>
<path d="M37.4346 21.0879H34.4814V24H33.3535V14.7168H37.4551C39.1982 14.7168 40.6953 15.7285 40.6953 17.9229C40.6953 19.4404 39.8203 20.4863 38.6309 20.8965L41.1875 24H39.7725L37.4346 21.0879ZM34.4814 15.749V20.0693H37.3252C38.5283 20.0693 39.54 19.2627 39.54 17.9297C39.54 16.4531 38.5283 15.749 37.3252 15.749H34.4814ZM48.2148 22.5098L48.4062 23.4941C47.6406 23.9385 46.8135 24.1367 45.9316 24.1367C43.7236 24.1367 42.1992 22.7422 42.1992 20.7188C42.1992 18.7637 43.6074 17.3008 45.5762 17.3008C47.7979 17.3008 49.0557 19.0986 48.7002 21.1152H43.334C43.5186 22.4072 44.6123 23.1182 45.8838 23.1182C46.6494 23.1182 47.333 22.9883 48.2148 22.5098ZM43.3613 20.2266H47.709C47.6338 19.1055 46.8613 18.3125 45.6104 18.3125C44.373 18.3125 43.4639 19.1055 43.3613 20.2266ZM54.0869 18.374H51.9951V21.9219C51.9951 22.7832 52.46 23.1592 53.1299 23.1592C53.4854 23.1592 53.9365 23.0908 54.251 22.9746L54.3945 23.9111C54.1143 24.0342 53.5469 24.1367 53.0137 24.1367C51.749 24.1367 50.9082 23.4395 50.9082 22.0996V18.374H49.6982V17.4375H50.915V15.332H51.9883V17.4375H54.0869V18.374ZM60.5264 21.1768V17.4375H61.5996V21.334C61.5996 22.9814 60.4375 24.1367 58.626 24.1367C56.8145 24.1367 55.6523 22.9951 55.6523 21.375V17.4375H56.7324V21.1768C56.7324 22.4072 57.4912 23.1182 58.626 23.1182C59.7676 23.1182 60.5264 22.4072 60.5264 21.1768ZM64.8672 17.4375V18.4082C65.2363 17.6494 65.8857 17.3008 66.6377 17.3008C67.1025 17.3008 67.4443 17.417 67.5674 17.4717L67.458 18.4766C67.2734 18.4082 67.0205 18.3125 66.5967 18.3125C65.7217 18.3125 64.8672 18.8867 64.8672 20.3564V24H63.7734V17.4375H64.8672ZM72.2705 17.3008C74 17.3008 75.0391 18.3193 75.0391 20.0078V24H73.959V20.2744C73.959 18.9961 73.2891 18.3262 72.0996 18.3262C70.9785 18.3262 70.0693 19.0986 70.0693 20.2949V24H68.9824V17.4375H70.0762V18.4219C70.4453 17.8135 71.2246 17.3008 72.2705 17.3008ZM84.0967 18.374H82.0049V21.9219C82.0049 22.7832 82.4697 23.1592 83.1396 23.1592C83.4951 23.1592 83.9463 23.0908 84.2607 22.9746L84.4043 23.9111C84.124 24.0342 83.5566 24.1367 83.0234 24.1367C81.7588 24.1367 80.918 23.4395 80.918 22.0996V18.374H79.708V17.4375H80.9248V15.332H81.998V17.4375H84.0967V18.374ZM85.2451 20.7188C85.2451 18.7979 86.7354 17.3008 88.7314 17.3008C90.7275 17.3008 92.2178 18.7979 92.2178 20.7188C92.2178 22.6396 90.7275 24.1367 88.7314 24.1367C86.7354 24.1367 85.2451 22.6396 85.2451 20.7188ZM86.332 20.7188C86.332 22.0723 87.3506 23.125 88.7314 23.125C90.1123 23.125 91.1309 22.0723 91.1309 20.7188C91.1309 19.3652 90.1123 18.3125 88.7314 18.3125C87.3506 18.3125 86.332 19.3652 86.332 20.7188ZM98.3701 24H97.2832V14.375H98.3701V18.5176C98.8623 17.8135 99.7236 17.3008 100.899 17.3008C102.779 17.3008 104.208 18.7363 104.208 20.7051C104.208 22.6738 102.779 24.1367 100.899 24.1367C99.7236 24.1367 98.8623 23.6309 98.3701 22.9336V24ZM100.79 23.1523C102.157 23.1523 103.128 22.0586 103.128 20.7051C103.128 19.3447 102.157 18.2852 100.79 18.2852C99.3887 18.2852 98.3564 19.3447 98.3564 20.7051C98.3564 22.0586 99.3887 23.1523 100.79 23.1523ZM105.979 24V14.375H107.065V24H105.979ZM114.12 21.1768V17.4375H115.193V21.334C115.193 22.9814 114.031 24.1367 112.22 24.1367C110.408 24.1367 109.246 22.9951 109.246 21.375V17.4375H110.326V21.1768C110.326 22.4072 111.085 23.1182 112.22 23.1182C113.361 23.1182 114.12 22.4072 114.12 21.1768ZM122.877 22.5098L123.068 23.4941C122.303 23.9385 121.476 24.1367 120.594 24.1367C118.386 24.1367 116.861 22.7422 116.861 20.7188C116.861 18.7637 118.27 17.3008 120.238 17.3008C122.46 17.3008 123.718 19.0986 123.362 21.1152H117.996C118.181 22.4072 119.274 23.1182 120.546 23.1182C121.312 23.1182 121.995 22.9883 122.877 22.5098ZM118.023 20.2266H122.371C122.296 19.1055 121.523 18.3125 120.272 18.3125C119.035 18.3125 118.126 19.1055 118.023 20.2266ZM127.143 20.165L127.826 20.3018C129.132 20.5615 129.822 21.1494 129.822 22.1748C129.822 23.4531 128.804 24.1367 127.211 24.1367C126.281 24.1367 125.365 23.9521 124.75 23.6445L124.9 22.6738C125.502 22.9814 126.343 23.166 127.136 23.166C128.188 23.166 128.756 22.8379 128.756 22.2295C128.756 21.6416 128.25 21.3955 127.327 21.2178L126.473 21.0469C125.386 20.835 124.688 20.2607 124.688 19.249C124.688 18.0801 125.721 17.3008 127.354 17.3008C128.147 17.3008 128.947 17.4512 129.46 17.6631L129.323 18.6133C128.79 18.4014 128.065 18.2646 127.423 18.2646C126.356 18.2646 125.769 18.6201 125.769 19.2217C125.769 19.7891 126.22 19.9873 127.143 20.165ZM134.819 17.3008C136.535 17.3008 137.574 18.3193 137.574 20.0078V24H136.494V20.2744C136.494 18.9961 135.824 18.3262 134.648 18.3262C133.527 18.3262 132.618 19.0986 132.618 20.2949V24H131.531V14.375H132.625V18.4219C132.994 17.8135 133.773 17.3008 134.819 17.3008ZM139.762 24V17.4375H140.849V24H139.762ZM140.302 15.9131C139.905 15.9131 139.632 15.6328 139.632 15.2363C139.632 14.8398 139.905 14.5664 140.302 14.5664C140.698 14.5664 140.985 14.8398 140.985 15.2363C140.985 15.6328 140.698 15.9131 140.302 15.9131ZM148.635 22.5098L148.826 23.4941C148.061 23.9385 147.233 24.1367 146.352 24.1367C144.144 24.1367 142.619 22.7422 142.619 20.7188C142.619 18.7637 144.027 17.3008 145.996 17.3008C148.218 17.3008 149.476 19.0986 149.12 21.1152H143.754C143.938 22.4072 145.032 23.1182 146.304 23.1182C147.069 23.1182 147.753 22.9883 148.635 22.5098ZM143.781 20.2266H148.129C148.054 19.1055 147.281 18.3125 146.03 18.3125C144.793 18.3125 143.884 19.1055 143.781 20.2266ZM150.945 24V14.375H152.032V24H150.945ZM159.647 24V22.9336C159.155 23.6309 158.294 24.1367 157.118 24.1367C155.238 24.1367 153.81 22.6738 153.81 20.7051C153.81 18.7363 155.238 17.3008 157.118 17.3008C158.294 17.3008 159.155 17.8135 159.647 18.5176V14.375H160.734V24H159.647ZM157.228 23.1523C158.629 23.1523 159.661 22.0586 159.661 20.7051C159.661 19.3447 158.629 18.2852 157.228 18.2852C155.86 18.2852 154.89 19.3447 154.89 20.7051C154.89 22.0586 155.86 23.1523 157.228 23.1523ZM162.498 20.6982C162.498 18.6816 163.995 17.3008 166.189 17.3008C167.078 17.3008 167.837 17.5605 168.158 17.7383L168.042 18.7158C167.604 18.5039 166.948 18.3193 166.189 18.3193C164.651 18.3193 163.599 19.2832 163.599 20.6982C163.599 22.127 164.658 23.1182 166.203 23.1182C166.866 23.1182 167.611 22.9473 168.097 22.7012L168.274 23.6924C167.693 23.9521 166.928 24.1367 166.203 24.1367C164.002 24.1367 162.498 22.7422 162.498 20.6982ZM176.348 17.4375V24H175.261V22.9199C174.769 23.624 173.907 24.1367 172.731 24.1367C170.852 24.1367 169.423 22.6738 169.423 20.6982C169.423 18.7295 170.852 17.3008 172.731 17.3008C173.907 17.3008 174.769 17.8066 175.261 18.5107V17.4375H176.348ZM172.841 18.2852C171.474 18.2852 170.503 19.3447 170.503 20.6982C170.503 22.0586 171.474 23.1523 172.841 23.1523C174.242 23.1523 175.274 22.0586 175.274 20.6982C175.274 19.3447 174.242 18.2852 172.841 18.2852ZM178.945 24.0957C178.556 24.0957 178.269 23.8018 178.269 23.4189C178.269 23.0361 178.556 22.7422 178.945 22.7422C179.335 22.7422 179.622 23.0361 179.622 23.4189C179.622 23.8018 179.335 24.0957 178.945 24.0957ZM181.037 20.6982C181.037 18.6816 182.534 17.3008 184.729 17.3008C185.617 17.3008 186.376 17.5605 186.697 17.7383L186.581 18.7158C186.144 18.5039 185.487 18.3193 184.729 18.3193C183.19 18.3193 182.138 19.2832 182.138 20.6982C182.138 22.127 183.197 23.1182 184.742 23.1182C185.405 23.1182 186.15 22.9473 186.636 22.7012L186.813 23.6924C186.232 23.9521 185.467 24.1367 184.742 24.1367C182.541 24.1367 181.037 22.7422 181.037 20.6982ZM187.948 20.7188C187.948 18.7979 189.438 17.3008 191.435 17.3008C193.431 17.3008 194.921 18.7979 194.921 20.7188C194.921 22.6396 193.431 24.1367 191.435 24.1367C189.438 24.1367 187.948 22.6396 187.948 20.7188ZM189.035 20.7188C189.035 22.0723 190.054 23.125 191.435 23.125C192.815 23.125 193.834 22.0723 193.834 20.7188C193.834 19.3652 192.815 18.3125 191.435 18.3125C190.054 18.3125 189.035 19.3652 189.035 20.7188ZM204.717 17.3008C206.426 17.3008 207.444 18.3809 207.444 19.9873V24H206.357V20.2539C206.357 19.0439 205.688 18.3262 204.546 18.3262C203.479 18.3262 202.598 19.0713 202.598 20.2334V24H201.511V20.2539C201.511 19.0439 200.841 18.3262 199.74 18.3262C198.64 18.3262 197.765 19.085 197.765 20.2744V24H196.678V17.4375H197.765V18.415C198.127 17.8066 198.893 17.3008 199.918 17.3008C201.08 17.3008 201.921 17.8203 202.317 18.6816C202.762 17.8271 203.65 17.3008 204.717 17.3008Z" fill="#162C55"/>
<path d="M674.873 23.5352C674.62 23.6445 673.629 24.1367 671.968 24.1367C668.837 24.1367 666.697 22.1885 666.697 19.3516C666.697 16.5215 668.803 14.5801 671.893 14.5801C673.089 14.5801 674.121 14.874 674.709 15.1611L674.593 16.2207C674.019 15.9541 673.027 15.6602 671.886 15.6602C669.507 15.6602 667.894 17.1572 667.894 19.3516C667.894 21.5527 669.582 23.0635 672.043 23.0635C673.472 23.0635 674.415 22.6123 674.688 22.4619L674.873 23.5352ZM675.987 20.7188C675.987 18.7979 677.478 17.3008 679.474 17.3008C681.47 17.3008 682.96 18.7979 682.96 20.7188C682.96 22.6396 681.47 24.1367 679.474 24.1367C677.478 24.1367 675.987 22.6396 675.987 20.7188ZM677.074 20.7188C677.074 22.0723 678.093 23.125 679.474 23.125C680.854 23.125 681.873 22.0723 681.873 20.7188C681.873 19.3652 680.854 18.3125 679.474 18.3125C678.093 18.3125 677.074 19.3652 677.074 20.7188ZM688.005 17.3008C689.734 17.3008 690.773 18.3193 690.773 20.0078V24H689.693V20.2744C689.693 18.9961 689.023 18.3262 687.834 18.3262C686.713 18.3262 685.804 19.0986 685.804 20.2949V24H684.717V17.4375H685.811V18.4219C686.18 17.8135 686.959 17.3008 688.005 17.3008ZM696.522 18.374H694.431V21.9219C694.431 22.7832 694.896 23.1592 695.565 23.1592C695.921 23.1592 696.372 23.0908 696.687 22.9746L696.83 23.9111C696.55 24.0342 695.982 24.1367 695.449 24.1367C694.185 24.1367 693.344 23.4395 693.344 22.0996V18.374H692.134V17.4375H693.351V15.332H694.424V17.4375H696.522V18.374ZM704.609 17.4375V24H703.522V22.9199C703.03 23.624 702.169 24.1367 700.993 24.1367C699.113 24.1367 697.685 22.6738 697.685 20.6982C697.685 18.7295 699.113 17.3008 700.993 17.3008C702.169 17.3008 703.03 17.8066 703.522 18.5107V17.4375H704.609ZM701.103 18.2852C699.735 18.2852 698.765 19.3447 698.765 20.6982C698.765 22.0586 699.735 23.1523 701.103 23.1523C702.504 23.1523 703.536 22.0586 703.536 20.6982C703.536 19.3447 702.504 18.2852 701.103 18.2852ZM706.373 20.6982C706.373 18.6816 707.87 17.3008 710.064 17.3008C710.953 17.3008 711.712 17.5605 712.033 17.7383L711.917 18.7158C711.479 18.5039 710.823 18.3193 710.064 18.3193C708.526 18.3193 707.474 19.2832 707.474 20.6982C707.474 22.127 708.533 23.1182 710.078 23.1182C710.741 23.1182 711.486 22.9473 711.972 22.7012L712.149 23.6924C711.568 23.9521 710.803 24.1367 710.078 24.1367C707.877 24.1367 706.373 22.7422 706.373 20.6982ZM717.358 18.374H715.267V21.9219C715.267 22.7832 715.731 23.1592 716.401 23.1592C716.757 23.1592 717.208 23.0908 717.522 22.9746L717.666 23.9111C717.386 24.0342 716.818 24.1367 716.285 24.1367C715.021 24.1367 714.18 23.4395 714.18 22.0996V18.374H712.97V17.4375H714.187V15.332H715.26V17.4375H717.358V18.374ZM727.106 21.1768V17.4375H728.18V21.334C728.18 22.9814 727.018 24.1367 725.206 24.1367C723.395 24.1367 722.232 22.9951 722.232 21.375V17.4375H723.312V21.1768C723.312 22.4072 724.071 23.1182 725.206 23.1182C726.348 23.1182 727.106 22.4072 727.106 21.1768ZM732.309 20.165L732.992 20.3018C734.298 20.5615 734.988 21.1494 734.988 22.1748C734.988 23.4531 733.97 24.1367 732.377 24.1367C731.447 24.1367 730.531 23.9521 729.916 23.6445L730.066 22.6738C730.668 22.9814 731.509 23.166 732.302 23.166C733.354 23.166 733.922 22.8379 733.922 22.2295C733.922 21.6416 733.416 21.3955 732.493 21.2178L731.639 21.0469C730.552 20.835 729.854 20.2607 729.854 19.249C729.854 18.0801 730.887 17.3008 732.521 17.3008C733.313 17.3008 734.113 17.4512 734.626 17.6631L734.489 18.6133C733.956 18.4014 733.231 18.2646 732.589 18.2646C731.522 18.2646 730.935 18.6201 730.935 19.2217C730.935 19.7891 731.386 19.9873 732.309 20.165Z" fill="#162C55"/>
<path d="M40.1553 68H33.3535V58.7168H40.0117V59.7422H34.4814V62.7158H39.2939V63.7412H34.4814V66.9814H40.1553V68ZM45.2686 61.3008C46.998 61.3008 48.0371 62.3193 48.0371 64.0078V68H46.957V64.2744C46.957 62.9961 46.2871 62.3262 45.0977 62.3262C43.9766 62.3262 43.0674 63.0986 43.0674 64.2949V68H41.9805V61.4375H43.0742V62.4219C43.4434 61.8135 44.2227 61.3008 45.2686 61.3008ZM55.5635 66.9199C55.085 67.6104 54.21 68.1367 53.0342 68.1367C51.1543 68.1367 49.7256 66.6738 49.7256 64.6982C49.7256 62.7295 51.1543 61.3008 53.0342 61.3008C54.21 61.3008 55.0713 61.8066 55.5635 62.5107V61.4375H56.6504V67.5625C56.6504 69.4697 55.3447 70.8711 52.9385 70.8711C52.125 70.8711 51.0449 70.6865 50.3545 70.3242L50.5254 69.333C51.2568 69.6953 52.125 69.8867 52.9316 69.8867C54.4561 69.8867 55.5635 69.1143 55.5635 67.6445V66.9199ZM53.1436 62.2852C51.7764 62.2852 50.8057 63.3447 50.8057 64.6982C50.8057 66.0586 51.7764 67.1523 53.1436 67.1523C54.5449 67.1523 55.5771 66.0586 55.5771 64.6982C55.5771 63.3447 54.5449 62.2852 53.1436 62.2852ZM58.9199 68V58.375H60.0068V68H58.9199ZM62.2832 68V61.4375H63.3701V68H62.2832ZM62.8232 59.9131C62.4268 59.9131 62.1533 59.6328 62.1533 59.2363C62.1533 58.8398 62.4268 58.5664 62.8232 58.5664C63.2197 58.5664 63.5068 58.8398 63.5068 59.2363C63.5068 59.6328 63.2197 59.9131 62.8232 59.9131ZM67.6016 64.165L68.2852 64.3018C69.5908 64.5615 70.2812 65.1494 70.2812 66.1748C70.2812 67.4531 69.2627 68.1367 67.6699 68.1367C66.7402 68.1367 65.8242 67.9521 65.209 67.6445L65.3594 66.6738C65.9609 66.9814 66.8018 67.166 67.5947 67.166C68.6475 67.166 69.2148 66.8379 69.2148 66.2295C69.2148 65.6416 68.709 65.3955 67.7861 65.2178L66.9316 65.0469C65.8447 64.835 65.1475 64.2607 65.1475 63.249C65.1475 62.0801 66.1797 61.3008 67.8135 61.3008C68.6064 61.3008 69.4062 61.4512 69.9189 61.6631L69.7822 62.6133C69.249 62.4014 68.5244 62.2646 67.8818 62.2646C66.8154 62.2646 66.2275 62.6201 66.2275 63.2217C66.2275 63.7891 66.6787 63.9873 67.6016 64.165ZM75.2783 61.3008C76.9941 61.3008 78.0332 62.3193 78.0332 64.0078V68H76.9531V64.2744C76.9531 62.9961 76.2832 62.3262 75.1074 62.3262C73.9863 62.3262 73.0771 63.0986 73.0771 64.2949V68H71.9902V58.375H73.084V62.4219C73.4531 61.8135 74.2324 61.3008 75.2783 61.3008Z" fill="#162C55"/>
<path d="M91.4375 61.5625L95.4844 65.6094L99.5312 61.5625" stroke="#162C55" stroke-linecap="square"/>
<rect x="596" y="49" width="30" height="30" rx="15" stroke="#162C55" stroke-width="2"/>
<path fill-rule="evenodd" clip-rule="evenodd" d="M613.505 65.2416C612.764 65.7361 611.894 66 611.003 66C609.81 65.9974 608.666 65.5224 607.822 64.6791C606.978 63.8357 606.503 62.6927 606.5 61.5C606.5 60.61 606.765 59.74 607.259 58.9999C607.754 58.2599 608.457 57.6831 609.28 57.3425C610.103 57.0019 611.008 56.9128 611.881 57.0865C612.755 57.2601 613.557 57.6887 614.187 58.318C614.817 58.9474 615.245 59.7492 615.419 60.6221C615.593 61.495 615.504 62.3998 615.163 63.2221C614.822 64.0443 614.245 64.7471 613.505 65.2416ZM612.949 58.5899C612.373 58.2053 611.696 58 611.003 58C610.074 58 609.184 58.3688 608.527 59.0251C607.87 59.6815 607.501 60.5717 607.501 61.5C607.501 62.1922 607.706 62.8689 608.091 63.4445C608.476 64.0201 609.023 64.4687 609.663 64.7336C610.303 64.9985 611.007 65.0678 611.686 64.9328C612.366 64.7977 612.99 64.4644 613.479 63.9749C613.969 63.4854 614.303 62.8618 614.438 62.1828C614.573 61.5039 614.504 60.8002 614.238 60.1606C613.973 59.5211 613.525 58.9744 612.949 58.5899ZM614.251 68.1873C615.272 68.6395 616.177 69.3174 616.897 70.17C616.974 70.2751 617.012 70.4041 617.003 70.5342C616.993 70.6642 616.938 70.7868 616.847 70.88C616.766 70.9566 616.659 70.9995 616.547 71C616.48 70.999 616.413 70.9832 616.353 70.9538C616.292 70.9245 616.239 70.8822 616.197 70.83C615.56 70.0834 614.761 69.4911 613.862 69.0978C612.962 68.7046 611.985 68.5207 611.004 68.56C610.023 68.5473 609.05 68.7442 608.151 69.1374C607.252 69.5306 606.447 70.1111 605.791 70.84C605.75 70.8866 605.7 70.924 605.644 70.9496C605.588 70.9752 605.527 70.9884 605.466 70.9884C605.404 70.9884 605.343 70.9752 605.287 70.9496C605.231 70.924 605.181 70.8866 605.14 70.84C605.053 70.7426 605.004 70.6161 605.004 70.485C605.004 70.3539 605.053 70.2274 605.14 70.13C605.882 69.3141 606.788 68.6636 607.798 68.2208C608.808 67.778 609.901 67.5529 611.004 67.56C612.12 67.5207 613.23 67.7352 614.251 68.1873Z" fill="#162C55"/>
<path d="M611.003 66L611.002 66.5H611.003V66ZM613.505 65.2416L613.227 64.8258L613.227 64.8258L613.505 65.2416ZM607.822 64.6791L607.469 65.0327L607.469 65.0327L607.822 64.6791ZM606.5 61.5L606 61.5L606 61.5011L606.5 61.5ZM607.259 58.9999L607.675 59.2778L607.675 59.2778L607.259 58.9999ZM609.28 57.3425L609.089 56.8806L609.089 56.8806L609.28 57.3425ZM614.187 58.318L614.54 57.9644L614.54 57.9644L614.187 58.318ZM608.527 59.0251L608.173 58.6715L608.173 58.6715L608.527 59.0251ZM608.091 63.4445L608.507 63.1666L608.507 63.1666L608.091 63.4445ZM609.663 64.7336L609.854 64.2716L609.854 64.2716L609.663 64.7336ZM611.686 64.9328L611.784 65.4232L611.784 65.4232L611.686 64.9328ZM614.438 62.1828L614.928 62.2804L614.928 62.2804L614.438 62.1828ZM614.238 60.1606L613.777 60.352L613.777 60.352L614.238 60.1606ZM616.897 70.17L617.3 69.8739L617.29 69.8603L617.279 69.8473L616.897 70.17ZM614.251 68.1873L614.048 68.6445L614.048 68.6445L614.251 68.1873ZM617.003 70.5342L617.501 70.5693L617.501 70.5693L617.003 70.5342ZM616.847 70.88L617.19 71.2437L617.198 71.2368L617.205 71.2296L616.847 70.88ZM616.547 71L616.539 71.5L616.549 71.5L616.547 71ZM616.353 70.9538L616.571 70.504L616.571 70.504L616.353 70.9538ZM616.197 70.83L616.585 70.5146L616.577 70.5055L616.197 70.83ZM613.862 69.0978L613.661 69.556L613.661 69.556L613.862 69.0978ZM611.004 68.56L610.997 69.06L611.011 69.0601L611.024 69.0596L611.004 68.56ZM608.151 69.1374L608.351 69.5955L608.351 69.5955L608.151 69.1374ZM605.791 70.84L605.419 70.5053L605.413 70.5125L605.791 70.84ZM605.644 70.9496L605.852 71.4044L605.852 71.4044L605.644 70.9496ZM605.287 70.9496L605.079 71.4044L605.079 71.4044L605.287 70.9496ZM605.14 70.84L605.518 70.5124L605.512 70.505L605.14 70.84ZM605.14 70.13L604.771 69.7936L604.769 69.795L605.14 70.13ZM607.798 68.2208L607.999 68.6788L607.999 68.6788L607.798 68.2208ZM611.004 67.56L611.001 68.06L611.011 68.0601L611.021 68.0597L611.004 67.56ZM611.003 66V66.5C611.992 66.5 612.96 66.2068 613.782 65.6574L613.505 65.2416L613.227 64.8258C612.569 65.2654 611.795 65.5 611.003 65.5V66ZM607.822 64.6791L607.469 65.0327C608.406 65.9695 609.676 66.4971 611.002 66.5L611.003 66L611.004 65.5C609.943 65.4977 608.926 65.0753 608.176 64.3254L607.822 64.6791ZM606.5 61.5L606 61.5011C606.003 62.8261 606.531 64.0959 607.469 65.0327L607.822 64.6791L608.176 64.3254C607.425 63.5755 607.003 62.5592 607 61.4989L606.5 61.5ZM607.259 58.9999L606.844 58.722C606.294 59.5443 606 60.511 606 61.5H606.5H607C607 60.7089 607.235 59.9356 607.675 59.2778L607.259 58.9999ZM609.28 57.3425L609.089 56.8806C608.175 57.259 607.393 57.8998 606.844 58.722L607.259 58.9999L607.675 59.2778C608.115 58.62 608.74 58.1073 609.471 57.8045L609.28 57.3425ZM611.881 57.0865L611.979 56.5961C611.009 56.4032 610.003 56.5022 609.089 56.8806L609.28 57.3425L609.471 57.8045C610.203 57.5017 611.007 57.4225 611.784 57.5769L611.881 57.0865ZM614.187 58.318L614.54 57.9644C613.841 57.2651 612.949 56.789 611.979 56.5961L611.881 57.0865L611.784 57.5769C612.56 57.7312 613.274 58.1122 613.833 58.6717L614.187 58.318ZM615.419 60.6221L615.909 60.5245C615.716 59.5545 615.24 58.6636 614.54 57.9644L614.187 58.318L613.833 58.6717C614.393 59.2311 614.774 59.9438 614.929 60.7197L615.419 60.6221ZM615.163 63.2221L615.625 63.4135C616.003 62.4998 616.103 61.4945 615.909 60.5245L615.419 60.6221L614.929 60.7197C615.083 61.4956 615.004 62.2998 614.701 63.0306L615.163 63.2221ZM613.505 65.2416L613.782 65.6574C614.605 65.1081 615.246 64.3272 615.625 63.4135L615.163 63.2221L614.701 63.0306C614.398 63.7615 613.885 64.3862 613.227 64.8258L613.505 65.2416ZM611.003 58V58.5C611.597 58.5 612.177 58.676 612.671 59.0057L612.949 58.5899L613.226 58.1741C612.568 57.7346 611.795 57.5 611.003 57.5V58ZM608.527 59.0251L608.88 59.3788C609.443 58.8161 610.207 58.5 611.003 58.5V58V57.5C609.942 57.5 608.924 57.9214 608.173 58.6715L608.527 59.0251ZM607.501 61.5H608.001C608.001 60.7044 608.317 59.9414 608.88 59.3788L608.527 59.0251L608.173 58.6715C607.423 59.4216 607.001 60.439 607.001 61.5H607.501ZM608.091 63.4445L608.507 63.1666C608.177 62.6733 608.001 62.0933 608.001 61.5H607.501H607.001C607.001 62.2912 607.236 63.0646 607.676 63.7224L608.091 63.4445ZM609.663 64.7336L609.854 64.2716C609.306 64.0445 608.837 63.6599 608.507 63.1666L608.091 63.4445L607.676 63.7224C608.115 64.3802 608.74 64.8928 609.472 65.1956L609.663 64.7336ZM611.686 64.9328L611.589 64.4423C611.006 64.5581 610.403 64.4987 609.854 64.2716L609.663 64.7336L609.472 65.1956C610.203 65.4983 611.008 65.5775 611.784 65.4232L611.686 64.9328ZM613.479 63.9749L613.126 63.6212C612.706 64.0408 612.171 64.3266 611.589 64.4423L611.686 64.9328L611.784 65.4232C612.56 65.2688 613.273 64.8879 613.833 64.3285L613.479 63.9749ZM614.438 62.1828L613.947 62.0852C613.832 62.6671 613.546 63.2016 613.126 63.6212L613.479 63.9749L613.833 64.3285C614.393 63.7691 614.774 63.0564 614.928 62.2804L614.438 62.1828ZM614.238 60.1606L613.777 60.352C614.004 60.9002 614.063 61.5033 613.947 62.0852L614.438 62.1828L614.928 62.2804C615.083 61.5044 615.003 60.7001 614.7 59.9692L614.238 60.1606ZM612.949 58.5899L612.671 59.0057C613.165 59.3353 613.549 59.8039 613.777 60.352L614.238 60.1606L614.7 59.9692C614.397 59.2382 613.884 58.6135 613.226 58.1741L612.949 58.5899ZM616.897 70.17L617.279 69.8473C616.51 68.9368 615.543 68.2129 614.453 67.7302L614.251 68.1873L614.048 68.6445C615 69.066 615.844 69.698 616.515 70.4927L616.897 70.17ZM617.003 70.5342L617.501 70.5693C617.519 70.321 617.447 70.0745 617.3 69.8739L616.897 70.17L616.494 70.4661C616.501 70.4756 616.505 70.4873 616.504 70.499L617.003 70.5342ZM616.847 70.88L617.205 71.2296C617.379 71.0517 617.484 70.8177 617.501 70.5693L617.003 70.5342L616.504 70.499C616.503 70.5108 616.498 70.5219 616.49 70.5304L616.847 70.88ZM616.547 71L616.549 71.5C616.788 71.4989 617.017 71.4073 617.19 71.2437L616.847 70.88L616.504 70.5163C616.515 70.5059 616.53 70.5001 616.545 70.5L616.547 71ZM616.353 70.9538L616.135 71.4036C616.261 71.4649 616.399 71.4978 616.539 71.4999L616.547 71L616.555 70.5001C616.56 70.5002 616.566 70.5015 616.571 70.504L616.353 70.9538ZM616.197 70.83L615.809 71.1453C615.897 71.2542 616.008 71.3424 616.135 71.4036L616.353 70.9538L616.571 70.504C616.577 70.5066 616.581 70.5102 616.585 70.5147L616.197 70.83ZM613.862 69.0978L613.661 69.556C614.492 69.9189 615.228 70.4655 615.816 71.1546L616.197 70.83L616.577 70.5055C615.891 69.7012 615.031 69.0632 614.062 68.6397L613.862 69.0978ZM611.004 68.56L611.024 69.0596C611.929 69.0233 612.831 69.1931 613.661 69.556L613.862 69.0978L614.062 68.6397C613.093 68.2162 612.04 68.0181 610.984 68.0604L611.004 68.56ZM608.151 69.1374L608.351 69.5955C609.185 69.2308 610.087 69.0482 610.997 69.06L611.004 68.56L611.01 68.06C609.958 68.0465 608.915 68.2576 607.951 68.6793L608.151 69.1374ZM605.791 70.84L606.162 71.1746C606.771 70.4985 607.517 69.9602 608.351 69.5955L608.151 69.1374L607.951 68.6793C606.986 69.101 606.123 69.7236 605.419 70.5054L605.791 70.84ZM605.644 70.9496L605.852 71.4044C605.973 71.3491 606.081 71.2683 606.169 71.1675L605.791 70.84L605.413 70.5125C605.42 70.5049 605.428 70.4989 605.437 70.4947L605.644 70.9496ZM605.466 70.9884V71.4884C605.599 71.4884 605.731 71.4598 605.852 71.4044L605.644 70.9496L605.437 70.4947C605.446 70.4906 605.456 70.4884 605.466 70.4884V70.9884ZM605.287 70.9496L605.079 71.4044C605.201 71.4598 605.332 71.4884 605.466 71.4884V70.9884V70.4884C605.476 70.4884 605.485 70.4906 605.495 70.4947L605.287 70.9496ZM605.14 70.84L604.763 71.1675C604.85 71.2683 604.958 71.3491 605.079 71.4044L605.287 70.9496L605.495 70.4947C605.504 70.4989 605.512 70.5049 605.518 70.5125L605.14 70.84ZM605.004 70.485H604.504C604.504 70.7399 604.598 70.9858 604.769 71.175L605.14 70.84L605.512 70.505C605.507 70.4995 605.504 70.4923 605.504 70.485H605.004ZM605.14 70.13L604.769 69.795C604.598 69.9842 604.504 70.2301 604.504 70.485H605.004H605.504C605.504 70.4777 605.507 70.4705 605.512 70.465L605.14 70.13ZM607.798 68.2208L607.597 67.7629C606.523 68.2339 605.56 68.9258 604.771 69.7936L605.14 70.13L605.51 70.4664C606.205 69.7025 607.053 69.0934 607.999 68.6788L607.798 68.2208ZM611.004 67.56L611.007 67.06C609.834 67.0524 608.672 67.2919 607.597 67.7629L607.798 68.2208L607.999 68.6788C608.945 68.2641 609.968 68.0533 611.001 68.06L611.004 67.56ZM614.251 68.1873L614.453 67.7302C613.363 67.2474 612.178 67.0184 610.986 67.0603L611.004 67.56L611.021 68.0597C612.062 68.0231 613.097 68.223 614.048 68.6445L614.251 68.1873Z" fill="#162C55"/>
<path d="M642.834 66.4072V68H635.991V58.7168H637.837V66.4072H642.834ZM643.483 64.7188C643.483 62.7842 644.98 61.3008 646.99 61.3008C649.007 61.3008 650.497 62.7842 650.497 64.7188C650.497 66.6602 649.007 68.1367 646.99 68.1367C644.98 68.1367 643.483 66.6602 643.483 64.7188ZM645.227 64.7188C645.227 65.7715 645.965 66.5508 646.99 66.5508C648.022 66.5508 648.754 65.7715 648.754 64.7188C648.754 63.6729 648.022 62.8936 646.99 62.8936C645.965 62.8936 645.227 63.6729 645.227 64.7188ZM654.605 68.1367C652.746 68.1367 651.427 66.6943 651.427 64.7119C651.427 62.7158 652.746 61.3008 654.605 61.3008C655.658 61.3008 656.335 61.6836 656.772 62.2305L656.807 61.4375H658.488V67.7676C658.488 69.8457 656.718 70.8711 654.674 70.8711C653.601 70.8711 652.63 70.6182 652.056 70.3242L652.261 68.8203C652.76 69.0869 653.717 69.3125 654.558 69.3125C655.658 69.3125 656.738 68.8203 656.738 67.7266V67.2617C656.342 67.7881 655.569 68.1367 654.605 68.1367ZM656.752 64.7051C656.752 63.6592 656 62.873 654.968 62.873C653.922 62.873 653.19 63.6455 653.19 64.7051C653.19 65.7441 653.922 66.5645 654.968 66.5645C656 66.5645 656.752 65.7441 656.752 64.7051ZM665.27 68H663.513V61.4375H665.27V68ZM664.388 60.3369C663.793 60.3369 663.383 59.9268 663.383 59.332C663.383 58.7373 663.793 58.3203 664.388 58.3203C664.982 58.3203 665.399 58.7305 665.399 59.332C665.399 59.9268 664.982 60.3369 664.388 60.3369ZM670.656 61.3008C672.174 61.3008 673.247 62.2988 673.247 63.8779V68H671.49V64.3291C671.49 63.4199 670.902 62.9277 670.137 62.9277C669.364 62.9277 668.681 63.4199 668.681 64.3291V68H666.931V61.4375H668.599L668.633 62.1963C668.975 61.7383 669.679 61.3008 670.656 61.3008ZM681.375 57.5479L676.057 70.7344H674.266L679.577 57.5479H681.375ZM688.717 67.9932L686.591 65.2656H684.444V68H682.599V58.7168H686.905C688.778 58.7168 690.296 59.9062 690.296 61.998C690.296 63.3447 689.544 64.4043 688.484 64.917L690.945 67.9932H688.717ZM686.693 60.3164H684.444V63.6729H686.693C687.678 63.6729 688.396 62.9961 688.396 62.0049C688.396 60.9248 687.664 60.3164 686.693 60.3164ZM697.74 66.0996L697.986 67.5215C697.351 67.8838 696.469 68.1367 695.512 68.1367C693.188 68.1367 691.697 66.7627 691.697 64.7188C691.697 62.709 693.119 61.3008 695.067 61.3008C697.084 61.3008 698.615 62.8184 698.185 65.2451H693.44C693.618 66.1611 694.438 66.5986 695.519 66.5986C696.332 66.5986 697.091 66.4072 697.74 66.0996ZM693.468 64.0693H696.612C696.564 63.3379 696.011 62.7773 695.108 62.7773C694.172 62.7773 693.543 63.3242 693.468 64.0693ZM702.375 68.1367C700.516 68.1367 699.196 66.6943 699.196 64.7119C699.196 62.7158 700.516 61.3008 702.375 61.3008C703.428 61.3008 704.104 61.6836 704.542 62.2305L704.576 61.4375H706.258V67.7676C706.258 69.8457 704.487 70.8711 702.443 70.8711C701.37 70.8711 700.399 70.6182 699.825 70.3242L700.03 68.8203C700.529 69.0869 701.486 69.3125 702.327 69.3125C703.428 69.3125 704.508 68.8203 704.508 67.7266V67.2617C704.111 67.7881 703.339 68.1367 702.375 68.1367ZM704.521 64.7051C704.521 63.6592 703.77 62.873 702.737 62.873C701.691 62.873 700.96 63.6455 700.96 64.7051C700.96 65.7441 701.691 66.5645 702.737 66.5645C703.77 66.5645 704.521 65.7441 704.521 64.7051ZM709.676 68H707.919V61.4375H709.676V68ZM708.794 60.3369C708.199 60.3369 707.789 59.9268 707.789 59.332C707.789 58.7373 708.199 58.3203 708.794 58.3203C709.389 58.3203 709.806 58.7305 709.806 59.332C709.806 59.9268 709.389 60.3369 708.794 60.3369ZM713.743 63.9941L714.44 64.124C715.739 64.3633 716.389 64.9512 716.389 66.0859C716.389 67.4053 715.295 68.1367 713.613 68.1367C712.629 68.1367 711.679 67.959 711.084 67.665L711.269 66.2295C711.918 66.5029 712.807 66.6875 713.477 66.6875C714.331 66.6875 714.693 66.5098 714.693 66.1201C714.693 65.7715 714.413 65.6006 713.647 65.4639L712.861 65.3135C711.597 65.0947 710.981 64.4521 710.981 63.3652C710.981 62.1416 712.116 61.3008 713.859 61.3008C714.68 61.3008 715.493 61.4512 716.081 61.7109L715.931 63.1396C715.452 62.9346 714.577 62.7705 713.948 62.7705C713.087 62.7705 712.67 62.9756 712.67 63.3652C712.67 63.6865 712.957 63.8506 713.743 63.9941ZM721.755 62.8936H719.896V65.5938C719.896 66.2773 720.278 66.5781 720.866 66.5781C721.194 66.5781 721.611 66.5234 721.98 66.4209L722.145 67.877C721.741 68.0342 721.092 68.1367 720.559 68.1367C719.116 68.1367 718.146 67.3916 718.146 65.8467V62.8936H717.038V61.4375H718.152V59.332H719.854V61.4375H721.755V62.8936ZM728.816 66.0996L729.062 67.5215C728.427 67.8838 727.545 68.1367 726.588 68.1367C724.264 68.1367 722.773 66.7627 722.773 64.7188C722.773 62.709 724.195 61.3008 726.144 61.3008C728.16 61.3008 729.691 62.8184 729.261 65.2451H724.517C724.694 66.1611 725.515 66.5986 726.595 66.5986C727.408 66.5986 728.167 66.4072 728.816 66.0996ZM724.544 64.0693H727.688C727.641 63.3379 727.087 62.7773 726.185 62.7773C725.248 62.7773 724.619 63.3242 724.544 64.0693ZM732.323 61.4375L732.357 62.333C732.692 61.6494 733.328 61.3008 734.066 61.3008C734.456 61.3008 734.784 61.4033 734.921 61.4512L734.784 63.0166C734.606 62.9551 734.319 62.8662 733.971 62.8662C733.198 62.8662 732.385 63.2832 732.385 64.6367V68H730.628V61.4375H732.323Z" fill="#162C55"/>
<rect x="16" y="88" width="736" height="72" rx="36" fill="#FBF9F7"/>
<path d="M145.069 108C145.069 108 140.052 110.515 134.034 110.515C128.015 110.515 122.998 108 122.998 108C121.426 110.804 121.089 113.913 121.065 117.026C120.985 126.921 126.353 135.982 134.034 139.994C141.718 135.982 147.079 126.921 146.999 117.026C146.975 113.91 146.638 110.804 145.069 108Z" fill="#0095DA"/>
<path d="M143.674 138.449H143.898C144.054 138.449 144.175 138.429 144.238 138.39C144.305 138.355 144.335 138.286 144.335 138.196C144.335 138.108 144.308 138.037 144.241 138.014C144.181 137.972 144.078 137.955 143.924 137.955H143.667V138.449H143.674ZM143.507 137.826H144.074C144.218 137.826 144.328 137.858 144.415 137.926C144.498 137.981 144.538 138.066 144.538 138.183C144.538 138.387 144.415 138.514 144.165 138.556C144.261 138.614 144.335 138.676 144.378 138.738C144.422 138.796 144.495 138.945 144.595 139.172H144.388C144.261 138.906 144.168 138.741 144.094 138.679C144.024 138.614 143.911 138.575 143.754 138.575H143.674V139.172H143.507V137.826ZM145.373 138.484C145.373 138.124 145.243 137.806 144.979 137.556C144.715 137.293 144.398 137.164 144.031 137.164C143.661 137.164 143.347 137.29 143.083 137.556C142.819 137.806 142.692 138.124 142.692 138.484C142.692 138.845 142.819 139.153 143.083 139.419C143.347 139.675 143.657 139.805 144.031 139.805C144.398 139.805 144.715 139.675 144.979 139.419C145.243 139.156 145.373 138.845 145.373 138.484ZM142.492 138.484C142.492 138.072 142.639 137.712 142.946 137.413C143.243 137.125 143.604 136.979 144.028 136.979C144.452 136.979 144.812 137.125 145.113 137.413C145.413 137.712 145.567 138.072 145.567 138.484C145.567 138.9 145.416 139.26 145.113 139.552C144.812 139.844 144.452 140 144.028 140C143.604 140 143.243 139.847 142.946 139.552C142.639 139.26 142.492 138.9 142.492 138.484Z" fill="#0095DA"/>
<path d="M60.2193 139.101C59.9623 139.212 59.5283 139.403 58.7005 139.403C57.0949 139.403 56 138.446 56 137.044C56 135.645 57.0916 134.688 58.6905 134.688C59.3214 134.688 59.8922 134.853 60.1592 134.976L60.0858 135.645C59.8321 135.528 59.318 135.363 58.6905 135.363C57.5555 135.363 56.7844 136.044 56.7844 137.044C56.7844 138.047 57.5956 138.735 58.7806 138.735C59.3381 138.735 59.8354 138.582 60.1125 138.429L60.2193 139.101Z" fill="black"/>
<path d="M66.2547 138.384H63.878L63.4975 139.338H62.7197L64.6625 134.752H65.4603L67.4097 139.338H66.6319L66.2547 138.384ZM64.075 137.793H66.0344L65.0631 135.547L64.075 137.793Z" fill="black"/>
<path d="M73.5412 139.338H70.123V134.752H70.8541V138.692H73.5379V139.338H73.5412Z" fill="black"/>
<path d="M77.0265 139.338H76.2988V134.752H77.0265V139.338Z" fill="black"/>
<path d="M81.0519 139.338H80.3242V134.752H83.6055V135.398H81.0519V136.676H83.0548V137.322H81.0519V139.338Z" fill="black"/>
<path d="M88.4462 134.688C89.8815 134.688 90.943 135.687 90.943 137.07C90.943 138.442 89.8815 139.406 88.4462 139.406C87.0375 139.406 85.9727 138.446 85.9727 137.07C85.9727 135.684 87.0342 134.688 88.4462 134.688ZM88.4462 138.735C89.4843 138.735 90.1786 138.063 90.1786 137.063C90.1786 136.067 89.4843 135.359 88.4462 135.359C87.4347 135.359 86.7437 136.067 86.7437 137.063C86.7437 138.063 87.4347 138.735 88.4462 138.735Z" fill="black"/>
<path d="M95.9832 137.932H94.6847V139.338H93.957V134.752H96.0934C96.978 134.752 97.7391 135.255 97.7391 136.352C97.7391 137.085 97.3218 137.598 96.7477 137.816L98.0395 139.331H97.1482L95.9832 137.932ZM94.6847 135.398V137.296H95.9565C96.5207 137.296 96.978 136.943 96.978 136.362C96.978 135.719 96.5207 135.401 95.9565 135.401H94.6847V135.398Z" fill="black"/>
<path d="M101.605 139.338H100.877V134.752H101.605L104.616 138.247V134.752H105.343V139.338H104.606L101.601 135.878V139.338H101.605Z" fill="black"/>
<path d="M109.372 139.338H108.645V134.752H109.372V139.338Z" fill="black"/>
<path d="M115.632 138.384H113.255L112.874 139.338H112.097L114.039 134.752H114.837L116.787 139.338H116.009L115.632 138.384ZM113.452 137.793H115.411L114.44 135.547L113.452 137.793Z" fill="black"/>
<path d="M56.1465 131V109.438H58.0358V119.132C59.1708 117.369 61.4373 115.993 64.3047 115.993C68.6676 115.993 71.9589 119.346 71.9589 123.665C71.9589 127.969 68.6676 131.308 64.3047 131.308C61.454 131.308 59.1841 129.962 58.0358 128.216V131.003H56.1465V131ZM70.103 123.665C70.103 120.281 67.566 117.678 64.1812 117.678C60.6228 117.678 57.9424 120.281 57.9424 123.665C57.9424 127.018 60.6195 129.624 64.1812 129.624C67.566 129.621 70.103 127.018 70.103 123.665Z" fill="black"/>
<path d="M76.4189 109.438H78.3083V131H76.4189V109.438Z" fill="black"/>
<path d="M95.3992 116.299H97.2585V125.029C97.2585 128.69 94.7082 131.309 90.4388 131.309C86.1694 131.309 83.6191 128.69 83.6191 125.123V116.302H85.4784V124.74C85.4784 127.986 87.4479 129.595 90.4388 129.595C93.4297 129.595 95.3992 127.989 95.3992 124.74V116.299Z" fill="black"/>
<path d="M115.621 129.851C113.842 130.893 111.953 131.305 109.996 131.305C104.893 131.305 101.381 128.18 101.381 123.649C101.381 119.268 104.609 115.993 109.162 115.993C114.486 115.993 117.117 120.05 116.392 124.324H103.414C103.714 127.709 106.849 129.562 109.776 129.562C111.525 129.562 113.178 129.426 115.21 128.215L115.621 129.851ZM114.626 122.76C114.486 119.865 112.5 117.736 109.222 117.736C106.007 117.736 103.677 119.849 103.457 122.76H114.626Z" fill="black"/>
<path d="M56.1465 131V109.438H58.0358V119.132C59.1708 117.369 61.4373 115.993 64.3047 115.993C68.6676 115.993 71.9589 119.346 71.9589 123.665C71.9589 127.969 68.6676 131.308 64.3047 131.308C61.454 131.308 59.1841 129.962 58.0358 128.216V131.003H56.1465V131ZM70.103 123.665C70.103 120.281 67.566 117.678 64.1812 117.678C60.6228 117.678 57.9424 120.281 57.9424 123.665C57.9424 127.018 60.6195 129.624 64.1812 129.624C67.566 129.621 70.103 127.018 70.103 123.665Z" fill="black"/>
<path d="M76.4189 109.438H78.3083V131H76.4189V109.438Z" fill="black"/>
<path d="M95.3992 116.299H97.2585V125.029C97.2585 128.69 94.7082 131.309 90.4388 131.309C86.1694 131.309 83.6191 128.69 83.6191 125.123V116.302H85.4784V124.74C85.4784 127.986 87.4479 129.595 90.4388 129.595C93.4297 129.595 95.3992 127.989 95.3992 124.74V116.299Z" fill="black"/>
<path d="M115.621 129.851C113.842 130.893 111.953 131.305 109.996 131.305C104.893 131.305 101.381 128.18 101.381 123.649C101.381 119.268 104.609 115.993 109.162 115.993C114.486 115.993 117.117 120.05 116.392 124.324H103.414C103.714 127.709 106.849 129.562 109.776 129.562C111.525 129.562 113.178 129.426 115.21 128.215L115.621 129.851ZM114.626 122.76C114.486 119.865 112.5 117.736 109.222 117.736C106.007 117.736 103.677 119.849 103.457 122.76H114.626Z" fill="black"/>
<path d="M163 108V140" stroke="#B8B9BB"/>
<path d="M186.391 125.352H186.078L181.828 120.414V129H180.547V118.391H181.812L186.227 123.68L190.625 118.391H191.875V129H190.594V120.398L186.391 125.352ZM202.062 121.5V129H200.82V127.766C200.258 128.57 199.273 129.156 197.93 129.156C195.781 129.156 194.148 127.484 194.148 125.227C194.148 122.977 195.781 121.344 197.93 121.344C199.273 121.344 200.258 121.922 200.82 122.727V121.5H202.062ZM198.055 122.469C196.492 122.469 195.383 123.68 195.383 125.227C195.383 126.781 196.492 128.031 198.055 128.031C199.656 128.031 200.836 126.781 200.836 125.227C200.836 123.68 199.656 122.469 198.055 122.469ZM205.906 121.5V122.609C206.328 121.742 207.07 121.344 207.93 121.344C208.461 121.344 208.852 121.477 208.992 121.539L208.867 122.688C208.656 122.609 208.367 122.5 207.883 122.5C206.883 122.5 205.906 123.156 205.906 124.836V129H204.656V121.5H205.906ZM210.609 129V118H211.852V124.586H213.453L215.469 121.5H216.852L214.422 125.156L217.242 129H215.789L213.375 125.656H211.852V129H210.609ZM225.031 127.297L225.25 128.422C224.375 128.93 223.43 129.156 222.422 129.156C219.898 129.156 218.156 127.562 218.156 125.25C218.156 123.016 219.766 121.344 222.016 121.344C224.555 121.344 225.992 123.398 225.586 125.703H219.453C219.664 127.18 220.914 127.992 222.367 127.992C223.242 127.992 224.023 127.844 225.031 127.297ZM219.484 124.688H224.453C224.367 123.406 223.484 122.5 222.055 122.5C220.641 122.5 219.602 123.406 219.484 124.688ZM231.742 122.57H229.352V126.625C229.352 127.609 229.883 128.039 230.648 128.039C231.055 128.039 231.57 127.961 231.93 127.828L232.094 128.898C231.773 129.039 231.125 129.156 230.516 129.156C229.07 129.156 228.109 128.359 228.109 126.828V122.57H226.727V121.5H228.117V119.094H229.344V121.5H231.742V122.57Z" fill="black"/>
<path fill-rule="evenodd" clip-rule="evenodd" d="M687 115H713C713.265 115 713.52 114.895 713.707 114.707C713.895 114.52 714 114.265 714 114C714 113.735 713.895 113.48 713.707 113.293C713.52 113.105 713.265 113 713 113H687C686.735 113 686.48 113.105 686.293 113.293C686.105 113.48 686 113.735 686 114C686 114.265 686.105 114.52 686.293 114.707C686.48 114.895 686.735 115 687 115ZM713 123H687C686.735 123 686.48 123.105 686.293 123.293C686.105 123.48 686 123.735 686 124C686 124.265 686.105 124.52 686.293 124.707C686.48 124.895 686.735 125 687 125H713C713.265 125 713.52 124.895 713.707 124.707C713.895 124.52 714 124.265 714 124C714 123.735 713.895 123.48 713.707 123.293C713.52 123.105 713.265 123 713 123ZM687 133H713C713.265 133 713.52 133.105 713.707 133.293C713.895 133.48 714 133.735 714 134C714 134.265 713.895 134.52 713.707 134.707C713.52 134.895 713.265 135 713 135H687C686.735 135 686.48 134.895 686.293 134.707C686.105 134.52 686 134.265 686 134C686 133.735 686.105 133.48 686.293 133.293C686.48 133.105 686.735 133 687 133Z" fill="#162C55"/>
<path d="M37.72 180.485C37.6542 180.486 37.589 180.473 37.528 180.448C37.4671 180.423 37.4117 180.387 37.365 180.34L34 176.985L37.34 173.645C37.4337 173.552 37.5604 173.5 37.6925 173.5C37.8246 173.5 37.9513 173.552 38.045 173.645C38.0919 173.692 38.1291 173.747 38.1544 173.808C38.1798 173.869 38.1929 173.934 38.1929 174C38.1929 174.066 38.1798 174.132 38.1544 174.193C38.1291 174.254 38.0919 174.309 38.045 174.355L35.415 176.985L38.075 179.645C38.1219 179.692 38.1591 179.747 38.1844 179.808C38.2098 179.869 38.2229 179.934 38.2229 180C38.2229 180.066 38.2098 180.132 38.1844 180.193C38.1591 180.254 38.1219 180.309 38.075 180.355C37.9782 180.444 37.8508 180.49 37.72 180.485V180.485Z" fill="#94989E"/>
<path d="M55.4839 181V177.058H50.3042V181H49.2568V172.38H50.3042V176.106H55.4839V172.38H56.5312V181H55.4839ZM58.3657 177.953C58.3657 176.169 59.7495 174.779 61.603 174.779C63.4565 174.779 64.8403 176.169 64.8403 177.953C64.8403 179.737 63.4565 181.127 61.603 181.127C59.7495 181.127 58.3657 179.737 58.3657 177.953ZM59.375 177.953C59.375 179.21 60.3208 180.188 61.603 180.188C62.8853 180.188 63.8311 179.21 63.8311 177.953C63.8311 176.696 62.8853 175.719 61.603 175.719C60.3208 175.719 59.375 176.696 59.375 177.953ZM73.9365 174.779C75.5234 174.779 76.4692 175.782 76.4692 177.274V181H75.46V177.521C75.46 176.398 74.8379 175.731 73.7778 175.731C72.7876 175.731 71.9688 176.423 71.9688 177.502V181H70.9595V177.521C70.9595 176.398 70.3374 175.731 69.3154 175.731C68.2935 175.731 67.481 176.436 67.481 177.541V181H66.4717V174.906H67.481V175.814C67.8174 175.249 68.5283 174.779 69.4805 174.779C70.5596 174.779 71.3403 175.262 71.7085 176.062C72.1211 175.268 72.9463 174.779 73.9365 174.779ZM83.6104 179.616L83.7881 180.53C83.0771 180.943 82.3091 181.127 81.4902 181.127C79.4399 181.127 78.0244 179.832 78.0244 177.953C78.0244 176.138 79.332 174.779 81.1602 174.779C83.2231 174.779 84.3911 176.449 84.061 178.321H79.0781C79.2495 179.521 80.2651 180.181 81.4458 180.181C82.1567 180.181 82.7915 180.061 83.6104 179.616ZM79.1035 177.496H83.1406C83.0708 176.455 82.3535 175.719 81.1919 175.719C80.043 175.719 79.1987 176.455 79.1035 177.496Z" fill="#707275"/>
</svg>
