<svg width="1440" height="128" viewBox="0 0 1440 128" fill="none" xmlns="http://www.w3.org/2000/svg">
<g clip-path="url(#clip0_2553_6898)">
<path d="M1440 0H0V40H1440V0Z" fill="white"/>
<mask id="mask0_2553_6898" style="mask-type:luminance" maskUnits="userSpaceOnUse" x="32" y="8" width="222" height="24">
<path d="M254 8H32V32H254V8Z" fill="white"/>
</mask>
<g mask="url(#mask0_2553_6898)">
<path d="M39.9994 12.6665C38.549 12.6665 37.1311 13.0966 35.9252 13.9024C34.7192 14.7082 33.7793 15.8535 33.2242 17.1935C32.6692 18.5335 32.524 20.008 32.8069 21.4305C33.0899 22.8531 33.7883 24.1597 34.8139 25.1853C35.8395 26.2109 37.1462 26.9093 38.5687 27.1923C39.9912 27.4753 41.4657 27.33 42.8057 26.775C44.1457 26.22 45.291 25.28 46.0968 24.0741C46.9026 22.8681 47.3327 21.4503 47.3327 19.9999C47.3248 18.0574 46.5496 16.1967 45.1761 14.8232C43.8025 13.4496 41.9418 12.6744 39.9994 12.6665ZM41.626 16.5565C41.6894 16.5965 41.756 16.6399 41.816 16.6865C41.8789 16.7416 41.9359 16.803 41.986 16.8699C42.0304 16.9455 42.0944 17.0078 42.1713 17.05C42.2482 17.0923 42.335 17.1129 42.4227 17.1099C42.6794 17.0832 42.7994 16.8432 42.936 16.5632C43.0119 16.3901 43.0721 16.2104 43.116 16.0265H43.2794C43.3227 16.1065 43.3727 16.2065 43.416 16.2832C43.4945 16.4479 43.5859 16.6062 43.6894 16.7565C43.7613 16.8443 43.843 16.9237 43.9327 16.9932C43.9494 16.9932 43.966 17.0165 43.966 16.9932C43.966 16.9699 43.966 17.0132 43.966 17.0699C43.9899 17.2303 43.9592 17.3941 43.8788 17.5349C43.7984 17.6758 43.673 17.7855 43.5227 17.8465C43.2348 18.0124 42.9813 18.2319 42.776 18.4932C42.6322 18.6966 42.4366 18.8578 42.2094 18.9599C41.9879 18.9856 41.7642 18.9856 41.5427 18.9599C40.876 18.9165 40.1194 18.8665 39.9027 19.3899C39.6094 20.1099 40.4927 20.6465 40.9027 20.9032L41.0294 20.9832L41.1494 21.0632C41.4292 21.2933 41.7695 21.438 42.1294 21.4799C42.2206 21.4751 42.3099 21.4522 42.3923 21.4128C42.4747 21.3733 42.5484 21.3179 42.6094 21.2499C42.626 21.2299 42.6527 21.2065 42.636 21.2099C43.496 21.0832 44.1194 21.4832 44.2594 22.2599C44.2695 22.318 44.2949 22.3724 44.333 22.4175C44.3711 22.4626 44.4204 22.4968 44.476 22.5165C44.6227 22.5665 44.6427 22.6332 44.6494 22.6599C44.7294 22.9132 44.4827 23.4399 43.8994 24.2465L43.726 24.4899C43.2494 25.1565 42.7594 25.8565 41.996 26.0799C42.1944 25.6811 42.3455 25.2605 42.446 24.8265C42.536 24.3432 42.496 24.1599 42.2494 23.9332C42.1461 23.8386 42.0613 23.7255 41.9994 23.5999C41.8436 23.1994 41.7655 22.7729 41.7694 22.3432C41.7649 22.2802 41.78 22.2173 41.8127 22.1632C42.016 21.8132 41.7727 21.6265 41.4794 21.3865C41.1952 21.1928 40.881 21.0475 40.5494 20.9565C40.3381 20.897 40.1336 20.8154 39.9394 20.7132C39.3686 20.3289 38.8997 19.8119 38.5727 19.2065C38.3246 18.709 38.1902 18.1624 38.1794 17.6065C38.154 17.2443 38.1016 16.8844 38.0227 16.5299C37.7227 15.2899 36.9494 14.9232 36.1227 14.8332L36.2327 14.7399L36.296 14.6865C36.7627 14.2732 36.9627 14.1065 37.296 14.1732L37.4727 14.2099C37.8666 14.312 38.2724 14.3614 38.6794 14.3565C38.8652 14.3341 39.0491 14.2973 39.2294 14.2465C39.3729 14.2082 39.5187 14.1792 39.666 14.1599C39.7441 14.1507 39.8232 14.1585 39.898 14.1826C39.9727 14.2068 40.0414 14.2468 40.0994 14.2999C40.3066 14.4563 40.5516 14.5552 40.8094 14.5865C40.9576 14.604 41.1068 14.6117 41.256 14.6099C41.3933 14.6078 41.5305 14.6178 41.666 14.6399C41.3553 14.8659 41.1383 15.1979 41.056 15.5732C41.0323 15.7767 41.075 15.9823 41.1777 16.1595C41.2805 16.3367 41.4377 16.476 41.626 16.5565ZM33.3327 19.9999C33.334 18.3257 33.9673 16.7138 35.106 15.4865C36.3194 15.4465 37.0794 15.5065 37.3694 16.6932C37.4393 17.0138 37.4849 17.3391 37.506 17.6665C37.527 18.3202 37.6956 18.9607 37.9994 19.5399C38.3812 20.2483 38.9305 20.8525 39.5994 21.2999C39.8331 21.4235 40.0788 21.5229 40.3327 21.5965C40.5923 21.6679 40.8387 21.7804 41.0627 21.9299L41.166 22.0099C41.1297 22.1173 41.1106 22.2298 41.1094 22.3432C41.105 22.8843 41.2104 23.4207 41.4194 23.9199C41.5164 24.1089 41.6475 24.2784 41.806 24.4199L41.8327 24.4432C41.8277 24.5296 41.8154 24.6155 41.796 24.6999C41.7056 25.0818 41.5714 25.4521 41.396 25.8032C41.3094 25.9999 41.2227 26.1899 41.1494 26.3765C41.1345 26.4368 41.1345 26.4997 41.1494 26.5599C40.1909 26.7331 39.2062 26.6932 38.2649 26.443C37.3236 26.1929 36.449 25.7387 35.7029 25.1126C34.9569 24.4865 34.3578 23.7039 33.9482 22.8203C33.5386 21.9367 33.3284 20.9738 33.3327 19.9999ZM43.9027 25.3932C44.0327 25.2232 44.156 25.0599 44.2727 24.8865L44.4594 24.6232C45.0027 23.8699 45.4827 23.0865 45.2894 22.4732C45.2238 22.2599 45.0763 22.0813 44.8794 21.9765C44.6127 20.9532 43.6927 20.3865 42.546 20.5599C42.3952 20.5878 42.2579 20.6652 42.156 20.7799C42.136 20.7965 42.1094 20.8232 42.1227 20.8232C41.909 20.7661 41.7101 20.6638 41.5394 20.5232C41.4927 20.4932 41.4494 20.4599 41.4094 20.4365L41.2527 20.3332C40.586 19.9232 40.4727 19.7299 40.496 19.6665C40.6127 19.5699 41.206 19.6099 41.496 19.6299C41.8111 19.6741 42.1315 19.6628 42.4427 19.5965C42.7806 19.456 43.0734 19.2254 43.2894 18.9299C43.4438 18.7303 43.6336 18.5608 43.8494 18.4299C44.108 18.3107 44.3233 18.1143 44.466 17.8679C44.6086 17.6214 44.6715 17.3368 44.646 17.0532C44.654 16.9371 44.6314 16.8209 44.5805 16.7162C44.5296 16.6116 44.4522 16.522 44.356 16.4565C44.3045 16.4163 44.2575 16.3705 44.216 16.3199C44.1827 16.2765 44.0794 16.0799 44.0094 15.9499C43.7427 15.4499 43.676 15.3432 43.466 15.3432H42.8494C42.7709 15.3418 42.6945 15.3681 42.6335 15.4175C42.5725 15.4669 42.5309 15.5362 42.516 15.6132C42.4762 15.8299 42.4148 16.0421 42.3327 16.2465L42.2294 16.1532C42.1555 16.098 42.0787 16.0468 41.9994 15.9999C41.7394 15.8299 41.7194 15.7932 41.7394 15.6665C41.8607 15.3529 42.1 15.0993 42.406 14.9599C42.4497 14.9394 42.4883 14.9098 42.5194 14.873C42.5505 14.8361 42.5732 14.793 42.586 14.7465C42.5975 14.6997 42.5993 14.651 42.5913 14.6034C42.5833 14.5558 42.5656 14.5104 42.5394 14.4699C42.1794 13.9532 41.666 13.9499 41.2694 13.9432C41.1461 13.9501 41.0226 13.9501 40.8994 13.9432C40.7444 13.921 40.5982 13.8577 40.476 13.7599C40.2291 13.5677 39.9171 13.4792 39.606 13.5132C39.4248 13.5374 39.2455 13.5742 39.0694 13.6232C38.9227 13.6641 38.7735 13.6952 38.6227 13.7165C38.4125 13.7174 38.2031 13.6916 37.9994 13.6399C39.507 13.1725 41.1316 13.2552 42.584 13.8733C44.0364 14.4914 45.2223 15.6048 45.9308 17.0154C46.6393 18.4259 46.8243 20.042 46.4529 21.5762C46.0815 23.1103 45.1778 24.4629 43.9027 25.3932Z" fill="#767676"/>
<path d="M63.2098 24.0001H57.0918V14.6621H63.2098V15.6981H58.2538V18.7081H63.1118V19.7441H58.2538V22.9641H63.2098V24.0001ZM70.7945 24.0001H69.7585V19.5761C69.7585 18.3721 69.1425 18.0081 68.2325 18.0081C67.4065 18.0081 66.6365 18.5121 66.2305 19.0581V24.0001H65.1805V17.2381H66.2305V18.2181C66.7065 17.6441 67.6305 17.0701 68.6525 17.0701C70.0525 17.0701 70.7945 17.7841 70.7945 19.2541V24.0001ZM75.7811 26.7441C74.6471 26.7441 73.8631 26.5201 73.0511 25.7221L73.5831 24.9661C74.1431 25.6241 74.8151 25.8761 75.7811 25.8761C76.9011 25.8761 77.9651 25.3301 77.9651 23.9021V22.8801C77.4611 23.5661 76.6351 24.0841 75.6831 24.0841C73.9191 24.0841 72.6731 22.7681 72.6731 20.5841C72.6731 18.4141 73.9051 17.0701 75.6831 17.0701C76.5931 17.0701 77.4191 17.5181 77.9651 18.2601V17.2381H79.0151V23.9021C79.0151 26.0441 77.4331 26.7441 75.7811 26.7441ZM75.9491 23.1461C76.7751 23.1461 77.5871 22.6421 77.9651 22.0541V19.0861C77.5871 18.5121 76.7751 18.0081 75.9491 18.0081C74.5771 18.0081 73.7651 19.0861 73.7651 20.5841C73.7651 22.0681 74.5771 23.1461 75.9491 23.1461ZM82.3278 24.0001H81.2778V14.6621H82.3278V24.0001ZM85.1144 16.2721C84.7224 16.2721 84.4004 15.9641 84.4004 15.5721C84.4004 15.1801 84.7224 14.8581 85.1144 14.8581C85.5064 14.8581 85.8144 15.1801 85.8144 15.5721C85.8144 15.9641 85.5064 16.2721 85.1144 16.2721ZM85.6324 24.0001H84.5824V17.2381H85.6324V24.0001ZM90.0429 24.1681C88.9229 24.1681 87.9989 23.8181 87.3129 23.1041L87.8449 22.3481C88.2929 22.8661 89.1469 23.3141 90.0709 23.3141C91.1069 23.3141 91.6809 22.8241 91.6809 22.1521C91.6809 20.5141 87.4949 21.5221 87.4949 19.0161C87.4949 17.9521 88.3909 17.0701 90.0009 17.0701C91.1629 17.0701 91.9749 17.5041 92.5069 18.0501L92.0169 18.7781C91.6109 18.2881 90.8829 17.9241 90.0009 17.9241C89.0769 17.9241 88.5029 18.3861 88.5029 18.9881C88.5029 20.4581 92.6889 19.4921 92.6889 22.1241C92.6889 23.2581 91.7789 24.1681 90.0429 24.1681ZM100.183 24.0001H99.1327V19.5481C99.1327 18.3441 98.5307 18.0081 97.6067 18.0081C96.7947 18.0081 96.0107 18.5121 95.6187 19.0581V24.0001H94.5687V14.6621H95.6187V18.2181C96.0807 17.6441 97.0047 17.0701 98.0267 17.0701C99.4407 17.0701 100.183 17.7561 100.183 19.2261V24.0001Z" fill="#25282A"/>
<path d="M114.004 22L110.574 18.433C110.551 18.4098 110.532 18.3822 110.519 18.3518C110.507 18.3214 110.5 18.2888 110.5 18.2559C110.5 18.2229 110.507 18.1903 110.519 18.1599C110.532 18.1296 110.551 18.102 110.574 18.0788C110.597 18.0554 110.625 18.0368 110.655 18.0242C110.686 18.0115 110.718 18.005 110.751 18.005C110.784 18.005 110.817 18.0115 110.848 18.0242C110.878 18.0368 110.906 18.0554 110.929 18.0788L113.999 21.2666L117.069 18.0738C117.092 18.0504 117.12 18.0318 117.15 18.0192C117.181 18.0065 117.213 18 117.246 18C117.279 18 117.312 18.0065 117.343 18.0192C117.373 18.0318 117.401 18.0504 117.424 18.0738C117.447 18.097 117.466 18.1246 117.479 18.155C117.491 18.1854 117.498 18.218 117.498 18.2509C117.498 18.2838 117.491 18.3164 117.479 18.3468C117.466 18.3772 117.447 18.4048 117.424 18.428L114.004 22Z" fill="#767676"/>
<path d="M134.5 8V32" stroke="#F4F4F4"/>
<path d="M152.254 24.0001H151.092V14.6621H154.844C156.72 14.6621 157.77 15.9501 157.77 17.4761C157.77 19.0021 156.706 20.2901 154.844 20.2901H152.254V24.0001ZM154.704 19.2541C155.81 19.2541 156.566 18.5261 156.566 17.4761C156.566 16.4261 155.81 15.6981 154.704 15.6981H152.254V19.2541H154.704ZM164.431 24.0001H163.381V23.2301C162.835 23.8461 162.051 24.1681 161.141 24.1681C160.007 24.1681 158.789 23.3981 158.789 21.9281C158.789 20.4021 159.993 19.7021 161.141 19.7021C162.065 19.7021 162.835 19.9961 163.381 20.6121V19.3941C163.381 18.4981 162.653 17.9801 161.673 17.9801C160.861 17.9801 160.203 18.2601 159.601 18.9181L159.111 18.1901C159.839 17.4341 160.707 17.0701 161.813 17.0701C163.255 17.0701 164.431 17.7141 164.431 19.3521V24.0001ZM161.533 23.4121C162.261 23.4121 162.975 23.1321 163.381 22.5721V21.2841C162.975 20.7381 162.261 20.4581 161.533 20.4581C160.539 20.4581 159.853 21.0741 159.853 21.9281C159.853 22.7961 160.539 23.4121 161.533 23.4121ZM166.346 26.6461L166.5 25.6941C166.654 25.7641 166.906 25.8061 167.074 25.8061C167.536 25.8061 167.844 25.6521 168.082 25.0921L168.53 24.0701L165.702 17.2381H166.85L169.09 22.7821L171.344 17.2381H172.478L169.09 25.3721C168.684 26.3521 167.998 26.7301 167.102 26.7441C166.878 26.7441 166.528 26.7021 166.346 26.6461ZM186.728 24.0001H185.678V19.4081C185.678 18.5541 185.314 18.0081 184.432 18.0081C183.732 18.0081 182.99 18.4981 182.64 19.0441V24.0001H181.59V19.4081C181.59 18.5541 181.24 18.0081 180.344 18.0081C179.658 18.0081 178.93 18.5121 178.566 19.0581V24.0001H177.516V17.2381H178.566V18.2181C178.86 17.7841 179.756 17.0701 180.764 17.0701C181.786 17.0701 182.374 17.6301 182.57 18.3301C182.948 17.7141 183.858 17.0701 184.838 17.0701C186.07 17.0701 186.728 17.7561 186.728 19.1141V24.0001ZM188.619 26.6461L188.773 25.6941C188.927 25.7641 189.179 25.8061 189.347 25.8061C189.809 25.8061 190.117 25.6521 190.355 25.0921L190.803 24.0701L187.975 17.2381H189.123L191.363 22.7821L193.617 17.2381H194.751L191.363 25.3721C190.957 26.3521 190.271 26.7301 189.375 26.7441C189.151 26.7441 188.801 26.7021 188.619 26.6461ZM203.121 24.1681C202.197 24.1681 201.399 23.7201 200.839 22.9781V26.5761H199.789V17.2381H200.839V18.2461C201.329 17.5601 202.169 17.0701 203.121 17.0701C204.899 17.0701 206.131 18.4141 206.131 20.6121C206.131 22.7961 204.899 24.1681 203.121 24.1681ZM202.855 23.2301C204.213 23.2301 205.025 22.1101 205.025 20.6121C205.025 19.1141 204.213 18.0081 202.855 18.0081C202.029 18.0081 201.203 18.4981 200.839 19.0861V22.1381C201.203 22.7261 202.029 23.2301 202.855 23.2301ZM209.011 24.0001H207.961V17.2381H209.011V18.3161C209.557 17.6161 210.341 17.0841 211.265 17.0841V18.1621C211.139 18.1481 211.013 18.1341 210.859 18.1341C210.201 18.1341 209.319 18.6661 209.011 19.2121V24.0001ZM215.808 24.1681C213.792 24.1681 212.35 22.7261 212.35 20.6121C212.35 18.6521 213.75 17.0701 215.682 17.0701C217.726 17.0701 218.93 18.6661 218.93 20.6961V20.9621H213.47C213.554 22.2361 214.436 23.3001 215.892 23.3001C216.676 23.3001 217.446 22.9921 217.992 22.4321L218.496 23.1181C217.81 23.7901 216.9 24.1681 215.808 24.1681ZM217.894 20.1781C217.88 19.1841 217.208 17.9381 215.668 17.9381C214.226 17.9381 213.512 19.1561 213.456 20.1781H217.894ZM230.003 24.0001H228.953V19.4081C228.953 18.5541 228.589 18.0081 227.707 18.0081C227.007 18.0081 226.265 18.4981 225.915 19.0441V24.0001H224.865V19.4081C224.865 18.5541 224.515 18.0081 223.619 18.0081C222.933 18.0081 222.205 18.5121 221.841 19.0581V24.0001H220.791V17.2381H221.841V18.2181C222.135 17.7841 223.031 17.0701 224.039 17.0701C225.061 17.0701 225.649 17.6301 225.845 18.3301C226.223 17.7141 227.133 17.0701 228.113 17.0701C229.345 17.0701 230.003 17.7561 230.003 19.1141V24.0001ZM232.789 16.2721C232.397 16.2721 232.075 15.9641 232.075 15.5721C232.075 15.1801 232.397 14.8581 232.789 14.8581C233.181 14.8581 233.489 15.1801 233.489 15.5721C233.489 15.9641 233.181 16.2721 232.789 16.2721ZM233.307 24.0001H232.257V17.2381H233.307V24.0001ZM241.176 24.0001H240.126V23.0481C239.608 23.6361 238.726 24.1681 237.718 24.1681C236.304 24.1681 235.562 23.4681 235.562 22.0121V17.2381H236.612V21.6901C236.612 22.8801 237.214 23.2301 238.138 23.2301C238.95 23.2301 239.734 22.7541 240.126 22.2081V17.2381H241.176V24.0001ZM252.645 24.0001H251.595V19.4081C251.595 18.5541 251.231 18.0081 250.349 18.0081C249.649 18.0081 248.907 18.4981 248.557 19.0441V24.0001H247.507V19.4081C247.507 18.5541 247.157 18.0081 246.261 18.0081C245.575 18.0081 244.847 18.5121 244.483 19.0581V24.0001H243.433V17.2381H244.483V18.2181C244.777 17.7841 245.673 17.0701 246.681 17.0701C247.703 17.0701 248.291 17.6301 248.487 18.3301C248.865 17.7141 249.775 17.0701 250.755 17.0701C251.987 17.0701 252.645 17.7561 252.645 19.1141V24.0001Z" fill="#25282A"/>
</g>
<path d="M1037.09 24.0001H1036.01V15.3291H1041.7V16.2911H1037.09V19.0861H1041.6V20.0481H1037.09V24.0001ZM1045.96 24.1561C1044.05 24.1561 1042.85 22.6741 1042.85 20.8541C1042.85 19.0341 1044.05 17.5651 1045.96 17.5651C1047.87 17.5651 1049.07 19.0341 1049.07 20.8541C1049.07 22.6741 1047.87 24.1561 1045.96 24.1561ZM1045.96 23.2851C1047.3 23.2851 1048.04 22.1411 1048.04 20.8541C1048.04 19.5801 1047.3 18.4361 1045.96 18.4361C1044.62 18.4361 1043.88 19.5801 1043.88 20.8541C1043.88 22.1411 1044.62 23.2851 1045.96 23.2851ZM1051.71 24.0001H1050.73V17.7211H1051.71V18.7221C1052.22 18.0721 1052.94 17.5781 1053.8 17.5781V18.5791C1053.69 18.5661 1053.57 18.5531 1053.43 18.5531C1052.81 18.5531 1052 19.0471 1051.71 19.5541V24.0001ZM1064.27 24.0001H1058.59V15.3291H1064.27V16.2911H1059.67V19.0861H1064.18V20.0481H1059.67V23.0381H1064.27V24.0001ZM1074.59 24.0001H1073.61V19.7361C1073.61 18.9431 1073.27 18.4361 1072.45 18.4361C1071.8 18.4361 1071.11 18.8911 1070.79 19.3981V24.0001H1069.81V19.7361C1069.81 18.9431 1069.49 18.4361 1068.66 18.4361C1068.02 18.4361 1067.34 18.9041 1067.01 19.4111V24.0001H1066.03V17.7211H1067.01V18.6311C1067.28 18.2281 1068.11 17.5651 1069.05 17.5651C1070 17.5651 1070.54 18.0851 1070.72 18.7351C1071.08 18.1631 1071.92 17.5651 1072.83 17.5651C1073.97 17.5651 1074.59 18.2021 1074.59 19.4631V24.0001ZM1079.7 24.1561C1078.85 24.1561 1078.11 23.7401 1077.59 23.0511V26.3921H1076.61V17.7211H1077.59V18.6571C1078.04 18.0201 1078.82 17.5651 1079.7 17.5651C1081.36 17.5651 1082.5 18.8131 1082.5 20.8541C1082.5 22.8821 1081.36 24.1561 1079.7 24.1561ZM1079.46 23.2851C1080.72 23.2851 1081.47 22.2451 1081.47 20.8541C1081.47 19.4631 1080.72 18.4361 1079.46 18.4361C1078.69 18.4361 1077.92 18.8911 1077.59 19.4371V22.2711C1077.92 22.8171 1078.69 23.2851 1079.46 23.2851ZM1085.1 24.0001H1084.13V15.3291H1085.1V24.0001ZM1089.87 24.1561C1087.96 24.1561 1086.77 22.6741 1086.77 20.8541C1086.77 19.0341 1087.96 17.5651 1089.87 17.5651C1091.78 17.5651 1092.98 19.0341 1092.98 20.8541C1092.98 22.6741 1091.78 24.1561 1089.87 24.1561ZM1089.87 23.2851C1091.21 23.2851 1091.95 22.1411 1091.95 20.8541C1091.95 19.5801 1091.21 18.4361 1089.87 18.4361C1088.53 18.4361 1087.79 19.5801 1087.79 20.8541C1087.79 22.1411 1088.53 23.2851 1089.87 23.2851ZM1094.31 26.4571L1094.45 25.5731C1094.6 25.6381 1094.83 25.6771 1094.99 25.6771C1095.42 25.6771 1095.7 25.5341 1095.92 25.0141L1096.34 24.0651L1093.71 17.7211H1094.78L1096.86 22.8691L1098.95 17.7211H1100.01L1096.86 25.2741C1096.48 26.1841 1095.85 26.5351 1095.01 26.5481C1094.81 26.5481 1094.48 26.5091 1094.31 26.4571ZM1103.95 24.1561C1102.08 24.1561 1100.74 22.8171 1100.74 20.8541C1100.74 19.0341 1102.04 17.5651 1103.83 17.5651C1105.73 17.5651 1106.85 19.0471 1106.85 20.9321V21.1791H1101.78C1101.86 22.3621 1102.68 23.3501 1104.03 23.3501C1104.76 23.3501 1105.47 23.0641 1105.98 22.5441L1106.45 23.1811C1105.81 23.8051 1104.96 24.1561 1103.95 24.1561ZM1105.89 20.4511C1105.87 19.5281 1105.25 18.3711 1103.82 18.3711C1102.48 18.3711 1101.82 19.5021 1101.77 20.4511H1105.89ZM1109.48 24.0001H1108.51V17.7211H1109.48V18.7221C1109.99 18.0721 1110.72 17.5781 1111.58 17.5781V18.5791C1111.46 18.5661 1111.34 18.5531 1111.2 18.5531C1110.59 18.5531 1109.77 19.0471 1109.48 19.5541V24.0001ZM1114.88 24.1561C1113.84 24.1561 1112.98 23.8311 1112.35 23.1681L1112.84 22.4661C1113.26 22.9471 1114.05 23.3631 1114.91 23.3631C1115.87 23.3631 1116.4 22.9081 1116.4 22.2841C1116.4 20.7631 1112.51 21.6991 1112.51 19.3721C1112.51 18.3841 1113.35 17.5651 1114.84 17.5651C1115.92 17.5651 1116.67 17.9681 1117.17 18.4751L1116.71 19.1511C1116.34 18.6961 1115.66 18.3581 1114.84 18.3581C1113.98 18.3581 1113.45 18.7871 1113.45 19.3461C1113.45 20.7111 1117.34 19.8141 1117.34 22.2581C1117.34 23.3111 1116.49 24.1561 1114.88 24.1561Z" fill="black"/>
<path d="M1126.5 14.5V25.5" stroke="#767676"/>
<path d="M1136.09 24.0001H1135.01V15.3291H1140.7V16.2911H1136.09V19.0861H1140.6V20.0481H1136.09V24.0001ZM1144.96 24.1561C1143.05 24.1561 1141.85 22.6741 1141.85 20.8541C1141.85 19.0341 1143.05 17.5651 1144.96 17.5651C1146.87 17.5651 1148.07 19.0341 1148.07 20.8541C1148.07 22.6741 1146.87 24.1561 1144.96 24.1561ZM1144.96 23.2851C1146.3 23.2851 1147.04 22.1411 1147.04 20.8541C1147.04 19.5801 1146.3 18.4361 1144.96 18.4361C1143.62 18.4361 1142.88 19.5801 1142.88 20.8541C1142.88 22.1411 1143.62 23.2851 1144.96 23.2851ZM1150.71 24.0001H1149.73V17.7211H1150.71V18.7221C1151.22 18.0721 1151.94 17.5781 1152.8 17.5781V18.5791C1152.69 18.5661 1152.57 18.5531 1152.43 18.5531C1151.81 18.5531 1151 19.0471 1150.71 19.5541V24.0001ZM1161.54 24.0001H1157.59V15.3291H1161.45C1162.96 15.3291 1163.88 16.2391 1163.88 17.5391C1163.88 18.6311 1163.15 19.3591 1162.36 19.5281C1163.28 19.6711 1164.05 20.6201 1164.05 21.6601C1164.05 23.0511 1163.13 24.0001 1161.54 24.0001ZM1161.27 19.0861C1162.24 19.0861 1162.76 18.4881 1162.76 17.6951C1162.76 16.9151 1162.24 16.2911 1161.27 16.2911H1158.67V19.0861H1161.27ZM1161.33 23.0381C1162.33 23.0381 1162.93 22.4661 1162.93 21.5431C1162.93 20.7501 1162.39 20.0481 1161.33 20.0481H1158.67V23.0381H1161.33ZM1166.78 24.0001H1165.81V17.7211H1166.78V18.7221C1167.29 18.0721 1168.02 17.5781 1168.87 17.5781V18.5791C1168.76 18.5661 1168.64 18.5531 1168.5 18.5531C1167.89 18.5531 1167.07 19.0471 1166.78 19.5541V24.0001ZM1172.92 24.1561C1171.01 24.1561 1169.81 22.6741 1169.81 20.8541C1169.81 19.0341 1171.01 17.5651 1172.92 17.5651C1174.83 17.5651 1176.03 19.0341 1176.03 20.8541C1176.03 22.6741 1174.83 24.1561 1172.92 24.1561ZM1172.92 23.2851C1174.26 23.2851 1175 22.1411 1175 20.8541C1175 19.5801 1174.26 18.4361 1172.92 18.4361C1171.58 18.4361 1170.84 19.5801 1170.84 20.8541C1170.84 22.1411 1171.58 23.2851 1172.92 23.2851ZM1183.22 24.0001H1181.97L1179.72 21.1791L1178.67 22.2061V24.0001H1177.7V15.3291H1178.67V21.0621L1181.97 17.7211H1183.21L1180.43 20.5681L1183.22 24.0001ZM1187.26 24.1561C1185.39 24.1561 1184.05 22.8171 1184.05 20.8541C1184.05 19.0341 1185.35 17.5651 1187.15 17.5651C1189.04 17.5651 1190.16 19.0471 1190.16 20.9321V21.1791H1185.09C1185.17 22.3621 1185.99 23.3501 1187.34 23.3501C1188.07 23.3501 1188.78 23.0641 1189.29 22.5441L1189.76 23.1811C1189.12 23.8051 1188.28 24.1561 1187.26 24.1561ZM1189.2 20.4511C1189.19 19.5281 1188.56 18.3711 1187.13 18.3711C1185.79 18.3711 1185.13 19.5021 1185.08 20.4511H1189.2ZM1192.8 24.0001H1191.82V17.7211H1192.8V18.7221C1193.3 18.0721 1194.03 17.5781 1194.89 17.5781V18.5791C1194.77 18.5661 1194.65 18.5531 1194.51 18.5531C1193.9 18.5531 1193.08 19.0471 1192.8 19.5541V24.0001ZM1198.19 24.1561C1197.15 24.1561 1196.3 23.8311 1195.66 23.1681L1196.15 22.4661C1196.57 22.9471 1197.36 23.3631 1198.22 23.3631C1199.18 23.3631 1199.71 22.9081 1199.71 22.2841C1199.71 20.7631 1195.83 21.6991 1195.83 19.3721C1195.83 18.3841 1196.66 17.5651 1198.15 17.5651C1199.23 17.5651 1199.99 17.9681 1200.48 18.4751L1200.03 19.1511C1199.65 18.6961 1198.97 18.3581 1198.15 18.3581C1197.3 18.3581 1196.76 18.7871 1196.76 19.3461C1196.76 20.7111 1200.65 19.8141 1200.65 22.2581C1200.65 23.3111 1199.81 24.1561 1198.19 24.1561Z" fill="black"/>
<path d="M1210.5 14.5V25.5" stroke="#767676"/>
<path d="M1220.09 24.0001H1219.01V15.3291H1224.7V16.2911H1220.09V19.0861H1224.6V20.0481H1220.09V24.0001ZM1228.96 24.1561C1227.05 24.1561 1225.85 22.6741 1225.85 20.8541C1225.85 19.0341 1227.05 17.5651 1228.96 17.5651C1230.87 17.5651 1232.07 19.0341 1232.07 20.8541C1232.07 22.6741 1230.87 24.1561 1228.96 24.1561ZM1228.96 23.2851C1230.3 23.2851 1231.04 22.1411 1231.04 20.8541C1231.04 19.5801 1230.3 18.4361 1228.96 18.4361C1227.62 18.4361 1226.88 19.5801 1226.88 20.8541C1226.88 22.1411 1227.62 23.2851 1228.96 23.2851ZM1234.71 24.0001H1233.73V17.7211H1234.71V18.7221C1235.22 18.0721 1235.94 17.5781 1236.8 17.5781V18.5791C1236.69 18.5661 1236.57 18.5531 1236.43 18.5531C1235.81 18.5531 1235 19.0471 1234.71 19.5541V24.0001ZM1242.67 24.0001H1241.59V15.3291H1245.07C1246.81 15.3291 1247.79 16.5251 1247.79 17.9421C1247.79 19.3591 1246.8 20.5551 1245.07 20.5551H1242.67V24.0001ZM1244.94 19.5931C1245.97 19.5931 1246.67 18.9171 1246.67 17.9421C1246.67 16.9671 1245.97 16.2911 1244.94 16.2911H1242.67V19.5931H1244.94ZM1250.23 24.0001H1249.26V17.7211H1250.23V18.7221C1250.74 18.0721 1251.47 17.5781 1252.33 17.5781V18.5791C1252.21 18.5661 1252.09 18.5531 1251.95 18.5531C1251.34 18.5531 1250.52 19.0471 1250.23 19.5541V24.0001ZM1256.37 24.1561C1254.46 24.1561 1253.27 22.6741 1253.27 20.8541C1253.27 19.0341 1254.46 17.5651 1256.37 17.5651C1258.28 17.5651 1259.48 19.0341 1259.48 20.8541C1259.48 22.6741 1258.28 24.1561 1256.37 24.1561ZM1256.37 23.2851C1257.71 23.2851 1258.45 22.1411 1258.45 20.8541C1258.45 19.5801 1257.71 18.4361 1256.37 18.4361C1255.03 18.4361 1254.29 19.5801 1254.29 20.8541C1254.29 22.1411 1255.03 23.2851 1256.37 23.2851ZM1263.89 24.0001H1262.83L1260.21 17.7211H1261.28L1263.36 22.8691L1265.45 17.7211H1266.51L1263.89 24.0001ZM1268.1 16.8241C1267.73 16.8241 1267.43 16.5381 1267.43 16.1741C1267.43 15.8101 1267.73 15.5111 1268.1 15.5111C1268.46 15.5111 1268.75 15.8101 1268.75 16.1741C1268.75 16.5381 1268.46 16.8241 1268.1 16.8241ZM1268.58 24.0001H1267.6V17.7211H1268.58V24.0001ZM1276.13 24.0001H1275.15V23.0641C1274.69 23.7011 1273.92 24.1561 1273.03 24.1561C1271.4 24.1561 1270.24 22.9081 1270.24 20.8671C1270.24 18.8521 1271.4 17.5651 1273.03 17.5651C1273.88 17.5651 1274.65 17.9811 1275.15 18.6701V15.3291H1276.13V24.0001ZM1273.28 23.2851C1274.05 23.2851 1274.82 22.8301 1275.15 22.2841V19.4501C1274.82 18.9041 1274.05 18.4361 1273.28 18.4361C1272.01 18.4361 1271.25 19.4761 1271.25 20.8671C1271.25 22.2581 1272.01 23.2851 1273.28 23.2851ZM1281.01 24.1561C1279.14 24.1561 1277.8 22.8171 1277.8 20.8541C1277.8 19.0341 1279.1 17.5651 1280.89 17.5651C1282.79 17.5651 1283.91 19.0471 1283.91 20.9321V21.1791H1278.84C1278.91 22.3621 1279.73 23.3501 1281.09 23.3501C1281.81 23.3501 1282.53 23.0641 1283.04 22.5441L1283.5 23.1811C1282.87 23.8051 1282.02 24.1561 1281.01 24.1561ZM1282.94 20.4511C1282.93 19.5281 1282.31 18.3711 1280.88 18.3711C1279.54 18.3711 1278.88 19.5021 1278.82 20.4511H1282.94ZM1286.54 24.0001H1285.57V17.7211H1286.54V18.7221C1287.05 18.0721 1287.78 17.5781 1288.63 17.5781V18.5791C1288.52 18.5661 1288.4 18.5531 1288.26 18.5531C1287.65 18.5531 1286.83 19.0471 1286.54 19.5541V24.0001ZM1291.94 24.1561C1290.9 24.1561 1290.04 23.8311 1289.4 23.1681L1289.9 22.4661C1290.31 22.9471 1291.11 23.3631 1291.96 23.3631C1292.93 23.3631 1293.46 22.9081 1293.46 22.2841C1293.46 20.7631 1289.57 21.6991 1289.57 19.3721C1289.57 18.3841 1290.4 17.5651 1291.9 17.5651C1292.98 17.5651 1293.73 17.9681 1294.23 18.4751L1293.77 19.1511C1293.39 18.6961 1292.72 18.3581 1291.9 18.3581C1291.04 18.3581 1290.51 18.7871 1290.51 19.3461C1290.51 20.7111 1294.4 19.8141 1294.4 22.2581C1294.4 23.3111 1293.55 24.1561 1291.94 24.1561Z" fill="black"/>
<path d="M1318.16 23.9998H1312.82V15.3288H1314.34V22.6608H1318.16V23.9998ZM1322.2 24.1558C1320.19 24.1558 1318.97 22.6478 1318.97 20.8538C1318.97 19.0468 1320.19 17.5648 1322.2 17.5648C1324.2 17.5648 1325.42 19.0468 1325.42 20.8538C1325.42 22.6478 1324.2 24.1558 1322.2 24.1558ZM1322.2 22.9468C1323.37 22.9468 1324 21.9718 1324 20.8538C1324 19.7488 1323.37 18.7738 1322.2 18.7738C1321.04 18.7738 1320.39 19.7488 1320.39 20.8538C1320.39 21.9718 1321.04 22.9468 1322.2 22.9468ZM1329.46 26.5478C1328.39 26.5478 1327.6 26.3138 1326.82 25.6118L1327.45 24.6238C1327.97 25.2088 1328.62 25.4298 1329.46 25.4298C1330.35 25.4298 1331.31 25.0138 1331.31 23.6748V22.9598C1330.83 23.5968 1330.12 24.0128 1329.3 24.0128C1327.7 24.0128 1326.52 22.8558 1326.52 20.7888C1326.52 18.7478 1327.67 17.5648 1329.3 17.5648C1330.09 17.5648 1330.81 17.9158 1331.31 18.5918V17.7208H1332.68V23.6748C1332.68 25.9368 1330.99 26.5478 1329.46 26.5478ZM1329.7 22.7908C1330.34 22.7908 1331 22.4138 1331.31 21.9588V19.6058C1331 19.1508 1330.34 18.7738 1329.7 18.7738C1328.61 18.7738 1327.92 19.5798 1327.92 20.7888C1327.92 21.9978 1328.61 22.7908 1329.7 22.7908ZM1338.65 16.9538C1338.18 16.9538 1337.8 16.5768 1337.8 16.1088C1337.8 15.6408 1338.18 15.2638 1338.65 15.2638C1339.12 15.2638 1339.49 15.6408 1339.49 16.1088C1339.49 16.5768 1339.12 16.9538 1338.65 16.9538ZM1339.32 23.9998H1337.96V17.7208H1339.32V23.9998ZM1346.79 23.9998H1345.43V20.0738C1345.43 19.0858 1344.92 18.7738 1344.15 18.7738C1343.46 18.7738 1342.87 19.1898 1342.54 19.6058V23.9998H1341.18V17.7208H1342.54V18.5658C1342.96 18.0718 1343.78 17.5648 1344.76 17.5648C1346.12 17.5648 1346.79 18.2928 1346.79 19.5798V23.9998ZM1352.21 24.2598H1351.19L1354.27 15.0688H1355.29L1352.21 24.2598ZM1366.45 23.9998H1364.68L1362.77 20.7628H1361.25V23.9998H1359.73V15.3288H1363.54C1365.25 15.3288 1366.38 16.4338 1366.38 18.0458C1366.38 19.5798 1365.37 20.4248 1364.32 20.5938L1366.45 23.9998ZM1363.34 19.4238C1364.2 19.4238 1364.82 18.8778 1364.82 18.0328C1364.82 17.2008 1364.2 16.6678 1363.34 16.6678H1361.25V19.4238H1363.34ZM1370.46 24.1558C1368.56 24.1558 1367.17 22.8428 1367.17 20.8538C1367.17 19.0338 1368.5 17.5648 1370.36 17.5648C1372.24 17.5648 1373.44 18.9948 1373.44 20.9708V21.3088H1368.6C1368.71 22.2448 1369.41 23.0378 1370.59 23.0378C1371.22 23.0378 1371.93 22.7908 1372.39 22.3358L1373.01 23.2328C1372.37 23.8308 1371.45 24.1558 1370.46 24.1558ZM1372.13 20.3338C1372.09 19.5928 1371.58 18.6828 1370.35 18.6828C1369.19 18.6828 1368.64 19.5798 1368.59 20.3338H1372.13ZM1377.43 26.5478C1376.36 26.5478 1375.57 26.3138 1374.79 25.6118L1375.43 24.6238C1375.95 25.2088 1376.6 25.4298 1377.43 25.4298C1378.32 25.4298 1379.29 25.0138 1379.29 23.6748V22.9598C1378.81 23.5968 1378.09 24.0128 1377.27 24.0128C1375.67 24.0128 1374.49 22.8558 1374.49 20.7888C1374.49 18.7478 1375.65 17.5648 1377.27 17.5648C1378.06 17.5648 1378.78 17.9158 1379.29 18.5918V17.7208H1380.65V23.6748C1380.65 25.9368 1378.96 26.5478 1377.43 26.5478ZM1377.67 22.7908C1378.31 22.7908 1378.97 22.4138 1379.29 21.9588V19.6058C1378.97 19.1508 1378.31 18.7738 1377.67 18.7738C1376.58 18.7738 1375.89 19.5798 1375.89 20.7888C1375.89 21.9978 1376.58 22.7908 1377.67 22.7908ZM1383.19 16.9538C1382.72 16.9538 1382.34 16.5768 1382.34 16.1088C1382.34 15.6408 1382.72 15.2638 1383.19 15.2638C1383.66 15.2638 1384.03 15.6408 1384.03 16.1088C1384.03 16.5768 1383.66 16.9538 1383.19 16.9538ZM1383.87 23.9998H1382.5V17.7208H1383.87V23.9998ZM1387.87 24.1558C1386.79 24.1558 1385.83 23.8048 1385.18 23.1678L1385.81 22.1928C1386.25 22.6478 1387.12 23.0638 1387.93 23.0638C1388.74 23.0638 1389.17 22.7258 1389.17 22.2318C1389.17 20.9968 1385.38 21.8808 1385.38 19.4628C1385.38 18.4358 1386.26 17.5648 1387.85 17.5648C1388.91 17.5648 1389.72 17.9418 1390.28 18.4358L1389.71 19.3978C1389.33 18.9818 1388.64 18.6438 1387.85 18.6438C1387.13 18.6438 1386.69 18.9818 1386.69 19.4238C1386.69 20.5288 1390.49 19.6968 1390.49 22.1928C1390.49 23.3108 1389.56 24.1558 1387.87 24.1558ZM1393.83 24.1558C1392.76 24.1558 1392.21 23.5838 1392.21 22.5308V18.9038H1391.17V17.7208H1392.21V16.0048H1393.58V17.7208H1394.85V18.9038H1393.58V22.1928C1393.58 22.6218 1393.79 22.9468 1394.18 22.9468C1394.44 22.9468 1394.67 22.8298 1394.77 22.7128L1395.1 23.7528C1394.85 23.9738 1394.45 24.1558 1393.83 24.1558ZM1399.07 24.1558C1397.17 24.1558 1395.78 22.8428 1395.78 20.8538C1395.78 19.0338 1397.11 17.5648 1398.97 17.5648C1400.85 17.5648 1402.05 18.9948 1402.05 20.9708V21.3088H1397.21C1397.32 22.2448 1398.02 23.0378 1399.2 23.0378C1399.83 23.0378 1400.54 22.7908 1401 22.3358L1401.62 23.2328C1400.98 23.8308 1400.06 24.1558 1399.07 24.1558ZM1400.74 20.3338C1400.7 19.5928 1400.19 18.6828 1398.95 18.6828C1397.8 18.6828 1397.25 19.5798 1397.2 20.3338H1400.74ZM1404.84 23.9998H1403.48V17.7208H1404.84V18.6308C1405.32 18.0328 1406.08 17.5648 1406.88 17.5648V18.9168C1406.76 18.8908 1406.63 18.8778 1406.47 18.8778C1405.88 18.8778 1405.11 19.2678 1404.84 19.7228V23.9998Z" fill="#25282A"/>
<path d="M1440 39H0V40H1440V39Z" fill="#F4F4F4"/>
<path d="M1440 127H0V128H1440V127Z" fill="#F4F4F4"/>
<path d="M1440 40H0V128H1440V40Z" fill="white"/>
<mask id="mask1_2553_6898" style="mask-type:luminance" maskUnits="userSpaceOnUse" x="32" y="59" width="128" height="50">
<path d="M160 59H32V109H160V59Z" fill="white"/>
</mask>
<g mask="url(#mask1_2553_6898)">
<path fill-rule="evenodd" clip-rule="evenodd" d="M32.25 90.8442H35.1483L35.1529 86.6726C37.4624 89.8448 40.5205 91.4768 44.1719 91.4768C50.813 91.4768 55.9478 85.9666 55.9478 79.4846C55.9478 73.0026 50.9042 67.4604 44.2815 67.4604C40.7122 67.4604 37.6313 68.9594 35.1529 71.9666V59.2822H32.25V90.8442ZM43.9665 70.1329C49.0466 70.1329 52.9399 74.4787 52.9399 79.4113L52.949 79.3838C52.949 84.2797 49.2246 88.6071 43.9665 88.6071C38.8408 88.6071 34.9521 84.5776 34.9521 79.3013C34.9521 73.6077 39.3064 70.1329 43.9665 70.1329Z" fill="black"/>
<path d="M60.5391 90.8809H63.4465V75.0838V59.2822H60.5391V75.0838V90.8809Z" fill="black"/>
<path d="M86.0167 68.0791H89.0885V79.8833C89.0885 87.571 85.6333 91.4263 79.1338 91.4263C72.6343 91.4263 69.1289 87.5526 69.1289 79.8833V68.0791H72.2052V79.2003C72.2052 81.6024 72.2052 83.5782 72.8488 84.9534C73.9214 87.2684 76.2674 88.6208 79.1338 88.6208C81.0461 88.6688 82.8965 87.938 84.264 86.5946C86.0578 84.66 86.0167 82.4688 86.0167 79.214V68.0791Z" fill="black"/>
<path fill-rule="evenodd" clip-rule="evenodd" d="M105.118 88.7724C100.225 88.7724 96.7014 84.9538 96.5736 79.7141H116.994C116.908 72.164 111.7 67.479 105.241 67.479C98.1346 67.479 93.5703 73.3192 93.5703 79.5445C93.5703 85.6368 97.8881 91.4266 105.415 91.4266C110.371 91.4266 113.922 89.1529 116.232 84.6054L113.79 83.3172C112.129 86.0585 109.865 88.7724 105.118 88.7724ZM105.287 70.312C109.235 70.312 112.599 72.4253 113.799 77.1378H96.8703C98.1894 72.5032 101.229 70.312 105.287 70.312Z" fill="black"/>
<path fill-rule="evenodd" clip-rule="evenodd" d="M153.993 94.5437C153.504 95.0259 153.235 95.6893 153.249 96.3773L153.276 96.3544C153.258 97.0432 153.528 97.708 154.02 98.188C154.48 98.6767 155.121 98.9508 155.791 98.9444C156.455 98.9613 157.096 98.7045 157.566 98.2339C158.057 97.7526 158.326 97.0886 158.31 96.4002C158.322 95.7126 158.053 95.05 157.566 94.5666C157.099 94.0889 156.458 93.8239 155.791 93.8331C155.119 93.8088 154.468 94.0662 153.993 94.5437ZM157.968 96.3773C157.98 95.7867 157.745 95.2182 157.32 94.8095C156.915 94.3848 156.354 94.1446 155.768 94.1446C155.182 94.1446 154.622 94.3848 154.216 94.8095C153.796 95.2204 153.564 95.7883 153.577 96.3773C153.569 96.9696 153.799 97.5401 154.216 97.9588C154.625 98.3777 155.184 98.6138 155.768 98.6138C156.352 98.6138 156.911 98.3777 157.32 97.9588C157.741 97.5422 157.975 96.9711 157.968 96.3773ZM155.864 95.0663H154.773V97.7526H155.093V96.5607H155.243C155.482 96.5394 155.72 96.6135 155.905 96.767C156.143 97.0637 156.332 97.3964 156.466 97.7526H156.868C156.751 97.4538 156.612 97.1643 156.453 96.8862C156.341 96.7361 156.2 96.6112 156.037 96.5194C156.521 96.4369 156.759 96.1802 156.759 95.7768C156.776 95.5755 156.686 95.38 156.521 95.2634C156.333 95.1204 156.1 95.0504 155.864 95.0663ZM155.526 96.304H155.093V95.323H155.585C155.796 95.3028 156.008 95.3425 156.197 95.4376C156.32 95.488 156.371 95.621 156.371 95.7997C156.39 95.9553 156.317 96.1077 156.183 96.1894C155.976 96.279 155.751 96.3183 155.526 96.304Z" fill="#0095DA"/>
<path d="M144.239 97.2988C135.777 92.7422 129.88 82.4278 129.962 71.192C129.985 67.6439 130.35 64.0911 132.084 60.9189C135.887 62.7293 140.031 63.7045 144.239 63.7794C148.446 63.7057 152.588 62.7304 156.389 60.9189C158.128 64.0911 158.493 67.6439 158.516 71.192C158.607 82.4278 152.706 92.7376 144.239 97.3217" fill="white"/>
<path fill-rule="evenodd" clip-rule="evenodd" d="M144.34 62.9036C148.861 62.8238 153.313 61.7751 157.398 59.8276H157.403C159.256 63.2566 159.653 67.0569 159.685 70.8663C159.776 82.9685 153.432 94.0392 144.34 98.9443C135.252 94.0392 128.899 82.9685 128.999 70.8663C128.999 67.0569 129.419 63.2566 131.281 59.8276C135.366 61.7751 139.819 62.8238 144.34 62.9036ZM132.564 63.3208C127.881 75.3955 136.348 92.2331 144.34 96.2305C152.327 92.2331 160.794 75.3955 156.111 63.3208C152.325 64.6393 148.347 65.3118 144.34 65.3103C140.331 65.3121 136.351 64.6396 132.564 63.3208Z" fill="#0095DA"/>
<path fill-rule="evenodd" clip-rule="evenodd" d="M133.732 65.3745C137.182 66.3687 140.751 66.8838 144.34 66.9056C147.926 66.8855 151.492 66.3703 154.938 65.3745C158.434 77.2292 151.008 90.2207 144.34 94.5619C137.671 90.2207 130.245 77.2292 133.732 65.3745ZM149.247 70.1879C148.87 70.6281 148.417 71.0566 147.957 71.4904C147.302 72.1093 146.635 72.739 146.166 73.4289L146.038 73.3922L143.441 73.1034L143.391 72.0582C143.757 71.9816 144.083 71.7708 144.303 71.4669C144.337 71.3682 144.199 71.2443 144.091 71.1474C144.069 71.1273 144.048 71.1083 144.03 71.091C144.382 71.0637 144.677 71.1796 144.964 71.292C145.207 71.3876 145.444 71.4806 145.705 71.4806C145.773 71.4396 145.765 71.3806 145.756 71.3191C145.753 71.2981 145.75 71.2769 145.75 71.256C145.476 70.9264 145.083 70.89 144.687 70.8534C144.483 70.8345 144.278 70.8156 144.089 70.7563C144.197 70.7121 144.322 70.6912 144.452 70.6696C144.671 70.6329 144.904 70.594 145.093 70.4354C145.234 70.3254 145.184 70.2062 145.038 70.0229C144.681 69.413 144.165 68.9122 143.546 68.5743L143.473 67.7583C143.473 67.3961 143.687 67.3686 143.929 67.4695L145.805 68.2442C146.038 68.3084 146.048 68.7654 146.06 69.2677C146.069 69.6621 146.079 70.0844 146.198 70.3667C146.592 70.2689 146.938 69.9754 147.274 69.69C147.837 69.2127 148.373 68.7581 149.064 69.2802C149.265 69.5186 149.452 69.8899 149.237 70.1971L149.247 70.1879ZM146.102 79.7596L146.175 77.6509C146.175 77.6509 146.663 77.2796 146.663 76.9174C146.663 76.5553 146.43 76.0327 144.025 76.0327C139.493 76.0327 138.288 73.1676 138.288 71.7786C138.287 70.9106 138.637 70.0795 139.257 69.4748C139.877 68.8702 140.715 68.5436 141.578 68.5697C142.845 68.5011 144.046 69.1345 144.71 70.22C144.485 70.3098 144.248 70.3639 144.007 70.3804C143.784 70.3944 143.479 70.3692 143.214 70.3474C143.044 70.3334 142.891 70.3208 142.788 70.3208C142.579 70.3325 142.372 70.3694 142.172 70.4308C142.406 70.6634 142.695 70.8322 143.012 70.9214C143.325 71.0224 143.611 71.195 143.847 71.4256C143.61 71.5832 143.326 71.6544 143.044 71.6273C142.72 71.6273 142.298 71.497 141.903 71.3754C141.558 71.2688 141.234 71.1689 141.017 71.1689C140.551 71.1689 140.474 71.476 140.474 71.8382C140.474 73.2954 143.454 73.6068 144.329 73.6983L144.427 73.7085C144.474 73.7136 144.535 73.719 144.607 73.7253L144.608 73.7254C145.643 73.8162 149.041 74.114 149.041 76.8716C149.041 79.8238 146.102 79.7596 146.102 79.7596ZM145.672 76.8212C144.964 76.6897 144.243 76.6328 143.523 76.6516V76.6332C143.523 76.6332 142.747 77.22 142.852 77.4675C143.039 77.926 143.833 80.163 143.833 80.163L145.572 80.2776C145.572 80.2776 145.714 80.2868 145.714 80.108C145.779 79.0128 145.766 77.9143 145.672 76.8212ZM148.201 83.2161C148.055 85.1644 145.956 85.1735 145.956 85.1735L146.015 83.3399C146.024 83.1846 146.05 83.0309 146.093 82.8814C146.093 82.8814 146.152 82.5193 144.723 82.4689C142.829 82.3909 141.328 81.6941 141.328 80.1309C141.288 79.271 141.775 78.4739 142.555 78.1185C142.555 78.1185 143.276 79.8192 143.322 79.9522C143.341 80.0079 143.327 80.058 143.312 80.114C143.291 80.1914 143.266 80.2801 143.322 80.4106C143.399 80.5898 144.015 80.6435 144.688 80.7021C144.859 80.717 145.033 80.7322 145.203 80.7498C146.042 80.8369 148.356 81.3091 148.201 83.2436V83.2161ZM145.371 86.0124C145.568 86.1224 145.568 85.8887 145.568 85.8887L145.6 85.8978V83.1794C145.581 83.1264 145.527 83.0939 145.472 83.1015C144.924 83.0832 144.103 82.964 144.103 82.964V85.2331C144.106 85.265 144.107 85.2932 144.107 85.3187C144.109 85.4182 144.11 85.4774 144.299 85.554C144.459 85.5953 145.371 86.0124 145.371 86.0124ZM147.22 89.1296C146.996 89.7371 146.464 90.1767 145.828 90.2803L145.851 89.0563C145.851 89.0142 145.861 88.967 145.871 88.9159C145.918 88.6943 145.98 88.4003 145.312 88.1395C145.001 87.9559 144.628 87.815 144.247 87.6711C143.248 87.2938 142.195 86.8959 142.053 85.6549C141.93 85.0064 142.266 84.3577 142.866 84.0871C143.085 83.9928 143.238 83.9431 143.391 83.8934C143.484 83.8634 143.576 83.8334 143.683 83.7937L143.737 85.1689C143.737 85.2225 143.721 85.2857 143.704 85.3506C143.669 85.4856 143.633 85.6279 143.737 85.7053C143.833 85.7535 143.972 85.8132 144.139 85.8856C144.865 86.1988 146.143 86.7499 146.932 87.6398C147.224 88.0841 147.322 88.6294 147.202 89.148L147.22 89.1296ZM145.418 92.1268C145.439 91.4703 145.474 90.3747 145.508 89.1067L145.499 89.07C145.527 88.922 145.481 88.7694 145.376 88.6621C145.037 88.439 144.672 88.2589 144.29 88.1257C144.125 88.0982 144.157 88.3182 144.157 88.3182C144.208 90.7845 144.294 92.9483 144.294 92.9483C144.34 93.2095 144.574 93.3948 144.837 93.3792C144.994 93.3796 145.143 93.3146 145.25 93.1997C145.356 93.0849 145.41 92.9306 145.399 92.7741C145.399 92.7404 145.406 92.5074 145.418 92.1268ZM143.569 91.6143C143.473 91.69 143.505 91.8692 143.537 92.0535C143.586 92.3379 143.638 92.6344 143.231 92.5815C142.752 92.5357 142.856 91.3438 142.957 90.7846C143.142 90.3858 143.449 90.0566 143.833 89.8448L143.861 91.1696C143.844 91.3625 143.733 91.5343 143.564 91.628L143.569 91.6143Z" fill="#0095DA"/>
<path d="M142.282 69.4957C142.337 69.6928 141.985 69.8074 141.775 69.8762C141.406 69.9403 141.378 69.3719 141.031 69.3719C141.205 69.1748 141.83 69.2894 142.186 69.4223L142.282 69.4957Z" fill="#0095DA"/>
<path d="M54.5283 106.733C53.6519 108.072 52.1366 108.764 50.3337 108.764C47.3852 108.764 45.418 106.632 45.418 104.129C45.418 101.489 47.4719 99.3252 50.4387 99.3252C52.1549 99.3252 53.725 100.035 54.5465 101.42L53.6337 101.998C52.8693 100.961 51.6396 100.376 50.3565 100.439C49.0319 100.392 47.7873 101.074 47.1111 102.219C46.4348 103.364 46.4348 104.789 47.1111 105.934C47.7873 107.078 49.0319 107.761 50.3565 107.714C51.6095 107.728 52.7949 107.145 53.5515 106.142L54.5283 106.733Z" fill="black"/>
<path fill-rule="evenodd" clip-rule="evenodd" d="M65.8756 99.5589H64.7391V101.2C63.9409 100.01 62.5985 99.3047 61.1698 99.3251C58.6309 99.394 56.6056 101.476 56.5957 104.027C56.5859 106.577 58.595 108.675 61.1333 108.764C62.5425 108.772 63.8754 108.122 64.7391 107.003V108.544H65.8756V99.5589ZM58.7338 106.623C58.0729 105.935 57.7113 105.011 57.7284 104.056C57.7401 102.577 58.6413 101.252 60.0087 100.704C61.376 100.156 62.9377 100.493 63.9601 101.557C64.9825 102.621 65.2623 104.201 64.6681 105.554C64.0739 106.907 62.7237 107.764 61.252 107.723C60.3005 107.706 59.3946 107.31 58.7338 106.623Z" fill="black"/>
<path d="M69.3574 96.0933H70.503V108.544H69.3574V96.0933Z" fill="black"/>
<path fill-rule="evenodd" clip-rule="evenodd" d="M74.5705 97.7661C75.0986 97.7612 75.5262 97.3338 75.5336 96.8035C75.5261 96.2772 75.0991 95.8545 74.5751 95.8545C74.055 95.8571 73.6348 96.2812 73.6348 96.8035C73.6322 97.3273 74.049 97.7561 74.5705 97.7661ZM75.1638 99.554H74.0182V108.539H75.1638V99.554Z" fill="black"/>
<path d="M78.9426 98.156C78.9426 96.7028 79.294 95.8364 80.7683 95.8364C81.2171 95.8527 81.6607 95.9393 82.0828 96.0931V97.2254C81.7477 97.0574 81.3801 96.9651 81.0057 96.955C80.0608 96.955 80.0928 97.528 80.0928 98.3302V99.545H81.9778V100.563H80.0928V108.53H78.9472V100.576H77.7422V99.5588H78.9243L78.9426 98.156Z" fill="black"/>
<path fill-rule="evenodd" clip-rule="evenodd" d="M88.1151 108.704C90.6854 108.727 92.7912 106.66 92.8264 104.079C92.8549 102.821 92.3742 101.605 91.4942 100.709C90.6142 99.8127 89.4101 99.3134 88.1571 99.3249C85.5867 99.3251 83.4999 101.412 83.4883 103.993C83.4768 106.575 85.5448 108.68 88.1151 108.704ZM86.3772 107.221C85.2786 106.566 84.6238 105.361 84.67 104.079C84.6238 102.796 85.2786 101.591 86.3772 100.936C87.4758 100.281 88.8429 100.281 89.9415 100.936C91.0402 101.591 91.6949 102.796 91.6488 104.079C91.6949 105.361 91.0402 106.566 89.9415 107.221C88.8429 107.876 87.4758 107.876 86.3772 107.221Z" fill="black"/>
<path d="M96.7708 100.847C97.4463 99.8615 98.1674 99.3068 99.0803 99.3068C99.445 99.3024 99.8027 99.4078 100.107 99.6094L99.5002 100.59C99.3137 100.487 99.1059 100.429 98.8931 100.42C98.0487 100.42 97.2911 101.149 96.9579 102.383C96.7918 103.289 96.729 104.212 96.7708 105.133V108.548H95.543V99.559H96.7571L96.7708 100.847Z" fill="black"/>
<path d="M103.53 101.168C104.443 99.9483 105.57 99.334 106.884 99.334C108.838 99.334 110.203 100.686 110.203 103.51V108.553H109.057V103.657C109.057 101.539 108.4 100.375 106.665 100.375C105.729 100.369 104.848 100.822 104.306 101.589C103.63 102.47 103.53 103.35 103.53 104.771V108.544H102.389V99.5586H103.534L103.53 101.168Z" fill="black"/>
<path fill-rule="evenodd" clip-rule="evenodd" d="M114.105 97.7661C114.631 97.7587 115.056 97.332 115.063 96.8034C115.058 96.2761 114.63 95.852 114.105 95.8545C113.583 95.8545 113.16 96.2794 113.16 96.8034C113.158 97.3308 113.58 97.7611 114.105 97.7661ZM114.712 99.5539H113.548L113.566 108.539H114.712V99.5539Z" fill="black"/>
<path fill-rule="evenodd" clip-rule="evenodd" d="M126.958 99.5585H125.826V101.2C125.029 100.009 123.686 99.3035 122.257 99.3247C119.718 99.3951 117.694 101.478 117.686 104.029C117.677 106.58 119.687 108.676 122.225 108.764C123.633 108.773 124.965 108.122 125.826 107.003V108.544H126.958V99.5585ZM119.823 106.622C119.162 105.934 118.802 105.011 118.82 104.056C118.832 102.577 119.734 101.252 121.102 100.704C122.47 100.156 124.032 100.494 125.054 101.559C126.075 102.624 126.354 104.204 125.758 105.557C125.163 106.91 123.811 107.766 122.339 107.723C121.388 107.706 120.483 107.31 119.823 106.622Z" fill="black"/>
</g>
<path d="M715.8 91.1919C713.832 91.1919 712.408 90.4879 711.448 89.4959L712.504 88.0399C713.224 88.8239 714.392 89.5279 715.88 89.5279C717.416 89.5279 718.008 88.7759 718.008 88.0559C718.008 85.8159 711.8 87.2079 711.8 83.2879C711.8 81.5119 713.336 80.1519 715.688 80.1519C717.336 80.1519 718.696 80.6959 719.672 81.6559L718.616 83.0479C717.768 82.1999 716.632 81.8159 715.512 81.8159C714.424 81.8159 713.72 82.3599 713.72 83.1439C713.72 85.1439 719.928 83.9119 719.928 87.8799C719.928 89.6559 718.664 91.1919 715.8 91.1919ZM728.66 90.9999H726.98V86.1359C726.98 84.9199 726.372 84.5679 725.428 84.5679C724.564 84.5679 723.828 85.0799 723.444 85.5919V90.9999H721.764V80.3279H723.444V84.3119C723.956 83.7039 724.948 83.0799 726.164 83.0799C727.828 83.0799 728.66 83.9439 728.66 85.5279V90.9999ZM734.506 91.1919C732.042 91.1919 730.538 89.3359 730.538 87.1279C730.538 84.9039 732.042 83.0799 734.506 83.0799C736.97 83.0799 738.474 84.9039 738.474 87.1279C738.474 89.3359 736.97 91.1919 734.506 91.1919ZM734.506 89.7039C735.946 89.7039 736.73 88.5039 736.73 87.1279C736.73 85.7679 735.946 84.5679 734.506 84.5679C733.082 84.5679 732.282 85.7679 732.282 87.1279C732.282 88.5039 733.082 89.7039 734.506 89.7039ZM744.509 91.1919C743.533 91.1919 742.669 90.7439 742.029 89.9279V93.9439H740.349V83.2719H742.029V84.3279C742.605 83.5599 743.501 83.0799 744.509 83.0799C746.509 83.0799 747.933 84.5839 747.933 87.1279C747.933 89.6719 746.509 91.1919 744.509 91.1919ZM744.013 89.7039C745.341 89.7039 746.205 88.6319 746.205 87.1279C746.205 85.6239 745.341 84.5679 744.013 84.5679C743.229 84.5679 742.413 85.0159 742.029 85.5919V88.6479C742.397 89.2239 743.229 89.7039 744.013 89.7039ZM758.22 91.1919C757.244 91.1919 756.38 90.7439 755.74 89.9279V93.9439H754.06V83.2719H755.74V84.3279C756.316 83.5599 757.212 83.0799 758.22 83.0799C760.22 83.0799 761.644 84.5839 761.644 87.1279C761.644 89.6719 760.22 91.1919 758.22 91.1919ZM757.724 89.7039C759.052 89.7039 759.916 88.6319 759.916 87.1279C759.916 85.6239 759.052 84.5679 757.724 84.5679C756.94 84.5679 756.124 85.0159 755.74 85.5919V88.6479C756.108 89.2239 756.94 89.7039 757.724 89.7039ZM765.165 90.9999H763.485V80.3279H765.165V90.9999ZM773.921 90.9999H772.241V90.1519C771.665 90.8239 770.753 91.1919 769.729 91.1919C768.481 91.1919 767.057 90.3279 767.057 88.6319C767.057 86.8399 768.465 86.1039 769.729 86.1039C770.785 86.1039 771.665 86.4399 772.241 87.0959V85.9439C772.241 85.0479 771.489 84.5039 770.433 84.5039C769.569 84.5039 768.801 84.8239 768.145 85.4959L767.441 84.3279C768.337 83.4639 769.457 83.0799 770.689 83.0799C772.417 83.0799 773.921 83.7999 773.921 85.8639V90.9999ZM770.401 90.0399C771.121 90.0399 771.841 89.7679 772.241 89.2399V88.0559C771.841 87.5279 771.121 87.2559 770.401 87.2559C769.457 87.2559 768.737 87.8159 768.737 88.6479C768.737 89.4959 769.457 90.0399 770.401 90.0399ZM783.171 90.9999H781.491V86.1679C781.491 84.9519 780.867 84.5679 779.923 84.5679C779.075 84.5679 778.339 85.0799 777.939 85.5919V90.9999H776.259V83.2719H777.939V84.3119C778.451 83.7039 779.459 83.0799 780.675 83.0799C782.339 83.0799 783.171 83.9759 783.171 85.5599V90.9999ZM788.168 91.1919C786.84 91.1919 785.656 90.7599 784.856 89.9759L785.624 88.7759C786.168 89.3359 787.24 89.8479 788.232 89.8479C789.24 89.8479 789.768 89.4319 789.768 88.8239C789.768 87.3039 785.096 88.3919 785.096 85.4159C785.096 84.1519 786.184 83.0799 788.136 83.0799C789.448 83.0799 790.44 83.5439 791.128 84.1519L790.424 85.3359C789.96 84.8239 789.112 84.4079 788.136 84.4079C787.256 84.4079 786.712 84.8239 786.712 85.3679C786.712 86.7279 791.384 85.7039 791.384 88.7759C791.384 90.1519 790.248 91.1919 788.168 91.1919Z" fill="#25282A"/>
<path d="M804.004 88L800.574 84.433C800.551 84.4098 800.532 84.3822 800.519 84.3518C800.507 84.3214 800.5 84.2888 800.5 84.2559C800.5 84.2229 800.507 84.1903 800.519 84.1599C800.532 84.1296 800.551 84.102 800.574 84.0788C800.597 84.0554 800.625 84.0368 800.655 84.0242C800.686 84.0115 800.718 84.005 800.751 84.005C800.784 84.005 800.817 84.0115 800.848 84.0242C800.878 84.0368 800.906 84.0554 800.929 84.0788L803.999 87.2666L807.069 84.0738C807.092 84.0504 807.12 84.0318 807.15 84.0192C807.181 84.0065 807.213 84 807.246 84C807.279 84 807.312 84.0065 807.343 84.0192C807.373 84.0318 807.401 84.0504 807.424 84.0738C807.447 84.097 807.466 84.1246 807.479 84.155C807.491 84.1854 807.498 84.218 807.498 84.2509C807.498 84.2838 807.491 84.3164 807.479 84.3468C807.466 84.3772 807.447 84.4048 807.424 84.428L804.004 88Z" fill="#767676"/>
<path d="M830.528 91.0001H825.136V80.3281H830.384C832.352 80.3281 833.424 81.5441 833.424 83.0481C833.424 84.3761 832.56 85.2881 831.568 85.4961C832.72 85.6721 833.632 86.8081 833.632 88.1041C833.632 89.7681 832.544 91.0001 830.528 91.0001ZM830.016 84.7281C830.96 84.7281 831.504 84.1681 831.504 83.3521C831.504 82.5681 830.96 81.9761 830.016 81.9761H827.008V84.7281H830.016ZM830.096 89.3521C831.104 89.3521 831.712 88.7921 831.712 87.8641C831.712 87.0641 831.152 86.3761 830.096 86.3761H827.008V89.3521H830.096ZM839.223 91.1921C836.887 91.1921 835.175 89.5761 835.175 87.1281C835.175 84.8881 836.807 83.0801 839.095 83.0801C841.415 83.0801 842.887 84.8401 842.887 87.2721V87.6881H836.935C837.063 88.8401 837.927 89.8161 839.383 89.8161C840.151 89.8161 841.031 89.5121 841.591 88.9521L842.359 90.0561C841.575 90.7921 840.439 91.1921 839.223 91.1921ZM841.271 86.4881C841.223 85.5761 840.599 84.4561 839.079 84.4561C837.655 84.4561 836.983 85.5601 836.919 86.4881H841.271ZM857.502 91.0001H855.742L853.934 85.3361L852.142 91.0001H850.382L847.982 83.2721H849.726L851.358 88.8881L853.198 83.2721H854.686L856.51 88.8881L858.142 83.2721H859.902L857.502 91.0001ZM864.812 91.1921C862.476 91.1921 860.764 89.5761 860.764 87.1281C860.764 84.8881 862.396 83.0801 864.684 83.0801C867.004 83.0801 868.476 84.8401 868.476 87.2721V87.6881H862.524C862.652 88.8401 863.516 89.8161 864.972 89.8161C865.74 89.8161 866.62 89.5121 867.18 88.9521L867.948 90.0561C867.164 90.7921 866.028 91.1921 864.812 91.1921ZM866.86 86.4881C866.812 85.5761 866.188 84.4561 864.668 84.4561C863.244 84.4561 862.572 85.5601 862.508 86.4881H866.86ZM871.974 91.0001H870.294V80.3281H871.974V91.0001ZM875.994 91.0001H874.314V80.3281H875.994V91.0001Z" fill="#25282A"/>
<path d="M890.004 88L886.574 84.433C886.551 84.4098 886.532 84.3822 886.519 84.3518C886.507 84.3214 886.5 84.2888 886.5 84.2559C886.5 84.2229 886.507 84.1903 886.519 84.1599C886.532 84.1296 886.551 84.102 886.574 84.0788C886.597 84.0554 886.625 84.0368 886.655 84.0242C886.686 84.0115 886.718 84.005 886.751 84.005C886.784 84.005 886.817 84.0115 886.848 84.0242C886.878 84.0368 886.906 84.0554 886.929 84.0788L889.999 87.2666L893.069 84.0738C893.092 84.0504 893.12 84.0318 893.15 84.0192C893.181 84.0065 893.213 84 893.246 84C893.279 84 893.312 84.0065 893.343 84.0192C893.373 84.0318 893.401 84.0504 893.424 84.0738C893.447 84.097 893.466 84.1246 893.479 84.155C893.491 84.1854 893.498 84.218 893.498 84.2509C893.498 84.2838 893.491 84.3164 893.479 84.3468C893.466 84.3772 893.447 84.4048 893.424 84.428L890.004 88Z" fill="#767676"/>
<path d="M916.272 91.2079C913.168 91.2079 910.672 89.0159 910.672 85.6719C910.672 82.3119 913.168 80.1519 916.272 80.1519C918.352 80.1519 919.712 81.1439 920.56 82.3599L919.04 83.2399C918.464 82.4399 917.456 81.8159 916.272 81.8159C914.16 81.8159 912.592 83.4159 912.592 85.6719C912.592 87.8959 914.16 89.5279 916.272 89.5279C917.36 89.5279 918.32 89.0319 918.8 88.5679V86.9199H915.6V85.2719H920.656V89.2559C919.616 90.4239 918.112 91.2079 916.272 91.2079ZM926.301 91.1919C923.965 91.1919 922.253 89.5759 922.253 87.1279C922.253 84.8879 923.885 83.0799 926.173 83.0799C928.493 83.0799 929.965 84.8399 929.965 87.2719V87.6879H924.013C924.141 88.8399 925.005 89.8159 926.461 89.8159C927.229 89.8159 928.109 89.5119 928.669 88.9519L929.437 90.0559C928.653 90.7919 927.517 91.1919 926.301 91.1919ZM928.349 86.4879C928.301 85.5759 927.677 84.4559 926.157 84.4559C924.733 84.4559 924.061 85.5599 923.997 86.4879H928.349ZM934.119 91.1919C932.807 91.1919 932.135 90.4879 932.135 89.1919V84.7279H930.855V83.2719H932.135V81.1599H933.815V83.2719H935.383V84.7279H933.815V88.7759C933.815 89.3039 934.071 89.7039 934.551 89.7039C934.871 89.7039 935.159 89.5599 935.287 89.4159L935.687 90.6959C935.383 90.9679 934.887 91.1919 934.119 91.1919ZM952.505 90.9999H950.825V85.9599C950.825 85.1279 950.457 84.5679 949.545 84.5679C948.793 84.5679 948.089 85.0799 947.753 85.5919V90.9999H946.073V85.9599C946.073 85.1279 945.721 84.5679 944.809 84.5679C944.057 84.5679 943.369 85.0959 943.017 85.5919V90.9999H941.337V83.2719H943.017V84.3119C943.353 83.8479 944.361 83.0799 945.545 83.0799C946.697 83.0799 947.401 83.6559 947.657 84.4879C948.089 83.7999 949.113 83.0799 950.281 83.0799C951.689 83.0799 952.505 83.8479 952.505 85.4159V90.9999ZM958.345 91.1919C955.881 91.1919 954.377 89.3359 954.377 87.1279C954.377 84.9039 955.881 83.0799 958.345 83.0799C960.809 83.0799 962.313 84.9039 962.313 87.1279C962.313 89.3359 960.809 91.1919 958.345 91.1919ZM958.345 89.7039C959.785 89.7039 960.569 88.5039 960.569 87.1279C960.569 85.7679 959.785 84.5679 958.345 84.5679C956.921 84.5679 956.121 85.7679 956.121 87.1279C956.121 88.5039 956.921 89.7039 958.345 89.7039ZM965.869 90.9999H964.189V83.2719H965.869V84.3919C966.461 83.6559 967.389 83.0799 968.381 83.0799V84.7439C968.237 84.7119 968.077 84.6959 967.869 84.6959C967.149 84.6959 966.205 85.1759 965.869 85.7359V90.9999ZM973.479 91.1919C971.143 91.1919 969.431 89.5759 969.431 87.1279C969.431 84.8879 971.063 83.0799 973.351 83.0799C975.671 83.0799 977.143 84.8399 977.143 87.2719V87.6879H971.191C971.319 88.8399 972.183 89.8159 973.639 89.8159C974.407 89.8159 975.287 89.5119 975.847 88.9519L976.615 90.0559C975.831 90.7919 974.695 91.1919 973.479 91.1919ZM975.527 86.4879C975.479 85.5759 974.855 84.4559 973.335 84.4559C971.911 84.4559 971.239 85.5599 971.175 86.4879H975.527Z" fill="#25282A"/>
<path d="M990.004 88L986.574 84.433C986.551 84.4098 986.532 84.3822 986.519 84.3518C986.507 84.3214 986.5 84.2888 986.5 84.2559C986.5 84.2229 986.507 84.1903 986.519 84.1599C986.532 84.1296 986.551 84.102 986.574 84.0788C986.597 84.0554 986.625 84.0368 986.655 84.0242C986.686 84.0115 986.718 84.005 986.751 84.005C986.784 84.005 986.817 84.0115 986.848 84.0242C986.878 84.0368 986.906 84.0554 986.929 84.0788L989.999 87.2666L993.069 84.0738C993.092 84.0504 993.12 84.0318 993.15 84.0192C993.181 84.0065 993.213 84 993.246 84C993.279 84 993.312 84.0065 993.343 84.0192C993.373 84.0318 993.401 84.0504 993.424 84.0738C993.447 84.097 993.466 84.1246 993.479 84.155C993.491 84.1854 993.498 84.218 993.498 84.2509C993.498 84.2838 993.491 84.3164 993.479 84.3468C993.466 84.3772 993.447 84.4048 993.424 84.428L990.004 88Z" fill="#767676"/>
<path d="M1013.01 91H1011.14V80.328H1018.45V81.976H1013.01V84.728H1018.34V86.376H1013.01V91ZM1021.11 82.328C1020.54 82.328 1020.07 81.864 1020.07 81.288C1020.07 80.712 1020.54 80.248 1021.11 80.248C1021.69 80.248 1022.15 80.712 1022.15 81.288C1022.15 81.864 1021.69 82.328 1021.11 82.328ZM1021.94 91H1020.26V83.272H1021.94V91ZM1031.19 91H1029.51V86.168C1029.51 84.952 1028.89 84.568 1027.95 84.568C1027.1 84.568 1026.36 85.08 1025.96 85.592V91H1024.28V83.272H1025.96V84.312C1026.47 83.704 1027.48 83.08 1028.7 83.08C1030.36 83.08 1031.19 83.976 1031.19 85.56V91ZM1040.66 91H1038.98V89.944C1038.38 90.712 1037.5 91.192 1036.5 91.192C1034.53 91.192 1033.07 89.688 1033.07 87.128C1033.07 84.632 1034.51 83.08 1036.5 83.08C1037.47 83.08 1038.37 83.512 1038.98 84.344V80.328H1040.66V91ZM1036.99 89.704C1037.78 89.704 1038.61 89.24 1038.98 88.664V85.608C1038.61 85.032 1037.78 84.568 1036.99 84.568C1035.65 84.568 1034.8 85.64 1034.8 87.128C1034.8 88.632 1035.65 89.704 1036.99 89.704ZM1053.69 91H1052.01V90.152C1051.44 90.824 1050.53 91.192 1049.5 91.192C1048.25 91.192 1046.83 90.328 1046.83 88.632C1046.83 86.84 1048.24 86.104 1049.5 86.104C1050.56 86.104 1051.44 86.44 1052.01 87.096V85.944C1052.01 85.048 1051.26 84.504 1050.21 84.504C1049.34 84.504 1048.57 84.824 1047.92 85.496L1047.21 84.328C1048.11 83.464 1049.23 83.08 1050.46 83.08C1052.19 83.08 1053.69 83.8 1053.69 85.864V91ZM1050.17 90.04C1050.89 90.04 1051.61 89.768 1052.01 89.24V88.056C1051.61 87.528 1050.89 87.256 1050.17 87.256C1049.23 87.256 1048.51 87.816 1048.51 88.648C1048.51 89.496 1049.23 90.04 1050.17 90.04ZM1067.44 91H1065.76V89.944C1065.17 90.712 1064.29 91.192 1063.28 91.192C1061.31 91.192 1059.85 89.688 1059.85 87.128C1059.85 84.632 1061.29 83.08 1063.28 83.08C1064.25 83.08 1065.15 83.512 1065.76 84.344V80.328H1067.44V91ZM1063.77 89.704C1064.56 89.704 1065.39 89.24 1065.76 88.664V85.608C1065.39 85.032 1064.56 84.568 1063.77 84.568C1062.43 84.568 1061.58 85.64 1061.58 87.128C1061.58 88.632 1062.43 89.704 1063.77 89.704ZM1073.28 91.192C1070.81 91.192 1069.31 89.336 1069.31 87.128C1069.31 84.904 1070.81 83.08 1073.28 83.08C1075.74 83.08 1077.25 84.904 1077.25 87.128C1077.25 89.336 1075.74 91.192 1073.28 91.192ZM1073.28 89.704C1074.72 89.704 1075.5 88.504 1075.5 87.128C1075.5 85.768 1074.72 84.568 1073.28 84.568C1071.85 84.568 1071.05 85.768 1071.05 87.128C1071.05 88.504 1071.85 89.704 1073.28 89.704ZM1082.64 91.192C1080.31 91.192 1078.66 89.464 1078.66 87.128C1078.66 84.792 1080.31 83.08 1082.64 83.08C1084.16 83.08 1085.06 83.72 1085.6 84.456L1084.5 85.464C1084.07 84.856 1083.47 84.568 1082.72 84.568C1081.33 84.568 1080.39 85.624 1080.39 87.128C1080.39 88.632 1081.33 89.704 1082.72 89.704C1083.47 89.704 1084.07 89.384 1084.5 88.776L1085.6 89.816C1085.06 90.536 1084.16 91.192 1082.64 91.192ZM1089.59 91.192C1088.27 91.192 1087.6 90.488 1087.6 89.192V84.728H1086.32V83.272H1087.6V81.16H1089.28V83.272H1090.85V84.728H1089.28V88.776C1089.28 89.304 1089.54 89.704 1090.02 89.704C1090.34 89.704 1090.63 89.56 1090.75 89.416L1091.15 90.696C1090.85 90.968 1090.35 91.192 1089.59 91.192ZM1096.02 91.192C1093.56 91.192 1092.06 89.336 1092.06 87.128C1092.06 84.904 1093.56 83.08 1096.02 83.08C1098.49 83.08 1099.99 84.904 1099.99 87.128C1099.99 89.336 1098.49 91.192 1096.02 91.192ZM1096.02 89.704C1097.46 89.704 1098.25 88.504 1098.25 87.128C1098.25 85.768 1097.46 84.568 1096.02 84.568C1094.6 84.568 1093.8 85.768 1093.8 87.128C1093.8 88.504 1094.6 89.704 1096.02 89.704ZM1103.55 91H1101.87V83.272H1103.55V84.392C1104.14 83.656 1105.07 83.08 1106.06 83.08V84.744C1105.92 84.712 1105.76 84.696 1105.55 84.696C1104.83 84.696 1103.88 85.176 1103.55 85.736V91Z" fill="#25282A"/>
<path d="M1129.27 91.1919C1126.12 91.1919 1123.67 88.9519 1123.67 85.6719C1123.67 82.3759 1126.12 80.1519 1129.27 80.1519C1131.42 80.1519 1132.76 81.2559 1133.54 82.5359L1131.96 83.3679C1131.45 82.4719 1130.41 81.8159 1129.27 81.8159C1127.16 81.8159 1125.59 83.4159 1125.59 85.6719C1125.59 87.8959 1127.16 89.5279 1129.27 89.5279C1130.41 89.5279 1131.45 88.8559 1131.96 87.9759L1133.56 88.7759C1132.74 90.0559 1131.42 91.1919 1129.27 91.1919ZM1140.19 91.1919C1136.99 91.1919 1134.74 88.8559 1134.74 85.6719C1134.74 82.4879 1136.99 80.1519 1140.19 80.1519C1143.38 80.1519 1145.65 82.4879 1145.65 85.6719C1145.65 88.8559 1143.38 91.1919 1140.19 91.1919ZM1140.19 89.5279C1142.34 89.5279 1143.73 87.8639 1143.73 85.6719C1143.73 83.4639 1142.34 81.8159 1140.19 81.8159C1138.03 81.8159 1136.66 83.4639 1136.66 85.6719C1136.66 87.8639 1138.03 89.5279 1140.19 89.5279ZM1152.71 90.9999H1150.37L1146.18 80.3279H1148.31L1151.54 88.9519L1154.77 80.3279H1156.9L1152.71 90.9999ZM1160.08 90.9999H1158.21V80.3279H1160.08V90.9999ZM1166.49 90.9999H1162.51V80.3279H1166.48C1169.82 80.3279 1172.06 82.5359 1172.06 85.6559C1172.06 88.8079 1169.82 90.9999 1166.49 90.9999ZM1166.48 89.3519C1168.8 89.3519 1170.14 87.6879 1170.14 85.6559C1170.14 83.6079 1168.86 81.9759 1166.49 81.9759H1164.38V89.3519H1166.48ZM1177.21 87.8479H1173.37V86.4079H1177.21V87.8479ZM1182.79 90.9999H1180.92V82.7439L1179.18 84.5679L1178.09 83.4319L1181.16 80.3279H1182.79V90.9999ZM1188.34 91.1759C1187.02 91.1759 1185.99 90.6959 1185.27 89.9919L1186.15 88.5679C1186.71 89.1599 1187.32 89.5119 1188.34 89.5119C1190.28 89.5119 1191.16 87.7359 1191.16 85.9919C1191.16 85.8959 1191.16 85.7839 1191.14 85.6879C1190.66 86.4079 1189.54 87.1759 1188.28 87.1759C1186.36 87.1759 1184.71 86.0079 1184.71 83.7359C1184.71 81.7519 1186.26 80.1519 1188.65 80.1519C1191.78 80.1519 1193.05 82.6959 1193.05 85.6559C1193.05 88.7439 1191.43 91.1759 1188.34 91.1759ZM1188.79 85.5759C1189.7 85.5759 1190.58 85.0799 1191.13 84.3119C1191.02 83.1599 1190.39 81.8159 1188.74 81.8159C1187.34 81.8159 1186.6 82.8079 1186.6 83.6719C1186.6 84.9839 1187.62 85.5759 1188.79 85.5759ZM1200.91 90.9999H1199.23V83.2719H1200.91V84.3919C1201.5 83.6559 1202.43 83.0799 1203.42 83.0799V84.7439C1203.28 84.7119 1203.12 84.6959 1202.91 84.6959C1202.19 84.6959 1201.25 85.1759 1200.91 85.7359V90.9999ZM1208.52 91.1919C1206.19 91.1919 1204.47 89.5759 1204.47 87.1279C1204.47 84.8879 1206.11 83.0799 1208.39 83.0799C1210.71 83.0799 1212.19 84.8399 1212.19 87.2719V87.6879H1206.23C1206.36 88.8399 1207.23 89.8159 1208.68 89.8159C1209.45 89.8159 1210.33 89.5119 1210.89 88.9519L1211.66 90.0559C1210.87 90.7919 1209.74 91.1919 1208.52 91.1919ZM1210.57 86.4879C1210.52 85.5759 1209.9 84.4559 1208.38 84.4559C1206.95 84.4559 1206.28 85.5599 1206.22 86.4879H1210.57ZM1216.66 91.1919C1215.33 91.1919 1214.15 90.7599 1213.35 89.9759L1214.12 88.7759C1214.66 89.3359 1215.73 89.8479 1216.72 89.8479C1217.73 89.8479 1218.26 89.4319 1218.26 88.8239C1218.26 87.3039 1213.59 88.3919 1213.59 85.4159C1213.59 84.1519 1214.68 83.0799 1216.63 83.0799C1217.94 83.0799 1218.93 83.5439 1219.62 84.1519L1218.92 85.3359C1218.45 84.8239 1217.6 84.4079 1216.63 84.4079C1215.75 84.4079 1215.2 84.8239 1215.2 85.3679C1215.2 86.7279 1219.88 85.7039 1219.88 88.7759C1219.88 90.1519 1218.74 91.1919 1216.66 91.1919ZM1225.22 91.1919C1222.75 91.1919 1221.25 89.3359 1221.25 87.1279C1221.25 84.9039 1222.75 83.0799 1225.22 83.0799C1227.68 83.0799 1229.18 84.9039 1229.18 87.1279C1229.18 89.3359 1227.68 91.1919 1225.22 91.1919ZM1225.22 89.7039C1226.66 89.7039 1227.44 88.5039 1227.44 87.1279C1227.44 85.7679 1226.66 84.5679 1225.22 84.5679C1223.79 84.5679 1222.99 85.7679 1222.99 87.1279C1222.99 88.5039 1223.79 89.7039 1225.22 89.7039ZM1237.95 90.9999H1236.27V89.9759C1235.73 90.5839 1234.77 91.1919 1233.55 91.1919C1231.89 91.1919 1231.06 90.3119 1231.06 88.7439V83.2719H1232.74V88.1199C1232.74 89.3199 1233.35 89.7039 1234.31 89.7039C1235.15 89.7039 1235.89 89.2079 1236.27 88.6959V83.2719H1237.95V90.9999ZM1241.98 90.9999H1240.3V83.2719H1241.98V84.3919C1242.57 83.6559 1243.5 83.0799 1244.49 83.0799V84.7439C1244.34 84.7119 1244.18 84.6959 1243.98 84.6959C1243.26 84.6959 1242.31 85.1759 1241.98 85.7359V90.9999ZM1249.52 91.1919C1247.19 91.1919 1245.54 89.4639 1245.54 87.1279C1245.54 84.7919 1247.19 83.0799 1249.52 83.0799C1251.04 83.0799 1251.94 83.7199 1252.48 84.4559L1251.38 85.4639C1250.95 84.8559 1250.36 84.5679 1249.6 84.5679C1248.21 84.5679 1247.27 85.6239 1247.27 87.1279C1247.27 88.6319 1248.21 89.7039 1249.6 89.7039C1250.36 89.7039 1250.95 89.3839 1251.38 88.7759L1252.48 89.8159C1251.94 90.5359 1251.04 91.1919 1249.52 91.1919ZM1257.72 91.1919C1255.38 91.1919 1253.67 89.5759 1253.67 87.1279C1253.67 84.8879 1255.3 83.0799 1257.59 83.0799C1259.91 83.0799 1261.38 84.8399 1261.38 87.2719V87.6879H1255.43C1255.56 88.8399 1256.42 89.8159 1257.88 89.8159C1258.64 89.8159 1259.52 89.5119 1260.08 88.9519L1260.85 90.0559C1260.07 90.7919 1258.93 91.1919 1257.72 91.1919ZM1259.76 86.4879C1259.72 85.5759 1259.09 84.4559 1257.57 84.4559C1256.15 84.4559 1255.48 85.5599 1255.41 86.4879H1259.76ZM1265.85 91.1919C1264.53 91.1919 1263.34 90.7599 1262.54 89.9759L1263.31 88.7759C1263.85 89.3359 1264.93 89.8479 1265.92 89.8479C1266.93 89.8479 1267.45 89.4319 1267.45 88.8239C1267.45 87.3039 1262.78 88.3919 1262.78 85.4159C1262.78 84.1519 1263.87 83.0799 1265.82 83.0799C1267.13 83.0799 1268.13 83.5439 1268.81 84.1519L1268.11 85.3359C1267.65 84.8239 1266.8 84.4079 1265.82 84.4079C1264.94 84.4079 1264.4 84.8239 1264.4 85.3679C1264.4 86.7279 1269.07 85.7039 1269.07 88.7759C1269.07 90.1519 1267.93 91.1919 1265.85 91.1919Z" fill="#25282A"/>
<path d="M1388 64H1322C1310.95 64 1302 72.9543 1302 84C1302 95.0457 1310.95 104 1322 104H1388C1399.05 104 1408 95.0457 1408 84C1408 72.9543 1399.05 64 1388 64Z" fill="#F4F4F4"/>
<path d="M1388 64H1322C1310.95 64 1302 72.9543 1302 84C1302 95.0457 1310.95 104 1322 104H1388C1399.05 104 1408 95.0457 1408 84C1408 72.9543 1399.05 64 1388 64Z" stroke="black"/>
<path d="M1333.24 90.7681L1328.82 86.3531C1329.83 85.2291 1330.37 83.7557 1330.31 82.2458C1330.25 80.7359 1329.6 79.3087 1328.5 78.2672C1327.41 77.2257 1325.94 76.6521 1324.43 76.6683C1322.91 76.6845 1321.46 77.2891 1320.39 78.3538C1319.31 79.4185 1318.7 80.8592 1318.67 82.37C1318.64 83.8808 1319.21 85.3425 1320.24 86.4446C1321.28 87.5467 1322.71 88.2023 1324.22 88.2722C1325.74 88.342 1327.22 87.8206 1328.35 86.8187L1332.77 91.237C1332.8 91.2679 1332.83 91.2925 1332.87 91.3092C1332.91 91.326 1332.96 91.3346 1333 91.3346C1333.05 91.3346 1333.09 91.326 1333.13 91.3092C1333.17 91.2925 1333.21 91.2679 1333.24 91.237C1333.27 91.2063 1333.29 91.1697 1333.31 91.1295C1333.33 91.0893 1333.33 91.0461 1333.33 91.0025C1333.33 90.9589 1333.33 90.9158 1333.31 90.8755C1333.29 90.8353 1333.27 90.7987 1333.24 90.7681ZM1324.53 87.6178C1323.52 87.6184 1322.54 87.3211 1321.7 86.7635C1320.86 86.2058 1320.21 85.4129 1319.82 84.4849C1319.43 83.5569 1319.33 82.5357 1319.53 81.5503C1319.73 80.5649 1320.21 79.6596 1320.92 78.949C1321.64 78.2384 1322.54 77.7544 1323.53 77.5582C1324.52 77.3619 1325.54 77.4623 1326.47 77.8466C1327.41 78.2309 1328.2 78.8819 1328.76 79.7171C1329.32 80.5524 1329.62 81.5345 1329.62 82.5391C1329.62 83.8847 1329.08 85.1744 1328.13 86.1262C1327.17 87.078 1325.88 87.6143 1324.53 87.6178Z" fill="#0071BC"/>
<path d="M1347.01 89.1919C1345.17 89.1919 1343.8 88.4879 1342.92 87.4959L1343.72 86.4719C1344.41 87.2719 1345.56 88.0079 1347.06 88.0079C1348.97 88.0079 1349.57 86.9839 1349.57 86.1519C1349.57 83.3999 1343.25 84.9359 1343.25 81.1279C1343.25 79.3679 1344.82 78.1519 1346.93 78.1519C1348.55 78.1519 1349.81 78.7119 1350.71 79.6559L1349.91 80.6319C1349.11 79.7359 1347.99 79.3519 1346.82 79.3519C1345.56 79.3519 1344.63 80.0399 1344.63 81.0479C1344.63 83.4479 1350.95 82.0719 1350.95 86.0559C1350.95 87.5919 1349.89 89.1919 1347.01 89.1919ZM1356.55 89.1919C1354.24 89.1919 1352.6 87.5439 1352.6 85.1279C1352.6 82.8879 1354.2 81.0799 1356.4 81.0799C1358.74 81.0799 1360.12 82.9039 1360.12 85.2239V85.5279H1353.88C1353.97 86.9839 1354.98 88.1999 1356.64 88.1999C1357.54 88.1999 1358.42 87.8479 1359.04 87.2079L1359.62 87.9919C1358.84 88.7599 1357.8 89.1919 1356.55 89.1919ZM1358.93 84.6319C1358.92 83.4959 1358.15 82.0719 1356.39 82.0719C1354.74 82.0719 1353.92 83.4639 1353.86 84.6319H1358.93ZM1368.25 88.9999H1367.05V88.1199C1366.43 88.8239 1365.53 89.1919 1364.49 89.1919C1363.2 89.1919 1361.8 88.3119 1361.8 86.6319C1361.8 84.8879 1363.18 84.0879 1364.49 84.0879C1365.55 84.0879 1366.43 84.4239 1367.05 85.1279V83.7359C1367.05 82.7119 1366.22 82.1199 1365.1 82.1199C1364.17 82.1199 1363.42 82.4399 1362.73 83.1919L1362.17 82.3599C1363 81.4959 1364 81.0799 1365.26 81.0799C1366.91 81.0799 1368.25 81.8159 1368.25 83.6879V88.9999ZM1364.94 88.3279C1365.77 88.3279 1366.59 88.0079 1367.05 87.3679V85.8959C1366.59 85.2719 1365.77 84.9519 1364.94 84.9519C1363.8 84.9519 1363.02 85.6559 1363.02 86.6319C1363.02 87.6239 1363.8 88.3279 1364.94 88.3279ZM1372.03 88.9999H1370.83V81.2719H1372.03V82.5039C1372.66 81.7039 1373.55 81.0959 1374.61 81.0959V82.3279C1374.47 82.3119 1374.32 82.2959 1374.15 82.2959C1373.39 82.2959 1372.39 82.9039 1372.03 83.5279V88.9999ZM1379.68 89.1919C1377.38 89.1919 1375.83 87.4159 1375.83 85.1279C1375.83 82.8399 1377.38 81.0799 1379.68 81.0799C1381.09 81.0799 1381.92 81.6559 1382.51 82.4239L1381.71 83.1439C1381.2 82.4399 1380.55 82.1519 1379.75 82.1519C1378.11 82.1519 1377.07 83.4159 1377.07 85.1279C1377.07 86.8399 1378.11 88.1199 1379.75 88.1199C1380.55 88.1199 1381.2 87.7999 1381.71 87.1119L1382.51 87.8479C1381.92 88.6159 1381.09 89.1919 1379.68 89.1919ZM1390.8 88.9999H1389.6V83.9119C1389.6 82.5359 1388.92 82.1519 1387.86 82.1519C1386.93 82.1519 1386.04 82.7279 1385.59 83.3519V88.9999H1384.39V78.3279H1385.59V82.3919C1386.12 81.7359 1387.17 81.0799 1388.34 81.0799C1389.96 81.0799 1390.8 81.8639 1390.8 83.5439V88.9999Z" fill="#25282A"/>
</g>
<rect x="0.5" y="0.5" width="1439" height="127" rx="7.5" stroke="#E9E9E9"/>
<defs>
<clipPath id="clip0_2553_6898">
<rect width="1440" height="128" rx="8" fill="white"/>
</clipPath>
</defs>
</svg>
