<svg id="Layer_1" data-name="Layer 1" xmlns="http://www.w3.org/2000/svg" viewBox="0 0 1440 195.29"><defs><style>.cls-1{fill:#fbf9f7;}.cls-2{fill:#0095da;}.cls-3{fill:#fff;}.cls-4,.cls-7{fill:none;stroke:#162c55;}.cls-4{stroke-width:2px;}.cls-5,.cls-8{fill:#162c55;}.cls-6{fill:#707275;}.cls-8{fill-rule:evenodd;}</style></defs><path class="cls-1" d="M16,116A44,44,0,0,1,60,72H1380a44,44,0,0,1,44,44h0a44,44,0,0,1-44,44H60a44,44,0,0,1-44-44Z"/><path class="cls-2" d="M164.25,96a30.23,30.23,0,0,1-26.83,0c-1.91,3.51-2.32,7.39-2.35,11.28C135,119.65,141.5,131,150.84,136c9.33-5,15.85-16.34,15.75-28.71C166.56,103.39,166.15,99.51,164.25,96Z"/><path class="cls-2" d="M162.55,134.06h.27a.88.88,0,0,0,.42-.07.26.26,0,0,0,.11-.25c0-.11,0-.19-.11-.22a.61.61,0,0,0-.38-.08h-.32v.62Zm-.2-.78H163a.59.59,0,0,1,.41.13.36.36,0,0,1,.15.32c0,.25-.15.41-.45.47a1,1,0,0,1,.26.22,3.7,3.7,0,0,1,.26.55h-.25a2,2,0,0,0-.36-.62.57.57,0,0,0-.41-.13h-.1V135h-.2Zm2.27.82a1.67,1.67,0,0,0-1.63-1.65,1.66,1.66,0,0,0-1.63,1.65,1.6,1.6,0,0,0,.47,1.17,1.64,1.64,0,0,0,2.79-1.17Zm-3.5,0a1.88,1.88,0,0,1,1.86-1.88,1.82,1.82,0,0,1,1.32.55,1.86,1.86,0,0,1,.55,1.33A1.9,1.9,0,0,1,163,136a1.77,1.77,0,0,1-1.31-.56A1.79,1.79,0,0,1,161.12,134.1Z"/><path d="M61.13,134.88a4.23,4.23,0,0,1-1.85.37,3,3,0,1,1,0-5.89,4.57,4.57,0,0,1,1.78.36l-.08.84a4.11,4.11,0,0,0-1.7-.36A2.11,2.11,0,0,0,57,132.3a2.18,2.18,0,0,0,2.43,2.12A3.51,3.51,0,0,0,61,134Z"/><path d="M68.46,134H65.57l-.46,1.19h-.94l2.36-5.73h1l2.37,5.73h-1Zm-2.65-.74h2.38L67,130.43Z"/><path d="M77.32,135.17H73.16v-5.73h.89v4.93h3.26v.8Z"/><path d="M81.55,135.17h-.88v-5.73h.88Z"/><path d="M86.45,135.17h-.89v-5.73h4v.81h-3.1v1.6h2.43v.8H86.45Z"/><path d="M95.43,129.36a2.92,2.92,0,0,1,3,3,3,3,0,1,1-3-3Zm0,5.06a2,2,0,0,0,2.11-2.09,2.09,2.09,0,1,0-4.18,0A2,2,0,0,0,95.43,134.42Z"/><path d="M104.59,133.42H103v1.75h-.88v-5.73h2.6a2,2,0,0,1,.79,3.83l1.57,1.89H106ZM103,130.25v2.37h1.55a1.15,1.15,0,0,0,1.24-1.17,1.14,1.14,0,0,0-1.24-1.2Z"/><path d="M111.42,135.17h-.88v-5.73h.88l3.66,4.37v-4.37H116v5.73h-.9l-3.65-4.32v4.32Z"/><path d="M120.86,135.17H120v-5.73h.88Z"/><path d="M128.47,134h-2.89l-.46,1.19h-1l2.37-5.73h1l2.37,5.73h-.94Zm-2.65-.74h2.38L127,130.43Z"/><path d="M56.18,124.75V97.8h2.29v12.12A8.88,8.88,0,0,1,66.09,106a9.58,9.58,0,0,1,0,19.15,9,9,0,0,1-7.62-3.87v3.48Zm17-9.17a7.19,7.19,0,0,0-7.2-7.48,7.47,7.47,0,1,0,0,14.93A7.19,7.19,0,0,0,73.14,115.58Z"/><path d="M80.82,97.8h2.29v27H80.82Z"/><path d="M103.88,106.37h2.26v10.92c0,4.57-3.1,7.85-8.29,7.85s-8.28-3.28-8.28-7.74v-11h2.26v10.55c0,4,2.39,6.06,6,6.06s6-2,6-6.06Z"/><path d="M128.46,123.31a12.87,12.87,0,0,1-6.84,1.82c-6.2,0-10.47-3.91-10.47-9.57a9.21,9.21,0,0,1,9.46-9.57c6.47,0,9.67,5.07,8.79,10.42H113.62c.37,4.23,4.18,6.54,7.74,6.54a11.42,11.42,0,0,0,6.6-1.68Zm-1.21-8.86a6.22,6.22,0,0,0-6.57-6.28,6.7,6.7,0,0,0-7,6.28Z"/><path d="M56.18,124.75V97.8h2.29v12.12A8.88,8.88,0,0,1,66.09,106a9.58,9.58,0,0,1,0,19.15,9,9,0,0,1-7.62-3.87v3.48Zm17-9.17a7.19,7.19,0,0,0-7.2-7.48,7.47,7.47,0,1,0,0,14.93A7.19,7.19,0,0,0,73.14,115.58Z"/><path d="M80.82,97.8h2.29v27H80.82Z"/><path d="M103.88,106.37h2.26v10.92c0,4.57-3.1,7.85-8.29,7.85s-8.28-3.28-8.28-7.74v-11h2.26v10.55c0,4,2.39,6.06,6,6.06s6-2,6-6.06Z"/><path d="M128.46,123.31a12.87,12.87,0,0,1-6.84,1.82c-6.2,0-10.47-3.91-10.47-9.57a9.21,9.21,0,0,1,9.46-9.57c6.47,0,9.67,5.07,8.79,10.42H113.62c.37,4.23,4.18,6.54,7.74,6.54a11.42,11.42,0,0,0,6.6-1.68Zm-1.21-8.86a6.22,6.22,0,0,0-6.57-6.28,6.7,6.7,0,0,0-7,6.28Z"/><path class="cls-3" d="M1296,97h76a19,19,0,0,1,19,19h0a19,19,0,0,1-19,19h-76a19,19,0,0,1-19-19h0A19,19,0,0,1,1296,97Z"/><path class="cls-4" d="M1296,97h76a19,19,0,0,1,19,19h0a19,19,0,0,1-19,19h-76a19,19,0,0,1-19-19h0A19,19,0,0,1,1296,97Z"/><path class="cls-5" d="M1306.85,122.2l-4-4a5.58,5.58,0,0,0-.52-7.71,5.59,5.59,0,1,0-4.15,9.71,5.63,5.63,0,0,0,4-1.29h0l4,4a.57.57,0,0,0,.16.11.43.43,0,0,0,.19,0,.45.45,0,0,0,.2,0,.57.57,0,0,0,.16-.11.52.52,0,0,0,.1-.34A.51.51,0,0,0,1306.85,122.2Zm-8.3-3a4.53,4.53,0,0,1-2.55-.78,4.6,4.6,0,0,1,4.32-8.07,4.6,4.6,0,0,1,1.49,7.51,4.58,4.58,0,0,1-3.26,1.36Z"/><path class="cls-6" d="M1322.15,116.48l-1.79-.57c-1.42-.44-2.63-1.14-2.63-2.64,0-1.86,1.41-3,3.79-3a8.68,8.68,0,0,1,3.12.58l-.13,1.2a7.26,7.26,0,0,0-2.89-.6c-1.55,0-2.52.61-2.52,1.74s.93,1.36,1.86,1.66l1.66.53c1.74.57,2.55,1.33,2.55,2.78,0,1.82-1.49,3-3.82,3a9.33,9.33,0,0,1-3.64-.73l.13-1.22a8.83,8.83,0,0,0,3.41.77c1.55,0,2.58-.67,2.58-1.82C1323.83,117.31,1323.36,116.86,1322.15,116.48Zm11.3,2.82.22,1.12a5.49,5.49,0,0,1-2.83.74c-2.52,0-4.26-1.6-4.26-3.91a3.77,3.77,0,0,1,3.86-3.91,3.54,3.54,0,0,1,3.57,4.36h-6.13a2.73,2.73,0,0,0,2.91,2.29A5.2,5.2,0,0,0,1333.45,119.3Zm-5.54-2.61h5a2.25,2.25,0,0,0-2.4-2.19A2.42,2.42,0,0,0,1327.91,116.69Zm15.53-3.19V121h-1.24v-1.23a3.44,3.44,0,0,1-2.9,1.39,3.91,3.91,0,0,1,0-7.82,3.41,3.41,0,0,1,2.9,1.39V113.5Zm-4,1a2.65,2.65,0,0,0-2.67,2.76,2.68,2.68,0,0,0,2.67,2.8,2.75,2.75,0,0,0,2.78-2.8A2.71,2.71,0,0,0,1339.43,114.47Zm7.85-1v1.11a2.15,2.15,0,0,1,2-1.27,2.8,2.8,0,0,1,1.07.2l-.13,1.15a2.49,2.49,0,0,0-1-.19c-1,0-2,.66-2,2.34V121H1346v-7.5Zm4.13,3.73c0-2.31,1.71-3.89,4.21-3.89a5.19,5.19,0,0,1,2.26.5l-.14,1.12a5,5,0,0,0-2.12-.45,2.71,2.71,0,0,0-3,2.72,2.75,2.75,0,0,0,3,2.76,5.17,5.17,0,0,0,2.16-.47l.21,1.13a6.23,6.23,0,0,1-2.37.51A3.89,3.89,0,0,1,1351.41,117.23Zm12.24-3.89a2.88,2.88,0,0,1,3.15,3.1V121h-1.24v-4.26a2,2,0,0,0-2.11-2.22,2.21,2.21,0,0,0-2.32,2.25V121h-1.24V110h1.25v4.62A2.89,2.89,0,0,1,1363.65,113.34Z"/><path class="cls-5" d="M1152.66,116.15h-4.82V121h-1.29V110.39h7.31v1.17h-6V115h4.82Zm2.95,4.85v-7.5h1.24V121Zm.62-9.24a.74.74,0,0,1-.77-.78.73.73,0,0,1,.77-.76.74.74,0,0,1,.78.76A.75.75,0,0,1,1156.23,111.76Zm7,1.58a2.89,2.89,0,0,1,3.17,3.1V121h-1.24v-4.26a2,2,0,0,0-2.12-2.22,2.2,2.2,0,0,0-2.32,2.25V121h-1.25v-7.5h1.25v1.12A2.9,2.9,0,0,1,1163.21,113.34ZM1175,121v-1.22a3.42,3.42,0,0,1-2.89,1.38,3.91,3.91,0,0,1,0-7.82,3.43,3.43,0,0,1,2.89,1.39V110h1.24v11Zm-2.77-1a2.75,2.75,0,0,0,2.78-2.8,2.71,2.71,0,0,0-2.78-2.76,2.65,2.65,0,0,0-2.67,2.76A2.68,2.68,0,0,0,1172.21,120Zm17.73-6.53V121h-1.24v-1.23a3.44,3.44,0,0,1-2.9,1.39,3.91,3.91,0,0,1,0-7.82,3.41,3.41,0,0,1,2.9,1.39V113.5Zm-4,1a2.65,2.65,0,0,0-2.67,2.76,2.68,2.68,0,0,0,2.67,2.8,2.75,2.75,0,0,0,2.78-2.8A2.71,2.71,0,0,0,1185.93,114.47Zm16.48,6.53v-1.22a3.4,3.4,0,0,1-2.89,1.38,3.91,3.91,0,0,1,0-7.82,3.4,3.4,0,0,1,2.89,1.39V110h1.25v11Zm-2.76-1a2.75,2.75,0,0,0,2.78-2.8,2.71,2.71,0,0,0-2.78-2.76,2.65,2.65,0,0,0-2.67,2.76A2.68,2.68,0,0,0,1199.65,120Zm6-2.78a4,4,0,1,1,4,3.91A3.88,3.88,0,0,1,1205.66,117.25Zm1.25,0a2.74,2.74,0,1,0,2.74-2.75A2.68,2.68,0,0,0,1206.91,117.25Zm8.15,0c0-2.31,1.71-3.89,4.22-3.89a5.14,5.14,0,0,1,2.25.5l-.13,1.12a5,5,0,0,0-2.12-.45,2.7,2.7,0,0,0-3,2.72,2.74,2.74,0,0,0,3,2.76,5.2,5.2,0,0,0,2.16-.47l.2,1.13a6.18,6.18,0,0,1-2.36.51C1216.78,121.16,1215.06,119.56,1215.06,117.23Zm12.56-2.66h-2.39v4.05c0,1,.53,1.42,1.29,1.42a4.09,4.09,0,0,0,1.28-.21l.17,1.07a4.58,4.58,0,0,1-1.58.26,2.18,2.18,0,0,1-2.41-2.33v-4.26h-1.38V113.5H1224v-2.41h1.23v2.41h2.4Zm1.31,2.68a4,4,0,1,1,4,3.91A3.88,3.88,0,0,1,1228.93,117.25Zm1.24,0a2.75,2.75,0,1,0,2.74-2.75A2.69,2.69,0,0,0,1230.17,117.25Zm10-3.75v1.11a2.14,2.14,0,0,1,2-1.27,2.79,2.79,0,0,1,1.06.2l-.12,1.15a2.51,2.51,0,0,0-1-.19c-1,0-2,.66-2,2.34V121h-1.25v-7.5Z"/><path class="cls-5" d="M1023.41,111l-.12,1.23a7.8,7.8,0,0,0-3.31-.75c-2.93,0-4.83,1.72-4.83,4.22s1.92,4.25,4.85,4.25a5.55,5.55,0,0,0,2.56-.48v-3.09h-3.46V115.2h4.72v5.08a7.73,7.73,0,0,1-3.77.88c-3.76,0-6.25-2.22-6.25-5.47s2.46-5.45,6.2-5.45A7.7,7.7,0,0,1,1023.41,111Zm9,8.31.22,1.12a5.52,5.52,0,0,1-2.83.74c-2.53,0-4.27-1.6-4.27-3.91a3.77,3.77,0,0,1,3.86-3.91,3.53,3.53,0,0,1,3.57,4.36h-6.13a2.73,2.73,0,0,0,2.91,2.29A5.24,5.24,0,0,0,1032.44,119.3Zm-5.55-2.61h5a2.25,2.25,0,0,0-2.4-2.19A2.44,2.44,0,0,0,1026.89,116.69Zm12.26-2.12h-2.39v4.05c0,1,.53,1.42,1.29,1.42a4.2,4.2,0,0,0,1.29-.21l.16,1.07a4.58,4.58,0,0,1-1.58.26,2.17,2.17,0,0,1-2.4-2.33v-4.26h-1.39V113.5h1.39v-2.41h1.23v2.41h2.4Zm14.87-1.23a2.88,2.88,0,0,1,3.11,3.07V121h-1.24v-4.28a2,2,0,0,0-2.07-2.2,2.13,2.13,0,0,0-2.23,2.17V121h-1.24v-4.28a1.94,1.94,0,0,0-2-2.2,2.15,2.15,0,0,0-2.26,2.22V121h-1.24v-7.5h1.24v1.12a3.09,3.09,0,0,1,5.2.3A3,3,0,0,1,1054,113.34Zm5,3.91a4,4,0,1,1,4,3.91A3.88,3.88,0,0,1,1059,117.25Zm1.24,0a2.75,2.75,0,1,0,2.74-2.75A2.69,2.69,0,0,0,1060.28,117.25Zm10-3.75v1.11a2.14,2.14,0,0,1,2-1.27,2.79,2.79,0,0,1,1.06.2l-.12,1.15a2.51,2.51,0,0,0-1-.19c-1,0-2,.66-2,2.34V121H1069v-7.5Zm11,5.8.21,1.12a5.48,5.48,0,0,1-2.82.74c-2.53,0-4.27-1.6-4.27-3.91a3.77,3.77,0,0,1,3.86-3.91,3.53,3.53,0,0,1,3.57,4.36h-6.13a2.73,2.73,0,0,0,2.91,2.29A5.24,5.24,0,0,0,1081.27,119.3Zm-5.55-2.61h5a2.25,2.25,0,0,0-2.4-2.19A2.44,2.44,0,0,0,1075.72,116.69Z"/><path class="cls-7" d="M1094.44,113.56l4,4,4-4"/><path class="cls-5" d="M906.73,118a1.83,1.83,0,0,0-2-1.91h-3.86v3.71h3.86A1.79,1.79,0,0,0,906.73,118Zm-5.89-6.5v3.51h3.25a1.77,1.77,0,0,0,2-1.73c0-1.09-.76-1.78-2-1.78ZM899.55,121V110.39h4.57c2,0,3.28,1.12,3.28,2.92a2.3,2.3,0,0,1-1.23,2.1,2.63,2.63,0,0,1,1.88,2.62c0,1.66-1.17,3-3.46,3Zm16.9-1.7.22,1.12a5.49,5.49,0,0,1-2.83.74c-2.52,0-4.26-1.6-4.26-3.91a3.77,3.77,0,0,1,3.86-3.91A3.54,3.54,0,0,1,917,117.7h-6.13a2.73,2.73,0,0,0,2.91,2.29A5.2,5.2,0,0,0,916.45,119.3Zm-5.54-2.61h5a2.25,2.25,0,0,0-2.4-2.19A2.42,2.42,0,0,0,910.91,116.69Zm16.25-3.11h1.32l2,6.24,1.87-6.32h1.31l-2.34,7.5h-1.66l-1.87-5.69L926,121h-1.66L922,113.5h1.32l1.85,6.31Zm14.5,5.72.22,1.12a5.54,5.54,0,0,1-2.83.74c-2.53,0-4.27-1.6-4.27-3.91a3.77,3.77,0,0,1,3.86-3.91,3.53,3.53,0,0,1,3.57,4.36h-6.13A2.73,2.73,0,0,0,939,120,5.24,5.24,0,0,0,941.66,119.3Zm-5.55-2.61h5a2.25,2.25,0,0,0-2.4-2.19A2.44,2.44,0,0,0,936.11,116.69ZM944.3,121V110h1.24v11Zm3.84,0V110h1.24v11Z"/><path class="cls-7" d="M962.44,113.56l4,4,4-4"/><path class="cls-5" d="M759.29,116.48l-1.79-.57c-1.42-.44-2.62-1.14-2.62-2.64,0-1.86,1.4-3,3.78-3a8.63,8.63,0,0,1,3.12.58l-.13,1.2a7.25,7.25,0,0,0-2.88-.6c-1.56,0-2.53.61-2.53,1.74s.93,1.36,1.86,1.66l1.67.53c1.73.57,2.54,1.33,2.54,2.78,0,1.82-1.49,3-3.82,3a9.33,9.33,0,0,1-3.64-.73l.13-1.22a8.83,8.83,0,0,0,3.41.77c1.55,0,2.58-.67,2.58-1.82C761,117.31,760.5,116.86,759.29,116.48Zm8.76-3.14a2.88,2.88,0,0,1,3.15,3.1V121H770v-4.26a2,2,0,0,0-2.11-2.22,2.21,2.21,0,0,0-2.32,2.25V121H764.3V110h1.25v4.62A2.88,2.88,0,0,1,768.05,113.34Zm5.07,3.91a4,4,0,1,1,4,3.91A3.88,3.88,0,0,1,773.12,117.25Zm1.24,0a2.74,2.74,0,1,0,2.74-2.75A2.68,2.68,0,0,0,774.36,117.25Zm8.73-3.75h1.25v1.23a3.38,3.38,0,0,1,2.89-1.39,3.91,3.91,0,0,1,0,7.82,3.4,3.4,0,0,1-2.89-1.39v4.35h-1.25Zm4,1a2.75,2.75,0,0,0-2.78,2.8A2.71,2.71,0,0,0,787.1,120a2.65,2.65,0,0,0,2.67-2.76A2.68,2.68,0,0,0,787.1,114.47Zm9.71-1h1.24v1.23a3.41,3.41,0,0,1,2.9-1.39,3.91,3.91,0,0,1,0,7.82,3.44,3.44,0,0,1-2.9-1.39v4.35h-1.24Zm4,1a2.75,2.75,0,0,0-2.78,2.8,2.71,2.71,0,0,0,2.78,2.76,2.65,2.65,0,0,0,2.67-2.76A2.68,2.68,0,0,0,800.82,114.47Zm5.93,6.53V110H808v11Zm11.19-7.5V121H816.7v-1.23a3.44,3.44,0,0,1-2.9,1.39,3.91,3.91,0,0,1,0-7.82,3.41,3.41,0,0,1,2.9,1.39V113.5Zm-4,1a2.65,2.65,0,0,0-2.67,2.76,2.68,2.68,0,0,0,2.67,2.8,2.75,2.75,0,0,0,2.78-2.8A2.71,2.71,0,0,0,813.93,114.47Zm10.36-1.13a2.88,2.88,0,0,1,3.16,3.1V121h-1.23v-4.26a2,2,0,0,0-2.13-2.22,2.21,2.21,0,0,0-2.32,2.25V121h-1.24v-7.5h1.25v1.12A2.89,2.89,0,0,1,824.29,113.34Zm7.9,3.28.78.15c1.49.3,2.28,1,2.28,2.14,0,1.47-1.16,2.25-3,2.25a6.7,6.7,0,0,1-2.82-.57l.17-1.11a5.81,5.81,0,0,0,2.56.57c1.2,0,1.85-.38,1.85-1.07s-.58-1-1.63-1.16l-1-.2c-1.24-.24-2-.89-2-2.05,0-1.34,1.18-2.23,3-2.23a6.85,6.85,0,0,1,2.41.42l-.16,1.08a6.34,6.34,0,0,0-2.17-.4c-1.22,0-1.89.41-1.89,1.1S831.13,116.41,832.19,116.62Z"/><path class="cls-7" d="M847.44,113.56l4,4,4-4"/><path class="cls-5" d="M64.16,48H57.35V38.72H64v1H58.48v3h4.81v1H58.48V47h5.68Zm5.11-6.7A2.52,2.52,0,0,1,72,44v4H71V44.27a1.71,1.71,0,0,0-1.86-1.94,1.93,1.93,0,0,0-2,2V48H66V41.44h1.09v1A2.52,2.52,0,0,1,69.27,41.3Zm10.29,5.62A3,3,0,0,1,77,48.14a3.29,3.29,0,0,1-3.3-3.44A3.26,3.26,0,0,1,77,41.3a3,3,0,0,1,2.53,1.21V41.44h1.09v6.12c0,1.91-1.31,3.31-3.71,3.31a6.08,6.08,0,0,1-2.59-.55l.18-1a5.42,5.42,0,0,0,2.4.56c1.53,0,2.63-.78,2.63-2.25Zm-2.42-4.63a2.31,2.31,0,0,0-2.33,2.41,2.34,2.34,0,0,0,2.33,2.45,2.41,2.41,0,0,0,2.44-2.45A2.37,2.37,0,0,0,77.14,42.29ZM82.92,48V38.38H84V48Zm3.36,0V41.44h1.09V48Zm.54-8.09a.67.67,0,1,1,.69-.67A.66.66,0,0,1,86.82,39.91Zm4.78,4.26.69.13c1.3.26,2,.85,2,1.87,0,1.28-1,2-2.61,2a5.75,5.75,0,0,1-2.46-.5l.15-1a5.12,5.12,0,0,0,2.23.5c1.06,0,1.62-.33,1.62-.94s-.5-.83-1.42-1l-.86-.17c-1.09-.22-1.78-.79-1.78-1.8,0-1.17,1-2,2.66-2a6,6,0,0,1,2.11.36l-.14,1a5.53,5.53,0,0,0-1.9-.35c-1.06,0-1.65.36-1.65,1S90.68,44,91.6,44.17Zm7.68-2.87A2.52,2.52,0,0,1,102,44v4H101V44.27a1.71,1.71,0,0,0-1.84-1.94,1.93,1.93,0,0,0-2,2V48H96V38.38h1.09v4A2.52,2.52,0,0,1,99.28,41.3Z"/><path class="cls-7" d="M115.44,41.56l4,4,4-4"/><path class="cls-5" d="M163.46,45.09h-3V48h-1.13V38.72h4.11a3,3,0,0,1,3.24,3.2A3.09,3.09,0,0,1,163.46,45.09Zm-3-5.34v4.32h2.84a2.1,2.1,0,0,0,2.22-2.14,2.05,2.05,0,0,0-2.22-2.18Zm14.27,1.69V48h-1.09V46.92a3,3,0,0,1-2.53,1.22,3.3,3.3,0,0,1-3.31-3.44,3.27,3.27,0,0,1,3.31-3.4,3,3,0,0,1,2.53,1.21V41.44Zm-3.51.85a2.31,2.31,0,0,0-2.34,2.41,2.34,2.34,0,0,0,2.34,2.45,2.41,2.41,0,0,0,2.44-2.45A2.37,2.37,0,0,0,171.24,42.29Zm8.27,4.64,2.2-5.49h1.19l-3.09,7.39c-.56,1.31-1.18,2-2.51,2a2.77,2.77,0,0,1-1.12-.22l.13-.93a2.33,2.33,0,0,0,.93.18c.75,0,1.19-.47,1.58-1.41l.11-.31-2.83-6.74h1.18Zm16.06-5.63A2.53,2.53,0,0,1,198.3,44v4h-1.09V44.25a1.71,1.71,0,0,0-1.81-1.92,1.86,1.86,0,0,0-2,1.9V48h-1.09V44.25a1.7,1.7,0,0,0-1.77-1.92,1.88,1.88,0,0,0-2,1.94V48h-1.09V41.44h1.09v1a2.7,2.7,0,0,1,4.55.26A2.64,2.64,0,0,1,195.57,41.3Zm7.4,5.63,2.2-5.49h1.19l-3.09,7.39c-.56,1.31-1.18,2-2.5,2a2.69,2.69,0,0,1-1.12-.22l.12-.93a2.33,2.33,0,0,0,.93.18c.75,0,1.19-.47,1.58-1.41l.11-.31-2.83-6.74h1.18Zm8-5.49h1.09v1.07a3,3,0,0,1,2.53-1.21,3.42,3.42,0,0,1,0,6.84,3,3,0,0,1-2.53-1.22v3.81H211Zm3.51.85a2.43,2.43,0,1,0,0,4.86,2.43,2.43,0,0,0,0-4.86Zm6.28-.85v1a1.88,1.88,0,0,1,1.77-1.11,2.49,2.49,0,0,1,.93.17l-.11,1a2.17,2.17,0,0,0-.86-.17c-.87,0-1.73.58-1.73,2V48h-1.09V41.44Zm9.63,5.07.19,1a4.79,4.79,0,0,1-2.48.65,3.42,3.42,0,0,1-3.73-3.42,3.29,3.29,0,0,1,3.38-3.42,3.09,3.09,0,0,1,3.12,3.82h-5.37a2.4,2.4,0,0,0,2.55,2A4.55,4.55,0,0,0,230.41,46.51Zm-4.86-2.28h4.35a2,2,0,0,0-2.1-1.92A2.13,2.13,0,0,0,225.55,44.23Zm15.21-2.93A2.52,2.52,0,0,1,243.48,44v4H242.4V44.25a1.71,1.71,0,0,0-1.81-1.92,1.86,1.86,0,0,0-2,1.9V48h-1.09V44.25a1.7,1.7,0,0,0-1.77-1.92,1.88,1.88,0,0,0-2,1.94V48h-1.08V41.44h1.08v1a2.71,2.71,0,0,1,4.56.26A2.63,2.63,0,0,1,240.76,41.3Zm4.9,6.7V41.44h1.09V48Zm.54-8.09a.67.67,0,1,1,.69-.67A.66.66,0,0,1,246.2,39.91Zm7.61,5.27V41.44h1.07v3.89a3,3,0,0,1-5.95.05V41.44H250v3.74a1.9,1.9,0,1,0,3.8,0Zm11.28-3.88A2.53,2.53,0,0,1,267.82,44v4h-1.09V44.25a1.71,1.71,0,0,0-1.81-1.92,1.86,1.86,0,0,0-1.95,1.9V48h-1.08V44.25a1.7,1.7,0,0,0-1.78-1.92,1.88,1.88,0,0,0-2,1.94V48h-1.09V41.44h1.09v1a2.7,2.7,0,0,1,4.55.26A2.64,2.64,0,0,1,265.09,41.3Z"/><path class="cls-5" d="M897.7,43.75h-4.22V48h-1.13V38.72h6.4v1h-5.27v3h4.22Zm2.07,1a3.49,3.49,0,1,1,3.49,3.42A3.39,3.39,0,0,1,899.77,44.72Zm1.09,0a2.4,2.4,0,1,0,2.4-2.41A2.35,2.35,0,0,0,900.86,44.72Zm8.73-3.28v1a1.88,1.88,0,0,1,1.77-1.11,2.49,2.49,0,0,1,.93.17l-.11,1a2.12,2.12,0,0,0-.86-.17c-.87,0-1.73.58-1.73,2V48H908.5V41.44ZM924,48h-6.8V38.72h6.66v1h-5.54v3h4.82v1h-4.82V47H924Zm9.86-6.7A2.53,2.53,0,0,1,936.63,44v4h-1.09V44.25a1.71,1.71,0,0,0-1.81-1.92,1.86,1.86,0,0,0-2,1.9V48H930.7V44.25a1.7,1.7,0,0,0-1.77-1.92,1.88,1.88,0,0,0-2,1.94V48h-1.09V41.44H927v1a2.7,2.7,0,0,1,4.55.26A2.65,2.65,0,0,1,933.9,41.3Zm4.91.14h1.09v1.07a3,3,0,0,1,2.53-1.21,3.42,3.42,0,0,1,0,6.84,3,3,0,0,1-2.53-1.22v3.81h-1.09Zm3.51.85a2.43,2.43,0,1,0,0,4.86,2.43,2.43,0,0,0,0-4.86ZM947.51,48V38.38h1.08V48Zm2.85-3.28a3.49,3.49,0,1,1,3.48,3.42A3.39,3.39,0,0,1,950.36,44.72Zm1.08,0a2.4,2.4,0,1,0,2.4-2.41A2.35,2.35,0,0,0,951.44,44.72Zm10.14,2.21,2.2-5.49H965l-3.09,7.39c-.57,1.31-1.18,2-2.51,2a2.77,2.77,0,0,1-1.12-.22l.13-.93a2.33,2.33,0,0,0,.93.18c.75,0,1.19-.47,1.57-1.41l.12-.31-2.84-6.74h1.19Zm10.22-.42.19,1a4.76,4.76,0,0,1-2.47.65,3.43,3.43,0,0,1-3.74-3.42,3.29,3.29,0,0,1,3.38-3.42,3.1,3.1,0,0,1,3.13,3.82h-5.37a2.39,2.39,0,0,0,2.55,2A4.51,4.51,0,0,0,971.8,46.51ZM967,44.23h4.34a2,2,0,0,0-2.09-1.92A2.13,2.13,0,0,0,967,44.23Zm8.26-2.79v1A1.86,1.86,0,0,1,977,41.3a2.6,2.6,0,0,1,.93.17l-.11,1a2.23,2.23,0,0,0-.87-.17c-.87,0-1.72.58-1.72,2V48h-1.1V41.44Zm6.07,2.73.68.13c1.31.26,2,.85,2,1.87,0,1.28-1,2-2.62,2a5.79,5.79,0,0,1-2.46-.5l.15-1a5.2,5.2,0,0,0,2.24.5c1.05,0,1.62-.33,1.62-.94s-.51-.83-1.43-1l-.86-.17c-1.08-.22-1.78-.79-1.78-1.8,0-1.17,1-2,2.67-2a6,6,0,0,1,2.1.36l-.13,1a5.58,5.58,0,0,0-1.9-.35c-1.07,0-1.66.36-1.66,1S980.35,44,981.28,44.17Z"/><path class="cls-5" d="M1023.7,43.75h-4.22V48h-1.13V38.72h6.4v1h-5.27v3h4.22Zm2.07,1a3.49,3.49,0,1,1,3.49,3.42A3.39,3.39,0,0,1,1025.77,44.72Zm1.09,0a2.4,2.4,0,1,0,2.4-2.41A2.35,2.35,0,0,0,1026.86,44.72Zm8.73-3.28v1a1.88,1.88,0,0,1,1.77-1.11,2.49,2.49,0,0,1,.93.17l-.11,1a2.12,2.12,0,0,0-.86-.17c-.87,0-1.73.58-1.73,2V48h-1.09V41.44Zm13.94,4a1.61,1.61,0,0,0-1.79-1.67h-3.38V47h3.38A1.58,1.58,0,0,0,1049.53,45.41Zm-5.17-5.69v3.07h2.85a1.55,1.55,0,1,0,0-3.07ZM1043.24,48V38.72h4c1.71,0,2.87,1,2.87,2.55a2,2,0,0,1-1.08,1.84,2.28,2.28,0,0,1,1.65,2.29c0,1.45-1,2.6-3,2.6Zm10.37-6.56v1a1.88,1.88,0,0,1,1.77-1.11,2.49,2.49,0,0,1,.93.17l-.11,1a2.12,2.12,0,0,0-.86-.17c-.87,0-1.73.58-1.73,2V48h-1.09V41.44Zm3.61,3.28a3.49,3.49,0,1,1,3.48,3.42A3.39,3.39,0,0,1,1057.22,44.72Zm1.08,0a2.4,2.4,0,1,0,2.4-2.41A2.35,2.35,0,0,0,1058.3,44.72ZM1066,48V38.38H1067v5.76h1.4l1.77-2.7h1.21l-2.13,3.2,2.47,3.36h-1.27l-2.11-2.93H1067V48Zm12.61-1.49.2,1a4.82,4.82,0,0,1-2.48.65,3.42,3.42,0,0,1-3.73-3.42,3.29,3.29,0,0,1,3.38-3.42,3.09,3.09,0,0,1,3.12,3.82h-5.37a2.4,2.4,0,0,0,2.55,2A4.49,4.49,0,0,0,1078.56,46.51Zm-4.85-2.28h4.35a2,2,0,0,0-2.1-1.92A2.13,2.13,0,0,0,1073.71,44.23Zm8.26-2.79v1a1.88,1.88,0,0,1,1.77-1.11,2.54,2.54,0,0,1,.93.17l-.11,1a2.17,2.17,0,0,0-.86-.17c-.88,0-1.73.58-1.73,2V48h-1.09V41.44Zm6.07,2.73.68.13c1.31.26,2,.85,2,1.87,0,1.28-1,2-2.61,2a5.75,5.75,0,0,1-2.46-.5l.15-1a5.12,5.12,0,0,0,2.23.5c1,0,1.62-.33,1.62-.94s-.5-.83-1.43-1l-.85-.17c-1.09-.22-1.79-.79-1.79-1.8,0-1.17,1-2,2.67-2a6.06,6.06,0,0,1,2.11.36l-.14,1a5.53,5.53,0,0,0-1.9-.35c-1.07,0-1.65.36-1.65,1S1087.12,44,1088,44.17Z"/><path class="cls-5" d="M1130.7,43.75h-4.22V48h-1.13V38.72h6.4v1h-5.27v3h4.22Zm2.07,1a3.49,3.49,0,1,1,3.49,3.42A3.39,3.39,0,0,1,1132.77,44.72Zm1.09,0a2.4,2.4,0,1,0,2.4-2.41A2.35,2.35,0,0,0,1133.86,44.72Zm8.73-3.28v1a1.88,1.88,0,0,1,1.77-1.11,2.49,2.49,0,0,1,.93.17l-.11,1a2.12,2.12,0,0,0-.86-.17c-.87,0-1.73.58-1.73,2V48h-1.09V41.44Zm11.75,3.65h-3V48h-1.12V38.72h4.1a3,3,0,0,1,3.24,3.2A3.09,3.09,0,0,1,1154.34,45.09Zm-3-5.34v4.32h2.85a2.1,2.1,0,0,0,2.21-2.14,2,2,0,0,0-2.21-2.18Zm8.94,1.69v1a1.88,1.88,0,0,1,1.77-1.11,2.54,2.54,0,0,1,.93.17l-.11,1a2.17,2.17,0,0,0-.86-.17c-.88,0-1.73.58-1.73,2V48h-1.09V41.44Zm3.6,3.28a3.49,3.49,0,1,1,3.49,3.42A3.39,3.39,0,0,1,1163.9,44.72Zm1.09,0a2.4,2.4,0,1,0,2.4-2.41A2.35,2.35,0,0,0,1165,44.72Zm13.46-3.28L1175.77,48h-1.34l-2.68-6.56h1.16L1175.1,47l2.18-5.52Zm1.39,6.56V41.44h1.08V48Zm.54-8.09a.67.67,0,1,1,0-1.34.67.67,0,1,1,0,1.34Zm8.16,8.09V46.93a3,3,0,0,1-2.53,1.21,3.42,3.42,0,0,1,0-6.84,3,3,0,0,1,2.53,1.22V38.38h1.08V48Zm-2.42-.85a2.4,2.4,0,0,0,2.43-2.44,2.37,2.37,0,0,0-2.43-2.42,2.31,2.31,0,0,0-2.34,2.42A2.34,2.34,0,0,0,1186.12,47.15Zm11.28-.64.2,1a4.82,4.82,0,0,1-2.48.65,3.42,3.42,0,0,1-3.73-3.42,3.29,3.29,0,0,1,3.38-3.42,3.09,3.09,0,0,1,3.12,3.82h-5.37a2.4,2.4,0,0,0,2.55,2A4.49,4.49,0,0,0,1197.4,46.51Zm-4.85-2.28h4.35a2,2,0,0,0-2.1-1.92A2.13,2.13,0,0,0,1192.55,44.23Zm8.26-2.79v1a1.88,1.88,0,0,1,1.77-1.11,2.54,2.54,0,0,1,.93.17l-.11,1a2.21,2.21,0,0,0-.86-.17c-.88,0-1.73.58-1.73,2V48h-1.1V41.44Zm6.07,2.73.68.13c1.31.26,2,.85,2,1.87,0,1.28-1,2-2.61,2a5.75,5.75,0,0,1-2.46-.5l.15-1a5.12,5.12,0,0,0,2.23.5c1.05,0,1.62-.33,1.62-.94s-.5-.83-1.43-1l-.85-.17c-1.09-.22-1.79-.79-1.79-1.8,0-1.17,1-2,2.67-2a6.06,6.06,0,0,1,2.11.36l-.14,1a5.53,5.53,0,0,0-1.9-.35c-1.07,0-1.66.36-1.66,1S1206,44,1206.88,44.17Z"/><path class="cls-4" d="M1259,29h0a15,15,0,0,1,15,15h0a15,15,0,0,1-15,15h0a15,15,0,0,1-15-15h0A15,15,0,0,1,1259,29Z"/><path class="cls-8" d="M1261.5,45.24a4.46,4.46,0,0,1-2.5.76,4.51,4.51,0,0,1-4.5-4.5,4.51,4.51,0,0,1,7.69-3.18,4.48,4.48,0,0,1,1,4.9A4.49,4.49,0,0,1,1261.5,45.24Zm-.55-6.65a3.55,3.55,0,0,0-2-.59,3.52,3.52,0,0,0-3.5,3.5,3.51,3.51,0,0,0,.59,1.94,3.51,3.51,0,0,0,6.35-1.26,3.5,3.5,0,0,0-1.49-3.59Zm1.3,9.6a7.39,7.39,0,0,1,2.65,2,.58.58,0,0,1,.1.36.56.56,0,0,1-.15.35.42.42,0,0,1-.3.12.46.46,0,0,1-.2,0,.44.44,0,0,1-.15-.12,6.52,6.52,0,0,0-5.2-2.27,6.92,6.92,0,0,0-5.21,2.28.42.42,0,0,1-.15.11.33.33,0,0,1-.17,0,.34.34,0,0,1-.18,0,.42.42,0,0,1-.15-.11.52.52,0,0,1-.14-.35.52.52,0,0,1,.14-.36,7.76,7.76,0,0,1,2.66-1.91,7.84,7.84,0,0,1,3.2-.66A7.4,7.4,0,0,1,1262.25,48.19Z"/><path class="cls-5" d="M1259,46v.5h0Zm2.5-.76-.27-.41h0Zm-5.68-.56-.35.35h0Zm-1.32-3.18h0Zm.76-2.5.41.28h0Zm2-1.66-.19-.46h0Zm4.91,1,.35-.36h0Zm-5.66.71-.36-.36h0Zm-.44,4.41.42-.27h0Zm1.57,1.29.19-.46h0Zm2,.2.09.49h0Zm2.75-2.75.49.1h0Zm-.2-2-.46.19h0Zm2.66,10,.4-.3h0Zm-2.65-2-.2.45h0Zm2.75,2.34.5,0h0Zm-.15.35.34.36h0Zm-.3.12v.5h0Zm-.2,0,.22-.45h0Zm-.15-.12.38-.32h0Zm-2.34-1.73-.2.46h0Zm-2.86-.54v.5h0Zm-2.85.58.2.46h0Zm-2.36,1.7-.37-.33h0Zm-.15.11.21.45h0Zm-.35,0-.21.45h0Zm-.15-.11.38-.33h0Zm0-.71-.37-.34h0Zm2.66-1.91.2.46h0Zm3.2-.66v.5h0Zm0-1.06a5,5,0,0,0,2.78-.84l-.55-.83a4,4,0,0,1-2.23.67ZM1255.47,45A5,5,0,0,0,1259,46.5v-1a4,4,0,0,1-2.82-1.17ZM1254,41.5a5,5,0,0,0,1.47,3.53l.71-.7A4,4,0,0,1,1255,41.5Zm.84-2.78a5,5,0,0,0-.84,2.78h1a4,4,0,0,1,.67-2.22Zm2.25-1.84a5,5,0,0,0-2.25,1.84l.83.56a4.07,4.07,0,0,1,1.8-1.48Zm2.89-.28a4.93,4.93,0,0,0-2.89.28l.38.92a4,4,0,0,1,2.31-.22Zm2.56,1.36A5,5,0,0,0,1260,36.6l-.2,1a4,4,0,0,1,2,1.09Zm1.37,2.56a5,5,0,0,0-1.37-2.56l-.71.71a4,4,0,0,1,1.1,2Zm-.29,2.89a5,5,0,0,0,.29-2.89l-1,.2a4.05,4.05,0,0,1-.23,2.31Zm-1.84,2.25a4.94,4.94,0,0,0,1.84-2.25l-.92-.38a4,4,0,0,1-1.47,1.8ZM1259,38.5a3,3,0,0,1,1.67.51l.56-.84a4,4,0,0,0-2.23-.67Zm-2.12.88a3,3,0,0,1,2.12-.88v-1a4,4,0,0,0-2.83,1.17ZM1256,41.5a3,3,0,0,1,.88-2.12l-.71-.71A4,4,0,0,0,1255,41.5Zm.51,1.67a3,3,0,0,1-.51-1.67h-1a4,4,0,0,0,.68,2.22Zm1.34,1.1a3.06,3.06,0,0,1-1.34-1.1l-.83.55a4,4,0,0,0,1.79,1.48Zm1.74.17a3,3,0,0,1-1.74-.17l-.38.93a4,4,0,0,0,2.31.22Zm1.54-.82a3,3,0,0,1-1.54.82l.19,1a4,4,0,0,0,2-1.09Zm.82-1.53a3,3,0,0,1-.82,1.53l.7.71a4,4,0,0,0,1.1-2Zm-.17-1.74a3.13,3.13,0,0,1,.17,1.74l1,.19a4.05,4.05,0,0,0-.23-2.31ZM1260.67,39a3,3,0,0,1,1.11,1.34l.92-.38a4,4,0,0,0-1.47-1.8Zm4.61,10.84a7.88,7.88,0,0,0-2.83-2.12l-.4.91a7,7,0,0,1,2.46,1.85Zm.22.72a1,1,0,0,0-.2-.7l-.81.6a0,0,0,0,1,0,0Zm-.3.66a1,1,0,0,0,.3-.66l-1-.07a0,0,0,0,1,0,0Zm-.65.27a.9.9,0,0,0,.64-.26l-.69-.72,0,0Zm-.42-.1a1,1,0,0,0,.41.1v-1h0Zm-.32-.25a1.11,1.11,0,0,0,.32.25l.44-.9h0Zm-2.15-1.59a6.07,6.07,0,0,1,2.16,1.59l.76-.64a6.93,6.93,0,0,0-2.52-1.87Zm-2.64-.5a5.84,5.84,0,0,1,2.64.5l.4-.92a7.07,7.07,0,0,0-3.08-.58Zm-2.67.54a6.35,6.35,0,0,1,2.65-.54v-1a7.48,7.48,0,0,0-3.06.62Zm-2.19,1.57a6.44,6.44,0,0,1,2.19-1.57l-.4-.92a7.27,7.27,0,0,0-2.53,1.83Zm-.31.23a.9.9,0,0,0,.32-.23l-.76-.66,0,0Zm-.38.09a.85.85,0,0,0,.38-.09l-.41-.91h0Zm-.39-.09a.86.86,0,0,0,.39.09v-1h0Zm-.32-.23a.9.9,0,0,0,.32.23l.41-.91,0,0Zm-.26-.68a1,1,0,0,0,.27.68l.74-.66v0Zm.27-.7a1.06,1.06,0,0,0-.27.7h1a0,0,0,0,1,0,0Zm2.83-2a8.41,8.41,0,0,0-2.83,2l.74.68a7.14,7.14,0,0,1,2.49-1.79Zm3.41-.7a8.3,8.3,0,0,0-3.41.7l.4.92a7.2,7.2,0,0,1,3-.62Zm3.44.67a7.92,7.92,0,0,0-3.46-.67l0,1a6.86,6.86,0,0,1,3,.58Z"/><path class="cls-5" d="M1290.83,46.41V48H1284V38.72h1.85v7.69Zm.65-1.69a3.51,3.51,0,1,1,3.51,3.42A3.39,3.39,0,0,1,1291.48,44.72Zm1.75,0a1.76,1.76,0,1,0,1.76-1.83A1.74,1.74,0,0,0,1293.23,44.72Zm9.38,3.42a3.2,3.2,0,0,1-3.18-3.43,3.17,3.17,0,0,1,3.18-3.41,2.58,2.58,0,0,1,2.16.93l0-.79h1.68v6.33c0,2.08-1.77,3.1-3.82,3.1a6,6,0,0,1-2.61-.55l.2-1.5a5.52,5.52,0,0,0,2.3.49c1.1,0,2.18-.49,2.18-1.58v-.47A2.62,2.62,0,0,1,1302.61,48.14Zm2.14-3.43a1.78,1.78,0,1,0-1.78,1.85A1.78,1.78,0,0,0,1304.75,44.71Zm8.52,3.29h-1.76V41.44h1.76Zm-.88-7.66a1,1,0,1,1,1-1A1,1,0,0,1,1312.39,40.34Zm6.27,1a2.45,2.45,0,0,1,2.59,2.58V48h-1.76V44.33a1.29,1.29,0,0,0-1.35-1.4,1.36,1.36,0,0,0-1.46,1.4V48h-1.75V41.44h1.67l0,.76A2.51,2.51,0,0,1,1318.66,41.3Zm10.72-3.75-5.32,13.18h-1.79l5.31-13.18ZM1336.72,48l-2.13-2.72h-2.15V48h-1.84V38.72h4.31A3.17,3.17,0,0,1,1338.3,42a3.21,3.21,0,0,1-1.82,2.92L1339,48Zm-2-7.67h-2.25v3.35h2.25A1.62,1.62,0,0,0,1336.4,42,1.59,1.59,0,0,0,1334.69,40.32Zm11,5.78.25,1.42a5.16,5.16,0,0,1-2.48.62c-2.32,0-3.81-1.38-3.81-3.42a3.27,3.27,0,0,1,3.37-3.42,3.1,3.1,0,0,1,3.11,4h-4.74c.18.91,1,1.35,2.08,1.35A5.17,5.17,0,0,0,1345.74,46.1Zm-4.27-2h3.14a1.38,1.38,0,0,0-1.5-1.29A1.49,1.49,0,0,0,1341.47,44.07Zm8.91,4.07a3.2,3.2,0,0,1-3.18-3.43,3.17,3.17,0,0,1,3.18-3.41,2.58,2.58,0,0,1,2.16.93l0-.79h1.68v6.33c0,2.08-1.77,3.1-3.82,3.1a6,6,0,0,1-2.61-.55l.2-1.5a5.52,5.52,0,0,0,2.3.49c1.1,0,2.18-.49,2.18-1.58v-.47A2.62,2.62,0,0,1,1350.38,48.14Zm2.14-3.43a1.78,1.78,0,1,0-1.78,1.85A1.78,1.78,0,0,0,1352.52,44.71Zm5.16,3.29h-1.76V41.44h1.76Zm-.89-7.66a1,1,0,0,1,0-2,1,1,0,1,1,0,2Zm5,3.65.7.13c1.3.24,2,.83,2,2,0,1.32-1.1,2-2.78,2a6.24,6.24,0,0,1-2.53-.47l.19-1.44a6.38,6.38,0,0,0,2.21.46c.85,0,1.21-.18,1.21-.57s-.28-.52-1-.66l-.79-.15c-1.26-.22-1.88-.86-1.88-1.94s1.14-2.07,2.88-2.07a5.75,5.75,0,0,1,2.22.41l-.15,1.43a5.81,5.81,0,0,0-2-.37c-.86,0-1.28.21-1.28.6S1361,43.85,1361.74,44Zm8-1.1h-1.85v2.7a.88.88,0,0,0,1,1,4.57,4.57,0,0,0,1.11-.16l.16,1.46a5.07,5.07,0,0,1-1.58.26,2.14,2.14,0,0,1-2.41-2.29v-3H1365V41.44h1.11V39.33h1.7v2.11h1.9Zm7.07,3.21.24,1.42a5.12,5.12,0,0,1-2.47.62c-2.33,0-3.82-1.38-3.82-3.42a3.28,3.28,0,0,1,3.37-3.42,3.1,3.1,0,0,1,3.12,4h-4.74c.17.91,1,1.35,2.07,1.35A5.18,5.18,0,0,0,1376.82,46.1Zm-4.28-2h3.15a1.39,1.39,0,0,0-1.51-1.29A1.51,1.51,0,0,0,1372.54,44.07Zm7.78-2.63,0,.89a1.82,1.82,0,0,1,1.71-1,2.58,2.58,0,0,1,.85.15l-.14,1.57a2.43,2.43,0,0,0-.81-.15c-.77,0-1.59.41-1.59,1.77V48h-1.75V41.44Z"/></svg>