<svg width="1440" height="128" viewBox="0 0 1440 128" fill="none" xmlns="http://www.w3.org/2000/svg">
<g clip-path="url(#clip0_2553_6996)">
<path d="M1439.5 40.5H0.5V127.5H1439.5V40.5Z" fill="white"/>
<path d="M1439.5 40.5H0.5V127.5H1439.5V40.5Z" stroke="#F7F7F7"/>
<mask id="mask0_2553_6996" style="mask-type:luminance" maskUnits="userSpaceOnUse" x="32" y="64" width="103" height="40">
<path d="M134.4 64H32V104H134.4V64Z" fill="white"/>
</mask>
<g mask="url(#mask0_2553_6996)">
<path fill-rule="evenodd" clip-rule="evenodd" d="M32.2012 89.4752H34.5198L34.5235 86.1379C36.3711 88.6757 38.8176 89.9813 41.7387 89.9813C47.0515 89.9813 51.1594 85.5732 51.1594 80.3876C51.1594 75.2019 47.1246 70.7681 41.8263 70.7681C38.9709 70.7681 36.5062 71.9674 34.5235 74.3731V64.2256H32.2012V89.4752ZM41.5744 72.9062C45.6384 72.9062 48.7531 76.3828 48.7531 80.3289L48.7604 80.3069C48.7604 84.2236 45.7808 87.6856 41.5744 87.6856C37.4738 87.6856 34.3628 84.462 34.3628 80.2409C34.3628 75.686 37.8463 72.9062 41.5744 72.9062Z" fill="black"/>
<path d="M54.832 89.5046H57.158V76.8669V64.2256H54.832V76.8669V89.5046Z" fill="black"/>
<path d="M75.2153 71.2632H77.6727V80.7066C77.6727 86.8567 74.9086 89.941 69.709 89.941C64.5094 89.941 61.7051 86.8421 61.7051 80.7066V71.2632H64.1661V80.1602C64.1661 82.0819 64.1661 83.6625 64.681 84.7627C65.5391 86.6147 67.4159 87.6966 69.709 87.6966C71.2389 87.735 72.7192 87.1503 73.8132 86.0756C75.2482 84.528 75.2153 82.775 75.2153 80.1712V71.2632Z" fill="black"/>
<path fill-rule="evenodd" clip-rule="evenodd" d="M90.4959 87.8174C86.5816 87.8174 83.7627 84.7625 83.6605 80.5707H99.997C99.9276 74.5307 95.7613 70.7827 90.5945 70.7827C84.9092 70.7827 81.2578 75.4548 81.2578 80.4351C81.2578 85.3089 84.7121 89.9408 90.7333 89.9408C94.6987 89.9408 97.5396 88.1218 99.3872 84.4838L97.4337 83.4533C96.1045 85.6463 94.2934 87.8174 90.4959 87.8174ZM90.631 73.0491C93.7895 73.0491 96.4806 74.7397 97.441 78.5097H83.8978C84.9531 74.8021 87.3849 73.0491 90.631 73.0491Z" fill="black"/>
<path fill-rule="evenodd" clip-rule="evenodd" d="M129.596 92.4349C129.205 92.8207 128.989 93.3514 129 93.9019L129.022 93.8835C129.008 94.4345 129.224 94.9664 129.618 95.3504C129.985 95.7414 130.499 95.9606 131.034 95.9555C131.565 95.969 132.078 95.7636 132.455 95.3871C132.847 95.0021 133.062 94.4709 133.05 93.9202C133.059 93.3701 132.844 92.84 132.455 92.4533C132.081 92.0711 131.568 91.8591 131.034 91.8665C130.497 91.847 129.976 92.053 129.596 92.4349ZM132.776 93.9019C132.785 93.4294 132.597 92.9745 132.258 92.6476C131.933 92.3078 131.485 92.1157 131.016 92.1157C130.547 92.1157 130.099 92.3078 129.775 92.6476C129.438 92.9763 129.253 93.4306 129.263 93.9019C129.257 94.3757 129.441 94.8321 129.775 95.1671C130.102 95.5022 130.549 95.691 131.016 95.691C131.483 95.691 131.931 95.5022 132.258 95.1671C132.595 94.8338 132.782 94.3769 132.776 93.9019ZM131.093 92.853H130.22V95.0021H130.476V94.0486H130.596C130.787 94.0315 130.978 94.0908 131.126 94.2136C131.316 94.451 131.467 94.7171 131.575 95.0021H131.896C131.802 94.7631 131.691 94.5314 131.564 94.3089C131.475 94.1889 131.361 94.0889 131.232 94.0155C131.619 93.9495 131.808 93.7442 131.808 93.4214C131.822 93.2604 131.75 93.104 131.619 93.0107C131.468 92.8963 131.281 92.8403 131.093 92.853ZM130.822 93.8432H130.476V93.0584H130.87C131.038 93.0423 131.208 93.074 131.359 93.1501C131.458 93.1904 131.498 93.2968 131.498 93.4398C131.513 93.5642 131.455 93.6862 131.348 93.7515C131.183 93.8232 131.002 93.8546 130.822 93.8432Z" fill="#0095DA"/>
<path d="M121.793 94.6391C115.024 90.9938 110.306 82.7423 110.372 73.7536C110.39 70.9151 110.682 68.0729 112.07 65.5352C115.112 66.9835 118.427 67.7636 121.793 67.8236C125.159 67.7646 128.473 66.9844 131.514 65.5352C132.905 68.0729 133.197 70.9151 133.215 73.7536C133.288 82.7423 128.567 90.9901 121.793 94.6574" fill="white"/>
<path fill-rule="evenodd" clip-rule="evenodd" d="M121.873 67.1228C125.49 67.059 129.052 66.22 132.32 64.6621H132.323C133.806 67.4052 134.124 70.4454 134.149 73.493C134.222 83.1747 129.147 92.0313 121.873 95.9554C114.603 92.0313 109.52 83.1747 109.601 73.493C109.601 70.4454 109.936 67.4052 111.426 64.6621C114.694 66.22 118.256 67.059 121.873 67.1228ZM112.452 67.4566C108.706 77.1163 115.479 90.5864 121.873 93.7843C128.263 90.5864 135.036 77.1163 131.29 67.4566C128.262 68.5114 125.078 69.0494 121.873 69.0482C118.666 69.0496 115.482 68.5116 112.452 67.4566Z" fill="#0095DA"/>
<path fill-rule="evenodd" clip-rule="evenodd" d="M113.386 69.0996C116.146 69.8949 119.001 70.3071 121.872 70.3245C124.741 70.3084 127.594 69.8962 130.351 69.0996C133.148 78.5833 127.207 88.9765 121.872 92.4495C116.538 88.9765 110.597 78.5833 113.386 69.0996ZM125.798 72.9503C125.497 73.3025 125.134 73.6452 124.766 73.9923C124.242 74.4874 123.709 74.9912 123.333 75.5431L123.231 75.5138L121.153 75.2827L121.113 74.4466C121.406 74.3853 121.666 74.2167 121.843 73.9735C121.87 73.8945 121.76 73.7955 121.673 73.7179C121.655 73.7018 121.638 73.6866 121.624 73.6728C121.906 73.651 122.142 73.7437 122.371 73.8336C122.566 73.9101 122.756 73.9845 122.964 73.9845C123.019 73.9516 123.012 73.9045 123.005 73.8552C123.003 73.8385 123.001 73.8215 123.001 73.8048C122.781 73.5411 122.467 73.512 122.15 73.4827C121.987 73.4676 121.823 73.4525 121.671 73.4051C121.758 73.3697 121.858 73.353 121.962 73.3356C122.137 73.3063 122.323 73.2752 122.475 73.1483C122.588 73.0603 122.548 72.965 122.431 72.8183C122.145 72.3304 121.732 71.9298 121.237 71.6594L121.179 71.0066C121.179 70.7169 121.35 70.6949 121.544 70.7756L123.044 71.3954C123.231 71.4467 123.239 71.8123 123.248 72.2142C123.256 72.5297 123.264 72.8675 123.358 73.0933C123.674 73.0151 123.951 72.7803 124.22 72.552C124.67 72.1701 125.099 71.8065 125.652 72.2242C125.812 72.4149 125.962 72.7119 125.79 72.9576L125.798 72.9503ZM123.282 80.6077L123.34 78.9207C123.34 78.9207 123.731 78.6237 123.731 78.3339C123.731 78.0442 123.545 77.6261 121.62 77.6261C117.994 77.6261 117.03 75.3341 117.03 74.2229C117.03 73.5285 117.31 72.8636 117.806 72.3799C118.302 71.8961 118.972 71.6349 119.663 71.6557C120.676 71.6009 121.638 72.1076 122.168 72.976C121.988 73.0478 121.799 73.0911 121.606 73.1043C121.428 73.1155 121.183 73.0954 120.972 73.0779C120.836 73.0667 120.714 73.0567 120.631 73.0567C120.464 73.066 120.298 73.0956 120.138 73.1447C120.325 73.3307 120.556 73.4658 120.81 73.5371C121.06 73.6179 121.289 73.756 121.478 73.9405C121.288 74.0666 121.062 74.1235 120.835 74.1018C120.576 74.1018 120.239 73.9976 119.923 73.9003C119.647 73.8151 119.388 73.7351 119.214 73.7351C118.842 73.7351 118.779 73.9808 118.779 74.2705C118.779 75.4363 121.164 75.6855 121.864 75.7586L121.942 75.7668C121.98 75.7709 122.029 75.7752 122.087 75.7803C122.916 75.8529 125.633 76.0912 125.633 78.2973C125.633 80.659 123.282 80.6077 123.282 80.6077ZM122.938 78.2569C122.371 78.1517 121.795 78.1062 121.219 78.1212V78.1066C121.219 78.1066 120.598 78.576 120.682 78.774C120.832 79.1408 121.467 80.9304 121.467 80.9304L122.858 81.0221C122.858 81.0221 122.971 81.0294 122.971 80.8864C123.024 80.0103 123.013 79.1315 122.938 78.2569ZM124.961 83.3729C124.845 84.9315 123.165 84.9388 123.165 84.9388L123.212 83.4719C123.219 83.3477 123.24 83.2247 123.274 83.1052C123.274 83.1052 123.322 82.8154 122.179 82.7751C120.664 82.7128 119.462 82.1553 119.462 80.9048C119.431 80.2168 119.82 79.5791 120.445 79.2948C120.445 79.2948 121.022 80.6554 121.058 80.7617C121.073 80.8063 121.062 80.8464 121.05 80.8912C121.033 80.9532 121.014 81.0241 121.058 81.1285C121.119 81.2718 121.613 81.3148 122.151 81.3617C122.287 81.3736 122.427 81.3858 122.562 81.3998C123.234 81.4695 125.086 81.8473 124.961 83.3949V83.3729ZM122.698 85.6099C122.855 85.698 122.855 85.5109 122.855 85.5109L122.88 85.5183V83.3435C122.865 83.3011 122.822 83.2751 122.778 83.2812C122.34 83.2665 121.682 83.1712 121.682 83.1712V84.9865C121.685 85.012 121.686 85.0345 121.686 85.055C121.688 85.1346 121.688 85.1819 121.839 85.2432C121.967 85.2762 122.698 85.6099 122.698 85.6099ZM124.176 88.1037C123.997 88.5897 123.572 88.9414 123.063 89.0242L123.081 88.045C123.081 88.0114 123.089 87.9736 123.097 87.9327C123.135 87.7555 123.184 87.5202 122.65 87.3116C122.401 87.1647 122.103 87.052 121.798 86.9369C120.999 86.6351 120.157 86.3167 120.043 85.3239C119.944 84.8051 120.213 84.2862 120.693 84.0697C120.868 83.9943 120.991 83.9545 121.113 83.9148C121.187 83.8907 121.261 83.8668 121.346 83.835L121.39 84.9352C121.39 84.978 121.377 85.0286 121.364 85.0805C121.336 85.1885 121.306 85.3023 121.39 85.3642C121.467 85.4028 121.578 85.4505 121.712 85.5085C122.293 85.759 123.315 86.1999 123.946 86.9118C124.18 87.2673 124.258 87.7036 124.162 88.1184L124.176 88.1037ZM122.735 90.5014C122.752 89.9762 122.779 89.0998 122.807 88.0854L122.8 88.056C122.822 87.9376 122.785 87.8155 122.701 87.7296C122.43 87.5512 122.138 87.4071 121.832 87.3006C121.701 87.2786 121.726 87.4546 121.726 87.4546C121.766 89.4276 121.836 91.1586 121.836 91.1586C121.873 91.3676 122.059 91.5159 122.27 91.5033C122.395 91.5037 122.515 91.4516 122.6 91.3598C122.685 91.2679 122.729 91.1445 122.719 91.0192C122.719 90.9923 122.725 90.8059 122.735 90.5014ZM121.255 90.0914C121.179 90.152 121.204 90.2954 121.23 90.4428C121.269 90.6703 121.311 90.9075 120.985 90.8652C120.602 90.8286 120.686 89.8751 120.766 89.4276C120.914 89.1086 121.16 88.8453 121.467 88.6758L121.489 89.7357C121.475 89.89 121.386 90.0274 121.252 90.1024L121.255 90.0914Z" fill="#0095DA"/>
<path d="M120.227 72.3965C120.271 72.5542 119.99 72.6459 119.822 72.7009C119.526 72.7523 119.504 72.2975 119.227 72.2975C119.365 72.1398 119.866 72.2315 120.15 72.3379L120.227 72.3965Z" fill="#0095DA"/>
<path d="M50.0246 102.186C49.3235 103.257 48.1112 103.811 46.6689 103.811C44.3101 103.811 42.7363 102.106 42.7363 100.103C42.7363 97.9908 44.3795 96.2598 46.7529 96.2598C48.1258 96.2598 49.3819 96.8282 50.0392 97.9358L49.3089 98.3979C48.6974 97.5683 47.7137 97.1004 46.6872 97.151C45.6275 97.1132 44.6318 97.6594 44.0908 98.5753C43.5498 99.4913 43.5498 100.631 44.0908 101.547C44.6318 102.463 45.6275 103.009 46.6872 102.971C47.6895 102.983 48.6379 102.516 49.2432 101.713L50.0246 102.186Z" fill="black"/>
<path fill-rule="evenodd" clip-rule="evenodd" d="M59.1017 96.4466H58.1924V97.7595C57.5539 96.8074 56.4799 96.2433 55.337 96.2596C53.3059 96.3147 51.6857 97.9802 51.6778 100.021C51.6699 102.062 53.2772 103.74 55.3078 103.811C56.4352 103.818 57.5015 103.297 58.1924 102.403V103.635H59.1017V96.4466ZM53.3882 102.098C52.8595 101.548 52.5702 100.809 52.5839 100.045C52.5932 98.8613 53.3142 97.8016 54.4081 97.363C55.502 96.9244 56.7514 97.1941 57.5693 98.0454C58.3872 98.8966 58.611 100.161 58.1356 101.243C57.6603 102.325 56.5802 103.011 55.4028 102.978C54.6416 102.965 53.9169 102.648 53.3882 102.098Z" fill="black"/>
<path d="M61.8867 93.6743H62.8032V103.635H61.8867V93.6743Z" fill="black"/>
<path fill-rule="evenodd" clip-rule="evenodd" d="M66.0572 95.0132C66.4796 95.0092 66.8217 94.6673 66.8277 94.243C66.8217 93.822 66.4801 93.4838 66.0608 93.4839C65.6448 93.4859 65.3086 93.8252 65.3086 94.243C65.3065 94.6621 65.64 95.0052 66.0572 95.0132ZM66.5318 96.4434H65.6153V103.631H66.5318V96.4434Z" fill="black"/>
<path d="M69.556 95.3244C69.556 94.1619 69.8372 93.4688 71.0166 93.4688C71.3757 93.4818 71.7305 93.551 72.0682 93.6741V94.5799C71.8001 94.4455 71.506 94.3716 71.2065 94.3636C70.4506 94.3636 70.4762 94.8221 70.4762 95.4639V96.4356H71.9842V97.2498H70.4762V103.624H69.5597V97.2608H68.5957V96.4466H69.5414L69.556 95.3244Z" fill="black"/>
<path fill-rule="evenodd" clip-rule="evenodd" d="M76.8948 103.763C78.9511 103.782 80.6357 102.128 80.6639 100.063C80.6866 99.0564 80.3021 98.0836 79.5981 97.3669C78.8941 96.6501 77.9308 96.2507 76.9284 96.2599C74.8721 96.2601 73.2027 97.9295 73.1934 99.9947C73.1841 102.06 74.8386 103.744 76.8948 103.763ZM75.5045 102.577C74.6256 102.053 74.1018 101.089 74.1387 100.063C74.1018 99.0371 74.6256 98.0729 75.5045 97.549C76.3834 97.025 77.477 97.025 78.3559 97.549C79.2349 98.0729 79.7587 99.0371 79.7217 100.063C79.7587 101.089 79.2349 102.053 78.3559 102.577C77.477 103.101 76.3834 103.101 75.5045 102.577Z" fill="black"/>
<path d="M83.8182 97.4774C84.3586 96.689 84.9355 96.2452 85.6658 96.2452C85.9576 96.2417 86.2437 96.326 86.4873 96.4873L86.0017 97.2721C85.8525 97.1895 85.6863 97.1431 85.5161 97.1364C84.8406 97.1364 84.2344 97.7195 83.9679 98.706C83.835 99.4314 83.7848 100.17 83.8182 100.906V103.639H82.8359V96.4469H83.8072L83.8182 97.4774Z" fill="black"/>
<path d="M89.2254 97.7341C89.9556 96.7586 90.8575 96.2671 91.9092 96.2671C93.472 96.2671 94.5637 97.349 94.5637 99.6081V103.642H93.6472V99.7254C93.6472 98.0311 93.1214 97.0996 91.7339 97.0996C90.9844 97.0948 90.2798 97.4576 89.8461 98.0715C89.3057 98.7756 89.2254 99.4797 89.2254 100.617V103.635H88.3125V96.4468H89.229L89.2254 97.7341Z" fill="black"/>
<path fill-rule="evenodd" clip-rule="evenodd" d="M97.6855 95.0131C98.1066 95.0072 98.4464 94.6659 98.4523 94.243C98.4483 93.8211 98.1056 93.4819 97.6855 93.4839C97.2681 93.4839 96.9297 93.8238 96.9297 94.243C96.9277 94.6649 97.2655 95.0091 97.6855 95.0131ZM98.1712 96.4434H97.24L97.2546 103.631H98.1712V96.4434Z" fill="black"/>
<path fill-rule="evenodd" clip-rule="evenodd" d="M107.969 96.4466H107.063V97.7596C106.425 96.807 105.351 96.2427 104.208 96.2597C102.177 96.316 100.558 97.9822 100.551 100.023C100.544 102.064 102.152 103.741 104.182 103.811C105.309 103.818 106.374 103.297 107.063 102.403V103.635H107.969V96.4466ZM102.26 102.098C101.732 101.547 101.444 100.809 101.458 100.045C101.468 98.861 102.189 97.8011 103.284 97.3628C104.378 96.9245 105.628 97.1948 106.445 98.0468C107.263 98.8989 107.486 100.163 107.009 101.246C106.533 102.328 105.451 103.013 104.274 102.978C103.513 102.965 102.788 102.648 102.26 102.098Z" fill="black"/>
</g>
<path d="M339.84 80.2344C341.324 80.2344 342.395 80.5234 343.238 80.8984L343.059 82.7734C342.504 82.4453 341.129 82.0938 339.988 82.0938C338.84 82.0938 338.02 82.4453 338.02 83.3203C338.02 84.2031 338.77 84.3594 339.496 84.5781L341.027 85.0312C342.777 85.5469 343.777 86.2969 343.777 87.9219C343.777 89.8047 342.176 91.1562 339.754 91.1562C338.254 91.1562 336.559 90.7812 335.824 90.375L335.996 88.4922C336.52 88.8203 338.246 89.2812 339.566 89.2812C340.684 89.2812 341.574 88.8906 341.574 88.0234C341.574 87.3516 341.176 87.0547 340.277 86.8125L338.598 86.3594C337.246 85.9922 335.824 85.2578 335.824 83.4922C335.824 81.5312 337.363 80.2344 339.84 80.2344ZM349.48 83.3438C351.199 83.3438 352.426 84.4844 352.426 86.2891V91H350.418V86.8047C350.418 85.7656 349.754 85.2031 348.887 85.2031C348.012 85.2031 347.23 85.7656 347.23 86.8047V91H345.223V80H347.23V84.2969C347.621 83.8203 348.402 83.3438 349.48 83.3438ZM353.832 87.25C353.832 85.0391 355.543 83.3438 357.84 83.3438C360.145 83.3438 361.848 85.0391 361.848 87.25C361.848 89.4688 360.145 91.1562 357.84 91.1562C355.543 91.1562 353.832 89.4688 353.832 87.25ZM355.824 87.25C355.824 88.4531 356.668 89.3438 357.84 89.3438C359.02 89.3438 359.855 88.4531 359.855 87.25C359.855 86.0547 359.02 85.1641 357.84 85.1641C356.668 85.1641 355.824 86.0547 355.824 87.25ZM367.754 83.3438C369.879 83.3438 371.387 85 371.387 87.2812C371.387 89.5469 369.879 91.1562 367.754 91.1562C366.652 91.1562 365.816 90.7812 365.316 90.2109V94.125H363.316V83.5H365.246L365.285 84.4062C365.777 83.7812 366.551 83.3438 367.754 83.3438ZM365.309 87.2734C365.309 88.4609 366.168 89.3594 367.348 89.3594C368.535 89.3594 369.379 88.4609 369.379 87.2734C369.379 86.0625 368.543 85.1406 367.348 85.1406C366.16 85.1406 365.309 86.0781 365.309 87.2734ZM381.16 83.3438C383.285 83.3438 384.793 85 384.793 87.2812C384.793 89.5469 383.285 91.1562 381.16 91.1562C380.059 91.1562 379.223 90.7812 378.723 90.2109V94.125H376.723V83.5H378.652L378.691 84.4062C379.184 83.7812 379.957 83.3438 381.16 83.3438ZM378.715 87.2734C378.715 88.4609 379.574 89.3594 380.754 89.3594C381.941 89.3594 382.785 88.4609 382.785 87.2734C382.785 86.0625 381.949 85.1406 380.754 85.1406C379.566 85.1406 378.715 86.0781 378.715 87.2734ZM388.285 80V91H386.285V80H388.285ZM393.387 91.1562C391.324 91.1562 389.77 89.5078 389.77 87.2344C389.77 84.9609 391.324 83.3438 393.387 83.3438C394.551 83.3438 395.34 83.7891 395.832 84.4062L395.871 83.5H397.832V91H395.871L395.832 90.0938C395.34 90.7188 394.551 91.1562 393.387 91.1562ZM395.824 87.2344C395.824 86.0391 394.973 85.1328 393.777 85.1328C392.574 85.1328 391.762 86.0391 391.762 87.2344C391.762 88.4375 392.574 89.375 393.777 89.375C394.973 89.375 395.824 88.4375 395.824 87.2344ZM403.98 83.3438C405.715 83.3438 406.941 84.4844 406.941 86.2891V91H404.934V86.8047C404.934 85.7656 404.262 85.2031 403.387 85.2031C402.504 85.2031 401.723 85.7656 401.723 86.8047V91H399.723V83.5H401.629L401.668 84.3672C402.059 83.8438 402.863 83.3438 403.98 83.3438ZM411.52 86.4219L412.316 86.5703C413.801 86.8438 414.543 87.5156 414.543 88.8125C414.543 90.3203 413.293 91.1562 411.371 91.1562C410.246 91.1562 409.16 90.9531 408.48 90.6172L408.691 88.9766C409.434 89.2891 410.449 89.5 411.215 89.5C412.191 89.5 412.605 89.2969 412.605 88.8516C412.605 88.4531 412.285 88.2578 411.41 88.1016L410.512 87.9297C409.066 87.6797 408.363 86.9453 408.363 85.7031C408.363 84.3047 409.66 83.3438 411.652 83.3438C412.59 83.3438 413.52 83.5156 414.191 83.8125L414.02 85.4453C413.473 85.2109 412.473 85.0234 411.754 85.0234C410.77 85.0234 410.293 85.2578 410.293 85.7031C410.293 86.0703 410.621 86.2578 411.52 86.4219Z" fill="black"/>
<path d="M427.203 88L423.773 84.433C423.75 84.4098 423.731 84.3822 423.718 84.3518C423.706 84.3214 423.699 84.2888 423.699 84.2559C423.699 84.2229 423.706 84.1903 423.718 84.1599C423.731 84.1296 423.75 84.102 423.773 84.0788C423.796 84.0554 423.824 84.0368 423.855 84.0242C423.885 84.0115 423.918 84.005 423.951 84.005C423.984 84.005 424.016 84.0115 424.047 84.0242C424.077 84.0368 424.105 84.0554 424.128 84.0788L427.198 87.2666L430.268 84.0738C430.291 84.0504 430.319 84.0318 430.35 84.0192C430.38 84.0065 430.413 84 430.446 84C430.479 84 430.511 84.0065 430.542 84.0192C430.572 84.0318 430.6 84.0504 430.623 84.0738C430.647 84.097 430.665 84.1246 430.678 84.155C430.691 84.1854 430.697 84.218 430.697 84.2509C430.697 84.2838 430.691 84.3164 430.678 84.3468C430.665 84.3772 430.647 84.4048 430.623 84.428L427.203 88Z" fill="#707275"/>
<path d="M448.332 91V80.3906H453.277C455.184 80.3906 456.559 81.5703 456.559 83.2891C456.559 84.2344 456.168 84.9766 455.285 85.5312C456.512 85.9766 457.113 86.9375 457.113 88.0547C457.113 89.7891 455.777 91 453.816 91H448.332ZM450.441 84.8438H452.996C453.863 84.8438 454.379 84.3047 454.379 83.5234C454.379 82.6875 453.754 82.2031 452.918 82.2031H450.441V84.8438ZM450.441 89.1953H453.473C454.316 89.1953 454.871 88.6562 454.871 87.8906C454.871 87.0625 454.324 86.5078 453.473 86.5078H450.441V89.1953ZM465.137 88.8281L465.418 90.4531C464.691 90.8672 463.684 91.1562 462.59 91.1562C459.934 91.1562 458.23 89.5859 458.23 87.25C458.23 84.9531 459.855 83.3438 462.082 83.3438C464.387 83.3438 466.137 85.0781 465.645 87.8516H460.223C460.426 88.8984 461.363 89.3984 462.598 89.3984C463.527 89.3984 464.395 89.1797 465.137 88.8281ZM460.254 86.5078H463.848C463.793 85.6719 463.16 85.0312 462.129 85.0312C461.059 85.0312 460.34 85.6562 460.254 86.5078ZM477.316 83.6172L478.918 88.9609L480.402 83.5H482.473L480.262 91H477.77L476.426 86.4531L475.082 91H472.59L470.379 83.5H472.449L473.926 88.9609L475.535 83.6172H477.316ZM490.184 88.8281L490.465 90.4531C489.738 90.8672 488.73 91.1562 487.637 91.1562C484.98 91.1562 483.277 89.5859 483.277 87.25C483.277 84.9531 484.902 83.3438 487.129 83.3438C489.434 83.3438 491.184 85.0781 490.691 87.8516H485.27C485.473 88.8984 486.41 89.3984 487.645 89.3984C488.574 89.3984 489.441 89.1797 490.184 88.8281ZM485.301 86.5078H488.895C488.84 85.6719 488.207 85.0312 487.176 85.0312C486.105 85.0312 485.387 85.6562 485.301 86.5078ZM494.254 80V91H492.254V80H494.254ZM498.145 80V91H496.145V80H498.145Z" fill="black"/>
<path d="M511.203 88L507.773 84.433C507.75 84.4098 507.731 84.3822 507.718 84.3518C507.706 84.3214 507.699 84.2888 507.699 84.2559C507.699 84.2229 507.706 84.1903 507.718 84.1599C507.731 84.1296 507.75 84.102 507.773 84.0788C507.796 84.0554 507.824 84.0368 507.855 84.0242C507.885 84.0115 507.918 84.005 507.951 84.005C507.984 84.005 508.016 84.0115 508.047 84.0242C508.077 84.0368 508.105 84.0554 508.128 84.0788L511.198 87.2666L514.268 84.0738C514.291 84.0504 514.319 84.0318 514.35 84.0192C514.38 84.0065 514.413 84 514.446 84C514.479 84 514.511 84.0065 514.542 84.0192C514.572 84.0318 514.6 84.0504 514.623 84.0738C514.647 84.097 514.665 84.1246 514.678 84.155C514.691 84.1854 514.697 84.218 514.697 84.2509C514.697 84.2838 514.691 84.3164 514.678 84.3468C514.665 84.3772 514.647 84.4048 514.623 84.428L511.203 88Z" fill="#707275"/>
<path d="M539.91 88.9219V86.8047H537.059V85.0234H542.004V90.2031C540.926 90.7969 539.363 91.1562 538.027 91.1562C534.184 91.1562 531.785 88.8828 531.785 85.6953C531.785 82.2422 534.543 80.2422 538.121 80.2422C539.324 80.2422 540.512 80.4844 541.551 80.9609L541.387 82.8438C540.918 82.6328 539.691 82.1641 538.238 82.1641C535.777 82.1641 533.973 83.3906 533.973 85.6953C533.973 87.8438 535.566 89.2344 537.941 89.2344C538.582 89.2344 539.434 89.1406 539.91 88.9219ZM550.199 88.8281L550.48 90.4531C549.754 90.8672 548.746 91.1562 547.652 91.1562C544.996 91.1562 543.293 89.5859 543.293 87.25C543.293 84.9531 544.918 83.3438 547.145 83.3438C549.449 83.3438 551.199 85.0781 550.707 87.8516H545.285C545.488 88.8984 546.426 89.3984 547.66 89.3984C548.59 89.3984 549.457 89.1797 550.199 88.8281ZM545.316 86.5078H548.91C548.855 85.6719 548.223 85.0312 547.191 85.0312C546.121 85.0312 545.402 85.6562 545.316 86.5078ZM556.973 85.1641H554.848V88.25C554.848 89.0312 555.285 89.375 555.957 89.375C556.332 89.375 556.809 89.3125 557.23 89.1953L557.418 90.8594C556.957 91.0391 556.215 91.1562 555.605 91.1562C553.957 91.1562 552.848 90.3047 552.848 88.5391V85.1641H551.582V83.5H552.855V81.0938H554.801V83.5H556.973V85.1641ZM566.637 83.3438C567.777 83.3438 568.715 83.8203 569.152 84.6719C569.684 83.875 570.637 83.3438 571.754 83.3438C573.473 83.3438 574.699 84.4609 574.699 86.2891V91H572.691V86.8047C572.691 85.7656 572.051 85.2031 571.191 85.2031C570.332 85.2031 569.543 85.7422 569.543 86.7578V91H567.535V86.8047C567.535 85.7656 566.887 85.2031 566.043 85.2031C565.176 85.2031 564.402 85.7656 564.402 86.8047V91H562.395V83.5H564.301L564.34 84.3672C564.723 83.8438 565.535 83.3438 566.637 83.3438ZM576.098 87.25C576.098 85.0391 577.809 83.3438 580.105 83.3438C582.41 83.3438 584.113 85.0391 584.113 87.25C584.113 89.4688 582.41 91.1562 580.105 91.1562C577.809 91.1562 576.098 89.4688 576.098 87.25ZM578.09 87.25C578.09 88.4531 578.934 89.3438 580.105 89.3438C581.285 89.3438 582.121 88.4531 582.121 87.25C582.121 86.0547 581.285 85.1641 580.105 85.1641C578.934 85.1641 578.09 86.0547 578.09 87.25ZM587.52 83.5L587.559 84.5234C587.941 83.7422 588.668 83.3438 589.512 83.3438C589.957 83.3438 590.332 83.4609 590.488 83.5156L590.332 85.3047C590.129 85.2344 589.801 85.1328 589.402 85.1328C588.52 85.1328 587.59 85.6094 587.59 87.1562V91H585.582V83.5H587.52ZM598.168 88.8281L598.449 90.4531C597.723 90.8672 596.715 91.1562 595.621 91.1562C592.965 91.1562 591.262 89.5859 591.262 87.25C591.262 84.9531 592.887 83.3438 595.113 83.3438C597.418 83.3438 599.168 85.0781 598.676 87.8516H593.254C593.457 88.8984 594.395 89.3984 595.629 89.3984C596.559 89.3984 597.426 89.1797 598.168 88.8281ZM593.285 86.5078H596.879C596.824 85.6719 596.191 85.0312 595.16 85.0312C594.09 85.0312 593.371 85.6562 593.285 86.5078Z" fill="black"/>
<path d="M612.203 88L608.773 84.433C608.75 84.4098 608.731 84.3822 608.718 84.3518C608.706 84.3214 608.699 84.2888 608.699 84.2559C608.699 84.2229 608.706 84.1903 608.718 84.1599C608.731 84.1296 608.75 84.102 608.773 84.0788C608.796 84.0554 608.824 84.0368 608.855 84.0242C608.885 84.0115 608.918 84.005 608.951 84.005C608.984 84.005 609.016 84.0115 609.047 84.0242C609.077 84.0368 609.105 84.0554 609.128 84.0788L612.198 87.2666L615.268 84.0738C615.291 84.0504 615.319 84.0318 615.35 84.0192C615.38 84.0065 615.413 84 615.446 84C615.479 84 615.511 84.0065 615.542 84.0192C615.572 84.0318 615.6 84.0504 615.623 84.0738C615.647 84.097 615.665 84.1246 615.678 84.155C615.691 84.1854 615.697 84.218 615.697 84.2509C615.697 84.2838 615.691 84.3164 615.678 84.3468C615.665 84.3772 615.647 84.4048 615.623 84.428L612.203 88Z" fill="#707275"/>
<path d="M635.441 86.5391V91H633.332V80.3906H640.887V82.2188H635.441V84.7109H639.715V86.5391H635.441ZM644.184 91H642.176V83.5H644.184V91ZM643.176 82.2422C642.496 82.2422 642.027 81.7734 642.027 81.0938C642.027 80.4141 642.496 79.9375 643.176 79.9375C643.855 79.9375 644.332 80.4062 644.332 81.0938C644.332 81.7734 643.855 82.2422 643.176 82.2422ZM650.34 83.3438C652.074 83.3438 653.301 84.4844 653.301 86.2891V91H651.293V86.8047C651.293 85.7656 650.621 85.2031 649.746 85.2031C648.863 85.2031 648.082 85.7656 648.082 86.8047V91H646.082V83.5H647.988L648.027 84.3672C648.418 83.8438 649.223 83.3438 650.34 83.3438ZM658.355 91.1562C656.23 91.1562 654.723 89.5078 654.723 87.2422C654.723 84.9609 656.23 83.3438 658.355 83.3438C659.559 83.3438 660.332 83.7812 660.832 84.4062V79.9922H662.801V91H660.832L660.793 90.2031C660.293 90.7812 659.457 91.1562 658.355 91.1562ZM660.809 87.2344C660.809 86.0391 659.949 85.1406 658.77 85.1406C657.574 85.1406 656.738 86.0234 656.738 87.2344C656.738 88.4219 657.574 89.3594 658.77 89.3594C659.949 89.3594 660.809 88.4219 660.809 87.2344ZM671.746 91.1562C669.684 91.1562 668.129 89.5078 668.129 87.2344C668.129 84.9609 669.684 83.3438 671.746 83.3438C672.91 83.3438 673.699 83.7891 674.191 84.4062L674.23 83.5H676.191V91H674.23L674.191 90.0938C673.699 90.7188 672.91 91.1562 671.746 91.1562ZM674.184 87.2344C674.184 86.0391 673.332 85.1328 672.137 85.1328C670.934 85.1328 670.121 86.0391 670.121 87.2344C670.121 88.4375 670.934 89.375 672.137 89.375C673.332 89.375 674.184 88.4375 674.184 87.2344ZM685.152 91.1562C683.027 91.1562 681.52 89.5078 681.52 87.2422C681.52 84.9609 683.027 83.3438 685.152 83.3438C686.355 83.3438 687.129 83.7812 687.629 84.4062V79.9922H689.598V91H687.629L687.59 90.2031C687.09 90.7812 686.254 91.1562 685.152 91.1562ZM687.605 87.2344C687.605 86.0391 686.746 85.1406 685.566 85.1406C684.371 85.1406 683.535 86.0234 683.535 87.2344C683.535 88.4219 684.371 89.3594 685.566 89.3594C686.746 89.3594 687.605 88.4219 687.605 87.2344ZM691.066 87.25C691.066 85.0391 692.777 83.3438 695.074 83.3438C697.379 83.3438 699.082 85.0391 699.082 87.25C699.082 89.4688 697.379 91.1562 695.074 91.1562C692.777 91.1562 691.066 89.4688 691.066 87.25ZM693.059 87.25C693.059 88.4531 693.902 89.3438 695.074 89.3438C696.254 89.3438 697.09 88.4531 697.09 87.25C697.09 86.0547 696.254 85.1641 695.074 85.1641C693.902 85.1641 693.059 86.0547 693.059 87.25ZM700.137 87.2422C700.137 84.8047 701.918 83.3438 704.34 83.3438C705.262 83.3438 706.059 83.5547 706.699 83.8438L706.527 85.5859C705.988 85.3516 705.301 85.1797 704.559 85.1797C703.191 85.1797 702.145 85.8828 702.145 87.2344C702.145 88.5156 703.137 89.3125 704.496 89.3125C705.254 89.3125 705.91 89.125 706.559 88.8203L706.793 90.6016C706.004 90.9531 705.277 91.1562 704.363 91.1562C701.895 91.1562 700.137 89.5625 700.137 87.2422ZM712.879 85.1641H710.754V88.25C710.754 89.0312 711.191 89.375 711.863 89.375C712.238 89.375 712.715 89.3125 713.137 89.1953L713.324 90.8594C712.863 91.0391 712.121 91.1562 711.512 91.1562C709.863 91.1562 708.754 90.3047 708.754 88.5391V85.1641H707.488V83.5H708.762V81.0938H710.707V83.5H712.879V85.1641ZM714.035 87.25C714.035 85.0391 715.746 83.3438 718.043 83.3438C720.348 83.3438 722.051 85.0391 722.051 87.25C722.051 89.4688 720.348 91.1562 718.043 91.1562C715.746 91.1562 714.035 89.4688 714.035 87.25ZM716.027 87.25C716.027 88.4531 716.871 89.3438 718.043 89.3438C719.223 89.3438 720.059 88.4531 720.059 87.25C720.059 86.0547 719.223 85.1641 718.043 85.1641C716.871 85.1641 716.027 86.0547 716.027 87.25ZM725.457 83.5L725.496 84.5234C725.879 83.7422 726.605 83.3438 727.449 83.3438C727.895 83.3438 728.27 83.4609 728.426 83.5156L728.27 85.3047C728.066 85.2344 727.738 85.1328 727.34 85.1328C726.457 85.1328 725.527 85.6094 725.527 87.1562V91H723.52V83.5H725.457Z" fill="black"/>
<path d="M755.082 88.4922L755.379 90.3594C754.48 90.7891 753.371 91.1562 751.746 91.1562C748.348 91.1562 745.785 88.9844 745.785 85.6953C745.785 82.2656 748.504 80.2344 751.887 80.2344C753.168 80.2344 754.387 80.5469 755.215 80.9297L755.051 82.8203C754.371 82.4922 753.285 82.1875 752.074 82.1875C749.809 82.1875 747.98 83.4062 747.98 85.6797C747.98 87.8359 749.668 89.25 752.035 89.25C753.23 89.25 754.316 88.9531 755.082 88.4922ZM756.379 85.7188C756.379 82.5078 758.723 80.2344 761.988 80.2344C765.27 80.2344 767.605 82.5156 767.605 85.7188C767.605 88.9219 765.27 91.1562 761.988 91.1562C758.723 91.1562 756.379 88.9219 756.379 85.7188ZM758.551 85.7109C758.551 87.7891 759.949 89.1953 761.996 89.1953C764.059 89.1953 765.441 87.7891 765.441 85.7109C765.441 83.6484 764.059 82.2031 761.996 82.2031C759.949 82.2031 758.551 83.6484 758.551 85.7109ZM773.652 88.8359L776.699 80.3906H778.957L774.98 91H772.324L768.332 80.3906H770.59L773.652 88.8359ZM782.332 80.3906V91H780.223V80.3906H782.332ZM784.598 80.3906H789.168C792.59 80.3906 794.527 82.4219 794.527 85.6875C794.527 88.9766 792.551 91 789.168 91H784.598V80.3906ZM788.941 89.1797C791.34 89.1797 792.363 87.8906 792.363 85.6875C792.363 83.4688 791.316 82.2109 788.941 82.2109H786.707V89.1797H788.941ZM801.379 85.7891V87.4609H795.973V85.7891H801.379ZM804.699 91V82.2422H802.441V80.3906H806.809V91H804.699ZM809.145 90.6562L809.316 88.8281C810.066 89.1953 810.887 89.3516 811.691 89.3516C813.285 89.3516 814.668 88.5312 814.738 86.3516C814.184 87.0469 813.277 87.3828 812.254 87.3828C810.332 87.3828 808.504 86.4219 808.504 83.9453C808.504 81.6016 810.207 80.2344 812.66 80.2344C815.699 80.2344 816.887 82.5 816.887 85.2422C816.887 88.8438 815.238 91.1562 811.848 91.1562C810.73 91.1562 809.902 90.9922 809.145 90.6562ZM812.613 82.0391C811.441 82.0391 810.621 82.7734 810.621 83.8828C810.621 85.0156 811.426 85.7031 812.605 85.7031C813.785 85.7031 814.543 84.8672 814.543 83.8906C814.543 82.8984 813.777 82.0391 812.613 82.0391ZM824.301 83.5L824.34 84.5234C824.723 83.7422 825.449 83.3438 826.293 83.3438C826.738 83.3438 827.113 83.4609 827.27 83.5156L827.113 85.3047C826.91 85.2344 826.582 85.1328 826.184 85.1328C825.301 85.1328 824.371 85.6094 824.371 87.1562V91H822.363V83.5H824.301ZM834.949 88.8281L835.23 90.4531C834.504 90.8672 833.496 91.1562 832.402 91.1562C829.746 91.1562 828.043 89.5859 828.043 87.25C828.043 84.9531 829.668 83.3438 831.895 83.3438C834.199 83.3438 835.949 85.0781 835.457 87.8516H830.035C830.238 88.8984 831.176 89.3984 832.41 89.3984C833.34 89.3984 834.207 89.1797 834.949 88.8281ZM830.066 86.5078H833.66C833.605 85.6719 832.973 85.0312 831.941 85.0312C830.871 85.0312 830.152 85.6562 830.066 86.5078ZM839.77 86.4219L840.566 86.5703C842.051 86.8438 842.793 87.5156 842.793 88.8125C842.793 90.3203 841.543 91.1562 839.621 91.1562C838.496 91.1562 837.41 90.9531 836.73 90.6172L836.941 88.9766C837.684 89.2891 838.699 89.5 839.465 89.5C840.441 89.5 840.855 89.2969 840.855 88.8516C840.855 88.4531 840.535 88.2578 839.66 88.1016L838.762 87.9297C837.316 87.6797 836.613 86.9453 836.613 85.7031C836.613 84.3047 837.91 83.3438 839.902 83.3438C840.84 83.3438 841.77 83.5156 842.441 83.8125L842.27 85.4453C841.723 85.2109 840.723 85.0234 840.004 85.0234C839.02 85.0234 838.543 85.2578 838.543 85.7031C838.543 86.0703 838.871 86.2578 839.77 86.4219ZM843.801 87.25C843.801 85.0391 845.512 83.3438 847.809 83.3438C850.113 83.3438 851.816 85.0391 851.816 87.25C851.816 89.4688 850.113 91.1562 847.809 91.1562C845.512 91.1562 843.801 89.4688 843.801 87.25ZM845.793 87.25C845.793 88.4531 846.637 89.3438 847.809 89.3438C848.988 89.3438 849.824 88.4531 849.824 87.25C849.824 86.0547 848.988 85.1641 847.809 85.1641C846.637 85.1641 845.793 86.0547 845.793 87.25ZM858.262 87.7109V83.5H860.262V87.9141C860.262 89.8125 858.832 91.1562 856.715 91.1562C854.59 91.1562 853.207 89.8281 853.207 87.9609V83.5H855.215V87.7109C855.215 88.6641 855.832 89.3125 856.715 89.3125C857.645 89.3125 858.262 88.6641 858.262 87.7109ZM864.004 83.5L864.043 84.5234C864.426 83.7422 865.152 83.3438 865.996 83.3438C866.441 83.3438 866.816 83.4609 866.973 83.5156L866.816 85.3047C866.613 85.2344 866.285 85.1328 865.887 85.1328C865.004 85.1328 864.074 85.6094 864.074 87.1562V91H862.066V83.5H864.004ZM867.746 87.2422C867.746 84.8047 869.527 83.3438 871.949 83.3438C872.871 83.3438 873.668 83.5547 874.309 83.8438L874.137 85.5859C873.598 85.3516 872.91 85.1797 872.168 85.1797C870.801 85.1797 869.754 85.8828 869.754 87.2344C869.754 88.5156 870.746 89.3125 872.105 89.3125C872.863 89.3125 873.52 89.125 874.168 88.8203L874.402 90.6016C873.613 90.9531 872.887 91.1562 871.973 91.1562C869.504 91.1562 867.746 89.5625 867.746 87.2422ZM882.277 88.8281L882.559 90.4531C881.832 90.8672 880.824 91.1562 879.73 91.1562C877.074 91.1562 875.371 89.5859 875.371 87.25C875.371 84.9531 876.996 83.3438 879.223 83.3438C881.527 83.3438 883.277 85.0781 882.785 87.8516H877.363C877.566 88.8984 878.504 89.3984 879.738 89.3984C880.668 89.3984 881.535 89.1797 882.277 88.8281ZM877.395 86.5078H880.988C880.934 85.6719 880.301 85.0312 879.27 85.0312C878.199 85.0312 877.48 85.6562 877.395 86.5078ZM887.098 86.4219L887.895 86.5703C889.379 86.8438 890.121 87.5156 890.121 88.8125C890.121 90.3203 888.871 91.1562 886.949 91.1562C885.824 91.1562 884.738 90.9531 884.059 90.6172L884.27 88.9766C885.012 89.2891 886.027 89.5 886.793 89.5C887.77 89.5 888.184 89.2969 888.184 88.8516C888.184 88.4531 887.863 88.2578 886.988 88.1016L886.09 87.9297C884.645 87.6797 883.941 86.9453 883.941 85.7031C883.941 84.3047 885.238 83.3438 887.23 83.3438C888.168 83.3438 889.098 83.5156 889.77 83.8125L889.598 85.4453C889.051 85.2109 888.051 85.0234 887.332 85.0234C886.348 85.0234 885.871 85.2578 885.871 85.7031C885.871 86.0703 886.199 86.2578 887.098 86.4219Z" fill="black"/>
<path d="M1186 64H1112C1100.95 64 1092 72.9543 1092 84C1092 95.0457 1100.95 104 1112 104H1186C1197.05 104 1206 95.0457 1206 84C1206 72.9543 1197.05 64 1186 64Z" fill="#F7F7F7"/>
<path d="M1122.85 90.1963L1118.89 86.1853C1119.81 85.08 1120.27 83.6606 1120.18 82.2229C1120.08 80.7851 1119.43 79.4398 1118.37 78.4671C1117.31 77.4944 1115.91 76.9694 1114.47 77.0014C1113.03 77.0334 1111.66 77.6199 1110.64 78.6388C1109.62 79.6578 1109.03 81.0305 1109 82.4711C1108.97 83.9117 1109.49 85.3091 1110.47 86.3723C1111.44 87.4354 1112.78 88.0823 1114.22 88.1783C1115.66 88.2742 1117.08 87.8117 1118.18 86.8872L1122.19 90.8481C1122.24 90.896 1122.29 90.9343 1122.35 90.9604C1122.41 90.9865 1122.48 91 1122.55 91C1122.61 91 1122.68 90.9865 1122.74 90.9604C1122.8 90.9343 1122.85 90.896 1122.9 90.8481C1122.97 90.7531 1123.01 90.6332 1123 90.5124C1122.99 90.3915 1122.93 90.2787 1122.85 90.1963ZM1114.55 87.188C1113.64 87.188 1112.75 86.9178 1112 86.4116C1111.24 85.9055 1110.65 85.186 1110.3 84.3444C1109.95 83.5028 1109.86 82.5769 1110.04 81.6838C1110.22 80.7907 1110.66 79.9706 1111.3 79.3273C1111.95 78.684 1112.77 78.2465 1113.66 78.07C1114.56 77.8936 1115.48 77.9861 1116.32 78.336C1117.16 78.6859 1117.88 79.2774 1118.39 80.0356C1118.89 80.7939 1119.16 81.6847 1119.16 82.5954C1119.16 83.8171 1118.67 84.9888 1117.81 85.8535C1116.95 86.7183 1115.78 87.2054 1114.55 87.2081V87.188Z" fill="#0071BC"/>
<path d="M1138.42 84.9111L1136.4 84.2783C1134.8 83.7773 1133.45 82.9951 1133.45 81.2988C1133.45 79.207 1135.03 77.8887 1137.71 77.8887C1139.08 77.8887 1140.25 78.1611 1141.22 78.5391L1141.07 79.8838C1140.14 79.4531 1138.88 79.207 1137.83 79.207C1136.08 79.207 1134.99 79.8926 1134.99 81.167C1134.99 82.415 1136.04 82.6963 1137.08 83.0391L1138.95 83.6367C1140.9 84.2783 1141.82 85.1309 1141.82 86.7568C1141.82 88.8047 1140.14 90.1758 1137.52 90.1758C1136.11 90.1758 1134.46 89.8506 1133.42 89.3584L1133.57 87.9873C1134.58 88.4707 1136.16 88.8486 1137.41 88.8486C1139.15 88.8486 1140.31 88.1016 1140.31 86.8008C1140.31 85.8428 1139.78 85.3418 1138.42 84.9111ZM1151.13 88.084L1151.38 89.3496C1150.4 89.9209 1149.33 90.1758 1148.2 90.1758C1145.36 90.1758 1143.4 88.3828 1143.4 85.7812C1143.4 83.2676 1145.21 81.3867 1147.74 81.3867C1150.6 81.3867 1152.22 83.6982 1151.76 86.291H1144.86C1145.1 87.9521 1146.5 88.8662 1148.14 88.8662C1149.12 88.8662 1150 88.6992 1151.13 88.084ZM1144.89 85.1484H1150.48C1150.39 83.707 1149.39 82.6875 1147.79 82.6875C1146.2 82.6875 1145.03 83.707 1144.89 85.1484ZM1162.37 81.5625V90H1160.97V88.6113C1160.34 89.5166 1159.23 90.1758 1157.72 90.1758C1155.3 90.1758 1153.46 88.2949 1153.46 85.7549C1153.46 83.2236 1155.3 81.3867 1157.72 81.3867C1159.23 81.3867 1160.34 82.0371 1160.97 82.9424V81.5625H1162.37ZM1157.86 82.6523C1156.1 82.6523 1154.85 84.0146 1154.85 85.7549C1154.85 87.5039 1156.1 88.9102 1157.86 88.9102C1159.66 88.9102 1160.99 87.5039 1160.99 85.7549C1160.99 84.0146 1159.66 82.6523 1157.86 82.6523ZM1166.69 81.5625V82.8105C1167.17 81.835 1168 81.3867 1168.97 81.3867C1169.57 81.3867 1170 81.5361 1170.16 81.6064L1170.02 82.8984C1169.79 82.8105 1169.46 82.6875 1168.92 82.6875C1167.79 82.6875 1166.69 83.4258 1166.69 85.3154V90H1165.29V81.5625H1166.69ZM1171.33 85.7549C1171.33 83.1621 1173.26 81.3867 1176.08 81.3867C1177.22 81.3867 1178.2 81.7207 1178.61 81.9492L1178.46 83.2061C1177.9 82.9336 1177.05 82.6963 1176.08 82.6963C1174.1 82.6963 1172.75 83.9355 1172.75 85.7549C1172.75 87.5918 1174.11 88.8662 1176.1 88.8662C1176.95 88.8662 1177.91 88.6465 1178.53 88.3301L1178.76 89.6045C1178.01 89.9385 1177.03 90.1758 1176.1 90.1758C1173.27 90.1758 1171.33 88.3828 1171.33 85.7549ZM1185.1 81.3867C1187.31 81.3867 1188.65 82.6963 1188.65 84.8672V90H1187.26V85.21C1187.26 83.5664 1186.4 82.7051 1184.88 82.7051C1183.44 82.7051 1182.27 83.6982 1182.27 85.2363V90H1180.88V77.625H1182.28V82.8281C1182.76 82.0459 1183.76 81.3867 1185.1 81.3867Z" fill="black"/>
<path d="M1388 64H1242C1230.95 64 1222 72.9543 1222 84C1222 95.0457 1230.95 104 1242 104H1388C1399.05 104 1408 95.0457 1408 84C1408 72.9543 1399.05 64 1388 64Z" fill="#0071BC"/>
<path d="M1256.38 87.9521V90H1247.58V78.0645H1249.95V87.9521H1256.38ZM1257.21 85.7812C1257.21 83.2939 1259.14 81.3867 1261.72 81.3867C1264.31 81.3867 1266.23 83.2939 1266.23 85.7812C1266.23 88.2773 1264.31 90.1758 1261.72 90.1758C1259.14 90.1758 1257.21 88.2773 1257.21 85.7812ZM1259.45 85.7812C1259.45 87.1348 1260.4 88.1367 1261.72 88.1367C1263.05 88.1367 1263.99 87.1348 1263.99 85.7812C1263.99 84.4365 1263.05 83.4346 1261.72 83.4346C1260.4 83.4346 1259.45 84.4365 1259.45 85.7812ZM1271.51 90.1758C1269.12 90.1758 1267.42 88.3213 1267.42 85.7725C1267.42 83.2061 1269.12 81.3867 1271.51 81.3867C1272.87 81.3867 1273.74 81.8789 1274.3 82.582L1274.34 81.5625H1276.5V89.7012C1276.5 92.373 1274.23 93.6914 1271.6 93.6914C1270.22 93.6914 1268.97 93.3662 1268.23 92.9883L1268.5 91.0547C1269.14 91.3975 1270.37 91.6875 1271.45 91.6875C1272.87 91.6875 1274.25 91.0547 1274.25 89.6484V89.0508C1273.74 89.7275 1272.75 90.1758 1271.51 90.1758ZM1274.27 85.7637C1274.27 84.4189 1273.3 83.4082 1271.98 83.4082C1270.63 83.4082 1269.69 84.4014 1269.69 85.7637C1269.69 87.0996 1270.63 88.1543 1271.98 88.1543C1273.3 88.1543 1274.27 87.0996 1274.27 85.7637ZM1285.22 90H1282.96V81.5625H1285.22V90ZM1284.09 80.1475C1283.32 80.1475 1282.8 79.6201 1282.8 78.8555C1282.8 78.0908 1283.32 77.5547 1284.09 77.5547C1284.85 77.5547 1285.39 78.082 1285.39 78.8555C1285.39 79.6201 1284.85 80.1475 1284.09 80.1475ZM1292.15 81.3867C1294.1 81.3867 1295.48 82.6699 1295.48 84.7002V90H1293.22V85.2803C1293.22 84.1113 1292.46 83.4785 1291.48 83.4785C1290.49 83.4785 1289.61 84.1113 1289.61 85.2803V90H1287.36V81.5625H1289.5L1289.55 82.5381C1289.99 81.9492 1290.89 81.3867 1292.15 81.3867ZM1310.25 76.5615L1303.42 93.5156H1301.11L1307.94 76.5615H1310.25ZM1324.02 89.9912L1321.28 86.4844H1318.52V90H1316.15V78.0645H1321.69C1324.1 78.0645 1326.05 79.5938 1326.05 82.2832C1326.05 84.0146 1325.08 85.377 1323.72 86.0361L1326.88 89.9912H1324.02ZM1321.42 80.1211H1318.52V84.4365H1321.42C1322.68 84.4365 1323.6 83.5664 1323.6 82.292C1323.6 80.9033 1322.66 80.1211 1321.42 80.1211ZM1335.62 87.5566L1335.94 89.3848C1335.12 89.8506 1333.98 90.1758 1332.75 90.1758C1329.77 90.1758 1327.85 88.4092 1327.85 85.7812C1327.85 83.1973 1329.68 81.3867 1332.18 81.3867C1334.78 81.3867 1336.74 83.3379 1336.19 86.458H1330.09C1330.32 87.6357 1331.37 88.1982 1332.76 88.1982C1333.81 88.1982 1334.78 87.9521 1335.62 87.5566ZM1330.13 84.9463H1334.17C1334.11 84.0059 1333.4 83.2852 1332.24 83.2852C1331.03 83.2852 1330.22 83.9883 1330.13 84.9463ZM1341.58 90.1758C1339.19 90.1758 1337.49 88.3213 1337.49 85.7725C1337.49 83.2061 1339.19 81.3867 1341.58 81.3867C1342.93 81.3867 1343.8 81.8789 1344.36 82.582L1344.41 81.5625H1346.57V89.7012C1346.57 92.373 1344.29 93.6914 1341.67 93.6914C1340.29 93.6914 1339.04 93.3662 1338.3 92.9883L1338.56 91.0547C1339.21 91.3975 1340.44 91.6875 1341.52 91.6875C1342.93 91.6875 1344.32 91.0547 1344.32 89.6484V89.0508C1343.81 89.7275 1342.82 90.1758 1341.58 90.1758ZM1344.34 85.7637C1344.34 84.4189 1343.37 83.4082 1342.04 83.4082C1340.7 83.4082 1339.76 84.4014 1339.76 85.7637C1339.76 87.0996 1340.7 88.1543 1342.04 88.1543C1343.37 88.1543 1344.34 87.0996 1344.34 85.7637ZM1350.96 90H1348.71V81.5625H1350.96V90ZM1349.83 80.1475C1349.07 80.1475 1348.54 79.6201 1348.54 78.8555C1348.54 78.0908 1349.07 77.5547 1349.83 77.5547C1350.6 77.5547 1351.13 78.082 1351.13 78.8555C1351.13 79.6201 1350.6 80.1475 1349.83 80.1475ZM1356.19 84.8496L1357.09 85.0166C1358.76 85.3242 1359.6 86.0801 1359.6 87.5391C1359.6 89.2354 1358.19 90.1758 1356.03 90.1758C1354.76 90.1758 1353.54 89.9473 1352.78 89.5693L1353.01 87.7236C1353.85 88.0752 1354.99 88.3125 1355.85 88.3125C1356.95 88.3125 1357.42 88.084 1357.42 87.583C1357.42 87.1348 1357.06 86.915 1356.07 86.7393L1355.06 86.5459C1353.43 86.2646 1352.64 85.4385 1352.64 84.041C1352.64 82.4678 1354.1 81.3867 1356.34 81.3867C1357.4 81.3867 1358.44 81.5801 1359.2 81.9141L1359.01 83.751C1358.39 83.4873 1357.27 83.2764 1356.46 83.2764C1355.35 83.2764 1354.81 83.54 1354.81 84.041C1354.81 84.4541 1355.18 84.665 1356.19 84.8496ZM1366.5 83.4346H1364.1V86.9062C1364.1 87.7852 1364.6 88.1719 1365.35 88.1719C1365.77 88.1719 1366.31 88.1016 1366.79 87.9697L1367 89.8418C1366.48 90.0439 1365.64 90.1758 1364.96 90.1758C1363.1 90.1758 1361.85 89.2178 1361.85 87.2314V83.4346H1360.43V81.5625H1361.86V78.8555H1364.05V81.5625H1366.5V83.4346ZM1375.57 87.5566L1375.89 89.3848C1375.07 89.8506 1373.94 90.1758 1372.71 90.1758C1369.72 90.1758 1367.8 88.4092 1367.8 85.7812C1367.8 83.1973 1369.63 81.3867 1372.14 81.3867C1374.73 81.3867 1376.7 83.3379 1376.15 86.458H1370.05C1370.27 87.6357 1371.33 88.1982 1372.72 88.1982C1373.76 88.1982 1374.74 87.9521 1375.57 87.5566ZM1370.08 84.9463H1374.12C1374.06 84.0059 1373.35 83.2852 1372.19 83.2852C1370.99 83.2852 1370.18 83.9883 1370.08 84.9463ZM1380.08 81.5625L1380.13 82.7139C1380.56 81.835 1381.38 81.3867 1382.32 81.3867C1382.83 81.3867 1383.25 81.5186 1383.42 81.5801L1383.25 83.5928C1383.02 83.5137 1382.65 83.3994 1382.2 83.3994C1381.21 83.3994 1380.16 83.9355 1380.16 85.6758V90H1377.9V81.5625H1380.08Z" fill="white"/>
<path d="M0 0H1440V40H0V0Z" fill="white"/>
<mask id="mask1_2553_6996" style="mask-type:luminance" maskUnits="userSpaceOnUse" x="0" y="0" width="1440" height="40">
<path d="M0 0H1440V40H0V0Z" fill="white"/>
</mask>
<g mask="url(#mask1_2553_6996)">
<path d="M1440 39H0V41H1440V39Z" fill="#F7F7F7"/>
</g>
<mask id="mask2_2553_6996" style="mask-type:luminance" maskUnits="userSpaceOnUse" x="32" y="10" width="255" height="20">
<path d="M287 10H32V30H287V10Z" fill="white"/>
</mask>
<g mask="url(#mask2_2553_6996)">
<path d="M39.9994 12.6665C38.549 12.6665 37.1311 13.0966 35.9252 13.9024C34.7192 14.7082 33.7793 15.8535 33.2242 17.1935C32.6692 18.5335 32.524 20.008 32.8069 21.4305C33.0899 22.8531 33.7883 24.1597 34.8139 25.1853C35.8395 26.2109 37.1462 26.9093 38.5687 27.1923C39.9912 27.4753 41.4657 27.33 42.8057 26.775C44.1457 26.22 45.291 25.28 46.0968 24.0741C46.9026 22.8681 47.3327 21.4503 47.3327 19.9999C47.3248 18.0574 46.5496 16.1967 45.1761 14.8232C43.8025 13.4496 41.9418 12.6744 39.9994 12.6665ZM41.626 16.5565C41.6894 16.5965 41.756 16.6399 41.816 16.6865C41.8789 16.7416 41.9359 16.803 41.986 16.8699C42.0304 16.9455 42.0944 17.0078 42.1713 17.05C42.2482 17.0923 42.335 17.1129 42.4227 17.1099C42.6794 17.0832 42.7994 16.8432 42.936 16.5632C43.0119 16.3901 43.0721 16.2104 43.116 16.0265H43.2794C43.3227 16.1065 43.3727 16.2065 43.416 16.2832C43.4945 16.4479 43.5859 16.6062 43.6894 16.7565C43.7613 16.8443 43.843 16.9237 43.9327 16.9932C43.9494 16.9932 43.966 17.0165 43.966 16.9932C43.966 16.9699 43.966 17.0132 43.966 17.0699C43.9899 17.2303 43.9592 17.3941 43.8788 17.5349C43.7984 17.6758 43.673 17.7855 43.5227 17.8465C43.2348 18.0124 42.9813 18.2319 42.776 18.4932C42.6322 18.6966 42.4366 18.8578 42.2094 18.9599C41.9879 18.9856 41.7642 18.9856 41.5427 18.9599C40.876 18.9165 40.1194 18.8665 39.9027 19.3899C39.6094 20.1099 40.4927 20.6465 40.9027 20.9032L41.0294 20.9832L41.1494 21.0632C41.4292 21.2933 41.7695 21.438 42.1294 21.4799C42.2206 21.4751 42.3099 21.4522 42.3923 21.4128C42.4747 21.3733 42.5484 21.3179 42.6094 21.2499C42.626 21.2299 42.6527 21.2065 42.636 21.2099C43.496 21.0832 44.1194 21.4832 44.2594 22.2599C44.2695 22.318 44.2949 22.3724 44.333 22.4175C44.3711 22.4626 44.4204 22.4968 44.476 22.5165C44.6227 22.5665 44.6427 22.6332 44.6494 22.6599C44.7294 22.9132 44.4827 23.4399 43.8994 24.2465L43.726 24.4899C43.2494 25.1565 42.7594 25.8565 41.996 26.0799C42.1944 25.6811 42.3455 25.2605 42.446 24.8265C42.536 24.3432 42.496 24.1599 42.2494 23.9332C42.1461 23.8386 42.0613 23.7255 41.9994 23.5999C41.8436 23.1994 41.7655 22.7729 41.7694 22.3432C41.7649 22.2802 41.78 22.2173 41.8127 22.1632C42.016 21.8132 41.7727 21.6265 41.4794 21.3865C41.1952 21.1928 40.881 21.0475 40.5494 20.9565C40.3381 20.897 40.1336 20.8154 39.9394 20.7132C39.3686 20.3289 38.8997 19.8119 38.5727 19.2065C38.3246 18.709 38.1902 18.1624 38.1794 17.6065C38.154 17.2443 38.1016 16.8844 38.0227 16.5299C37.7227 15.2899 36.9494 14.9232 36.1227 14.8332L36.2327 14.7399L36.296 14.6865C36.7627 14.2732 36.9627 14.1065 37.296 14.1732L37.4727 14.2099C37.8666 14.312 38.2724 14.3614 38.6794 14.3565C38.8652 14.3341 39.0491 14.2973 39.2294 14.2465C39.3729 14.2082 39.5187 14.1792 39.666 14.1599C39.7441 14.1507 39.8232 14.1585 39.898 14.1826C39.9727 14.2068 40.0414 14.2468 40.0994 14.2999C40.3066 14.4563 40.5516 14.5552 40.8094 14.5865C40.9576 14.604 41.1068 14.6117 41.256 14.6099C41.3933 14.6078 41.5305 14.6178 41.666 14.6399C41.3553 14.8659 41.1383 15.1979 41.056 15.5732C41.0323 15.7767 41.075 15.9823 41.1777 16.1595C41.2805 16.3367 41.4377 16.476 41.626 16.5565ZM33.3327 19.9999C33.334 18.3257 33.9673 16.7138 35.106 15.4865C36.3194 15.4465 37.0794 15.5065 37.3694 16.6932C37.4393 17.0138 37.4849 17.3391 37.506 17.6665C37.527 18.3202 37.6956 18.9607 37.9994 19.5399C38.3812 20.2483 38.9305 20.8525 39.5994 21.2999C39.8331 21.4235 40.0788 21.5229 40.3327 21.5965C40.5923 21.6679 40.8387 21.7804 41.0627 21.9299L41.166 22.0099C41.1297 22.1173 41.1106 22.2298 41.1094 22.3432C41.105 22.8843 41.2104 23.4207 41.4194 23.9199C41.5164 24.1089 41.6475 24.2784 41.806 24.4199L41.8327 24.4432C41.8277 24.5296 41.8154 24.6155 41.796 24.6999C41.7056 25.0818 41.5714 25.4521 41.396 25.8032C41.3094 25.9999 41.2227 26.1899 41.1494 26.3765C41.1345 26.4368 41.1345 26.4997 41.1494 26.5599C40.1909 26.7331 39.2062 26.6932 38.2649 26.443C37.3236 26.1929 36.4489 25.7387 35.7029 25.1126C34.9569 24.4865 34.3578 23.7039 33.9482 22.8203C33.5386 21.9367 33.3284 20.9738 33.3327 19.9999ZM43.9027 25.3932C44.0327 25.2232 44.156 25.0599 44.2727 24.8865L44.4594 24.6232C45.0027 23.8699 45.4827 23.0865 45.2894 22.4732C45.2238 22.2599 45.0763 22.0813 44.8794 21.9765C44.6127 20.9532 43.6927 20.3865 42.546 20.5599C42.3952 20.5878 42.2579 20.6652 42.156 20.7799C42.136 20.7965 42.1094 20.8232 42.1227 20.8232C41.909 20.7661 41.7101 20.6638 41.5394 20.5232C41.4927 20.4932 41.4494 20.4599 41.4094 20.4365L41.2527 20.3332C40.586 19.9232 40.4727 19.7299 40.496 19.6665C40.6127 19.5699 41.206 19.6099 41.496 19.6299C41.8111 19.6741 42.1315 19.6628 42.4427 19.5965C42.7806 19.456 43.0734 19.2254 43.2894 18.9299C43.4438 18.7303 43.6336 18.5608 43.8494 18.4299C44.108 18.3107 44.3233 18.1143 44.466 17.8679C44.6086 17.6214 44.6715 17.3368 44.646 17.0532C44.654 16.9371 44.6314 16.8209 44.5805 16.7162C44.5296 16.6116 44.4522 16.522 44.356 16.4565C44.3045 16.4163 44.2575 16.3705 44.216 16.3199C44.1827 16.2765 44.0794 16.0799 44.0094 15.9499C43.7427 15.4499 43.676 15.3432 43.466 15.3432H42.8494C42.7709 15.3418 42.6945 15.3681 42.6335 15.4175C42.5725 15.4669 42.5309 15.5362 42.516 15.6132C42.4762 15.8299 42.4148 16.0421 42.3327 16.2465L42.2294 16.1532C42.1555 16.098 42.0787 16.0468 41.9994 15.9999C41.7394 15.8299 41.7194 15.7932 41.7394 15.6665C41.8607 15.3529 42.1 15.0993 42.406 14.9599C42.4497 14.9394 42.4883 14.9098 42.5194 14.873C42.5505 14.8361 42.5732 14.793 42.586 14.7465C42.5975 14.6997 42.5993 14.651 42.5913 14.6034C42.5833 14.5558 42.5656 14.5104 42.5394 14.4699C42.1794 13.9532 41.666 13.9499 41.2694 13.9432C41.1461 13.9501 41.0226 13.9501 40.8994 13.9432C40.7444 13.921 40.5982 13.8577 40.476 13.7599C40.2291 13.5677 39.9171 13.4792 39.606 13.5132C39.4248 13.5374 39.2455 13.5742 39.0694 13.6232C38.9227 13.6641 38.7735 13.6952 38.6227 13.7165C38.4125 13.7174 38.2031 13.6916 37.9994 13.6399C39.507 13.1725 41.1316 13.2552 42.584 13.8733C44.0364 14.4914 45.2223 15.6048 45.9308 17.0154C46.6393 18.4259 46.8243 20.042 46.4529 21.5762C46.0815 23.1103 45.1778 24.4629 43.9027 25.3932Z" fill="#707275"/>
<path d="M64.1553 24H57.3535V14.7168H64.0117V15.7422H58.4814V18.7158H63.2939V19.7412H58.4814V22.9814H64.1553V24ZM69.2686 17.3008C70.998 17.3008 72.0371 18.3193 72.0371 20.0078V24H70.957V20.2744C70.957 18.9961 70.2871 18.3262 69.0977 18.3262C67.9766 18.3262 67.0674 19.0986 67.0674 20.2949V24H65.9805V17.4375H67.0742V18.4219C67.4434 17.8135 68.2227 17.3008 69.2686 17.3008ZM79.5635 22.9199C79.085 23.6104 78.21 24.1367 77.0342 24.1367C75.1543 24.1367 73.7256 22.6738 73.7256 20.6982C73.7256 18.7295 75.1543 17.3008 77.0342 17.3008C78.21 17.3008 79.0713 17.8066 79.5635 18.5107V17.4375H80.6504V23.5625C80.6504 25.4697 79.3447 26.8711 76.9385 26.8711C76.125 26.8711 75.0449 26.6865 74.3545 26.3242L74.5254 25.333C75.2568 25.6953 76.125 25.8867 76.9316 25.8867C78.4561 25.8867 79.5635 25.1143 79.5635 23.6445V22.9199ZM77.1436 18.2852C75.7764 18.2852 74.8057 19.3447 74.8057 20.6982C74.8057 22.0586 75.7764 23.1523 77.1436 23.1523C78.5449 23.1523 79.5771 22.0586 79.5771 20.6982C79.5771 19.3447 78.5449 18.2852 77.1436 18.2852ZM82.9199 24V14.375H84.0068V24H82.9199ZM86.2832 24V17.4375H87.3701V24H86.2832ZM86.8232 15.9131C86.4268 15.9131 86.1533 15.6328 86.1533 15.2363C86.1533 14.8398 86.4268 14.5664 86.8232 14.5664C87.2197 14.5664 87.5068 14.8398 87.5068 15.2363C87.5068 15.6328 87.2197 15.9131 86.8232 15.9131ZM91.6016 20.165L92.2852 20.3018C93.5908 20.5615 94.2812 21.1494 94.2812 22.1748C94.2812 23.4531 93.2627 24.1367 91.6699 24.1367C90.7402 24.1367 89.8242 23.9521 89.209 23.6445L89.3594 22.6738C89.9609 22.9814 90.8018 23.166 91.5947 23.166C92.6475 23.166 93.2148 22.8379 93.2148 22.2295C93.2148 21.6416 92.709 21.3955 91.7861 21.2178L90.9316 21.0469C89.8447 20.835 89.1475 20.2607 89.1475 19.249C89.1475 18.0801 90.1797 17.3008 91.8135 17.3008C92.6064 17.3008 93.4062 17.4512 93.9189 17.6631L93.7822 18.6133C93.249 18.4014 92.5244 18.2646 91.8818 18.2646C90.8154 18.2646 90.2275 18.6201 90.2275 19.2217C90.2275 19.7891 90.6787 19.9873 91.6016 20.165ZM99.2783 17.3008C100.994 17.3008 102.033 18.3193 102.033 20.0078V24H100.953V20.2744C100.953 18.9961 100.283 18.3262 99.1074 18.3262C97.9863 18.3262 97.0771 19.0986 97.0771 20.2949V24H95.9902V14.375H97.084V18.4219C97.4531 17.8135 98.2324 17.3008 99.2783 17.3008Z" fill="black"/>
<path d="M116.004 22L112.574 18.433C112.551 18.4098 112.532 18.3822 112.519 18.3518C112.507 18.3214 112.5 18.2888 112.5 18.2559C112.5 18.2229 112.507 18.1903 112.519 18.1599C112.532 18.1296 112.551 18.102 112.574 18.0788C112.597 18.0554 112.625 18.0368 112.655 18.0242C112.686 18.0115 112.718 18.005 112.751 18.005C112.784 18.005 112.817 18.0115 112.848 18.0242C112.878 18.0368 112.906 18.0554 112.929 18.0788L115.999 21.2666L119.069 18.0738C119.092 18.0504 119.12 18.0318 119.15 18.0192C119.181 18.0065 119.213 18 119.246 18C119.279 18 119.312 18.0065 119.343 18.0192C119.373 18.0318 119.401 18.0504 119.424 18.0738C119.447 18.097 119.466 18.1246 119.479 18.155C119.491 18.1854 119.498 18.218 119.498 18.2509C119.498 18.2838 119.491 18.3164 119.479 18.3468C119.466 18.3772 119.447 18.4048 119.424 18.428L116.004 22Z" fill="#707275"/>
<path d="M136.5 14.5V25.5" stroke="#F7F7F7"/>
<path fill-rule="evenodd" clip-rule="evenodd" d="M166.974 24.55L163.804 16.64C163.738 16.4656 163.624 16.3132 163.476 16.2001C163.328 16.087 163.152 16.0177 162.966 16C162.772 16.0084 162.585 16.0735 162.428 16.1872C162.27 16.3009 162.149 16.4583 162.079 16.64L158.949 24.55C158.92 24.5964 158.904 24.6501 158.904 24.705C158.904 24.7599 158.92 24.8136 158.949 24.86C158.984 24.9048 159.03 24.9396 159.082 24.9606C159.135 24.9817 159.192 24.9884 159.248 24.98C159.304 24.9737 159.357 24.9515 159.402 24.9161C159.446 24.8807 159.479 24.8335 159.497 24.78L160.803 21.5H165.05L166.366 24.76C166.387 24.8267 166.43 24.8843 166.488 24.9241C166.546 24.9638 166.615 24.9835 166.685 24.98H166.804C166.88 24.9413 166.94 24.8777 166.974 24.8C166.991 24.7606 167 24.718 167 24.675C167 24.632 166.991 24.5894 166.974 24.55ZM161.052 20.86L162.637 16.86C162.66 16.7988 162.701 16.7459 162.754 16.7086C162.808 16.6713 162.871 16.6514 162.936 16.6514C163.002 16.6514 163.065 16.6713 163.119 16.7086C163.172 16.7459 163.213 16.7988 163.236 16.86L164.821 20.86H161.052ZM156.093 19.1428C155.973 19.0532 155.829 19.0033 155.679 19C155.529 19.0017 155.384 19.0511 155.264 19.1409C155.144 19.2308 155.056 19.3565 155.011 19.5L153.018 24.55C153.004 24.5914 152.998 24.6351 153.001 24.6787C153.004 24.7222 153.015 24.7648 153.035 24.8039C153.054 24.8429 153.081 24.8777 153.114 24.9063C153.147 24.9348 153.185 24.9564 153.227 24.97C153.266 24.9858 153.308 24.9934 153.35 24.9923C153.392 24.9912 153.434 24.9815 153.472 24.9637C153.51 24.9459 153.545 24.9204 153.573 24.8888C153.601 24.8572 153.622 24.8202 153.636 24.78L154.353 22.94H157.005L157.753 24.78C157.775 24.8415 157.816 24.8946 157.869 24.9322C157.923 24.9697 157.986 24.9899 158.052 24.99C158.088 25.0003 158.126 25.0003 158.161 24.99C158.201 24.9756 158.236 24.9535 158.267 24.9249C158.297 24.8962 158.322 24.8617 158.338 24.8234C158.355 24.7851 158.364 24.7438 158.364 24.702C158.365 24.6601 158.357 24.6186 158.341 24.58L156.347 19.5C156.301 19.3573 156.213 19.2324 156.093 19.1428ZM154.603 22.29L155.599 19.7C155.606 19.6816 155.618 19.6658 155.634 19.655C155.65 19.6441 155.67 19.6389 155.689 19.64C155.705 19.6428 155.72 19.6498 155.732 19.6604C155.745 19.6709 155.754 19.6846 155.759 19.7L156.756 22.29H154.603Z" fill="#707275"/>
<path d="M177.354 24V14.7168H178.481V24H177.354ZM184.265 17.3008C185.994 17.3008 187.033 18.3193 187.033 20.0078V24H185.953V20.2744C185.953 18.9961 185.283 18.3262 184.094 18.3262C182.973 18.3262 182.063 19.0986 182.063 20.2949V24H180.977V17.4375H182.07V18.4219C182.439 17.8135 183.219 17.3008 184.265 17.3008ZM188.715 20.6982C188.715 18.6816 190.212 17.3008 192.406 17.3008C193.295 17.3008 194.054 17.5605 194.375 17.7383L194.259 18.7158C193.821 18.5039 193.165 18.3193 192.406 18.3193C190.868 18.3193 189.815 19.2832 189.815 20.6982C189.815 22.127 190.875 23.1182 192.42 23.1182C193.083 23.1182 193.828 22.9473 194.313 22.7012L194.491 23.6924C193.91 23.9521 193.145 24.1367 192.42 24.1367C190.219 24.1367 188.715 22.7422 188.715 20.6982ZM197.232 17.4375V18.4082C197.602 17.6494 198.251 17.3008 199.003 17.3008C199.468 17.3008 199.81 17.417 199.933 17.4717L199.823 18.4766C199.639 18.4082 199.386 18.3125 198.962 18.3125C198.087 18.3125 197.232 18.8867 197.232 20.3564V24H196.139V17.4375H197.232ZM206.857 22.5098L207.049 23.4941C206.283 23.9385 205.456 24.1367 204.574 24.1367C202.366 24.1367 200.842 22.7422 200.842 20.7188C200.842 18.7637 202.25 17.3008 204.219 17.3008C206.44 17.3008 207.698 19.0986 207.343 21.1152H201.977C202.161 22.4072 203.255 23.1182 204.526 23.1182C205.292 23.1182 205.976 22.9883 206.857 22.5098ZM202.004 20.2266H206.352C206.276 19.1055 205.504 18.3125 204.253 18.3125C203.016 18.3125 202.106 19.1055 202.004 20.2266ZM215.594 17.4375V24H214.507V22.9199C214.015 23.624 213.153 24.1367 211.978 24.1367C210.098 24.1367 208.669 22.6738 208.669 20.6982C208.669 18.7295 210.098 17.3008 211.978 17.3008C213.153 17.3008 214.015 17.8066 214.507 18.5107V17.4375H215.594ZM212.087 18.2852C210.72 18.2852 209.749 19.3447 209.749 20.6982C209.749 22.0586 210.72 23.1523 212.087 23.1523C213.488 23.1523 214.521 22.0586 214.521 20.6982C214.521 19.3447 213.488 18.2852 212.087 18.2852ZM219.818 20.165L220.502 20.3018C221.808 20.5615 222.498 21.1494 222.498 22.1748C222.498 23.4531 221.479 24.1367 219.887 24.1367C218.957 24.1367 218.041 23.9521 217.426 23.6445L217.576 22.6738C218.178 22.9814 219.019 23.166 219.812 23.166C220.864 23.166 221.432 22.8379 221.432 22.2295C221.432 21.6416 220.926 21.3955 220.003 21.2178L219.148 21.0469C218.062 20.835 217.364 20.2607 217.364 19.249C217.364 18.0801 218.396 17.3008 220.03 17.3008C220.823 17.3008 221.623 17.4512 222.136 17.6631L221.999 18.6133C221.466 18.4014 220.741 18.2646 220.099 18.2646C219.032 18.2646 218.444 18.6201 218.444 19.2217C218.444 19.7891 218.896 19.9873 219.818 20.165ZM229.717 22.5098L229.908 23.4941C229.143 23.9385 228.315 24.1367 227.434 24.1367C225.226 24.1367 223.701 22.7422 223.701 20.7188C223.701 18.7637 225.109 17.3008 227.078 17.3008C229.3 17.3008 230.558 19.0986 230.202 21.1152H224.836C225.021 22.4072 226.114 23.1182 227.386 23.1182C228.151 23.1182 228.835 22.9883 229.717 22.5098ZM224.863 20.2266H229.211C229.136 19.1055 228.363 18.3125 227.112 18.3125C225.875 18.3125 224.966 19.1055 224.863 20.2266ZM238.897 18.374H236.806V21.9219C236.806 22.7832 237.271 23.1592 237.94 23.1592C238.296 23.1592 238.747 23.0908 239.062 22.9746L239.205 23.9111C238.925 24.0342 238.357 24.1367 237.824 24.1367C236.56 24.1367 235.719 23.4395 235.719 22.0996V18.374H234.509V17.4375H235.726V15.332H236.799V17.4375H238.897V18.374ZM246.068 22.5098L246.26 23.4941C245.494 23.9385 244.667 24.1367 243.785 24.1367C241.577 24.1367 240.053 22.7422 240.053 20.7188C240.053 18.7637 241.461 17.3008 243.43 17.3008C245.651 17.3008 246.909 19.0986 246.554 21.1152H241.188C241.372 22.4072 242.466 23.1182 243.737 23.1182C244.503 23.1182 245.187 22.9883 246.068 22.5098ZM241.215 20.2266H245.562C245.487 19.1055 244.715 18.3125 243.464 18.3125C242.227 18.3125 241.317 19.1055 241.215 20.2266ZM253.793 17.4443L251.346 20.6299L253.861 24H252.583L250.642 21.3955L248.714 24H247.449L249.965 20.6367L247.518 17.4443H248.81L250.662 19.8848L252.528 17.4443H253.793ZM258.763 18.374H256.671V21.9219C256.671 22.7832 257.136 23.1592 257.806 23.1592C258.161 23.1592 258.612 23.0908 258.927 22.9746L259.07 23.9111C258.79 24.0342 258.223 24.1367 257.689 24.1367C256.425 24.1367 255.584 23.4395 255.584 22.0996V18.374H254.374V17.4375H255.591V15.332H256.664V17.4375H258.763V18.374ZM265.688 20.165L266.371 20.3018C267.677 20.5615 268.367 21.1494 268.367 22.1748C268.367 23.4531 267.349 24.1367 265.756 24.1367C264.826 24.1367 263.91 23.9521 263.295 23.6445L263.445 22.6738C264.047 22.9814 264.888 23.166 265.681 23.166C266.733 23.166 267.301 22.8379 267.301 22.2295C267.301 21.6416 266.795 21.3955 265.872 21.2178L265.018 21.0469C263.931 20.835 263.233 20.2607 263.233 19.249C263.233 18.0801 264.265 17.3008 265.898 17.3008C266.691 17.3008 267.492 17.4512 268.005 17.6631L267.868 18.6133C267.335 18.4014 266.609 18.2646 265.967 18.2646C264.9 18.2646 264.312 18.6201 264.312 19.2217C264.312 19.7891 264.765 19.9873 265.688 20.165ZM270.076 24V17.4375H271.163V24H270.076ZM270.616 15.9131C270.22 15.9131 269.946 15.6328 269.946 15.2363C269.946 14.8398 270.22 14.5664 270.616 14.5664C271.013 14.5664 271.299 14.8398 271.299 15.2363C271.299 15.6328 271.013 15.9131 270.616 15.9131ZM272.947 24V23.084L276.516 18.374H272.995V17.4375H277.78V18.3535L274.212 23.0635H277.979V24H272.947ZM285.17 22.5098L285.361 23.4941C284.596 23.9385 283.769 24.1367 282.887 24.1367C280.679 24.1367 279.154 22.7422 279.154 20.7188C279.154 18.7637 280.562 17.3008 282.531 17.3008C284.753 17.3008 286.011 19.0986 285.655 21.1152H280.289C280.474 22.4072 281.567 23.1182 282.839 23.1182C283.604 23.1182 284.288 22.9883 285.17 22.5098ZM280.316 20.2266H284.664C284.589 19.1055 283.816 18.3125 282.565 18.3125C281.328 18.3125 280.419 19.1055 280.316 20.2266Z" fill="black"/>
</g>
<path d="M1095.07 21.2959H1092.3V24H1091.26V15.3799H1095.07C1096.68 15.3799 1098.07 16.3193 1098.07 18.3569C1098.07 20.1978 1096.68 21.2959 1095.07 21.2959ZM1092.3 16.3384V20.3501H1094.94C1096.06 20.3501 1097 19.6011 1097 18.3633C1097 16.9922 1096.06 16.3384 1094.94 16.3384H1092.3ZM1105.55 17.9062V24H1104.54V22.9971C1104.09 23.6509 1103.29 24.127 1102.19 24.127C1100.45 24.127 1099.12 22.7686 1099.12 20.9341C1099.12 19.106 1100.45 17.7793 1102.19 17.7793C1103.29 17.7793 1104.09 18.249 1104.54 18.9028V17.9062H1105.55ZM1102.3 18.6934C1101.03 18.6934 1100.12 19.6772 1100.12 20.9341C1100.12 22.1973 1101.03 23.2129 1102.3 23.2129C1103.6 23.2129 1104.56 22.1973 1104.56 20.9341C1104.56 19.6772 1103.6 18.6934 1102.3 18.6934ZM1109.98 23.0098L1112.01 17.9062H1113.12L1110.25 24.7744C1109.73 25.9868 1109.16 26.666 1107.93 26.666C1107.44 26.666 1107.06 26.5454 1106.88 26.4565L1107.01 25.5996C1107.21 25.6948 1107.55 25.7646 1107.87 25.7646C1108.56 25.7646 1108.97 25.3267 1109.33 24.457L1109.44 24.1714L1106.8 17.9062H1107.9L1109.98 23.0098ZM1124.89 17.7793C1126.47 17.7793 1127.42 18.7822 1127.42 20.2739V24H1126.41V20.5215C1126.41 19.3979 1125.79 18.7314 1124.73 18.7314C1123.74 18.7314 1122.92 19.4233 1122.92 20.5024V24H1121.91V20.5215C1121.91 19.3979 1121.29 18.7314 1120.27 18.7314C1119.24 18.7314 1118.43 19.436 1118.43 20.5405V24H1117.42V17.9062H1118.43V18.814C1118.77 18.249 1119.48 17.7793 1120.43 17.7793C1121.51 17.7793 1122.29 18.2617 1122.66 19.0615C1123.07 18.2681 1123.9 17.7793 1124.89 17.7793ZM1131.76 23.0098L1133.8 17.9062H1134.91L1132.03 24.7744C1131.51 25.9868 1130.94 26.666 1129.71 26.666C1129.22 26.666 1128.84 26.5454 1128.67 26.4565L1128.79 25.5996C1129 25.6948 1129.34 25.7646 1129.65 25.7646C1130.35 25.7646 1130.76 25.3267 1131.11 24.457L1131.22 24.1714L1128.59 17.9062H1129.69L1131.76 23.0098ZM1139.21 17.9062H1140.22V18.9028C1140.67 18.249 1141.47 17.7793 1142.56 17.7793C1144.31 17.7793 1145.64 19.1377 1145.64 20.9658C1145.64 22.8003 1144.31 24.127 1142.56 24.127C1141.47 24.127 1140.67 23.6509 1140.22 22.9971V26.5391H1139.21V17.9062ZM1142.46 18.6934C1141.16 18.6934 1140.2 19.709 1140.2 20.9658C1140.2 22.229 1141.16 23.2129 1142.46 23.2129C1143.73 23.2129 1144.63 22.229 1144.63 20.9658C1144.63 19.709 1143.73 18.6934 1142.46 18.6934ZM1148.3 17.9062V18.8076C1148.64 18.103 1149.24 17.7793 1149.94 17.7793C1150.37 17.7793 1150.69 17.8872 1150.8 17.938L1150.7 18.8711C1150.53 18.8076 1150.3 18.7188 1149.9 18.7188C1149.09 18.7188 1148.3 19.252 1148.3 20.6167V24H1147.28V17.9062H1148.3ZM1157.23 22.6162L1157.41 23.5303C1156.7 23.9429 1155.93 24.127 1155.11 24.127C1153.06 24.127 1151.65 22.832 1151.65 20.9531C1151.65 19.1377 1152.96 17.7793 1154.78 17.7793C1156.85 17.7793 1158.02 19.4487 1157.69 21.3213H1152.7C1152.87 22.521 1153.89 23.1812 1155.07 23.1812C1155.78 23.1812 1156.42 23.0605 1157.23 22.6162ZM1152.73 20.4961H1156.76C1156.69 19.4551 1155.98 18.7188 1154.82 18.7188C1153.67 18.7188 1152.82 19.4551 1152.73 20.4961ZM1166.84 17.7793C1168.43 17.7793 1169.38 18.7822 1169.38 20.2739V24H1168.37V20.5215C1168.37 19.3979 1167.75 18.7314 1166.69 18.7314C1165.7 18.7314 1164.88 19.4233 1164.88 20.5024V24H1163.87V20.5215C1163.87 19.3979 1163.25 18.7314 1162.22 18.7314C1161.2 18.7314 1160.39 19.436 1160.39 20.5405V24H1159.38V17.9062H1160.39V18.814C1160.73 18.249 1161.44 17.7793 1162.39 17.7793C1163.47 17.7793 1164.25 18.2617 1164.62 19.0615C1165.03 18.2681 1165.85 17.7793 1166.84 17.7793ZM1171.4 24V17.9062H1172.41V24H1171.4ZM1171.9 16.4907C1171.54 16.4907 1171.28 16.2305 1171.28 15.8623C1171.28 15.4941 1171.54 15.2402 1171.9 15.2402C1172.27 15.2402 1172.54 15.4941 1172.54 15.8623C1172.54 16.2305 1172.27 16.4907 1171.9 16.4907ZM1178.96 21.3784V17.9062H1179.96V21.5244C1179.96 23.0542 1178.88 24.127 1177.2 24.127C1175.52 24.127 1174.44 23.0669 1174.44 21.5625V17.9062H1175.44V21.3784C1175.44 22.521 1176.14 23.1812 1177.2 23.1812C1178.26 23.1812 1178.96 22.521 1178.96 21.3784ZM1189.44 17.7793C1191.03 17.7793 1191.98 18.7822 1191.98 20.2739V24H1190.97V20.5215C1190.97 19.3979 1190.34 18.7314 1189.28 18.7314C1188.29 18.7314 1187.47 19.4233 1187.47 20.5024V24H1186.47V20.5215C1186.47 19.3979 1185.84 18.7314 1184.82 18.7314C1183.8 18.7314 1182.99 19.436 1182.99 20.5405V24H1181.98V17.9062H1182.99V18.814C1183.32 18.249 1184.03 17.7793 1184.99 17.7793C1186.07 17.7793 1186.85 18.2617 1187.21 19.0615C1187.63 18.2681 1188.45 17.7793 1189.44 17.7793Z" fill="black"/>
<path d="M1216.57 24H1210.26V15.3799H1216.44V16.332H1211.3V19.0933H1215.77V20.0454H1211.3V23.0542H1216.57V24ZM1225.73 17.7793C1227.32 17.7793 1228.27 18.7822 1228.27 20.2739V24H1227.26V20.5215C1227.26 19.3979 1226.63 18.7314 1225.57 18.7314C1224.58 18.7314 1223.76 19.4233 1223.76 20.5024V24H1222.76V20.5215C1222.76 19.3979 1222.13 18.7314 1221.11 18.7314C1220.09 18.7314 1219.28 19.436 1219.28 20.5405V24H1218.27V17.9062H1219.28V18.814C1219.61 18.249 1220.32 17.7793 1221.28 17.7793C1222.36 17.7793 1223.14 18.2617 1223.5 19.0615C1223.92 18.2681 1224.74 17.7793 1225.73 17.7793ZM1230.29 17.9062H1231.3V18.9028C1231.76 18.249 1232.56 17.7793 1233.65 17.7793C1235.39 17.7793 1236.72 19.1377 1236.72 20.9658C1236.72 22.8003 1235.39 24.127 1233.65 24.127C1232.56 24.127 1231.76 23.6509 1231.3 22.9971V26.5391H1230.29V17.9062ZM1233.55 18.6934C1232.25 18.6934 1231.29 19.709 1231.29 20.9658C1231.29 22.229 1232.25 23.2129 1233.55 23.2129C1234.82 23.2129 1235.72 22.229 1235.72 20.9658C1235.72 19.709 1234.82 18.6934 1233.55 18.6934ZM1238.36 24V15.0625H1239.37V24H1238.36ZM1241.01 20.9531C1241.01 19.1694 1242.4 17.7793 1244.25 17.7793C1246.1 17.7793 1247.49 19.1694 1247.49 20.9531C1247.49 22.7368 1246.1 24.127 1244.25 24.127C1242.4 24.127 1241.01 22.7368 1241.01 20.9531ZM1242.02 20.9531C1242.02 22.21 1242.97 23.1875 1244.25 23.1875C1245.53 23.1875 1246.48 22.21 1246.48 20.9531C1246.48 19.6963 1245.53 18.7188 1244.25 18.7188C1242.97 18.7188 1242.02 19.6963 1242.02 20.9531ZM1251.43 23.0098L1253.47 17.9062H1254.58L1251.71 24.7744C1251.19 25.9868 1250.62 26.666 1249.38 26.666C1248.9 26.666 1248.51 26.5454 1248.34 26.4565L1248.46 25.5996C1248.67 25.6948 1249.01 25.7646 1249.33 25.7646C1250.02 25.7646 1250.43 25.3267 1250.79 24.457L1250.89 24.1714L1248.26 17.9062H1249.36L1251.43 23.0098ZM1260.92 22.6162L1261.1 23.5303C1260.39 23.9429 1259.62 24.127 1258.8 24.127C1256.75 24.127 1255.34 22.832 1255.34 20.9531C1255.34 19.1377 1256.65 17.7793 1258.47 17.7793C1260.54 17.7793 1261.7 19.4487 1261.37 21.3213H1256.39C1256.56 22.521 1257.58 23.1812 1258.76 23.1812C1259.47 23.1812 1260.1 23.0605 1260.92 22.6162ZM1256.42 20.4961H1260.45C1260.38 19.4551 1259.67 18.7188 1258.51 18.7188C1257.36 18.7188 1256.51 19.4551 1256.42 20.4961ZM1264.08 17.9062V18.8076C1264.43 18.103 1265.03 17.7793 1265.73 17.7793C1266.16 17.7793 1266.48 17.8872 1266.59 17.938L1266.49 18.8711C1266.32 18.8076 1266.08 18.7188 1265.69 18.7188C1264.88 18.7188 1264.08 19.252 1264.08 20.6167V24H1263.07V17.9062H1264.08ZM1269.72 20.439L1270.36 20.5659C1271.57 20.8071 1272.21 21.353 1272.21 22.3052C1272.21 23.4922 1271.26 24.127 1269.79 24.127C1268.92 24.127 1268.07 23.9556 1267.5 23.6699L1267.64 22.7686C1268.2 23.0542 1268.98 23.2256 1269.72 23.2256C1270.69 23.2256 1271.22 22.9209 1271.22 22.356C1271.22 21.8101 1270.75 21.5815 1269.89 21.4165L1269.1 21.2578C1268.09 21.061 1267.44 20.5278 1267.44 19.5884C1267.44 18.5029 1268.4 17.7793 1269.92 17.7793C1270.65 17.7793 1271.4 17.9189 1271.87 18.1157L1271.75 18.998C1271.25 18.8013 1270.58 18.6743 1269.98 18.6743C1268.99 18.6743 1268.45 19.0044 1268.45 19.563C1268.45 20.0898 1268.86 20.2739 1269.72 20.439Z" fill="black"/>
<path d="M1281.5 14.5V25.5" stroke="#707275"/>
<path d="M1296.1 21.5942C1296.1 20.6992 1295.53 20.0454 1294.44 20.0454H1291.3V23.0605H1294.44C1295.4 23.0605 1296.1 22.5464 1296.1 21.5942ZM1291.3 16.313V19.1631H1293.94C1294.9 19.1631 1295.56 18.6172 1295.56 17.7603C1295.56 16.8779 1294.95 16.313 1293.93 16.313H1291.3ZM1290.26 24V15.3799H1293.98C1295.56 15.3799 1296.64 16.2876 1296.64 17.7539C1296.64 18.4331 1296.34 19.0615 1295.64 19.4614C1296.59 19.7788 1297.17 20.5278 1297.17 21.5879C1297.17 22.9336 1296.21 24 1294.36 24H1290.26ZM1299.89 17.9062V18.8076C1300.24 18.103 1300.84 17.7793 1301.54 17.7793C1301.97 17.7793 1302.29 17.8872 1302.4 17.938L1302.3 18.8711C1302.13 18.8076 1301.89 18.7188 1301.5 18.7188C1300.69 18.7188 1299.89 19.252 1299.89 20.6167V24H1298.88V17.9062H1299.89ZM1303.24 20.9531C1303.24 19.1694 1304.62 17.7793 1306.48 17.7793C1308.33 17.7793 1309.71 19.1694 1309.71 20.9531C1309.71 22.7368 1308.33 24.127 1306.48 24.127C1304.62 24.127 1303.24 22.7368 1303.24 20.9531ZM1304.25 20.9531C1304.25 22.21 1305.19 23.1875 1306.48 23.1875C1307.76 23.1875 1308.7 22.21 1308.7 20.9531C1308.7 19.6963 1307.76 18.7188 1306.48 18.7188C1305.19 18.7188 1304.25 19.6963 1304.25 20.9531ZM1311.34 24V15.0625H1312.35V20.4136H1313.65L1315.29 17.9062H1316.42L1314.44 20.877L1316.73 24H1315.55L1313.59 21.2832H1312.35V24H1311.34ZM1323.06 22.6162L1323.24 23.5303C1322.53 23.9429 1321.76 24.127 1320.94 24.127C1318.89 24.127 1317.48 22.832 1317.48 20.9531C1317.48 19.1377 1318.78 17.7793 1320.61 17.7793C1322.67 17.7793 1323.84 19.4487 1323.51 21.3213H1318.53C1318.7 22.521 1319.72 23.1812 1320.9 23.1812C1321.61 23.1812 1322.24 23.0605 1323.06 22.6162ZM1318.55 20.4961H1322.59C1322.52 19.4551 1321.8 18.7188 1320.64 18.7188C1319.49 18.7188 1318.65 19.4551 1318.55 20.4961ZM1326.22 17.9062V18.8076C1326.57 18.103 1327.17 17.7793 1327.87 17.7793C1328.3 17.7793 1328.62 17.8872 1328.73 17.938L1328.63 18.8711C1328.46 18.8076 1328.22 18.7188 1327.83 18.7188C1327.02 18.7188 1326.22 19.252 1326.22 20.6167V24H1325.21V17.9062H1326.22ZM1331.86 20.439L1332.49 20.5659C1333.71 20.8071 1334.35 21.353 1334.35 22.3052C1334.35 23.4922 1333.4 24.127 1331.92 24.127C1331.06 24.127 1330.21 23.9556 1329.64 23.6699L1329.78 22.7686C1330.34 23.0542 1331.12 23.2256 1331.85 23.2256C1332.83 23.2256 1333.36 22.9209 1333.36 22.356C1333.36 21.8101 1332.89 21.5815 1332.03 21.4165L1331.24 21.2578C1330.23 21.061 1329.58 20.5278 1329.58 19.5884C1329.58 18.5029 1330.54 17.7793 1332.06 17.7793C1332.79 17.7793 1333.54 17.9189 1334.01 18.1157L1333.88 18.998C1333.39 18.8013 1332.72 18.6743 1332.12 18.6743C1331.13 18.6743 1330.58 19.0044 1330.58 19.563C1330.58 20.0898 1331 20.2739 1331.86 20.439Z" fill="black"/>
<path d="M1343.5 14.5V25.5" stroke="#707275"/>
<path d="M1356.07 21.2959H1353.3V24H1352.26V15.3799H1356.07C1357.68 15.3799 1359.07 16.3193 1359.07 18.3569C1359.07 20.1978 1357.68 21.2959 1356.07 21.2959ZM1353.3 16.3384V20.3501H1355.94C1357.06 20.3501 1358 19.6011 1358 18.3633C1358 16.9922 1357.06 16.3384 1355.94 16.3384H1353.3ZM1361.6 17.9062V18.8076C1361.94 18.103 1362.55 17.7793 1363.24 17.7793C1363.68 17.7793 1363.99 17.8872 1364.11 17.938L1364.01 18.8711C1363.83 18.8076 1363.6 18.7188 1363.21 18.7188C1362.39 18.7188 1361.6 19.252 1361.6 20.6167V24H1360.58V17.9062H1361.6ZM1364.95 20.9531C1364.95 19.1694 1366.33 17.7793 1368.18 17.7793C1370.04 17.7793 1371.42 19.1694 1371.42 20.9531C1371.42 22.7368 1370.04 24.127 1368.18 24.127C1366.33 24.127 1364.95 22.7368 1364.95 20.9531ZM1365.96 20.9531C1365.96 22.21 1366.9 23.1875 1368.18 23.1875C1369.47 23.1875 1370.41 22.21 1370.41 20.9531C1370.41 19.6963 1369.47 18.7188 1368.18 18.7188C1366.9 18.7188 1365.96 19.6963 1365.96 20.9531ZM1378.45 17.9062L1375.97 24H1374.72L1372.23 17.9062H1373.31L1375.34 23.0352L1377.37 17.9062H1378.45ZM1379.74 24V17.9062H1380.75V24H1379.74ZM1380.24 16.4907C1379.88 16.4907 1379.62 16.2305 1379.62 15.8623C1379.62 15.4941 1379.88 15.2402 1380.24 15.2402C1380.61 15.2402 1380.88 15.4941 1380.88 15.8623C1380.88 16.2305 1380.61 16.4907 1380.24 16.4907ZM1387.82 24V23.0098C1387.37 23.6572 1386.57 24.127 1385.47 24.127C1383.73 24.127 1382.4 22.7686 1382.4 20.9404C1382.4 19.1123 1383.73 17.7793 1385.47 17.7793C1386.57 17.7793 1387.37 18.2554 1387.82 18.9092V15.0625H1388.83V24H1387.82ZM1385.58 23.2129C1386.88 23.2129 1387.84 22.1973 1387.84 20.9404C1387.84 19.6772 1386.88 18.6934 1385.58 18.6934C1384.31 18.6934 1383.4 19.6772 1383.4 20.9404C1383.4 22.1973 1384.31 23.2129 1385.58 23.2129ZM1396.06 22.6162L1396.23 23.5303C1395.52 23.9429 1394.75 24.127 1393.94 24.127C1391.89 24.127 1390.47 22.832 1390.47 20.9531C1390.47 19.1377 1391.78 17.7793 1393.61 17.7793C1395.67 17.7793 1396.84 19.4487 1396.51 21.3213H1391.52C1391.69 22.521 1392.71 23.1812 1393.89 23.1812C1394.6 23.1812 1395.24 23.0605 1396.06 22.6162ZM1391.55 20.4961H1395.59C1395.52 19.4551 1394.8 18.7188 1393.64 18.7188C1392.49 18.7188 1391.64 19.4551 1391.55 20.4961ZM1399.22 17.9062V18.8076C1399.56 18.103 1400.16 17.7793 1400.86 17.7793C1401.29 17.7793 1401.61 17.8872 1401.72 17.938L1401.62 18.8711C1401.45 18.8076 1401.22 18.7188 1400.82 18.7188C1400.01 18.7188 1399.22 19.252 1399.22 20.6167V24H1398.2V17.9062H1399.22ZM1404.85 20.439L1405.49 20.5659C1406.7 20.8071 1407.34 21.353 1407.34 22.3052C1407.34 23.4922 1406.4 24.127 1404.92 24.127C1404.05 24.127 1403.2 23.9556 1402.63 23.6699L1402.77 22.7686C1403.33 23.0542 1404.11 23.2256 1404.85 23.2256C1405.82 23.2256 1406.35 22.9209 1406.35 22.356C1406.35 21.8101 1405.88 21.5815 1405.02 21.4165L1404.23 21.2578C1403.22 21.061 1402.57 20.5278 1402.57 19.5884C1402.57 18.5029 1403.53 17.7793 1405.05 17.7793C1405.79 17.7793 1406.53 17.9189 1407.01 18.1157L1406.88 18.998C1406.38 18.8013 1405.71 18.6743 1405.11 18.6743C1404.12 18.6743 1403.58 19.0044 1403.58 19.563C1403.58 20.0898 1404 20.2739 1404.85 20.439Z" fill="black"/>
</g>
<rect x="0.5" y="0.5" width="1439" height="127" rx="7.5" stroke="#E9E9E9"/>
<defs>
<clipPath id="clip0_2553_6996">
<rect width="1440" height="128" rx="8" fill="white"/>
</clipPath>
</defs>
</svg>
