<svg width="376" height="750" viewBox="0 0 376 750" fill="none" xmlns="http://www.w3.org/2000/svg">
<g clip-path="url(#clip0_6923_5374)">
<rect width="376" height="750" fill="white"/>
<path d="M40.1553 28H33.3535V18.7168H40.0117V19.7422H34.4814V22.7158H39.2939V23.7412H34.4814V26.9814H40.1553V28ZM45.2686 21.3008C46.998 21.3008 48.0371 22.3193 48.0371 24.0078V28H46.957V24.2744C46.957 22.9961 46.2871 22.3262 45.0977 22.3262C43.9766 22.3262 43.0674 23.0986 43.0674 24.2949V28H41.9805V21.4375H43.0742V22.4219C43.4434 21.8135 44.2227 21.3008 45.2686 21.3008ZM55.5635 26.9199C55.085 27.6104 54.21 28.1367 53.0342 28.1367C51.1543 28.1367 49.7256 26.6738 49.7256 24.6982C49.7256 22.7295 51.1543 21.3008 53.0342 21.3008C54.21 21.3008 55.0713 21.8066 55.5635 22.5107V21.4375H56.6504V27.5625C56.6504 29.4697 55.3447 30.8711 52.9385 30.8711C52.125 30.8711 51.0449 30.6865 50.3545 30.3242L50.5254 29.333C51.2568 29.6953 52.125 29.8867 52.9316 29.8867C54.4561 29.8867 55.5635 29.1143 55.5635 27.6445V26.9199ZM53.1436 22.2852C51.7764 22.2852 50.8057 23.3447 50.8057 24.6982C50.8057 26.0586 51.7764 27.1523 53.1436 27.1523C54.5449 27.1523 55.5771 26.0586 55.5771 24.6982C55.5771 23.3447 54.5449 22.2852 53.1436 22.2852ZM58.9199 28V18.375H60.0068V28H58.9199ZM62.2832 28V21.4375H63.3701V28H62.2832ZM62.8232 19.9131C62.4268 19.9131 62.1533 19.6328 62.1533 19.2363C62.1533 18.8398 62.4268 18.5664 62.8232 18.5664C63.2197 18.5664 63.5068 18.8398 63.5068 19.2363C63.5068 19.6328 63.2197 19.9131 62.8232 19.9131ZM67.6016 24.165L68.2852 24.3018C69.5908 24.5615 70.2812 25.1494 70.2812 26.1748C70.2812 27.4531 69.2627 28.1367 67.6699 28.1367C66.7402 28.1367 65.8242 27.9521 65.209 27.6445L65.3594 26.6738C65.9609 26.9814 66.8018 27.166 67.5947 27.166C68.6475 27.166 69.2148 26.8379 69.2148 26.2295C69.2148 25.6416 68.709 25.3955 67.7861 25.2178L66.9316 25.0469C65.8447 24.835 65.1475 24.2607 65.1475 23.249C65.1475 22.0801 66.1797 21.3008 67.8135 21.3008C68.6064 21.3008 69.4062 21.4512 69.9189 21.6631L69.7822 22.6133C69.249 22.4014 68.5244 22.2646 67.8818 22.2646C66.8154 22.2646 66.2275 22.6201 66.2275 23.2217C66.2275 23.7891 66.6787 23.9873 67.6016 24.165ZM75.2783 21.3008C76.9941 21.3008 78.0332 22.3193 78.0332 24.0078V28H76.9531V24.2744C76.9531 22.9961 76.2832 22.3262 75.1074 22.3262C73.9863 22.3262 73.0771 23.0986 73.0771 24.2949V28H71.9902V18.375H73.084V22.4219C73.4531 21.8135 74.2324 21.3008 75.2783 21.3008Z" fill="#162C55"/>
<path d="M91.4375 21.5625L95.4844 25.6094L99.5312 21.5625" stroke="#162C55" stroke-linecap="square"/>
<rect x="229" y="8" width="32" height="32" rx="16" fill="#162C55"/>
<path fill-rule="evenodd" clip-rule="evenodd" d="M247.505 25.2416C246.764 25.7361 245.894 26 245.003 26C243.81 25.9974 242.666 25.5224 241.822 24.6791C240.978 23.8357 240.503 22.6927 240.5 21.5C240.5 20.61 240.765 19.74 241.259 18.9999C241.754 18.2599 242.457 17.6831 243.28 17.3425C244.103 17.0019 245.008 16.9128 245.881 17.0865C246.755 17.2601 247.557 17.6887 248.187 18.318C248.817 18.9474 249.245 19.7492 249.419 20.6221C249.593 21.495 249.504 22.3998 249.163 23.2221C248.822 24.0443 248.245 24.7471 247.505 25.2416ZM246.949 18.5899C246.373 18.2053 245.696 18 245.003 18C244.074 18 243.184 18.3688 242.527 19.0251C241.87 19.6815 241.501 20.5717 241.501 21.5C241.501 22.1922 241.706 22.8689 242.091 23.4445C242.476 24.0201 243.023 24.4687 243.663 24.7336C244.303 24.9985 245.007 25.0678 245.686 24.9328C246.366 24.7977 246.99 24.4644 247.479 23.9749C247.969 23.4854 248.303 22.8618 248.438 22.1828C248.573 21.5039 248.504 20.8002 248.238 20.1606C247.973 19.5211 247.525 18.9744 246.949 18.5899ZM248.251 28.1873C249.272 28.6395 250.177 29.3174 250.897 30.17C250.974 30.2751 251.012 30.4041 251.003 30.5342C250.993 30.6642 250.938 30.7868 250.847 30.88C250.766 30.9566 250.659 30.9995 250.547 31C250.48 30.999 250.413 30.9832 250.353 30.9538C250.292 30.9245 250.239 30.8822 250.197 30.83C249.56 30.0834 248.761 29.4911 247.862 29.0978C246.962 28.7046 245.985 28.5207 245.004 28.56C244.023 28.5473 243.05 28.7442 242.151 29.1374C241.252 29.5306 240.447 30.1111 239.791 30.84C239.75 30.8866 239.7 30.924 239.644 30.9496C239.588 30.9752 239.527 30.9884 239.466 30.9884C239.404 30.9884 239.343 30.9752 239.287 30.9496C239.231 30.924 239.181 30.8866 239.14 30.84C239.053 30.7426 239.004 30.6161 239.004 30.485C239.004 30.3539 239.053 30.2274 239.14 30.13C239.882 29.3141 240.788 28.6636 241.798 28.2208C242.808 27.778 243.901 27.5529 245.004 27.56C246.12 27.5207 247.23 27.7352 248.251 28.1873Z" fill="white"/>
<path d="M274.277 18.7168L278.112 28H276.93L276.068 25.8467H271.167L270.306 28H269.109L272.951 18.7168H274.277ZM273.614 19.8926L271.522 24.8828H275.699L273.614 19.8926ZM278.844 24.6982C278.844 22.6816 280.341 21.3008 282.535 21.3008C283.424 21.3008 284.183 21.5605 284.504 21.7383L284.388 22.7158C283.95 22.5039 283.294 22.3193 282.535 22.3193C280.997 22.3193 279.944 23.2832 279.944 24.6982C279.944 26.127 281.004 27.1182 282.549 27.1182C283.212 27.1182 283.957 26.9473 284.442 26.7012L284.62 27.6924C284.039 27.9521 283.273 28.1367 282.549 28.1367C280.348 28.1367 278.844 26.7422 278.844 24.6982ZM285.762 24.6982C285.762 22.6816 287.259 21.3008 289.453 21.3008C290.342 21.3008 291.101 21.5605 291.422 21.7383L291.306 22.7158C290.868 22.5039 290.212 22.3193 289.453 22.3193C287.915 22.3193 286.862 23.2832 286.862 24.6982C286.862 26.127 287.922 27.1182 289.467 27.1182C290.13 27.1182 290.875 26.9473 291.36 26.7012L291.538 27.6924C290.957 27.9521 290.191 28.1367 289.467 28.1367C287.266 28.1367 285.762 26.7422 285.762 24.6982ZM292.673 24.7188C292.673 22.7979 294.163 21.3008 296.159 21.3008C298.155 21.3008 299.646 22.7979 299.646 24.7188C299.646 26.6396 298.155 28.1367 296.159 28.1367C294.163 28.1367 292.673 26.6396 292.673 24.7188ZM293.76 24.7188C293.76 26.0723 294.778 27.125 296.159 27.125C297.54 27.125 298.559 26.0723 298.559 24.7188C298.559 23.3652 297.54 22.3125 296.159 22.3125C294.778 22.3125 293.76 23.3652 293.76 24.7188ZM306.181 25.1768V21.4375H307.254V25.334C307.254 26.9814 306.092 28.1367 304.28 28.1367C302.469 28.1367 301.307 26.9951 301.307 25.375V21.4375H302.387V25.1768C302.387 26.4072 303.146 27.1182 304.28 27.1182C305.422 27.1182 306.181 26.4072 306.181 25.1768ZM312.716 21.3008C314.445 21.3008 315.484 22.3193 315.484 24.0078V28H314.404V24.2744C314.404 22.9961 313.734 22.3262 312.545 22.3262C311.424 22.3262 310.515 23.0986 310.515 24.2949V28H309.428V21.4375H310.521V22.4219C310.891 21.8135 311.67 21.3008 312.716 21.3008ZM321.233 22.374H319.142V25.9219C319.142 26.7832 319.606 27.1592 320.276 27.1592C320.632 27.1592 321.083 27.0908 321.397 26.9746L321.541 27.9111C321.261 28.0342 320.693 28.1367 320.16 28.1367C318.896 28.1367 318.055 27.4395 318.055 26.0996V22.374H316.845V21.4375H318.062V19.332H319.135V21.4375H321.233V22.374Z" fill="#162C55"/>
<path d="M333.438 21.5625L337.484 25.6094L341.531 21.5625" stroke="#162C55" stroke-linecap="square"/>
<rect x="16" y="48" width="344" height="72" rx="36" fill="#FBF9F7"/>
<path d="M145.069 68C145.069 68 140.052 70.5152 134.034 70.5152C128.015 70.5152 122.998 68 122.998 68C121.426 70.8041 121.089 73.9132 121.065 77.0256C120.985 86.9209 126.353 95.9821 134.034 99.9935C141.718 95.9821 147.079 86.9209 146.999 77.0256C146.975 73.9099 146.638 70.8041 145.069 68Z" fill="#0095DA"/>
<path d="M143.674 98.4487H143.898C144.054 98.4487 144.175 98.4292 144.238 98.3903C144.305 98.3546 144.335 98.2864 144.335 98.1956C144.335 98.1079 144.308 98.0365 144.241 98.0138C144.181 97.9716 144.078 97.9554 143.924 97.9554H143.667V98.4487H143.674ZM143.507 97.8256H144.074C144.218 97.8256 144.328 97.858 144.415 97.9262C144.498 97.9814 144.538 98.0657 144.538 98.1826C144.538 98.387 144.415 98.5136 144.165 98.5558C144.261 98.6142 144.335 98.6759 144.378 98.7375C144.422 98.796 144.495 98.9452 144.595 99.1724H144.388C144.261 98.9063 144.168 98.7408 144.094 98.6791C144.024 98.6142 143.911 98.5753 143.754 98.5753H143.674V99.1724H143.507V97.8256ZM145.373 98.4844C145.373 98.1242 145.243 97.8061 144.979 97.5562C144.715 97.2933 144.398 97.1635 144.031 97.1635C143.661 97.1635 143.347 97.2901 143.083 97.5562C142.819 97.8061 142.692 98.1242 142.692 98.4844C142.692 98.8446 142.819 99.153 143.083 99.4191C143.347 99.6755 143.657 99.8053 144.031 99.8053C144.398 99.8053 144.715 99.6755 144.979 99.4191C145.243 99.1562 145.373 98.8446 145.373 98.4844ZM142.492 98.4844C142.492 98.0722 142.639 97.712 142.946 97.4134C143.243 97.1246 143.604 96.9785 144.028 96.9785C144.452 96.9785 144.812 97.1246 145.113 97.4134C145.413 97.712 145.567 98.0722 145.567 98.4844C145.567 98.8998 145.416 99.2601 145.113 99.5521C144.812 99.8442 144.452 100 144.028 100C143.604 100 143.243 99.8475 142.946 99.5521C142.639 99.2601 142.492 98.8998 142.492 98.4844Z" fill="#0095DA"/>
<path d="M60.2193 99.101C59.9623 99.2114 59.5283 99.4028 58.7005 99.4028C57.0949 99.4028 56 98.4454 56 97.0434C56 95.6446 57.0916 94.6872 58.6905 94.6872C59.3214 94.6872 59.8922 94.8527 60.1592 94.9761L60.0858 95.6446C59.8321 95.5278 59.318 95.3623 58.6905 95.3623C57.5555 95.3623 56.7844 96.0438 56.7844 97.0434C56.7844 98.0463 57.5956 98.7343 58.7806 98.7343C59.3381 98.7343 59.8354 98.5818 60.1125 98.4292L60.2193 99.101Z" fill="black"/>
<path d="M66.2547 98.3838H63.878L63.4975 99.3379H62.7197L64.6625 94.7521H65.4603L67.4097 99.3379H66.6319L66.2547 98.3838ZM64.075 97.7931H66.0344L65.0631 95.5473L64.075 97.7931Z" fill="black"/>
<path d="M73.5412 99.3379H70.123V94.7521H70.8541V98.6921H73.5379V99.3379H73.5412Z" fill="black"/>
<path d="M77.0265 99.3379H76.2988V94.7521H77.0265V99.3379Z" fill="black"/>
<path d="M81.0519 99.3379H80.3242V94.7521H83.6055V95.398H81.0519V96.6767H83.0548V97.3225H81.0519V99.3379Z" fill="black"/>
<path d="M88.4462 94.6872C89.8815 94.6872 90.943 95.6868 90.943 97.0694C90.943 98.4422 89.8815 99.4061 88.4462 99.4061C87.0375 99.4061 85.9727 98.4454 85.9727 97.0694C85.9727 95.6836 87.0342 94.6872 88.4462 94.6872ZM88.4462 98.7343C89.4843 98.7343 90.1786 98.0625 90.1786 97.0629C90.1786 96.0665 89.4843 95.359 88.4462 95.359C87.4347 95.359 86.7437 96.0665 86.7437 97.0629C86.7437 98.0625 87.4347 98.7343 88.4462 98.7343Z" fill="black"/>
<path d="M95.9832 97.9327H94.6847V99.3379H93.957V94.7521H96.0934C96.978 94.7521 97.7391 95.2552 97.7391 96.3521C97.7391 97.0856 97.3218 97.5984 96.7477 97.8158L98.0395 99.3314H97.1482L95.9832 97.9327ZM94.6847 95.398V97.2966H95.9565C96.5207 97.2966 96.978 96.9428 96.978 96.3619C96.978 95.7193 96.5207 95.4012 95.9565 95.4012H94.6847V95.398Z" fill="black"/>
<path d="M101.605 99.3379H100.877V94.7521H101.605L104.616 98.2475V94.7521H105.343V99.3379H104.606L101.601 95.8783V99.3379H101.605Z" fill="black"/>
<path d="M109.372 99.3379H108.645V94.7521H109.372V99.3379Z" fill="black"/>
<path d="M115.632 98.3838H113.255L112.874 99.3379H112.097L114.039 94.7521H114.837L116.787 99.3379H116.009L115.632 98.3838ZM113.452 97.7931H115.411L114.44 95.5473L113.452 97.7931Z" fill="black"/>
<path d="M56.1465 91.0004V69.4377H58.0358V79.1318C59.1708 77.3696 61.4373 75.9935 64.3047 75.9935C68.6676 75.9935 71.9589 79.346 71.9589 83.6657C71.9589 87.9692 68.6676 91.3087 64.3047 91.3087C61.454 91.3087 59.1841 89.9619 58.0358 88.2158V91.0036H56.1465V91.0004ZM70.103 83.6657C70.103 80.2807 67.566 77.6779 64.1812 77.6779C60.6228 77.6779 57.9424 80.2807 57.9424 83.6657C57.9424 87.0182 60.6195 89.6243 64.1812 89.6243C67.566 89.6211 70.103 87.0182 70.103 83.6657Z" fill="black"/>
<path d="M76.4189 69.4377H78.3083V91.0004H76.4189V69.4377Z" fill="black"/>
<path d="M95.3992 76.2986H97.2585V85.0288C97.2585 88.6897 94.7082 91.3087 90.4388 91.3087C86.1694 91.3087 83.6191 88.6897 83.6191 85.1229V76.3018H85.4784V84.74C85.4784 87.9854 87.4479 89.5951 90.4388 89.5951C93.4297 89.5951 95.3992 87.9886 95.3992 84.74V76.2986Z" fill="black"/>
<path d="M115.621 89.8515C113.842 90.8933 111.953 91.3055 109.996 91.3055C104.893 91.3055 101.381 88.1801 101.381 83.6495C101.381 79.2681 104.609 75.9935 109.162 75.9935C114.486 75.9935 117.117 80.0503 116.392 84.3245H103.414C103.714 87.7095 106.849 89.5627 109.776 89.5627C111.525 89.5627 113.178 89.4264 115.21 88.2158L115.621 89.8515ZM114.626 82.7602C114.486 79.8653 112.5 77.7363 109.222 77.7363C106.007 77.7363 103.677 79.8491 103.457 82.7602H114.626Z" fill="black"/>
<path d="M56.1465 91.0004V69.4377H58.0358V79.1318C59.1708 77.3696 61.4373 75.9935 64.3047 75.9935C68.6676 75.9935 71.9589 79.346 71.9589 83.6657C71.9589 87.9692 68.6676 91.3087 64.3047 91.3087C61.454 91.3087 59.1841 89.9619 58.0358 88.2158V91.0036H56.1465V91.0004ZM70.103 83.6657C70.103 80.2807 67.566 77.6779 64.1812 77.6779C60.6228 77.6779 57.9424 80.2807 57.9424 83.6657C57.9424 87.0182 60.6195 89.6243 64.1812 89.6243C67.566 89.6211 70.103 87.0182 70.103 83.6657Z" fill="black"/>
<path d="M76.4189 69.4377H78.3083V91.0004H76.4189V69.4377Z" fill="black"/>
<path d="M95.3992 76.2986H97.2585V85.0288C97.2585 88.6897 94.7082 91.3087 90.4388 91.3087C86.1694 91.3087 83.6191 88.6897 83.6191 85.1229V76.3018H85.4784V84.74C85.4784 87.9854 87.4479 89.5951 90.4388 89.5951C93.4297 89.5951 95.3992 87.9886 95.3992 84.74V76.2986Z" fill="black"/>
<path d="M115.621 89.8515C113.842 90.8933 111.953 91.3055 109.996 91.3055C104.893 91.3055 101.381 88.1801 101.381 83.6495C101.381 79.2681 104.609 75.9935 109.162 75.9935C114.486 75.9935 117.117 80.0503 116.392 84.3245H103.414C103.714 87.7095 106.849 89.5627 109.776 89.5627C111.525 89.5627 113.178 89.4264 115.21 88.2158L115.621 89.8515ZM114.626 82.7602C114.486 79.8653 112.5 77.7363 109.222 77.7363C106.007 77.7363 103.677 79.8491 103.457 82.7602H114.626Z" fill="black"/>
<path fill-rule="evenodd" clip-rule="evenodd" d="M295 75H321C321.265 75 321.52 74.8946 321.707 74.7071C321.895 74.5196 322 74.2652 322 74C322 73.7348 321.895 73.4804 321.707 73.2929C321.52 73.1054 321.265 73 321 73H295C294.735 73 294.48 73.1054 294.293 73.2929C294.105 73.4804 294 73.7348 294 74C294 74.2652 294.105 74.5196 294.293 74.7071C294.48 74.8946 294.735 75 295 75ZM321 83H295C294.735 83 294.48 83.1054 294.293 83.2929C294.105 83.4804 294 83.7348 294 84C294 84.2652 294.105 84.5196 294.293 84.7071C294.48 84.8946 294.735 85 295 85H321C321.265 85 321.52 84.8946 321.707 84.7071C321.895 84.5196 322 84.2652 322 84C322 83.7348 321.895 83.4804 321.707 83.2929C321.52 83.1054 321.265 83 321 83ZM295 93H321C321.265 93 321.52 93.1054 321.707 93.2929C321.895 93.4804 322 93.7348 322 94C322 94.2652 321.895 94.5196 321.707 94.7071C321.52 94.8946 321.265 95 321 95H295C294.735 95 294.48 94.8946 294.293 94.7071C294.105 94.5196 294 94.2652 294 94C294 93.7348 294.105 93.4804 294.293 93.2929C294.48 93.1054 294.735 93 295 93Z" fill="#162C55"/>
<path d="M37.72 141.485C37.6542 141.486 37.589 141.473 37.528 141.448C37.4671 141.423 37.4117 141.387 37.365 141.34L34 137.985L37.34 134.645C37.4337 134.552 37.5604 134.5 37.6925 134.5C37.8246 134.5 37.9513 134.552 38.045 134.645C38.0919 134.692 38.1291 134.747 38.1544 134.808C38.1798 134.869 38.1929 134.934 38.1929 135C38.1929 135.066 38.1798 135.132 38.1544 135.193C38.1291 135.254 38.0919 135.309 38.045 135.355L35.415 137.985L38.075 140.645C38.1219 140.692 38.1591 140.747 38.1844 140.808C38.2098 140.869 38.2229 140.934 38.2229 141C38.2229 141.066 38.2098 141.132 38.1844 141.193C38.1591 141.254 38.1219 141.309 38.075 141.355C37.9782 141.444 37.8508 141.49 37.72 141.485V141.485Z" fill="#94989E"/>
<path d="M49.2568 133.38H52.7861C55.6616 133.38 57.1343 135.151 57.1343 137.696C57.1343 140.337 55.6553 142 52.7734 142H49.2568V133.38ZM52.7227 134.338H50.3042V141.042H52.7227C54.9507 141.042 56.0679 139.835 56.0679 137.696C56.0679 135.621 54.9507 134.338 52.7227 134.338ZM64.8467 135.906V142H63.8374V140.997C63.3804 141.651 62.5806 142.127 61.4888 142.127C59.7432 142.127 58.4165 140.769 58.4165 138.934C58.4165 137.106 59.7432 135.779 61.4888 135.779C62.5806 135.779 63.3804 136.249 63.8374 136.903V135.906H64.8467ZM61.5903 136.693C60.3208 136.693 59.4194 137.677 59.4194 138.934C59.4194 140.197 60.3208 141.213 61.5903 141.213C62.8916 141.213 63.8501 140.197 63.8501 138.934C63.8501 137.677 62.8916 136.693 61.5903 136.693ZM68.7695 138.439L69.4043 138.566C70.6167 138.807 71.2578 139.353 71.2578 140.305C71.2578 141.492 70.312 142.127 68.833 142.127C67.9697 142.127 67.1191 141.956 66.5479 141.67L66.6875 140.769C67.2461 141.054 68.0269 141.226 68.7632 141.226C69.7407 141.226 70.2676 140.921 70.2676 140.356C70.2676 139.81 69.7979 139.582 68.9409 139.417L68.1475 139.258C67.1382 139.061 66.4907 138.528 66.4907 137.588C66.4907 136.503 67.4492 135.779 68.9663 135.779C69.7026 135.779 70.4453 135.919 70.9214 136.116L70.7944 136.998C70.2993 136.801 69.6265 136.674 69.0298 136.674C68.0396 136.674 67.4937 137.004 67.4937 137.563C67.4937 138.09 67.9126 138.274 68.7695 138.439ZM75.8979 135.779C77.4912 135.779 78.4561 136.725 78.4561 138.293V142H77.4531V138.541C77.4531 137.354 76.8311 136.731 75.7393 136.731C74.6982 136.731 73.854 137.449 73.854 138.56V142H72.8447V133.062H73.8604V136.82C74.2031 136.255 74.9268 135.779 75.8979 135.779ZM81.4966 142H80.4873V133.062H81.4966V136.909C81.9536 136.255 82.7534 135.779 83.8452 135.779C85.5908 135.779 86.9175 137.112 86.9175 138.94C86.9175 140.769 85.5908 142.127 83.8452 142.127C82.7534 142.127 81.9536 141.657 81.4966 141.01V142ZM83.7437 141.213C85.0132 141.213 85.9146 140.197 85.9146 138.94C85.9146 137.677 85.0132 136.693 83.7437 136.693C82.4424 136.693 81.4839 137.677 81.4839 138.94C81.4839 140.197 82.4424 141.213 83.7437 141.213ZM88.0854 138.953C88.0854 137.169 89.4692 135.779 91.3228 135.779C93.1763 135.779 94.5601 137.169 94.5601 138.953C94.5601 140.737 93.1763 142.127 91.3228 142.127C89.4692 142.127 88.0854 140.737 88.0854 138.953ZM89.0947 138.953C89.0947 140.21 90.0405 141.188 91.3228 141.188C92.605 141.188 93.5508 140.21 93.5508 138.953C93.5508 137.696 92.605 136.719 91.3228 136.719C90.0405 136.719 89.0947 137.696 89.0947 138.953ZM102.158 135.906V142H101.149V140.997C100.692 141.651 99.8921 142.127 98.8003 142.127C97.0547 142.127 95.728 140.769 95.728 138.934C95.728 137.106 97.0547 135.779 98.8003 135.779C99.8921 135.779 100.692 136.249 101.149 136.903V135.906H102.158ZM98.9019 136.693C97.6323 136.693 96.731 137.677 96.731 138.934C96.731 140.197 97.6323 141.213 98.9019 141.213C100.203 141.213 101.162 140.197 101.162 138.934C101.162 137.677 100.203 136.693 98.9019 136.693ZM105.281 135.906V136.808C105.624 136.103 106.227 135.779 106.925 135.779C107.357 135.779 107.674 135.887 107.789 135.938L107.687 136.871C107.516 136.808 107.281 136.719 106.887 136.719C106.075 136.719 105.281 137.252 105.281 138.617V142H104.266V135.906H105.281ZM114.06 142V141.01C113.603 141.657 112.803 142.127 111.711 142.127C109.966 142.127 108.639 140.769 108.639 138.94C108.639 137.112 109.966 135.779 111.711 135.779C112.803 135.779 113.603 136.255 114.06 136.909V133.062H115.069V142H114.06ZM111.813 141.213C113.114 141.213 114.073 140.197 114.073 138.94C114.073 137.677 113.114 136.693 111.813 136.693C110.543 136.693 109.642 137.677 109.642 138.94C109.642 140.197 110.543 141.213 111.813 141.213Z" fill="#707275"/>
<rect width="375" height="164" transform="translate(0 156)" fill="white"/>
<rect width="375" height="108" transform="translate(0 156)" fill="white"/>
<path d="M133.184 215.598C133.184 212.844 131.426 210.832 128.086 210.832H118.438V220.109H128.086C131.035 220.109 133.184 218.527 133.184 215.598ZM118.438 199.348V208.117H126.562C129.492 208.117 131.543 206.438 131.543 203.801C131.543 201.086 129.648 199.348 126.504 199.348H118.438ZM115.215 223V196.477H126.66C131.543 196.477 134.844 199.27 134.844 203.781C134.844 205.871 133.945 207.805 131.777 209.035C134.707 210.012 136.484 212.316 136.484 215.578C136.484 219.719 133.535 223 127.832 223H115.215ZM157.48 218.742L158.027 221.555C155.84 222.824 153.477 223.391 150.957 223.391C144.648 223.391 140.293 219.406 140.293 213.625C140.293 208.039 144.316 203.859 149.941 203.859C156.289 203.859 159.883 208.996 158.867 214.758H143.535C144.062 218.449 147.188 220.48 150.82 220.48C153.008 220.48 154.961 220.109 157.48 218.742ZM143.613 212.219H156.035C155.82 209.016 153.613 206.75 150.039 206.75C146.504 206.75 143.906 209.016 143.613 212.219ZM173.477 203.859C178.418 203.859 181.387 206.77 181.387 211.594V223H178.301V212.355C178.301 208.703 176.387 206.789 172.988 206.789C169.785 206.789 167.188 208.996 167.188 212.414V223H164.082V204.25H167.207V207.062C168.262 205.324 170.488 203.859 173.477 203.859ZM203.379 218.742L203.926 221.555C201.738 222.824 199.375 223.391 196.855 223.391C190.547 223.391 186.191 219.406 186.191 213.625C186.191 208.039 190.215 203.859 195.84 203.859C202.188 203.859 205.781 208.996 204.766 214.758H189.434C189.961 218.449 193.086 220.48 196.719 220.48C198.906 220.48 200.859 220.109 203.379 218.742ZM189.512 212.219H201.934C201.719 209.016 199.512 206.75 195.938 206.75C192.402 206.75 189.805 209.016 189.512 212.219ZM220.156 206.926H214.375V223H211.27V206.926H207.734V204.25H211.289V201.926C211.289 197.668 214.004 195.109 218.301 195.109C219.98 195.109 221.055 195.578 221.387 195.715L221.016 198.234C220.488 198 219.512 197.766 218.438 197.766C216.055 197.766 214.336 198.938 214.336 202.141V204.25H220.156V206.926ZM224.238 223V204.25H227.344V223H224.238ZM225.781 199.895C224.648 199.895 223.867 199.094 223.867 197.961C223.867 196.828 224.648 196.047 225.781 196.047C226.914 196.047 227.734 196.828 227.734 197.961C227.734 199.094 226.914 199.895 225.781 199.895ZM244.023 206.926H238.047V217.062C238.047 219.523 239.375 220.598 241.289 220.598C242.305 220.598 243.594 220.402 244.492 220.07L244.902 222.746C244.102 223.098 242.48 223.391 240.957 223.391C237.344 223.391 234.941 221.398 234.941 217.57V206.926H231.484V204.25H234.961V198.234H238.027V204.25H244.023V206.926ZM254.355 212.043L256.309 212.434C260.039 213.176 262.012 214.855 262.012 217.785C262.012 221.438 259.102 223.391 254.551 223.391C251.895 223.391 249.277 222.863 247.52 221.984L247.949 219.211C249.668 220.09 252.07 220.617 254.336 220.617C257.344 220.617 258.965 219.68 258.965 217.941C258.965 216.262 257.52 215.559 254.883 215.051L252.441 214.562C249.336 213.957 247.344 212.316 247.344 209.426C247.344 206.086 250.293 203.859 254.961 203.859C257.227 203.859 259.512 204.289 260.977 204.895L260.586 207.609C259.062 207.004 256.992 206.613 255.156 206.613C252.109 206.613 250.43 207.629 250.43 209.348C250.43 210.969 251.719 211.535 254.355 212.043Z" fill="black"/>
<mask id="path-32-outside-1_6923_5374" maskUnits="userSpaceOnUse" x="0" y="264" width="375" height="57" fill="black">
<rect fill="white" y="264" width="375" height="57"/>
<path d="M0 264H375V320H0V264Z"/>
</mask>
<path d="M375 320V319H0V320V321H375V320Z" fill="#ECEDED" mask="url(#path-32-outside-1_6923_5374)"/>
<g filter="url(#filter0_dd_6923_5374)">
<rect x="323" y="272" width="40" height="40" rx="20" fill="#B3F8FF"/>
<g clip-path="url(#clip1_6923_5374)">
<path d="M350 291.52L343.5 285.02C343.24 284.76 342.81 284.76 342.54 285.02C342.28 285.28 342.28 285.71 342.54 285.98L347.89 291.33H336.52C336.15 291.33 335.85 291.63 335.85 292C335.85 292.37 336.15 292.67 336.52 292.67H347.89L342.55 298.01C342.29 298.27 342.29 298.7 342.55 298.97C342.68 299.1 342.85 299.17 343.03 299.17C343.21 299.17 343.38 299.1 343.51 298.97L350.01 292.47C350.27 292.21 350.27 291.78 350.01 291.51L350 291.52Z" fill="#162C55"/>
</g>
</g>
<g clip-path="url(#clip2_6923_5374)">
<mask id="path-36-outside-2_6923_5374" maskUnits="userSpaceOnUse" x="0" y="264" width="130" height="57" fill="black">
<rect fill="white" y="264" width="130" height="57"/>
<path d="M0 264H130V320H0V264Z"/>
</mask>
<path d="M130 320V319H0V320V321H130V320Z" fill="#ECEDED" mask="url(#path-36-outside-2_6923_5374)"/>
<mask id="path-38-inside-3_6923_5374" fill="white">
<path d="M0 264H130V320H0V264Z"/>
</mask>
<path d="M130 320V316H0V320V324H130V320Z" fill="#B3F8FF" mask="url(#path-38-inside-3_6923_5374)"/>
<path fill-rule="evenodd" clip-rule="evenodd" d="M46.0074 287.911C46.0037 288.664 45.9011 289.414 45.7023 290.141C46.3528 290.857 46.7812 291.747 46.9358 292.702C47.0904 293.658 46.9644 294.637 46.5731 295.522C46.1818 296.407 45.542 297.16 44.7313 297.688C43.9207 298.217 42.9739 298.499 42.006 298.501C41.2855 298.502 40.5735 298.345 39.9203 298.041C39.335 298.531 38.7098 299.011 38.0646 299.466C37.0392 300.191 36.1939 300.696 35.7888 300.936C35.7126 300.979 35.6263 301.001 35.5387 301.001C35.4367 301.001 35.3372 300.969 35.2536 300.911L34.8135 300.621C34.7826 300.6 34.751 300.579 34.7186 300.557C32.201 298.877 25 294.071 25 287.911C25.0094 286.529 25.4958 285.192 26.3771 284.127C27.2584 283.062 28.4804 282.334 29.8367 282.066C32.2075 281.681 34.2633 283.001 35.5037 285.656C36.7391 283.001 38.7899 281.681 41.1657 282.066C42.5229 282.333 43.7461 283.061 44.6284 284.126C45.5106 285.191 45.9978 286.528 46.0074 287.911ZM35.5687 299.911C36.0039 299.651 36.6941 299.221 37.5044 298.651C38.0213 298.274 38.5214 297.891 39.0049 297.501C38.1651 296.871 37.5448 295.993 37.2317 294.992C36.9187 293.99 36.9289 292.915 37.2609 291.92C37.5929 290.924 38.2298 290.058 39.0814 289.445C39.933 288.831 40.9562 288.501 42.006 288.501C43.0275 288.503 44.0234 288.82 44.857 289.411C44.9583 288.917 45.0102 288.415 45.012 287.911C45.0095 286.764 44.6093 285.653 43.8798 284.768C43.1502 283.883 42.1363 283.278 41.0106 283.056C38.8049 282.696 36.9842 284.196 35.9839 287.166C35.951 287.266 35.8873 287.353 35.802 287.415C35.7167 287.476 35.614 287.51 35.5087 287.51C35.4034 287.51 35.3007 287.476 35.2154 287.415C35.1301 287.353 35.0664 287.266 35.0335 287.166C34.0432 284.196 32.2125 282.696 30.0018 283.056C28.8757 283.277 27.8612 283.882 27.1315 284.767C26.4018 285.652 26.002 286.764 26.0004 287.911C26.0004 293.616 33.0478 298.261 35.3787 299.786L35.5687 299.911ZM39.7829 296.827C40.441 297.266 41.2146 297.501 42.006 297.501C43.0672 297.501 44.085 297.079 44.8354 296.329C45.5858 295.579 46.0074 294.562 46.0074 293.501C46.0074 292.71 45.7727 291.936 45.333 291.278C44.8934 290.621 44.2684 290.108 43.5373 289.805C42.8061 289.502 42.0016 289.423 41.2254 289.578C40.4492 289.732 39.7362 290.113 39.1766 290.672C38.617 291.232 38.2359 291.944 38.0815 292.72C37.9271 293.496 38.0063 294.301 38.3092 295.031C38.612 295.762 39.1249 296.387 39.7829 296.827ZM42.5061 293.001H44.0067C44.1393 293.001 44.2666 293.053 44.3604 293.147C44.4542 293.241 44.5068 293.368 44.5068 293.501C44.5068 293.633 44.4542 293.761 44.3604 293.854C44.2666 293.948 44.1393 294.001 44.0067 294.001H42.5061V295.501C42.5061 295.633 42.4534 295.761 42.3596 295.854C42.2658 295.948 42.1386 296.001 42.006 296.001C41.8733 296.001 41.7461 295.948 41.6523 295.854C41.5585 295.761 41.5058 295.633 41.5058 295.501V294.001H40.0053C39.8726 294.001 39.7454 293.948 39.6516 293.854C39.5578 293.761 39.5051 293.633 39.5051 293.501C39.5051 293.368 39.5578 293.241 39.6516 293.147C39.7454 293.053 39.8726 293.001 40.0053 293.001H41.5058V291.501C41.5058 291.368 41.5585 291.241 41.6523 291.147C41.7461 291.053 41.8733 291.001 42.006 291.001C42.1386 291.001 42.2658 291.053 42.3596 291.147C42.4534 291.241 42.5061 291.368 42.5061 291.501V293.001Z" fill="#162C55"/>
<path d="M62.3037 293.163H62.0098L58.8857 289.663V296H57.04V286.717H58.6396L62.1533 290.873L65.6533 286.717H67.2461V296H65.4072V289.656L62.3037 293.163ZM74.752 294.1L74.998 295.521C74.3623 295.884 73.4805 296.137 72.5234 296.137C70.1992 296.137 68.709 294.763 68.709 292.719C68.709 290.709 70.1309 289.301 72.0791 289.301C74.0957 289.301 75.627 290.818 75.1963 293.245H70.4521C70.6299 294.161 71.4502 294.599 72.5303 294.599C73.3438 294.599 74.1025 294.407 74.752 294.1ZM70.4795 292.069H73.624C73.5762 291.338 73.0225 290.777 72.1201 290.777C71.1836 290.777 70.5547 291.324 70.4795 292.069ZM79.3867 296.137C77.5273 296.137 76.208 294.694 76.208 292.712C76.208 290.716 77.5273 289.301 79.3867 289.301C80.4395 289.301 81.1162 289.684 81.5537 290.23V286.368H83.2764V296H81.5537L81.5195 295.303C81.082 295.809 80.3506 296.137 79.3867 296.137ZM81.5332 292.705C81.5332 291.659 80.7812 290.873 79.749 290.873C78.7031 290.873 77.9717 291.646 77.9717 292.705C77.9717 293.744 78.7031 294.564 79.749 294.564C80.7812 294.564 81.5332 293.744 81.5332 292.705ZM86.6875 296H84.9307V289.438H86.6875V296ZM85.8057 288.337C85.2109 288.337 84.8008 287.927 84.8008 287.332C84.8008 286.737 85.2109 286.32 85.8057 286.32C86.4004 286.32 86.8174 286.73 86.8174 287.332C86.8174 287.927 86.4004 288.337 85.8057 288.337ZM87.9863 292.712C87.9863 290.579 89.5449 289.301 91.6641 289.301C92.4707 289.301 93.168 289.485 93.7285 289.738L93.5781 291.263C93.1064 291.058 92.5049 290.907 91.8555 290.907C90.6592 290.907 89.7432 291.522 89.7432 292.705C89.7432 293.826 90.6113 294.523 91.8008 294.523C92.4639 294.523 93.0381 294.359 93.6055 294.093L93.8105 295.651C93.1201 295.959 92.4844 296.137 91.6846 296.137C89.5244 296.137 87.9863 294.742 87.9863 292.712ZM97.8301 296.137C96.0254 296.137 94.665 294.694 94.665 292.705C94.665 290.716 96.0254 289.301 97.8301 289.301C98.8486 289.301 99.5391 289.69 99.9697 290.23L100.004 289.438H101.72V296H100.004L99.9697 295.207C99.5391 295.754 98.8486 296.137 97.8301 296.137ZM99.9629 292.705C99.9629 291.659 99.2178 290.866 98.1719 290.866C97.1191 290.866 96.4082 291.659 96.4082 292.705C96.4082 293.758 97.1191 294.578 98.1719 294.578C99.2178 294.578 99.9629 293.758 99.9629 292.705ZM105.124 286.375V296H103.374V286.375H105.124Z" fill="#162C55"/>
<mask id="path-42-outside-4_6923_5374" maskUnits="userSpaceOnUse" x="130" y="264" width="158" height="57" fill="black">
<rect fill="white" x="130" y="264" width="158" height="57"/>
<path d="M130 264H288V320H130V264Z"/>
</mask>
<path d="M288 320V319H130V320V321H288V320Z" fill="#ECEDED" mask="url(#path-42-outside-4_6923_5374)"/>
<path fill-rule="evenodd" clip-rule="evenodd" d="M174.224 282.683C173.555 282.238 172.77 282 171.966 282.001C171.433 281.999 170.904 282.104 170.411 282.307C169.918 282.511 169.47 282.81 169.093 283.187L163.482 288.788L169.227 294.524L174.839 288.922C175.407 288.355 175.794 287.633 175.951 286.846C176.108 286.059 176.028 285.244 175.72 284.503C175.413 283.762 174.892 283.129 174.224 282.683ZM168.518 295.231L162.773 289.496L157.161 295.098C156.399 295.858 155.971 296.89 155.971 297.965C155.971 299.041 156.399 300.072 157.161 300.833C157.923 301.593 158.956 302.021 160.034 302.021C161.111 302.021 162.145 301.593 162.907 300.833L168.518 295.231ZM170.026 281.394C170.64 281.136 171.3 281.002 171.966 281C172.629 281.004 173.285 281.139 173.896 281.397C174.506 281.654 175.06 282.03 175.526 282.501C176.47 283.448 177 284.729 177 286.065C177 287.4 176.47 288.681 175.526 289.628L163.634 301.518C163.164 301.988 162.606 302.361 161.992 302.615C161.377 302.869 160.719 303 160.054 303C159.389 303 158.731 302.869 158.116 302.615C157.502 302.361 156.944 301.988 156.474 301.518C155.53 300.572 155 299.291 155 297.955C155 296.62 155.53 295.338 156.474 294.392L168.386 282.501C168.854 282.028 169.412 281.651 170.026 281.394Z" fill="#162C55"/>
<path d="M191.559 293.088H188.585V296H187.457V286.717H191.559C193.302 286.717 194.799 287.729 194.799 289.923C194.799 291.905 193.302 293.088 191.559 293.088ZM188.585 287.749V292.069H191.429C192.632 292.069 193.644 291.263 193.644 289.93C193.644 288.453 192.632 287.749 191.429 287.749H188.585ZM197.52 289.438V290.408C197.889 289.649 198.538 289.301 199.29 289.301C199.755 289.301 200.097 289.417 200.22 289.472L200.11 290.477C199.926 290.408 199.673 290.312 199.249 290.312C198.374 290.312 197.52 290.887 197.52 292.356V296H196.426V289.438H197.52ZM207.145 294.51L207.336 295.494C206.57 295.938 205.743 296.137 204.861 296.137C202.653 296.137 201.129 294.742 201.129 292.719C201.129 290.764 202.537 289.301 204.506 289.301C206.728 289.301 207.985 291.099 207.63 293.115H202.264C202.448 294.407 203.542 295.118 204.813 295.118C205.579 295.118 206.263 294.988 207.145 294.51ZM202.291 292.227H206.639C206.563 291.105 205.791 290.312 204.54 290.312C203.303 290.312 202.394 291.105 202.291 292.227ZM211.41 292.165L212.094 292.302C213.399 292.562 214.09 293.149 214.09 294.175C214.09 295.453 213.071 296.137 211.479 296.137C210.549 296.137 209.633 295.952 209.018 295.645L209.168 294.674C209.77 294.981 210.61 295.166 211.403 295.166C212.456 295.166 213.023 294.838 213.023 294.229C213.023 293.642 212.518 293.396 211.595 293.218L210.74 293.047C209.653 292.835 208.956 292.261 208.956 291.249C208.956 290.08 209.988 289.301 211.622 289.301C212.415 289.301 213.215 289.451 213.728 289.663L213.591 290.613C213.058 290.401 212.333 290.265 211.69 290.265C210.624 290.265 210.036 290.62 210.036 291.222C210.036 291.789 210.487 291.987 211.41 292.165ZM215.293 292.698C215.293 290.682 216.79 289.301 218.984 289.301C219.873 289.301 220.632 289.561 220.953 289.738L220.837 290.716C220.399 290.504 219.743 290.319 218.984 290.319C217.446 290.319 216.394 291.283 216.394 292.698C216.394 294.127 217.453 295.118 218.998 295.118C219.661 295.118 220.406 294.947 220.892 294.701L221.069 295.692C220.488 295.952 219.723 296.137 218.998 296.137C216.797 296.137 215.293 294.742 215.293 292.698ZM223.811 289.438V290.408C224.18 289.649 224.829 289.301 225.581 289.301C226.046 289.301 226.388 289.417 226.511 289.472L226.401 290.477C226.217 290.408 225.964 290.312 225.54 290.312C224.665 290.312 223.811 290.887 223.811 292.356V296H222.717V289.438H223.811ZM227.926 296V289.438H229.013V296H227.926ZM228.466 287.913C228.069 287.913 227.796 287.633 227.796 287.236C227.796 286.84 228.069 286.566 228.466 286.566C228.862 286.566 229.149 286.84 229.149 287.236C229.149 287.633 228.862 287.913 228.466 287.913ZM231.289 289.438H232.376V290.511C232.868 289.807 233.729 289.301 234.905 289.301C236.785 289.301 238.214 290.764 238.214 292.732C238.214 294.708 236.785 296.137 234.905 296.137C233.729 296.137 232.868 295.624 232.376 294.92V298.734H231.289V289.438ZM234.796 290.285C233.395 290.285 232.362 291.379 232.362 292.732C232.362 294.093 233.395 295.152 234.796 295.152C236.163 295.152 237.134 294.093 237.134 292.732C237.134 291.379 236.163 290.285 234.796 290.285ZM243.546 290.374H241.454V293.922C241.454 294.783 241.919 295.159 242.589 295.159C242.944 295.159 243.396 295.091 243.71 294.975L243.854 295.911C243.573 296.034 243.006 296.137 242.473 296.137C241.208 296.137 240.367 295.439 240.367 294.1V290.374H239.157V289.438H240.374V287.332H241.447V289.438H243.546V290.374ZM245.207 296V289.438H246.294V296H245.207ZM245.747 287.913C245.351 287.913 245.077 287.633 245.077 287.236C245.077 286.84 245.351 286.566 245.747 286.566C246.144 286.566 246.431 286.84 246.431 287.236C246.431 287.633 246.144 287.913 245.747 287.913ZM248.058 292.719C248.058 290.798 249.548 289.301 251.544 289.301C253.54 289.301 255.03 290.798 255.03 292.719C255.03 294.64 253.54 296.137 251.544 296.137C249.548 296.137 248.058 294.64 248.058 292.719ZM249.145 292.719C249.145 294.072 250.163 295.125 251.544 295.125C252.925 295.125 253.943 294.072 253.943 292.719C253.943 291.365 252.925 290.312 251.544 290.312C250.163 290.312 249.145 291.365 249.145 292.719ZM260.075 289.301C261.805 289.301 262.844 290.319 262.844 292.008V296H261.764V292.274C261.764 290.996 261.094 290.326 259.904 290.326C258.783 290.326 257.874 291.099 257.874 292.295V296H256.787V289.438H257.881V290.422C258.25 289.813 259.029 289.301 260.075 289.301Z" fill="#162C55"/>
<mask id="path-46-outside-5_6923_5374" maskUnits="userSpaceOnUse" x="288" y="264" width="119" height="57" fill="black">
<rect fill="white" x="288" y="264" width="119" height="57"/>
<path d="M288 264H407V320H288V264Z"/>
</mask>
<path d="M407 320V319H288V320V321H407V320Z" fill="#ECEDED" mask="url(#path-46-outside-5_6923_5374)"/>
<path d="M334.5 291.461H332.965C332.841 290.521 332.383 289.656 331.674 289.021C330.966 288.387 330.053 288.025 329.1 288.001C328.148 287.977 327.218 288.293 326.478 288.89C325.738 289.488 325.237 290.329 325.065 291.262C324.746 291.062 324.377 290.956 324 290.956C323.623 290.956 323.254 291.062 322.935 291.262C322.763 290.329 322.262 289.488 321.522 288.89C320.782 288.293 319.852 287.977 318.9 288.001C317.947 288.025 317.034 288.387 316.326 289.021C315.617 289.656 315.159 290.521 315.035 291.461H313.5C313.367 291.461 313.24 291.514 313.146 291.607C313.053 291.7 313 291.827 313 291.959C313 292.091 313.053 292.217 313.146 292.311C313.24 292.404 313.367 292.456 313.5 292.456H315.035C315.157 293.395 315.61 294.26 316.314 294.896C317.019 295.532 317.928 295.897 318.878 295.927C319.829 295.956 320.758 295.647 321.501 295.056C322.244 294.465 322.75 293.63 322.93 292.7V292.675C323.023 292.468 323.173 292.292 323.362 292.165C323.551 292.038 323.772 291.967 324 291.959C324.225 291.969 324.443 292.042 324.629 292.17C324.814 292.298 324.96 292.474 325.05 292.68V292.71C325.217 293.654 325.721 294.506 326.468 295.109C327.215 295.713 328.156 296.029 329.118 295.998C330.08 295.967 330.999 295.592 331.705 294.941C332.412 294.291 332.859 293.409 332.965 292.456H334.5C334.633 292.456 334.76 292.404 334.854 292.311C334.947 292.217 335 292.091 335 291.959C335 291.827 334.947 291.7 334.854 291.607C334.76 291.514 334.633 291.461 334.5 291.461ZM319 294.945C318.407 294.945 317.827 294.77 317.333 294.441C316.84 294.113 316.455 293.647 316.228 293.101C316.001 292.556 315.942 291.956 316.058 291.376C316.173 290.797 316.459 290.265 316.879 289.848C317.298 289.43 317.833 289.146 318.415 289.03C318.997 288.915 319.6 288.974 320.148 289.2C320.696 289.426 321.165 289.809 321.494 290.3C321.824 290.791 322 291.368 322 291.959C322 292.751 321.684 293.51 321.121 294.07C320.559 294.63 319.796 294.945 319 294.945ZM329 294.945C328.407 294.945 327.827 294.77 327.333 294.441C326.84 294.113 326.455 293.647 326.228 293.101C326.001 292.556 325.942 291.956 326.058 291.376C326.173 290.797 326.459 290.265 326.879 289.848C327.298 289.43 327.833 289.146 328.415 289.03C328.997 288.915 329.6 288.974 330.148 289.2C330.696 289.426 331.165 289.809 331.494 290.3C331.824 290.791 332 291.368 332 291.959C332 292.751 331.684 293.51 331.121 294.07C330.559 294.63 329.796 294.945 329 294.945Z" fill="#162C55"/>
<path d="M348.044 296L344.312 286.717H345.508L348.734 294.811L351.968 286.717H353.157L349.432 296H348.044ZM354.442 296V289.438H355.529V296H354.442ZM354.982 287.913C354.586 287.913 354.312 287.633 354.312 287.236C354.312 286.84 354.586 286.566 354.982 286.566C355.379 286.566 355.666 286.84 355.666 287.236C355.666 287.633 355.379 287.913 354.982 287.913ZM359.761 292.165L360.444 292.302C361.75 292.562 362.44 293.149 362.44 294.175C362.44 295.453 361.422 296.137 359.829 296.137C358.899 296.137 357.983 295.952 357.368 295.645L357.519 294.674C358.12 294.981 358.961 295.166 359.754 295.166C360.807 295.166 361.374 294.838 361.374 294.229C361.374 293.642 360.868 293.396 359.945 293.218L359.091 293.047C358.004 292.835 357.307 292.261 357.307 291.249C357.307 290.08 358.339 289.301 359.973 289.301C360.766 289.301 361.565 289.451 362.078 289.663L361.941 290.613C361.408 290.401 360.684 290.265 360.041 290.265C358.975 290.265 358.387 290.62 358.387 291.222C358.387 291.789 358.838 291.987 359.761 292.165ZM364.149 296V289.438H365.236V296H364.149ZM364.689 287.913C364.293 287.913 364.02 287.633 364.02 287.236C364.02 286.84 364.293 286.566 364.689 286.566C365.086 286.566 365.373 286.84 365.373 287.236C365.373 287.633 365.086 287.913 364.689 287.913ZM367 292.719C367 290.798 368.49 289.301 370.486 289.301C372.482 289.301 373.973 290.798 373.973 292.719C373.973 294.64 372.482 296.137 370.486 296.137C368.49 296.137 367 294.64 367 292.719ZM368.087 292.719C368.087 294.072 369.105 295.125 370.486 295.125C371.867 295.125 372.886 294.072 372.886 292.719C372.886 291.365 371.867 290.312 370.486 290.312C369.105 290.312 368.087 291.365 368.087 292.719ZM379.018 289.301C380.747 289.301 381.786 290.319 381.786 292.008V296H380.706V292.274C380.706 290.996 380.036 290.326 378.847 290.326C377.726 290.326 376.816 291.099 376.816 292.295V296H375.729V289.438H376.823V290.422C377.192 289.813 377.972 289.301 379.018 289.301Z" fill="#162C55"/>
</g>
<rect x="323" y="272" width="40" height="40" rx="20" fill="#B3F8FF"/>
<g clip-path="url(#clip3_6923_5374)">
<path d="M350 291.52L343.5 285.02C343.24 284.76 342.81 284.76 342.54 285.02C342.28 285.28 342.28 285.71 342.54 285.98L347.89 291.33H336.52C336.15 291.33 335.85 291.63 335.85 292C335.85 292.37 336.15 292.67 336.52 292.67H347.89L342.55 298.01C342.29 298.27 342.29 298.7 342.55 298.97C342.68 299.1 342.85 299.17 343.03 299.17C343.21 299.17 343.38 299.1 343.51 298.97L350.01 292.47C350.27 292.21 350.27 291.78 350.01 291.51L350 291.52Z" fill="#162C55"/>
</g>
<path d="M38.2549 363.163H37.9609L34.8369 359.663V366H32.9912V356.717H34.5908L38.1045 360.873L41.6045 356.717H43.1973V366H41.3584V359.656L38.2549 363.163ZM46.208 361.379C46.208 358.569 48.2588 356.58 51.1162 356.58C53.9873 356.58 56.0312 358.576 56.0312 361.379C56.0312 364.182 53.9873 366.137 51.1162 366.137C48.2588 366.137 46.208 364.182 46.208 361.379ZM48.1084 361.372C48.1084 363.19 49.332 364.421 51.123 364.421C52.9277 364.421 54.1377 363.19 54.1377 361.372C54.1377 359.567 52.9277 358.303 51.123 358.303C49.332 358.303 48.1084 359.567 48.1084 361.372ZM62.1113 356.58C63.4102 356.58 64.3467 356.833 65.085 357.161L64.9277 358.802C64.4424 358.515 63.2393 358.207 62.2412 358.207C61.2363 358.207 60.5186 358.515 60.5186 359.28C60.5186 360.053 61.1748 360.189 61.8105 360.381L63.1504 360.777C64.6816 361.229 65.5566 361.885 65.5566 363.307C65.5566 364.954 64.1553 366.137 62.0361 366.137C60.7236 366.137 59.2402 365.809 58.5977 365.453L58.748 363.806C59.2061 364.093 60.7168 364.496 61.8721 364.496C62.8496 364.496 63.6289 364.154 63.6289 363.396C63.6289 362.808 63.2803 362.548 62.4941 362.336L61.0244 361.939C59.8418 361.618 58.5977 360.976 58.5977 359.431C58.5977 357.715 59.9443 356.58 62.1113 356.58ZM70.5703 366V358.357H67.665V356.717H75.3076V358.357H72.4092V366H70.5703ZM90.4893 363.806L90.749 365.439C89.9629 365.815 88.9922 366.137 87.5703 366.137C84.5967 366.137 82.3545 364.236 82.3545 361.358C82.3545 358.357 84.7334 356.58 87.6934 356.58C88.8145 356.58 89.8809 356.854 90.6055 357.188L90.4619 358.843C89.8672 358.556 88.917 358.289 87.8574 358.289C85.875 358.289 84.2754 359.355 84.2754 361.345C84.2754 363.231 85.752 364.469 87.8232 364.469C88.8691 364.469 89.8193 364.209 90.4893 363.806ZM93.124 361.379C93.124 358.569 95.1748 356.58 98.0322 356.58C100.903 356.58 102.947 358.576 102.947 361.379C102.947 364.182 100.903 366.137 98.0322 366.137C95.1748 366.137 93.124 364.182 93.124 361.379ZM95.0244 361.372C95.0244 363.19 96.248 364.421 98.0391 364.421C99.8438 364.421 101.054 363.19 101.054 361.372C101.054 359.567 99.8438 358.303 98.0391 358.303C96.248 358.303 95.0244 359.567 95.0244 361.372ZM111.222 363.163H110.928L107.804 359.663V366H105.958V356.717H107.558L111.071 360.873L114.571 356.717H116.164V366H114.325V359.656L111.222 363.163ZM124.917 363.163H124.623L121.499 359.663V366H119.653V356.717H121.253L124.767 360.873L128.267 356.717H129.859V366H128.021V359.656L124.917 363.163ZM132.87 361.379C132.87 358.569 134.921 356.58 137.778 356.58C140.649 356.58 142.693 358.576 142.693 361.379C142.693 364.182 140.649 366.137 137.778 366.137C134.921 366.137 132.87 364.182 132.87 361.379ZM134.771 361.372C134.771 363.19 135.994 364.421 137.785 364.421C139.59 364.421 140.8 363.19 140.8 361.372C140.8 359.567 139.59 358.303 137.785 358.303C135.994 358.303 134.771 359.567 134.771 361.372ZM147.55 359.697V366H145.704V356.717H147.379L152.718 363.088V356.717H154.563V366H152.861L147.55 359.697ZM162.909 366V356.717H167.236C168.904 356.717 170.107 357.749 170.107 359.253C170.107 360.08 169.766 360.729 168.993 361.215C170.066 361.604 170.593 362.445 170.593 363.423C170.593 364.94 169.424 366 167.708 366H162.909ZM164.755 360.613H166.99C167.749 360.613 168.2 360.142 168.2 359.458C168.2 358.727 167.653 358.303 166.922 358.303H164.755V360.613ZM164.755 364.421H167.407C168.146 364.421 168.631 363.949 168.631 363.279C168.631 362.555 168.152 362.069 167.407 362.069H164.755V364.421ZM180.576 364.407V366H173.597V356.717H180.474V358.316H175.442V360.456H179.845V362.056H175.442V364.407H180.576ZM185.419 359.697V366H183.573V356.717H185.248L190.587 363.088V356.717H192.433V366H190.73L185.419 359.697ZM202.895 364.407V366H195.915V356.717H202.792V358.316H197.761V360.456H202.163V362.056H197.761V364.407H202.895ZM207.737 362.097V366H205.892V356.717H212.502V358.316H207.737V360.497H211.477V362.097H207.737ZM217.14 356.717V366H215.294V356.717H217.14ZM222.707 366V358.357H219.802V356.717H227.444V358.357H224.546V366H222.707ZM233.176 356.58C234.475 356.58 235.411 356.833 236.149 357.161L235.992 358.802C235.507 358.515 234.304 358.207 233.306 358.207C232.301 358.207 231.583 358.515 231.583 359.28C231.583 360.053 232.239 360.189 232.875 360.381L234.215 360.777C235.746 361.229 236.621 361.885 236.621 363.307C236.621 364.954 235.22 366.137 233.101 366.137C231.788 366.137 230.305 365.809 229.662 365.453L229.812 363.806C230.271 364.093 231.781 364.496 232.937 364.496C233.914 364.496 234.693 364.154 234.693 363.396C234.693 362.808 234.345 362.548 233.559 362.336L232.089 361.939C230.906 361.618 229.662 360.976 229.662 359.431C229.662 357.715 231.009 356.58 233.176 356.58Z" fill="#707275"/>
<g clip-path="url(#clip4_6923_5374)">
<rect width="376" height="64" transform="translate(0 396)" fill="#FBF9F7"/>
<path d="M38.0469 430.375H35.2422V433.5H33.1328V422.891H38.0469C40.1875 422.891 41.9141 424.242 41.9141 426.648C41.9141 428.922 40.1875 430.375 38.0469 430.375ZM37.8047 424.719H35.2422V428.555H37.8047C38.9219 428.555 39.7422 427.781 39.7422 426.648C39.7422 425.414 38.9062 424.719 37.8047 424.719ZM45.2109 426L45.25 427.023C45.6328 426.242 46.3594 425.844 47.2031 425.844C47.6484 425.844 48.0234 425.961 48.1797 426.016L48.0234 427.805C47.8203 427.734 47.4922 427.633 47.0938 427.633C46.2109 427.633 45.2812 428.109 45.2812 429.656V433.5H43.2734V426H45.2109ZM55.8594 431.328L56.1406 432.953C55.4141 433.367 54.4062 433.656 53.3125 433.656C50.6562 433.656 48.9531 432.086 48.9531 429.75C48.9531 427.453 50.5781 425.844 52.8047 425.844C55.1094 425.844 56.8594 427.578 56.3672 430.352H50.9453C51.1484 431.398 52.0859 431.898 53.3203 431.898C54.25 431.898 55.1172 431.68 55.8594 431.328ZM50.9766 429.008H54.5703C54.5156 428.172 53.8828 427.531 52.8516 427.531C51.7812 427.531 51.0625 428.156 50.9766 429.008ZM60.6797 428.922L61.4766 429.07C62.9609 429.344 63.7031 430.016 63.7031 431.312C63.7031 432.82 62.4531 433.656 60.5312 433.656C59.4062 433.656 58.3203 433.453 57.6406 433.117L57.8516 431.477C58.5938 431.789 59.6094 432 60.375 432C61.3516 432 61.7656 431.797 61.7656 431.352C61.7656 430.953 61.4453 430.758 60.5703 430.602L59.6719 430.43C58.2266 430.18 57.5234 429.445 57.5234 428.203C57.5234 426.805 58.8203 425.844 60.8125 425.844C61.75 425.844 62.6797 426.016 63.3516 426.312L63.1797 427.945C62.6328 427.711 61.6328 427.523 60.9141 427.523C59.9297 427.523 59.4531 427.758 59.4531 428.203C59.4531 428.57 59.7812 428.758 60.6797 428.922ZM64.7188 429.742C64.7188 427.305 66.5 425.844 68.9219 425.844C69.8438 425.844 70.6406 426.055 71.2812 426.344L71.1094 428.086C70.5703 427.852 69.8828 427.68 69.1406 427.68C67.7734 427.68 66.7266 428.383 66.7266 429.734C66.7266 431.016 67.7188 431.812 69.0781 431.812C69.8359 431.812 70.4922 431.625 71.1406 431.32L71.375 433.102C70.5859 433.453 69.8594 433.656 68.9453 433.656C66.4766 433.656 64.7188 432.062 64.7188 429.742ZM74.6953 426L74.7344 427.023C75.1172 426.242 75.8438 425.844 76.6875 425.844C77.1328 425.844 77.5078 425.961 77.6641 426.016L77.5078 427.805C77.3047 427.734 76.9766 427.633 76.5781 427.633C75.6953 427.633 74.7656 428.109 74.7656 429.656V433.5H72.7578V426H74.6953ZM80.8594 433.5H78.8516V426H80.8594V433.5ZM79.8516 424.742C79.1719 424.742 78.7031 424.273 78.7031 423.594C78.7031 422.914 79.1719 422.438 79.8516 422.438C80.5312 422.438 81.0078 422.906 81.0078 423.594C81.0078 424.273 80.5312 424.742 79.8516 424.742ZM87.1953 425.844C89.3203 425.844 90.8281 427.5 90.8281 429.781C90.8281 432.047 89.3203 433.656 87.1953 433.656C86.0938 433.656 85.2578 433.281 84.7578 432.711V436.625H82.7578V426H84.6875L84.7266 426.906C85.2188 426.281 85.9922 425.844 87.1953 425.844ZM84.75 429.773C84.75 430.961 85.6094 431.859 86.7891 431.859C87.9766 431.859 88.8203 430.961 88.8203 429.773C88.8203 428.562 87.9844 427.641 86.7891 427.641C85.6016 427.641 84.75 428.578 84.75 429.773ZM97.0234 427.664H94.8984V430.75C94.8984 431.531 95.3359 431.875 96.0078 431.875C96.3828 431.875 96.8594 431.812 97.2812 431.695L97.4688 433.359C97.0078 433.539 96.2656 433.656 95.6562 433.656C94.0078 433.656 92.8984 432.805 92.8984 431.039V427.664H91.6328V426H92.9062V423.594H94.8516V426H97.0234V427.664ZM100.609 433.5H98.6016V426H100.609V433.5ZM99.6016 424.742C98.9219 424.742 98.4531 424.273 98.4531 423.594C98.4531 422.914 98.9219 422.438 99.6016 422.438C100.281 422.438 100.758 422.906 100.758 423.594C100.758 424.273 100.281 424.742 99.6016 424.742ZM102.086 429.75C102.086 427.539 103.797 425.844 106.094 425.844C108.398 425.844 110.102 427.539 110.102 429.75C110.102 431.969 108.398 433.656 106.094 433.656C103.797 433.656 102.086 431.969 102.086 429.75ZM104.078 429.75C104.078 430.953 104.922 431.844 106.094 431.844C107.273 431.844 108.109 430.953 108.109 429.75C108.109 428.555 107.273 427.664 106.094 427.664C104.922 427.664 104.078 428.555 104.078 429.75ZM115.828 425.844C117.562 425.844 118.789 426.984 118.789 428.789V433.5H116.781V429.305C116.781 428.266 116.109 427.703 115.234 427.703C114.352 427.703 113.57 428.266 113.57 429.305V433.5H111.57V426H113.477L113.516 426.867C113.906 426.344 114.711 425.844 115.828 425.844ZM127.688 433.656C125.562 433.656 124.055 432.008 124.055 429.742C124.055 427.461 125.562 425.844 127.688 425.844C128.891 425.844 129.664 426.281 130.164 426.906V422.492H132.133V433.5H130.164L130.125 432.703C129.625 433.281 128.789 433.656 127.688 433.656ZM130.141 429.734C130.141 428.539 129.281 427.641 128.102 427.641C126.906 427.641 126.07 428.523 126.07 429.734C126.07 430.922 126.906 431.859 128.102 431.859C129.281 431.859 130.141 430.922 130.141 429.734ZM135.961 426L136 427.023C136.383 426.242 137.109 425.844 137.953 425.844C138.398 425.844 138.773 425.961 138.93 426.016L138.773 427.805C138.57 427.734 138.242 427.633 137.844 427.633C136.961 427.633 136.031 428.109 136.031 429.656V433.5H134.023V426H135.961ZM145.094 430.211V426H147.094V430.414C147.094 432.312 145.664 433.656 143.547 433.656C141.422 433.656 140.039 432.328 140.039 430.461V426H142.047V430.211C142.047 431.164 142.664 431.812 143.547 431.812C144.477 431.812 145.094 431.164 145.094 430.211ZM152.125 433.656C150 433.656 148.492 432.008 148.492 429.742C148.492 427.461 150 425.844 152.125 425.844C153.328 425.844 154.102 426.281 154.602 426.906L154.641 426H156.562V433.234C156.562 435.609 154.539 436.781 152.203 436.781C150.977 436.781 149.867 436.492 149.211 436.156L149.445 434.438C150.016 434.742 151.109 435 152.07 435C153.328 435 154.562 434.438 154.562 433.188V432.656C154.109 433.258 153.227 433.656 152.125 433.656ZM154.578 429.734C154.578 428.539 153.719 427.641 152.539 427.641C151.344 427.641 150.508 428.523 150.508 429.734C150.508 430.922 151.344 431.859 152.539 431.859C153.719 431.859 154.578 430.922 154.578 429.734ZM161.891 429.742C161.891 427.305 163.672 425.844 166.094 425.844C167.016 425.844 167.812 426.055 168.453 426.344L168.281 428.086C167.742 427.852 167.055 427.68 166.312 427.68C164.945 427.68 163.898 428.383 163.898 429.734C163.898 431.016 164.891 431.812 166.25 431.812C167.008 431.812 167.664 431.625 168.312 431.32L168.547 433.102C167.758 433.453 167.031 433.656 166.117 433.656C163.648 433.656 161.891 432.062 161.891 429.742ZM169.508 429.75C169.508 427.539 171.219 425.844 173.516 425.844C175.82 425.844 177.523 427.539 177.523 429.75C177.523 431.969 175.82 433.656 173.516 433.656C171.219 433.656 169.508 431.969 169.508 429.75ZM171.5 429.75C171.5 430.953 172.344 431.844 173.516 431.844C174.695 431.844 175.531 430.953 175.531 429.75C175.531 428.555 174.695 427.664 173.516 427.664C172.344 427.664 171.5 428.555 171.5 429.75ZM182.344 431.539L184.289 426H186.414L183.562 433.5H181.125L178.266 426H180.391L182.344 431.539ZM194.078 431.328L194.359 432.953C193.633 433.367 192.625 433.656 191.531 433.656C188.875 433.656 187.172 432.086 187.172 429.75C187.172 427.453 188.797 425.844 191.023 425.844C193.328 425.844 195.078 427.578 194.586 430.352H189.164C189.367 431.398 190.305 431.898 191.539 431.898C192.469 431.898 193.336 431.68 194.078 431.328ZM189.195 429.008H192.789C192.734 428.172 192.102 427.531 191.07 427.531C190 427.531 189.281 428.156 189.195 429.008ZM198.086 426L198.125 427.023C198.508 426.242 199.234 425.844 200.078 425.844C200.523 425.844 200.898 425.961 201.055 426.016L200.898 427.805C200.695 427.734 200.367 427.633 199.969 427.633C199.086 427.633 198.156 428.109 198.156 429.656V433.5H196.148V426H198.086ZM205.453 433.656C203.391 433.656 201.836 432.008 201.836 429.734C201.836 427.461 203.391 425.844 205.453 425.844C206.617 425.844 207.406 426.289 207.898 426.906L207.938 426H209.898V433.5H207.938L207.898 432.594C207.406 433.219 206.617 433.656 205.453 433.656ZM207.891 429.734C207.891 428.539 207.039 427.633 205.844 427.633C204.641 427.633 203.828 428.539 203.828 429.734C203.828 430.938 204.641 431.875 205.844 431.875C207.039 431.875 207.891 430.938 207.891 429.734ZM215.016 433.656C212.891 433.656 211.383 432.008 211.383 429.742C211.383 427.461 212.891 425.844 215.016 425.844C216.219 425.844 216.992 426.281 217.492 426.906L217.531 426H219.453V433.234C219.453 435.609 217.43 436.781 215.094 436.781C213.867 436.781 212.758 436.492 212.102 436.156L212.336 434.438C212.906 434.742 214 435 214.961 435C216.219 435 217.453 434.438 217.453 433.188V432.656C217 433.258 216.117 433.656 215.016 433.656ZM217.469 429.734C217.469 428.539 216.609 427.641 215.43 427.641C214.234 427.641 213.398 428.523 213.398 429.734C213.398 430.922 214.234 431.859 215.43 431.859C216.609 431.859 217.469 430.922 217.469 429.734ZM227.844 431.328L228.125 432.953C227.398 433.367 226.391 433.656 225.297 433.656C222.641 433.656 220.938 432.086 220.938 429.75C220.938 427.453 222.562 425.844 224.789 425.844C227.094 425.844 228.844 427.578 228.352 430.352H222.93C223.133 431.398 224.07 431.898 225.305 431.898C226.234 431.898 227.102 431.68 227.844 431.328ZM222.961 429.008H226.555C226.5 428.172 225.867 427.531 224.836 427.531C223.766 427.531 223.047 428.156 222.961 429.008Z" fill="black"/>
<path fill-rule="evenodd" clip-rule="evenodd" d="M337.297 424.289C337.69 423.901 338.323 423.904 338.711 424.297L344 429.648L349.289 424.297C349.677 423.904 350.31 423.901 350.703 424.289C351.096 424.677 351.099 425.31 350.711 425.703L344 432.492L337.289 425.703C336.901 425.31 336.904 424.677 337.297 424.289Z" fill="#0071BC"/>
</g>
<g clip-path="url(#clip5_6923_5374)">
<rect width="376" height="64" transform="translate(0 484)" fill="#FBF9F7"/>
<path d="M38.0469 518.375H35.2422V521.5H33.1328V510.891H38.0469C40.1875 510.891 41.9141 512.242 41.9141 514.648C41.9141 516.922 40.1875 518.375 38.0469 518.375ZM37.8047 512.719H35.2422V516.555H37.8047C38.9219 516.555 39.7422 515.781 39.7422 514.648C39.7422 513.414 38.9062 512.719 37.8047 512.719ZM47.5312 513.844C49.25 513.844 50.4766 514.984 50.4766 516.789V521.5H48.4688V517.305C48.4688 516.266 47.8047 515.703 46.9375 515.703C46.0625 515.703 45.2812 516.266 45.2812 517.305V521.5H43.2734V510.5H45.2812V514.797C45.6719 514.32 46.4531 513.844 47.5312 513.844ZM55.7188 519.461L57.6562 514H59.8828L56.3438 522.523C55.7422 523.961 54.8203 524.781 53.2109 524.781C52.6094 524.781 52.1094 524.617 51.7812 524.453L52.0312 522.844C52.2891 522.953 52.6406 523.039 52.9766 523.039C53.8125 523.039 54.4062 522.453 54.6406 521.508L51.5391 514H53.7578L55.7188 519.461ZM63.7422 516.922L64.5391 517.07C66.0234 517.344 66.7656 518.016 66.7656 519.312C66.7656 520.82 65.5156 521.656 63.5938 521.656C62.4688 521.656 61.3828 521.453 60.7031 521.117L60.9141 519.477C61.6562 519.789 62.6719 520 63.4375 520C64.4141 520 64.8281 519.797 64.8281 519.352C64.8281 518.953 64.5078 518.758 63.6328 518.602L62.7344 518.43C61.2891 518.18 60.5859 517.445 60.5859 516.203C60.5859 514.805 61.8828 513.844 63.875 513.844C64.8125 513.844 65.7422 514.016 66.4141 514.312L66.2422 515.945C65.6953 515.711 64.6953 515.523 63.9766 515.523C62.9922 515.523 62.5156 515.758 62.5156 516.203C62.5156 516.57 62.8438 516.758 63.7422 516.922ZM70.2031 521.5H68.1953V514H70.2031V521.5ZM69.1953 512.742C68.5156 512.742 68.0469 512.273 68.0469 511.594C68.0469 510.914 68.5156 510.438 69.1953 510.438C69.875 510.438 70.3516 510.906 70.3516 511.594C70.3516 512.273 69.875 512.742 69.1953 512.742ZM71.6875 517.742C71.6875 515.305 73.4688 513.844 75.8906 513.844C76.8125 513.844 77.6094 514.055 78.25 514.344L78.0781 516.086C77.5391 515.852 76.8516 515.68 76.1094 515.68C74.7422 515.68 73.6953 516.383 73.6953 517.734C73.6953 519.016 74.6875 519.812 76.0469 519.812C76.8047 519.812 77.4609 519.625 78.1094 519.32L78.3438 521.102C77.5547 521.453 76.8281 521.656 75.9141 521.656C73.4453 521.656 71.6875 520.062 71.6875 517.742ZM81.7344 521.5H79.7266V514H81.7344V521.5ZM80.7266 512.742C80.0469 512.742 79.5781 512.273 79.5781 511.594C79.5781 510.914 80.0469 510.438 80.7266 510.438C81.4062 510.438 81.8828 510.906 81.8828 511.594C81.8828 512.273 81.4062 512.742 80.7266 512.742ZM86.8438 521.656C84.7812 521.656 83.2266 520.008 83.2266 517.734C83.2266 515.461 84.7812 513.844 86.8438 513.844C88.0078 513.844 88.7969 514.289 89.2891 514.906L89.3281 514H91.2891V521.5H89.3281L89.2891 520.594C88.7969 521.219 88.0078 521.656 86.8438 521.656ZM89.2812 517.734C89.2812 516.539 88.4297 515.633 87.2344 515.633C86.0312 515.633 85.2188 516.539 85.2188 517.734C85.2188 518.938 86.0312 519.875 87.2344 519.875C88.4297 519.875 89.2812 518.938 89.2812 517.734ZM97.4375 513.844C99.1719 513.844 100.398 514.984 100.398 516.789V521.5H98.3906V517.305C98.3906 516.266 97.7188 515.703 96.8438 515.703C95.9609 515.703 95.1797 516.266 95.1797 517.305V521.5H93.1797V514H95.0859L95.125 514.867C95.5156 514.344 96.3203 513.844 97.4375 513.844ZM108.82 516.922L109.617 517.07C111.102 517.344 111.844 518.016 111.844 519.312C111.844 520.82 110.594 521.656 108.672 521.656C107.547 521.656 106.461 521.453 105.781 521.117L105.992 519.477C106.734 519.789 107.75 520 108.516 520C109.492 520 109.906 519.797 109.906 519.352C109.906 518.953 109.586 518.758 108.711 518.602L107.812 518.43C106.367 518.18 105.664 517.445 105.664 516.203C105.664 514.805 106.961 513.844 108.953 513.844C109.891 513.844 110.82 514.016 111.492 514.312L111.32 515.945C110.773 515.711 109.773 515.523 109.055 515.523C108.07 515.523 107.594 515.758 107.594 516.203C107.594 516.57 107.922 516.758 108.82 516.922ZM119.766 519.328L120.047 520.953C119.32 521.367 118.312 521.656 117.219 521.656C114.562 521.656 112.859 520.086 112.859 517.75C112.859 515.453 114.484 513.844 116.711 513.844C119.016 513.844 120.766 515.578 120.273 518.352H114.852C115.055 519.398 115.992 519.898 117.227 519.898C118.156 519.898 119.023 519.68 119.766 519.328ZM114.883 517.008H118.477C118.422 516.172 117.789 515.531 116.758 515.531C115.688 515.531 114.969 516.156 114.883 517.008ZM123.773 514L123.812 515.023C124.195 514.242 124.922 513.844 125.766 513.844C126.211 513.844 126.586 513.961 126.742 514.016L126.586 515.805C126.383 515.734 126.055 515.633 125.656 515.633C124.773 515.633 123.844 516.109 123.844 517.656V521.5H121.836V514H123.773ZM131.281 519.539L133.227 514H135.352L132.5 521.5H130.062L127.203 514H129.328L131.281 519.539ZM138.531 521.5H136.523V514H138.531V521.5ZM137.523 512.742C136.844 512.742 136.375 512.273 136.375 511.594C136.375 510.914 136.844 510.438 137.523 510.438C138.203 510.438 138.68 510.906 138.68 511.594C138.68 512.273 138.203 512.742 137.523 512.742ZM140.016 517.742C140.016 515.305 141.797 513.844 144.219 513.844C145.141 513.844 145.938 514.055 146.578 514.344L146.406 516.086C145.867 515.852 145.18 515.68 144.438 515.68C143.07 515.68 142.023 516.383 142.023 517.734C142.023 519.016 143.016 519.812 144.375 519.812C145.133 519.812 145.789 519.625 146.438 519.32L146.672 521.102C145.883 521.453 145.156 521.656 144.242 521.656C141.773 521.656 140.016 520.062 140.016 517.742ZM154.547 519.328L154.828 520.953C154.102 521.367 153.094 521.656 152 521.656C149.344 521.656 147.641 520.086 147.641 517.75C147.641 515.453 149.266 513.844 151.492 513.844C153.797 513.844 155.547 515.578 155.055 518.352H149.633C149.836 519.398 150.773 519.898 152.008 519.898C152.938 519.898 153.805 519.68 154.547 519.328ZM149.664 517.008H153.258C153.203 516.172 152.57 515.531 151.539 515.531C150.469 515.531 149.75 516.156 149.664 517.008ZM159.367 516.922L160.164 517.07C161.648 517.344 162.391 518.016 162.391 519.312C162.391 520.82 161.141 521.656 159.219 521.656C158.094 521.656 157.008 521.453 156.328 521.117L156.539 519.477C157.281 519.789 158.297 520 159.062 520C160.039 520 160.453 519.797 160.453 519.352C160.453 518.953 160.133 518.758 159.258 518.602L158.359 518.43C156.914 518.18 156.211 517.445 156.211 516.203C156.211 514.805 157.508 513.844 159.5 513.844C160.438 513.844 161.367 514.016 162.039 514.312L161.867 515.945C161.32 515.711 160.32 515.523 159.602 515.523C158.617 515.523 158.141 515.758 158.141 516.203C158.141 516.57 158.469 516.758 159.367 516.922Z" fill="black"/>
<path fill-rule="evenodd" clip-rule="evenodd" d="M337.297 512.289C337.69 511.901 338.323 511.904 338.711 512.297L344 517.648L349.289 512.297C349.677 511.904 350.31 511.901 350.703 512.289C351.096 512.677 351.099 513.31 350.711 513.703L344 520.492L337.289 513.703C336.901 513.31 336.904 512.677 337.297 512.289Z" fill="#0071BC"/>
</g>
<g clip-path="url(#clip6_6923_5374)">
<rect width="376" height="64" transform="translate(0 572)" fill="#FBF9F7"/>
<path d="M38.0469 606.375H35.2422V609.5H33.1328V598.891H38.0469C40.1875 598.891 41.9141 600.242 41.9141 602.648C41.9141 604.922 40.1875 606.375 38.0469 606.375ZM37.8047 600.719H35.2422V604.555H37.8047C38.9219 604.555 39.7422 603.781 39.7422 602.648C39.7422 601.414 38.9062 600.719 37.8047 600.719ZM45.2109 602L45.25 603.023C45.6328 602.242 46.3594 601.844 47.2031 601.844C47.6484 601.844 48.0234 601.961 48.1797 602.016L48.0234 603.805C47.8203 603.734 47.4922 603.633 47.0938 603.633C46.2109 603.633 45.2812 604.109 45.2812 605.656V609.5H43.2734V602H45.2109ZM55.8594 607.328L56.1406 608.953C55.4141 609.367 54.4062 609.656 53.3125 609.656C50.6562 609.656 48.9531 608.086 48.9531 605.75C48.9531 603.453 50.5781 601.844 52.8047 601.844C55.1094 601.844 56.8594 603.578 56.3672 606.352H50.9453C51.1484 607.398 52.0859 607.898 53.3203 607.898C54.25 607.898 55.1172 607.68 55.8594 607.328ZM50.9766 605.008H54.5703C54.5156 604.172 53.8828 603.531 52.8516 603.531C51.7812 603.531 51.0625 604.156 50.9766 605.008ZM61.2812 607.539L63.2266 602H65.3516L62.5 609.5H60.0625L57.2031 602H59.3281L61.2812 607.539ZM73.0156 607.328L73.2969 608.953C72.5703 609.367 71.5625 609.656 70.4688 609.656C67.8125 609.656 66.1094 608.086 66.1094 605.75C66.1094 603.453 67.7344 601.844 69.9609 601.844C72.2656 601.844 74.0156 603.578 73.5234 606.352H68.1016C68.3047 607.398 69.2422 607.898 70.4766 607.898C71.4062 607.898 72.2734 607.68 73.0156 607.328ZM68.1328 605.008H71.7266C71.6719 604.172 71.0391 603.531 70.0078 603.531C68.9375 603.531 68.2188 604.156 68.1328 605.008ZM79.3438 601.844C81.0781 601.844 82.3047 602.984 82.3047 604.789V609.5H80.2969V605.305C80.2969 604.266 79.625 603.703 78.75 603.703C77.8672 603.703 77.0859 604.266 77.0859 605.305V609.5H75.0859V602H76.9922L77.0312 602.867C77.4219 602.344 78.2266 601.844 79.3438 601.844ZM88.8359 603.664H86.7109V606.75C86.7109 607.531 87.1484 607.875 87.8203 607.875C88.1953 607.875 88.6719 607.812 89.0938 607.695L89.2812 609.359C88.8203 609.539 88.0781 609.656 87.4688 609.656C85.8203 609.656 84.7109 608.805 84.7109 607.039V603.664H83.4453V602H84.7188V599.594H86.6641V602H88.8359V603.664ZM93.625 609.656C91.5625 609.656 90.0078 608.008 90.0078 605.734C90.0078 603.461 91.5625 601.844 93.625 601.844C94.7891 601.844 95.5781 602.289 96.0703 602.906L96.1094 602H98.0703V609.5H96.1094L96.0703 608.594C95.5781 609.219 94.7891 609.656 93.625 609.656ZM96.0625 605.734C96.0625 604.539 95.2109 603.633 94.0156 603.633C92.8125 603.633 92 604.539 92 605.734C92 606.938 92.8125 607.875 94.0156 607.875C95.2109 607.875 96.0625 606.938 96.0625 605.734ZM104.664 603.664H102.539V606.75C102.539 607.531 102.977 607.875 103.648 607.875C104.023 607.875 104.5 607.812 104.922 607.695L105.109 609.359C104.648 609.539 103.906 609.656 103.297 609.656C101.648 609.656 100.539 608.805 100.539 607.039V603.664H99.2734V602H100.547V599.594H102.492V602H104.664V603.664ZM108.25 609.5H106.242V602H108.25V609.5ZM107.242 600.742C106.562 600.742 106.094 600.273 106.094 599.594C106.094 598.914 106.562 598.438 107.242 598.438C107.922 598.438 108.398 598.906 108.398 599.594C108.398 600.273 107.922 600.742 107.242 600.742ZM113.5 607.539L115.445 602H117.57L114.719 609.5H112.281L109.422 602H111.547L113.5 607.539ZM125.234 607.328L125.516 608.953C124.789 609.367 123.781 609.656 122.688 609.656C120.031 609.656 118.328 608.086 118.328 605.75C118.328 603.453 119.953 601.844 122.18 601.844C124.484 601.844 126.234 603.578 125.742 606.352H120.32C120.523 607.398 121.461 607.898 122.695 607.898C123.625 607.898 124.492 607.68 125.234 607.328ZM120.352 605.008H123.945C123.891 604.172 123.258 603.531 122.227 603.531C121.156 603.531 120.438 604.156 120.352 605.008ZM130.734 605.742C130.734 603.305 132.516 601.844 134.938 601.844C135.859 601.844 136.656 602.055 137.297 602.344L137.125 604.086C136.586 603.852 135.898 603.68 135.156 603.68C133.789 603.68 132.742 604.383 132.742 605.734C132.742 607.016 133.734 607.812 135.094 607.812C135.852 607.812 136.508 607.625 137.156 607.32L137.391 609.102C136.602 609.453 135.875 609.656 134.961 609.656C132.492 609.656 130.734 608.062 130.734 605.742ZM141.984 609.656C139.922 609.656 138.367 608.008 138.367 605.734C138.367 603.461 139.922 601.844 141.984 601.844C143.148 601.844 143.938 602.289 144.43 602.906L144.469 602H146.43V609.5H144.469L144.43 608.594C143.938 609.219 143.148 609.656 141.984 609.656ZM144.422 605.734C144.422 604.539 143.57 603.633 142.375 603.633C141.172 603.633 140.359 604.539 140.359 605.734C140.359 606.938 141.172 607.875 142.375 607.875C143.57 607.875 144.422 606.938 144.422 605.734ZM150.258 602L150.297 603.023C150.68 602.242 151.406 601.844 152.25 601.844C152.695 601.844 153.07 601.961 153.227 602.016L153.07 603.805C152.867 603.734 152.539 603.633 152.141 603.633C151.258 603.633 150.328 604.109 150.328 605.656V609.5H148.32V602H150.258ZM160.906 607.328L161.188 608.953C160.461 609.367 159.453 609.656 158.359 609.656C155.703 609.656 154 608.086 154 605.75C154 603.453 155.625 601.844 157.852 601.844C160.156 601.844 161.906 603.578 161.414 606.352H155.992C156.195 607.398 157.133 607.898 158.367 607.898C159.297 607.898 160.164 607.68 160.906 607.328ZM156.023 605.008H159.617C159.562 604.172 158.93 603.531 157.898 603.531C156.828 603.531 156.109 604.156 156.023 605.008Z" fill="black"/>
<path fill-rule="evenodd" clip-rule="evenodd" d="M337.297 600.289C337.69 599.901 338.323 599.904 338.711 600.297L344 605.648L349.289 600.297C349.677 599.904 350.31 599.901 350.703 600.289C351.096 600.677 351.099 601.31 350.711 601.703L344 608.492L337.289 601.703C336.901 601.31 336.904 600.677 337.297 600.289Z" fill="#0071BC"/>
</g>
<g clip-path="url(#clip7_6923_5374)">
<rect width="376" height="64" transform="translate(0 660)" fill="#FBF9F7"/>
<path d="M33.1328 686.891H37.7031C41.125 686.891 43.0625 688.922 43.0625 692.188C43.0625 695.477 41.0859 697.5 37.7031 697.5H33.1328V686.891ZM37.4766 695.68C39.875 695.68 40.8984 694.391 40.8984 692.188C40.8984 689.969 39.8516 688.711 37.4766 688.711H35.2422V695.68H37.4766ZM46.6406 697.5H44.6328V690H46.6406V697.5ZM45.6328 688.742C44.9531 688.742 44.4844 688.273 44.4844 687.594C44.4844 686.914 44.9531 686.438 45.6328 686.438C46.3125 686.438 46.7891 686.906 46.7891 687.594C46.7891 688.273 46.3125 688.742 45.6328 688.742ZM51.75 697.656C49.6875 697.656 48.1328 696.008 48.1328 693.734C48.1328 691.461 49.6875 689.844 51.75 689.844C52.9141 689.844 53.7031 690.289 54.1953 690.906L54.2344 690H56.1953V697.5H54.2344L54.1953 696.594C53.7031 697.219 52.9141 697.656 51.75 697.656ZM54.1875 693.734C54.1875 692.539 53.3359 691.633 52.1406 691.633C50.9375 691.633 50.125 692.539 50.125 693.734C50.125 694.938 50.9375 695.875 52.1406 695.875C53.3359 695.875 54.1875 694.938 54.1875 693.734ZM61.3125 697.656C59.1875 697.656 57.6797 696.008 57.6797 693.742C57.6797 691.461 59.1875 689.844 61.3125 689.844C62.5156 689.844 63.2891 690.281 63.7891 690.906L63.8281 690H65.75V697.234C65.75 699.609 63.7266 700.781 61.3906 700.781C60.1641 700.781 59.0547 700.492 58.3984 700.156L58.6328 698.438C59.2031 698.742 60.2969 699 61.2578 699C62.5156 699 63.75 698.438 63.75 697.188V696.656C63.2969 697.258 62.4141 697.656 61.3125 697.656ZM63.7656 693.734C63.7656 692.539 62.9062 691.641 61.7266 691.641C60.5312 691.641 59.6953 692.523 59.6953 693.734C59.6953 694.922 60.5312 695.859 61.7266 695.859C62.9062 695.859 63.7656 694.922 63.7656 693.734ZM71.9062 689.844C73.6406 689.844 74.8672 690.984 74.8672 692.789V697.5H72.8594V693.305C72.8594 692.266 72.1875 691.703 71.3125 691.703C70.4297 691.703 69.6484 692.266 69.6484 693.305V697.5H67.6484V690H69.5547L69.5938 690.867C69.9844 690.344 70.7891 689.844 71.9062 689.844ZM76.2734 693.75C76.2734 691.539 77.9844 689.844 80.2812 689.844C82.5859 689.844 84.2891 691.539 84.2891 693.75C84.2891 695.969 82.5859 697.656 80.2812 697.656C77.9844 697.656 76.2734 695.969 76.2734 693.75ZM78.2656 693.75C78.2656 694.953 79.1094 695.844 80.2812 695.844C81.4609 695.844 82.2969 694.953 82.2969 693.75C82.2969 692.555 81.4609 691.664 80.2812 691.664C79.1094 691.664 78.2656 692.555 78.2656 693.75ZM88.5078 692.922L89.3047 693.07C90.7891 693.344 91.5312 694.016 91.5312 695.312C91.5312 696.82 90.2812 697.656 88.3594 697.656C87.2344 697.656 86.1484 697.453 85.4688 697.117L85.6797 695.477C86.4219 695.789 87.4375 696 88.2031 696C89.1797 696 89.5938 695.797 89.5938 695.352C89.5938 694.953 89.2734 694.758 88.3984 694.602L87.5 694.43C86.0547 694.18 85.3516 693.445 85.3516 692.203C85.3516 690.805 86.6484 689.844 88.6406 689.844C89.5781 689.844 90.5078 690.016 91.1797 690.312L91.0078 691.945C90.4609 691.711 89.4609 691.523 88.7422 691.523C87.7578 691.523 87.2812 691.758 87.2812 692.203C87.2812 692.57 87.6094 692.758 88.5078 692.922ZM94.9688 697.5H92.9609V690H94.9688V697.5ZM93.9609 688.742C93.2812 688.742 92.8125 688.273 92.8125 687.594C92.8125 686.914 93.2812 686.438 93.9609 686.438C94.6406 686.438 95.1172 686.906 95.1172 687.594C95.1172 688.273 94.6406 688.742 93.9609 688.742ZM99.6172 692.922L100.414 693.07C101.898 693.344 102.641 694.016 102.641 695.312C102.641 696.82 101.391 697.656 99.4688 697.656C98.3438 697.656 97.2578 697.453 96.5781 697.117L96.7891 695.477C97.5312 695.789 98.5469 696 99.3125 696C100.289 696 100.703 695.797 100.703 695.352C100.703 694.953 100.383 694.758 99.5078 694.602L98.6094 694.43C97.1641 694.18 96.4609 693.445 96.4609 692.203C96.4609 690.805 97.7578 689.844 99.75 689.844C100.688 689.844 101.617 690.016 102.289 690.312L102.117 691.945C101.57 691.711 100.57 691.523 99.8516 691.523C98.8672 691.523 98.3906 691.758 98.3906 692.203C98.3906 692.57 98.7188 692.758 99.6172 692.922ZM104.383 695.523H106.414L105.031 699.555H103.352L104.383 695.523ZM116.359 693.609L113.617 697.5H111.086L115.031 692.078L111.305 686.891H113.828L116.359 690.5L118.891 686.891H121.422L117.656 692.062L121.641 697.5H119.109L116.359 693.609ZM127.93 692.289V693.961H122.523V692.289H127.93ZM136.875 697.492L134.445 694.375H131.992V697.5H129.883V686.891H134.805C136.945 686.891 138.68 688.25 138.68 690.641C138.68 692.18 137.82 693.391 136.609 693.977L139.422 697.492H136.875ZM134.562 688.719H131.992V692.555H134.562C135.688 692.555 136.508 691.781 136.508 690.648C136.508 689.414 135.672 688.719 134.562 688.719ZM143.906 697.656C141.844 697.656 140.289 696.008 140.289 693.734C140.289 691.461 141.844 689.844 143.906 689.844C145.07 689.844 145.859 690.289 146.352 690.906L146.391 690H148.352V697.5H146.391L146.352 696.594C145.859 697.219 145.07 697.656 143.906 697.656ZM146.344 693.734C146.344 692.539 145.492 691.633 144.297 691.633C143.094 691.633 142.281 692.539 142.281 693.734C142.281 694.938 143.094 695.875 144.297 695.875C145.492 695.875 146.344 694.938 146.344 693.734ZM153.656 695.461L155.594 690H157.82L154.281 698.523C153.68 699.961 152.758 700.781 151.148 700.781C150.547 700.781 150.047 700.617 149.719 700.453L149.969 698.844C150.227 698.953 150.578 699.039 150.914 699.039C151.75 699.039 152.344 698.453 152.578 697.508L149.477 690H151.695L153.656 695.461ZM161.68 692.922L162.477 693.07C163.961 693.344 164.703 694.016 164.703 695.312C164.703 696.82 163.453 697.656 161.531 697.656C160.406 697.656 159.32 697.453 158.641 697.117L158.852 695.477C159.594 695.789 160.609 696 161.375 696C162.352 696 162.766 695.797 162.766 695.352C162.766 694.953 162.445 694.758 161.57 694.602L160.672 694.43C159.227 694.18 158.523 693.445 158.523 692.203C158.523 690.805 159.82 689.844 161.812 689.844C162.75 689.844 163.68 690.016 164.352 690.312L164.18 691.945C163.633 691.711 162.633 691.523 161.914 691.523C160.93 691.523 160.453 691.758 160.453 692.203C160.453 692.57 160.781 692.758 161.68 692.922ZM173.188 697.656C171.125 697.656 169.57 696.008 169.57 693.734C169.57 691.461 171.125 689.844 173.188 689.844C174.352 689.844 175.141 690.289 175.633 690.906L175.672 690H177.633V697.5H175.672L175.633 696.594C175.141 697.219 174.352 697.656 173.188 697.656ZM175.625 693.734C175.625 692.539 174.773 691.633 173.578 691.633C172.375 691.633 171.562 692.539 171.562 693.734C171.562 694.938 172.375 695.875 173.578 695.875C174.773 695.875 175.625 694.938 175.625 693.734ZM183.781 689.844C185.516 689.844 186.742 690.984 186.742 692.789V697.5H184.734V693.305C184.734 692.266 184.062 691.703 183.188 691.703C182.305 691.703 181.523 692.266 181.523 693.305V697.5H179.523V690H181.43L181.469 690.867C181.859 690.344 182.664 689.844 183.781 689.844ZM191.797 697.656C189.672 697.656 188.164 696.008 188.164 693.742C188.164 691.461 189.672 689.844 191.797 689.844C193 689.844 193.773 690.281 194.273 690.906V686.492H196.242V697.5H194.273L194.234 696.703C193.734 697.281 192.898 697.656 191.797 697.656ZM194.25 693.734C194.25 692.539 193.391 691.641 192.211 691.641C191.016 691.641 190.18 692.523 190.18 693.734C190.18 694.922 191.016 695.859 192.211 695.859C193.391 695.859 194.25 694.922 194.25 693.734ZM203.977 686.5V697.5H201.977V686.5H203.977ZM209.078 697.656C207.016 697.656 205.461 696.008 205.461 693.734C205.461 691.461 207.016 689.844 209.078 689.844C210.242 689.844 211.031 690.289 211.523 690.906L211.562 690H213.523V697.5H211.562L211.523 696.594C211.031 697.219 210.242 697.656 209.078 697.656ZM211.516 693.734C211.516 692.539 210.664 691.633 209.469 691.633C208.266 691.633 207.453 692.539 207.453 693.734C207.453 694.938 208.266 695.875 209.469 695.875C210.664 695.875 211.516 694.938 211.516 693.734ZM219.852 697.656C218.75 697.656 217.898 697.273 217.414 696.703L217.375 697.5H215.414V686.492H217.383V690.906C217.875 690.281 218.648 689.844 219.852 689.844C221.977 689.844 223.484 691.461 223.484 693.742C223.484 696.008 221.977 697.656 219.852 697.656ZM217.406 693.734C217.406 694.922 218.258 695.859 219.445 695.859C220.633 695.859 221.477 694.922 221.477 693.734C221.477 692.523 220.641 691.641 219.445 691.641C218.266 691.641 217.406 692.539 217.406 693.734ZM227.727 692.922L228.523 693.07C230.008 693.344 230.75 694.016 230.75 695.312C230.75 696.82 229.5 697.656 227.578 697.656C226.453 697.656 225.367 697.453 224.688 697.117L224.898 695.477C225.641 695.789 226.656 696 227.422 696C228.398 696 228.812 695.797 228.812 695.352C228.812 694.953 228.492 694.758 227.617 694.602L226.719 694.43C225.273 694.18 224.57 693.445 224.57 692.203C224.57 690.805 225.867 689.844 227.859 689.844C228.797 689.844 229.727 690.016 230.398 690.312L230.227 691.945C229.68 691.711 228.68 691.523 227.961 691.523C226.977 691.523 226.5 691.758 226.5 692.203C226.5 692.57 226.828 692.758 227.727 692.922Z" fill="black"/>
<path fill-rule="evenodd" clip-rule="evenodd" d="M337.297 688.289C337.69 687.901 338.323 687.904 338.711 688.297L344 693.648L349.289 688.297C349.677 687.904 350.31 687.901 350.703 688.289C351.096 688.677 351.099 689.31 350.711 689.703L344 696.492L337.289 689.703C336.901 689.31 336.904 688.677 337.297 688.289Z" fill="#0071BC"/>
</g>
</g>
<defs>
<filter id="filter0_dd_6923_5374" x="298" y="262" width="90" height="90" filterUnits="userSpaceOnUse" color-interpolation-filters="sRGB">
<feFlood flood-opacity="0" result="BackgroundImageFix"/>
<feColorMatrix in="SourceAlpha" type="matrix" values="0 0 0 0 0 0 0 0 0 0 0 0 0 0 0 0 0 0 127 0" result="hardAlpha"/>
<feOffset/>
<feGaussianBlur stdDeviation="5"/>
<feComposite in2="hardAlpha" operator="out"/>
<feColorMatrix type="matrix" values="0 0 0 0 0.133333 0 0 0 0 0.0392157 0 0 0 0 0.2 0 0 0 0.05 0"/>
<feBlend mode="normal" in2="BackgroundImageFix" result="effect1_dropShadow_6923_5374"/>
<feColorMatrix in="SourceAlpha" type="matrix" values="0 0 0 0 0 0 0 0 0 0 0 0 0 0 0 0 0 0 127 0" result="hardAlpha"/>
<feOffset dy="15"/>
<feGaussianBlur stdDeviation="12.5"/>
<feComposite in2="hardAlpha" operator="out"/>
<feColorMatrix type="matrix" values="0 0 0 0 0.133333 0 0 0 0 0.0392157 0 0 0 0 0.2 0 0 0 0.05 0"/>
<feBlend mode="normal" in2="effect1_dropShadow_6923_5374" result="effect2_dropShadow_6923_5374"/>
<feBlend mode="normal" in="SourceGraphic" in2="effect2_dropShadow_6923_5374" result="shape"/>
</filter>
<clipPath id="clip0_6923_5374">
<rect width="376" height="750" fill="white"/>
</clipPath>
<clipPath id="clip1_6923_5374">
<rect width="16" height="16" fill="white" transform="translate(335 284)"/>
</clipPath>
<clipPath id="clip2_6923_5374">
<rect width="375" height="56" fill="white" transform="translate(0 264)"/>
</clipPath>
<clipPath id="clip3_6923_5374">
<rect width="16" height="16" fill="white" transform="translate(335 284)"/>
</clipPath>
<clipPath id="clip4_6923_5374">
<rect width="376" height="64" fill="white" transform="translate(0 396)"/>
</clipPath>
<clipPath id="clip5_6923_5374">
<rect width="376" height="64" fill="white" transform="translate(0 484)"/>
</clipPath>
<clipPath id="clip6_6923_5374">
<rect width="376" height="64" fill="white" transform="translate(0 572)"/>
</clipPath>
<clipPath id="clip7_6923_5374">
<rect width="376" height="64" fill="white" transform="translate(0 660)"/>
</clipPath>
</defs>
</svg>
