<svg width="1600" height="384" viewBox="0 0 1600 384" fill="none" xmlns="http://www.w3.org/2000/svg">
<rect width="1600" height="384" rx="24" fill="#F7F7F7"/>
<g filter="url(#filter0_dd_1603_38906)">
<g clip-path="url(#clip0_1603_38906)">
<rect x="80" y="56" width="1440" height="272" rx="24" fill="white"/>
<rect width="1440" height="272" transform="translate(80 56)" fill="white"/>
<rect width="1440" height="200" transform="translate(80 56)" fill="white"/>
<path d="M737.176 178V161.02H714.863V178H710.352V140.867H714.863V156.918H737.176V140.867H741.688V178H737.176ZM772.68 172.039L773.445 175.977C770.383 177.754 767.074 178.547 763.547 178.547C754.715 178.547 748.617 172.969 748.617 164.875C748.617 157.055 754.25 151.203 762.125 151.203C771.012 151.203 776.043 158.395 774.621 166.461H753.156C753.895 171.629 758.27 174.473 763.355 174.473C766.418 174.473 769.152 173.953 772.68 172.039ZM753.266 162.906H770.656C770.355 158.422 767.266 155.25 762.262 155.25C757.312 155.25 753.676 158.422 753.266 162.906ZM806.625 151.75V178H802.277V173.68C800.309 176.496 796.863 178.547 792.16 178.547C784.641 178.547 778.926 172.695 778.926 164.793C778.926 156.918 784.641 151.203 792.16 151.203C796.863 151.203 800.309 153.227 802.277 156.043V151.75H806.625ZM792.598 155.141C787.129 155.141 783.246 159.379 783.246 164.793C783.246 170.234 787.129 174.609 792.598 174.609C798.203 174.609 802.332 170.234 802.332 164.793C802.332 159.379 798.203 155.141 792.598 155.141ZM836.059 178V173.734C834.09 176.523 830.645 178.547 825.941 178.547C818.422 178.547 812.707 172.695 812.707 164.82C812.707 156.945 818.422 151.203 825.941 151.203C830.645 151.203 834.09 153.254 836.059 156.07V139.5H840.406V178H836.059ZM826.379 174.609C831.984 174.609 836.113 170.234 836.113 164.82C836.113 159.379 831.984 155.141 826.379 155.141C820.91 155.141 817.027 159.379 817.027 164.82C817.027 170.234 820.91 174.609 826.379 174.609ZM870.523 172.039L871.289 175.977C868.227 177.754 864.918 178.547 861.391 178.547C852.559 178.547 846.461 172.969 846.461 164.875C846.461 157.055 852.094 151.203 859.969 151.203C868.855 151.203 873.887 158.395 872.465 166.461H851C851.738 171.629 856.113 174.473 861.199 174.473C864.262 174.473 866.996 173.953 870.523 172.039ZM851.109 162.906H868.5C868.199 158.422 865.109 155.25 860.105 155.25C855.156 155.25 851.52 158.422 851.109 162.906ZM883.141 151.75V155.633C884.617 152.598 887.215 151.203 890.223 151.203C892.082 151.203 893.449 151.668 893.941 151.887L893.504 155.906C892.766 155.633 891.754 155.25 890.059 155.25C886.559 155.25 883.141 157.547 883.141 163.426V178H878.766V151.75H883.141Z" fill="black"/>
<path d="M766.136 222.669C766.136 221.43 765.345 220.524 763.842 220.524H759.5V224.699H763.842C765.169 224.699 766.136 223.987 766.136 222.669ZM759.5 215.356V219.303H763.156C764.475 219.303 765.397 218.547 765.397 217.36C765.397 216.139 764.545 215.356 763.13 215.356H759.5ZM758.05 226V214.064H763.2C765.397 214.064 766.883 215.321 766.883 217.352C766.883 218.292 766.479 219.162 765.503 219.716C766.821 220.155 767.621 221.192 767.621 222.66C767.621 224.523 766.294 226 763.728 226H758.05ZM769.326 221.781C769.326 219.312 771.242 217.387 773.809 217.387C776.375 217.387 778.291 219.312 778.291 221.781C778.291 224.251 776.375 226.176 773.809 226.176C771.242 226.176 769.326 224.251 769.326 221.781ZM770.724 221.781C770.724 223.521 772.033 224.875 773.809 224.875C775.584 224.875 776.894 223.521 776.894 221.781C776.894 220.041 775.584 218.688 773.809 218.688C772.033 218.688 770.724 220.041 770.724 221.781ZM787.414 226V224.629C786.781 225.525 785.674 226.176 784.162 226.176C781.745 226.176 779.908 224.295 779.908 221.764C779.908 219.232 781.745 217.387 784.162 217.387C785.674 217.387 786.781 218.046 787.414 218.951V213.625H788.812V226H787.414ZM784.303 224.91C786.104 224.91 787.432 223.504 787.432 221.764C787.432 220.015 786.104 218.652 784.303 218.652C782.545 218.652 781.297 220.015 781.297 221.764C781.297 223.504 782.545 224.91 784.303 224.91ZM794.938 224.629L797.759 217.562H799.297L795.315 227.072C794.595 228.751 793.804 229.691 792.099 229.691C791.422 229.691 790.895 229.524 790.657 229.401L790.824 228.215C791.114 228.347 791.58 228.443 792.02 228.443C792.978 228.443 793.549 227.837 794.041 226.633L794.19 226.237L790.543 217.562H792.063L794.938 224.629ZM804.597 221.755C804.597 219.162 806.521 217.387 809.343 217.387C810.485 217.387 811.461 217.721 811.874 217.949L811.725 219.206C811.162 218.934 810.318 218.696 809.343 218.696C807.365 218.696 806.012 219.936 806.012 221.755C806.012 223.592 807.374 224.866 809.36 224.866C810.213 224.866 811.171 224.646 811.795 224.33L812.023 225.604C811.276 225.938 810.292 226.176 809.36 226.176C806.53 226.176 804.597 224.383 804.597 221.755ZM813.482 221.781C813.482 219.312 815.398 217.387 817.965 217.387C820.531 217.387 822.447 219.312 822.447 221.781C822.447 224.251 820.531 226.176 817.965 226.176C815.398 226.176 813.482 224.251 813.482 221.781ZM814.88 221.781C814.88 223.521 816.189 224.875 817.965 224.875C819.74 224.875 821.05 223.521 821.05 221.781C821.05 220.041 819.74 218.688 817.965 218.688C816.189 218.688 814.88 220.041 814.88 221.781ZM824.706 217.562H826.104V218.942C826.736 218.037 827.844 217.387 829.355 217.387C831.772 217.387 833.609 219.268 833.609 221.799C833.609 224.339 831.772 226.176 829.355 226.176C827.844 226.176 826.736 225.517 826.104 224.611V229.516H824.706V217.562ZM829.215 218.652C827.413 218.652 826.086 220.059 826.086 221.799C826.086 223.548 827.413 224.91 829.215 224.91C830.973 224.91 832.221 223.548 832.221 221.799C832.221 220.059 830.973 218.652 829.215 218.652ZM839.094 224.629L841.915 217.562H843.453L839.472 227.072C838.751 228.751 837.96 229.691 836.255 229.691C835.578 229.691 835.051 229.524 834.813 229.401L834.98 228.215C835.271 228.347 835.736 228.443 836.176 228.443C837.134 228.443 837.705 227.837 838.197 226.633L838.347 226.237L834.699 217.562H836.22L839.094 224.629Z" fill="black"/>
<mask id="path-5-outside-1_1603_38906" maskUnits="userSpaceOnUse" x="80" y="256" width="1440" height="73" fill="black">
<rect fill="white" x="80" y="256" width="1440" height="73"/>
<path d="M80 256H1520V328H80V256Z"/>
</mask>
<path d="M1520 328V327H80V328V329H1520V328Z" fill="#ECEDED" mask="url(#path-5-outside-1_1603_38906)"/>
<mask id="path-7-outside-2_1603_38906" maskUnits="userSpaceOnUse" x="369" y="256" width="142" height="73" fill="black">
<rect fill="white" x="369" y="256" width="142" height="73"/>
<path d="M369 256H511V328H369V256Z"/>
</mask>
<path d="M511 328V327H369V328V329H511V328Z" fill="#ECEDED" mask="url(#path-7-outside-2_1603_38906)"/>
<mask id="path-9-inside-3_1603_38906" fill="white">
<path d="M369 256H511V328H369V256Z"/>
</mask>
<path d="M511 328V324H369V328V332H511V328Z" fill="#B3F8FF" mask="url(#path-9-inside-3_1603_38906)"/>
<path fill-rule="evenodd" clip-rule="evenodd" d="M422.915 285.995C423.112 286.258 423.27 286.548 423.384 286.857C424.814 290.759 423.314 293.535 423.249 293.649C422.312 295.487 420.963 297.084 419.306 298.317C417.649 299.551 415.73 300.387 413.697 300.761C412.845 300.915 411.982 300.995 411.117 301C406.913 301 404.749 298.932 404.119 298.204C403.94 297.998 403.843 297.734 403.844 297.462C403.841 297.284 403.894 297.11 403.994 296.963C403.195 296.285 402.564 295.432 402.149 294.472C401.95 293.899 401.95 293.276 402.149 292.703C402.209 292.568 402.297 292.448 402.409 292.351C402.52 292.255 402.652 292.184 402.794 292.144L403.599 291.93C403.676 291.908 403.754 291.892 403.834 291.88C403.239 291.013 402.374 289.628 402.334 288.94C402.308 288.649 402.38 288.358 402.539 288.113C402.65 287.951 402.8 287.819 402.974 287.728C403.148 287.637 403.342 287.589 403.539 287.59C403.587 287.582 403.636 287.582 403.684 287.59L404.579 287.859C404.869 287.968 405.128 288.063 405.398 288.153C409.108 289.399 413.212 289.488 417.606 288.427C418.115 288.074 418.564 287.642 418.935 287.146C419.065 286.927 419.185 286.737 419.29 286.583C419.39 286.395 419.478 286.202 419.555 286.005C419.61 285.368 419.61 284.728 419.555 284.091C419.546 283.977 419.559 283.863 419.594 283.754C419.629 283.646 419.686 283.545 419.76 283.458C419.834 283.372 419.924 283.302 420.025 283.251C420.127 283.201 420.237 283.171 420.35 283.164L422.5 283.005C422.704 282.985 422.91 283.028 423.089 283.129C423.268 283.23 423.411 283.383 423.499 283.568C423.59 283.75 423.624 283.956 423.599 284.158C423.573 284.36 423.488 284.55 423.354 284.704C423.132 284.968 422.862 285.19 422.56 285.357C422.642 285.588 422.762 285.803 422.915 285.995ZM403.504 288.571C403.448 288.581 403.398 288.612 403.364 288.656C403.333 288.716 403.321 288.784 403.329 288.85C403.354 289.299 404.304 290.844 405.023 291.84C409.787 291.791 413.247 291.178 415.286 289.997C415.351 289.962 415.426 289.912 415.501 289.862L415.501 289.862C412.023 290.453 408.453 290.193 405.098 289.104C404.819 289.01 404.544 288.91 404.269 288.805L403.504 288.571ZM403.044 293.096C402.972 293.443 402.995 293.803 403.109 294.138V294.128C403.507 294.98 404.093 295.731 404.824 296.326L405.238 296.081C405.393 295.988 405.562 295.92 405.738 295.882C416.191 293.48 417.621 290.355 417.801 289.752C417.817 289.695 417.835 289.643 417.853 289.59C417.867 289.547 417.882 289.504 417.896 289.458C417.551 289.702 417.171 289.962 416.731 290.261L416.591 290.355C416.511 290.405 416.428 290.458 416.344 290.512C416.158 290.631 415.966 290.754 415.791 290.854C413.437 292.234 409.617 292.882 404.119 292.847C404.027 292.844 403.936 292.856 403.849 292.882L403.044 293.096ZM418.69 297.466C420.217 296.339 421.471 294.885 422.36 293.211V293.201C422.39 293.146 423.709 290.654 422.435 287.201C422.354 286.991 422.245 286.793 422.11 286.613C421.752 286.182 421.539 285.651 421.5 285.093C421.493 284.985 421.522 284.879 421.582 284.789C421.641 284.699 421.728 284.631 421.83 284.594C422.116 284.478 422.371 284.297 422.575 284.066C422.58 284.058 422.583 284.049 422.583 284.039C422.583 284.029 422.58 284.02 422.575 284.011L422.535 283.986L420.535 284.136C420.693 286.314 420.436 286.675 420.324 286.832L420.32 286.837C420.307 286.854 420.294 286.871 420.28 286.888C420.231 286.95 420.175 287.02 420.1 287.161C420.005 287.34 419.905 287.505 419.795 287.659C419.357 288.404 419.01 289.199 418.76 290.026C418.386 291.277 416.391 294.467 405.983 296.844C405.913 296.86 405.845 296.887 405.783 296.924L404.889 297.457C404.886 297.47 404.886 297.483 404.889 297.497C405.538 298.264 408.138 300.691 413.537 299.724C415.402 299.365 417.163 298.593 418.69 297.466ZM420.119 291.346C420.24 291.293 420.377 291.29 420.5 291.337C420.617 291.39 420.71 291.485 420.758 291.604C420.807 291.723 420.807 291.856 420.76 291.975C420.67 292.219 418.401 297.831 410.622 298.304H410.592C410.46 298.308 410.331 298.259 410.234 298.169C410.138 298.078 410.081 297.953 410.077 297.821C410.073 297.688 410.122 297.56 410.213 297.464C410.304 297.368 410.43 297.311 410.562 297.307C417.706 296.879 419.77 291.835 419.855 291.621C419.903 291.498 419.998 291.4 420.119 291.346Z" fill="#162C55"/>
<path d="M443.159 295.952V298H434.361V286.064H436.734V295.952H443.159ZM448.081 298.176C445.761 298.176 444.012 296.321 444.012 293.764C444.012 291.206 445.761 289.387 448.081 289.387C449.391 289.387 450.278 289.888 450.832 290.582L450.876 289.562H453.082V298H450.876L450.832 296.98C450.278 297.684 449.391 298.176 448.081 298.176ZM450.823 293.764C450.823 292.419 449.865 291.399 448.521 291.399C447.167 291.399 446.253 292.419 446.253 293.764C446.253 295.117 447.167 296.172 448.521 296.172C449.865 296.172 450.823 295.117 450.823 293.764ZM460.201 298.176C458.962 298.176 458.004 297.745 457.459 297.104L457.415 298H455.209V285.616H457.424V290.582C457.978 289.879 458.848 289.387 460.201 289.387C462.592 289.387 464.288 291.206 464.288 293.772C464.288 296.321 462.592 298.176 460.201 298.176ZM457.45 293.764C457.45 295.1 458.408 296.154 459.744 296.154C461.08 296.154 462.029 295.1 462.029 293.764C462.029 292.401 461.089 291.408 459.744 291.408C458.417 291.408 457.45 292.419 457.45 293.764ZM473.271 295.557L473.587 297.385C472.77 297.851 471.636 298.176 470.405 298.176C467.417 298.176 465.501 296.409 465.501 293.781C465.501 291.197 467.329 289.387 469.834 289.387C472.427 289.387 474.396 291.338 473.842 294.458H467.742C467.971 295.636 469.025 296.198 470.414 296.198C471.46 296.198 472.436 295.952 473.271 295.557ZM467.777 292.946H471.82C471.759 292.006 471.047 291.285 469.887 291.285C468.683 291.285 467.874 291.988 467.777 292.946ZM477.85 285.625V298H475.6V285.625H477.85Z" fill="#162C55"/>
<mask id="path-13-outside-4_1603_38906" maskUnits="userSpaceOnUse" x="511" y="256" width="144" height="73" fill="black">
<rect fill="white" x="511" y="256" width="144" height="73"/>
<path d="M511 256H655V328H511V256Z"/>
</mask>
<path d="M655 328V327H511V328V329H655V328Z" fill="#ECEDED" mask="url(#path-13-outside-4_1603_38906)"/>
<path fill-rule="evenodd" clip-rule="evenodd" d="M564.915 285.995C565.112 286.258 565.27 286.548 565.384 286.857C566.814 290.759 565.314 293.535 565.249 293.649C564.312 295.487 562.963 297.084 561.306 298.317C559.649 299.551 557.73 300.387 555.697 300.761C554.845 300.915 553.982 300.995 553.117 301C548.913 301 546.749 298.932 546.119 298.204C545.94 297.998 545.843 297.734 545.844 297.462C545.841 297.284 545.894 297.11 545.994 296.963C545.195 296.285 544.564 295.432 544.149 294.472C543.95 293.899 543.95 293.276 544.149 292.703C544.209 292.568 544.297 292.448 544.409 292.351C544.52 292.255 544.652 292.184 544.794 292.144L545.599 291.93C545.676 291.908 545.754 291.892 545.834 291.88C545.239 291.013 544.374 289.628 544.334 288.94C544.308 288.649 544.38 288.358 544.539 288.113C544.65 287.951 544.8 287.819 544.974 287.728C545.148 287.637 545.342 287.589 545.539 287.59C545.587 287.582 545.636 287.582 545.684 287.59L546.579 287.859C546.869 287.968 547.128 288.063 547.398 288.153C551.108 289.399 555.212 289.488 559.606 288.427C560.115 288.074 560.564 287.642 560.935 287.146C561.065 286.927 561.185 286.737 561.29 286.583C561.39 286.395 561.478 286.202 561.555 286.005C561.61 285.368 561.61 284.728 561.555 284.091C561.546 283.977 561.559 283.863 561.594 283.754C561.629 283.646 561.686 283.545 561.76 283.458C561.834 283.372 561.924 283.302 562.025 283.251C562.127 283.201 562.237 283.171 562.35 283.164L564.5 283.005C564.704 282.985 564.91 283.028 565.089 283.129C565.268 283.23 565.411 283.383 565.499 283.568C565.59 283.75 565.624 283.956 565.599 284.158C565.573 284.36 565.488 284.55 565.354 284.704C565.132 284.968 564.862 285.19 564.56 285.357C564.642 285.588 564.762 285.803 564.915 285.995ZM545.504 288.571C545.448 288.581 545.398 288.612 545.364 288.656C545.333 288.716 545.321 288.784 545.329 288.85C545.354 289.299 546.304 290.844 547.023 291.84C551.787 291.791 555.247 291.178 557.286 289.997C557.351 289.962 557.426 289.912 557.501 289.862L557.501 289.862C554.023 290.453 550.453 290.193 547.098 289.104C546.819 289.01 546.544 288.91 546.269 288.805L545.504 288.571ZM545.044 293.096C544.972 293.443 544.995 293.803 545.109 294.138V294.128C545.507 294.98 546.093 295.731 546.824 296.326L547.238 296.081C547.393 295.988 547.562 295.92 547.738 295.882C558.191 293.48 559.621 290.355 559.801 289.752C559.817 289.695 559.835 289.643 559.853 289.59C559.867 289.547 559.882 289.504 559.896 289.458C559.551 289.702 559.171 289.962 558.731 290.261L558.591 290.355C558.511 290.405 558.428 290.458 558.344 290.512C558.158 290.631 557.966 290.754 557.791 290.854C555.437 292.234 551.617 292.882 546.119 292.847C546.027 292.844 545.936 292.856 545.849 292.882L545.044 293.096ZM560.69 297.466C562.217 296.339 563.471 294.885 564.36 293.211V293.201C564.39 293.146 565.709 290.654 564.435 287.201C564.354 286.991 564.245 286.793 564.11 286.613C563.752 286.182 563.539 285.651 563.5 285.093C563.493 284.985 563.522 284.879 563.582 284.789C563.641 284.699 563.728 284.631 563.83 284.594C564.116 284.478 564.371 284.297 564.575 284.066C564.58 284.058 564.583 284.049 564.583 284.039C564.583 284.029 564.58 284.02 564.575 284.011L564.535 283.986L562.535 284.136C562.693 286.314 562.436 286.675 562.324 286.832L562.32 286.837C562.307 286.854 562.294 286.871 562.28 286.888C562.231 286.95 562.175 287.02 562.1 287.161C562.005 287.34 561.905 287.505 561.795 287.659C561.357 288.404 561.01 289.199 560.76 290.026C560.386 291.277 558.391 294.467 547.983 296.844C547.913 296.86 547.845 296.887 547.783 296.924L546.889 297.457C546.886 297.47 546.886 297.483 546.889 297.497C547.538 298.264 550.138 300.691 555.537 299.724C557.402 299.365 559.163 298.593 560.69 297.466ZM562.119 291.346C562.24 291.293 562.377 291.29 562.5 291.337C562.617 291.39 562.71 291.485 562.758 291.604C562.807 291.723 562.807 291.856 562.76 291.975C562.67 292.219 560.401 297.831 552.622 298.304H552.592C552.46 298.308 552.331 298.259 552.234 298.169C552.138 298.078 552.081 297.953 552.077 297.821C552.073 297.688 552.122 297.56 552.213 297.464C552.304 297.368 552.43 297.311 552.562 297.307C559.706 296.879 561.77 291.835 561.855 291.621C561.903 291.498 561.998 291.4 562.119 291.346Z" fill="#162C55"/>
<path d="M585.57 298H577.106V286.064H578.565V296.682H585.57V298ZM595.616 289.562V298H594.219V296.611C593.586 297.517 592.479 298.176 590.967 298.176C588.55 298.176 586.713 296.295 586.713 293.755C586.713 291.224 588.55 289.387 590.967 289.387C592.479 289.387 593.586 290.037 594.219 290.942V289.562H595.616ZM591.107 290.652C589.35 290.652 588.102 292.015 588.102 293.755C588.102 295.504 589.35 296.91 591.107 296.91C592.909 296.91 594.236 295.504 594.236 293.755C594.236 292.015 592.909 290.652 591.107 290.652ZM599.932 298H598.534V285.625H599.932V290.951C600.564 290.046 601.672 289.387 603.184 289.387C605.601 289.387 607.438 291.232 607.438 293.764C607.438 296.295 605.601 298.176 603.184 298.176C601.672 298.176 600.564 297.525 599.932 296.629V298ZM603.043 296.91C604.801 296.91 606.049 295.504 606.049 293.764C606.049 292.015 604.801 290.652 603.043 290.652C601.241 290.652 599.914 292.015 599.914 293.764C599.914 295.504 601.241 296.91 603.043 296.91ZM616.798 296.084L617.044 297.35C616.06 297.921 614.996 298.176 613.862 298.176C611.023 298.176 609.063 296.383 609.063 293.781C609.063 291.268 610.874 289.387 613.405 289.387C616.262 289.387 617.879 291.698 617.422 294.291H610.522C610.76 295.952 612.166 296.866 613.801 296.866C614.785 296.866 615.664 296.699 616.798 296.084ZM610.558 293.148H616.147C616.051 291.707 615.058 290.688 613.449 290.688C611.858 290.688 610.689 291.707 610.558 293.148ZM619.769 298V285.625H621.166V298H619.769Z" fill="#162C55"/>
<mask id="path-17-outside-5_1603_38906" maskUnits="userSpaceOnUse" x="655" y="256" width="144" height="73" fill="black">
<rect fill="white" x="655" y="256" width="144" height="73"/>
<path d="M655 256H799V328H655V256Z"/>
</mask>
<path d="M799 328V327H655V328V329H799V328Z" fill="#ECEDED" mask="url(#path-17-outside-5_1603_38906)"/>
<path fill-rule="evenodd" clip-rule="evenodd" d="M708.915 285.995C709.112 286.258 709.27 286.548 709.384 286.857C710.814 290.759 709.314 293.535 709.249 293.649C708.312 295.487 706.963 297.084 705.306 298.317C703.649 299.551 701.73 300.387 699.697 300.761C698.845 300.915 697.982 300.995 697.117 301C692.913 301 690.749 298.932 690.119 298.204C689.94 297.998 689.843 297.734 689.844 297.462C689.841 297.284 689.894 297.11 689.994 296.963C689.195 296.285 688.564 295.432 688.149 294.472C687.95 293.899 687.95 293.276 688.149 292.703C688.209 292.568 688.297 292.448 688.409 292.351C688.52 292.255 688.652 292.184 688.794 292.144L689.599 291.93C689.676 291.908 689.754 291.892 689.834 291.88C689.239 291.013 688.374 289.628 688.334 288.94C688.308 288.649 688.38 288.358 688.539 288.113C688.65 287.951 688.8 287.819 688.974 287.728C689.148 287.637 689.342 287.589 689.539 287.59C689.587 287.582 689.636 287.582 689.684 287.59L690.579 287.859C690.869 287.968 691.128 288.063 691.398 288.153C695.108 289.399 699.212 289.488 703.606 288.427C704.115 288.074 704.564 287.642 704.935 287.146C705.065 286.927 705.185 286.737 705.29 286.583C705.39 286.395 705.478 286.202 705.555 286.005C705.61 285.368 705.61 284.728 705.555 284.091C705.546 283.977 705.559 283.863 705.594 283.754C705.629 283.646 705.686 283.545 705.76 283.458C705.834 283.372 705.924 283.302 706.025 283.251C706.127 283.201 706.237 283.171 706.35 283.164L708.5 283.005C708.704 282.985 708.91 283.028 709.089 283.129C709.268 283.23 709.411 283.383 709.499 283.568C709.59 283.75 709.624 283.956 709.599 284.158C709.573 284.36 709.488 284.55 709.354 284.704C709.132 284.968 708.862 285.19 708.56 285.357C708.642 285.588 708.762 285.803 708.915 285.995ZM689.504 288.571C689.448 288.581 689.398 288.612 689.364 288.656C689.333 288.716 689.321 288.784 689.329 288.85C689.354 289.299 690.304 290.844 691.023 291.84C695.787 291.791 699.247 291.178 701.286 289.997C701.351 289.962 701.426 289.912 701.501 289.862L701.501 289.862C698.023 290.453 694.453 290.193 691.098 289.104C690.819 289.01 690.544 288.91 690.269 288.805L689.504 288.571ZM689.044 293.096C688.972 293.443 688.995 293.803 689.109 294.138V294.128C689.507 294.98 690.093 295.731 690.824 296.326L691.238 296.081C691.393 295.988 691.562 295.92 691.738 295.882C702.191 293.48 703.621 290.355 703.801 289.752C703.817 289.695 703.835 289.643 703.853 289.59C703.867 289.547 703.882 289.504 703.896 289.458C703.551 289.702 703.171 289.962 702.731 290.261L702.591 290.355C702.511 290.405 702.428 290.458 702.344 290.512C702.158 290.631 701.966 290.754 701.791 290.854C699.437 292.234 695.617 292.882 690.119 292.847C690.027 292.844 689.936 292.856 689.849 292.882L689.044 293.096ZM704.69 297.466C706.217 296.339 707.471 294.885 708.36 293.211V293.201C708.39 293.146 709.709 290.654 708.435 287.201C708.354 286.991 708.245 286.793 708.11 286.613C707.752 286.182 707.539 285.651 707.5 285.093C707.493 284.985 707.522 284.879 707.582 284.789C707.641 284.699 707.728 284.631 707.83 284.594C708.116 284.478 708.371 284.297 708.575 284.066C708.58 284.058 708.583 284.049 708.583 284.039C708.583 284.029 708.58 284.02 708.575 284.011L708.535 283.986L706.535 284.136C706.693 286.314 706.436 286.675 706.324 286.832L706.32 286.837C706.307 286.854 706.294 286.871 706.28 286.888C706.231 286.95 706.175 287.02 706.1 287.161C706.005 287.34 705.905 287.505 705.795 287.659C705.357 288.404 705.01 289.199 704.76 290.026C704.386 291.277 702.391 294.467 691.983 296.844C691.913 296.86 691.845 296.887 691.783 296.924L690.889 297.457C690.886 297.47 690.886 297.483 690.889 297.497C691.538 298.264 694.138 300.691 699.537 299.724C701.402 299.365 703.163 298.593 704.69 297.466ZM706.119 291.346C706.24 291.293 706.377 291.29 706.5 291.337C706.617 291.39 706.71 291.485 706.758 291.604C706.807 291.723 706.807 291.856 706.76 291.975C706.67 292.219 704.401 297.831 696.622 298.304H696.592C696.46 298.308 696.331 298.259 696.234 298.169C696.138 298.078 696.081 297.953 696.077 297.821C696.073 297.688 696.122 297.56 696.213 297.464C696.304 297.368 696.43 297.311 696.562 297.307C703.706 296.879 705.77 291.835 705.855 291.621C705.903 291.498 705.998 291.4 706.119 291.346Z" fill="#162C55"/>
<path d="M729.57 298H721.106V286.064H722.565V296.682H729.57V298ZM739.616 289.562V298H738.219V296.611C737.586 297.517 736.479 298.176 734.967 298.176C732.55 298.176 730.713 296.295 730.713 293.755C730.713 291.224 732.55 289.387 734.967 289.387C736.479 289.387 737.586 290.037 738.219 290.942V289.562H739.616ZM735.107 290.652C733.35 290.652 732.102 292.015 732.102 293.755C732.102 295.504 733.35 296.91 735.107 296.91C736.909 296.91 738.236 295.504 738.236 293.755C738.236 292.015 736.909 290.652 735.107 290.652ZM743.932 298H742.534V285.625H743.932V290.951C744.564 290.046 745.672 289.387 747.184 289.387C749.601 289.387 751.438 291.232 751.438 293.764C751.438 296.295 749.601 298.176 747.184 298.176C745.672 298.176 744.564 297.525 743.932 296.629V298ZM747.043 296.91C748.801 296.91 750.049 295.504 750.049 293.764C750.049 292.015 748.801 290.652 747.043 290.652C745.241 290.652 743.914 292.015 743.914 293.764C743.914 295.504 745.241 296.91 747.043 296.91ZM760.798 296.084L761.044 297.35C760.06 297.921 758.996 298.176 757.862 298.176C755.023 298.176 753.063 296.383 753.063 293.781C753.063 291.268 754.874 289.387 757.405 289.387C760.262 289.387 761.879 291.698 761.422 294.291H754.522C754.76 295.952 756.166 296.866 757.801 296.866C758.785 296.866 759.664 296.699 760.798 296.084ZM754.558 293.148H760.147C760.051 291.707 759.058 290.688 757.449 290.688C755.858 290.688 754.689 291.707 754.558 293.148ZM763.769 298V285.625H765.166V298H763.769Z" fill="#162C55"/>
<mask id="path-21-outside-6_1603_38906" maskUnits="userSpaceOnUse" x="799" y="256" width="144" height="73" fill="black">
<rect fill="white" x="799" y="256" width="144" height="73"/>
<path d="M799 256H943V328H799V256Z"/>
</mask>
<path d="M943 328V327H799V328V329H943V328Z" fill="#ECEDED" mask="url(#path-21-outside-6_1603_38906)"/>
<path fill-rule="evenodd" clip-rule="evenodd" d="M852.915 285.995C853.112 286.258 853.27 286.548 853.384 286.857C854.814 290.759 853.314 293.535 853.249 293.649C852.312 295.487 850.963 297.084 849.306 298.317C847.649 299.551 845.73 300.387 843.697 300.761C842.845 300.915 841.982 300.995 841.117 301C836.913 301 834.749 298.932 834.119 298.204C833.94 297.998 833.843 297.734 833.844 297.462C833.841 297.284 833.894 297.11 833.994 296.963C833.195 296.285 832.564 295.432 832.149 294.472C831.95 293.899 831.95 293.276 832.149 292.703C832.209 292.568 832.297 292.448 832.409 292.351C832.52 292.255 832.652 292.184 832.794 292.144L833.599 291.93C833.676 291.908 833.754 291.892 833.834 291.88C833.239 291.013 832.374 289.628 832.334 288.94C832.308 288.649 832.38 288.358 832.539 288.113C832.65 287.951 832.8 287.819 832.974 287.728C833.148 287.637 833.342 287.589 833.539 287.59C833.587 287.582 833.636 287.582 833.684 287.59L834.579 287.859C834.869 287.968 835.128 288.063 835.398 288.153C839.108 289.399 843.212 289.488 847.606 288.427C848.115 288.074 848.564 287.642 848.935 287.146C849.065 286.927 849.185 286.737 849.29 286.583C849.39 286.395 849.478 286.202 849.555 286.005C849.61 285.368 849.61 284.728 849.555 284.091C849.546 283.977 849.559 283.863 849.594 283.754C849.629 283.646 849.686 283.545 849.76 283.458C849.834 283.372 849.924 283.302 850.025 283.251C850.127 283.201 850.237 283.171 850.35 283.164L852.5 283.005C852.704 282.985 852.91 283.028 853.089 283.129C853.268 283.23 853.411 283.383 853.499 283.568C853.59 283.75 853.624 283.956 853.599 284.158C853.573 284.36 853.488 284.55 853.354 284.704C853.132 284.968 852.862 285.19 852.56 285.357C852.642 285.588 852.762 285.803 852.915 285.995ZM833.504 288.571C833.448 288.581 833.398 288.612 833.364 288.656C833.333 288.716 833.321 288.784 833.329 288.85C833.354 289.299 834.304 290.844 835.023 291.84C839.787 291.791 843.247 291.178 845.286 289.997C845.351 289.962 845.426 289.912 845.501 289.862L845.501 289.862C842.023 290.453 838.453 290.193 835.098 289.104C834.819 289.01 834.544 288.91 834.269 288.805L833.504 288.571ZM833.044 293.096C832.972 293.443 832.995 293.803 833.109 294.138V294.128C833.507 294.98 834.093 295.731 834.824 296.326L835.238 296.081C835.393 295.988 835.562 295.92 835.738 295.882C846.191 293.48 847.621 290.355 847.801 289.752C847.817 289.695 847.835 289.643 847.853 289.59C847.867 289.547 847.882 289.504 847.896 289.458C847.551 289.702 847.171 289.962 846.731 290.261L846.591 290.355C846.511 290.405 846.428 290.458 846.344 290.512C846.158 290.631 845.966 290.754 845.791 290.854C843.437 292.234 839.617 292.882 834.119 292.847C834.027 292.844 833.936 292.856 833.849 292.882L833.044 293.096ZM848.69 297.466C850.217 296.339 851.471 294.885 852.36 293.211V293.201C852.39 293.146 853.709 290.654 852.435 287.201C852.354 286.991 852.245 286.793 852.11 286.613C851.752 286.182 851.539 285.651 851.5 285.093C851.493 284.985 851.522 284.879 851.582 284.789C851.641 284.699 851.728 284.631 851.83 284.594C852.116 284.478 852.371 284.297 852.575 284.066C852.58 284.058 852.583 284.049 852.583 284.039C852.583 284.029 852.58 284.02 852.575 284.011L852.535 283.986L850.535 284.136C850.693 286.314 850.436 286.675 850.324 286.832L850.32 286.837C850.307 286.854 850.294 286.871 850.28 286.888C850.231 286.95 850.175 287.02 850.1 287.161C850.005 287.34 849.905 287.505 849.795 287.659C849.357 288.404 849.01 289.199 848.76 290.026C848.386 291.277 846.391 294.467 835.983 296.844C835.913 296.86 835.845 296.887 835.783 296.924L834.889 297.457C834.886 297.47 834.886 297.483 834.889 297.497C835.538 298.264 838.138 300.691 843.537 299.724C845.402 299.365 847.163 298.593 848.69 297.466ZM850.119 291.346C850.24 291.293 850.377 291.29 850.5 291.337C850.617 291.39 850.71 291.485 850.758 291.604C850.807 291.723 850.807 291.856 850.76 291.975C850.67 292.219 848.401 297.831 840.622 298.304H840.592C840.46 298.308 840.331 298.259 840.234 298.169C840.138 298.078 840.081 297.953 840.077 297.821C840.073 297.688 840.122 297.56 840.213 297.464C840.304 297.368 840.43 297.311 840.562 297.307C847.706 296.879 849.77 291.835 849.855 291.621C849.903 291.498 849.998 291.4 850.119 291.346Z" fill="#162C55"/>
<path d="M873.57 298H865.106V286.064H866.565V296.682H873.57V298ZM883.616 289.562V298H882.219V296.611C881.586 297.517 880.479 298.176 878.967 298.176C876.55 298.176 874.713 296.295 874.713 293.755C874.713 291.224 876.55 289.387 878.967 289.387C880.479 289.387 881.586 290.037 882.219 290.942V289.562H883.616ZM879.107 290.652C877.35 290.652 876.102 292.015 876.102 293.755C876.102 295.504 877.35 296.91 879.107 296.91C880.909 296.91 882.236 295.504 882.236 293.755C882.236 292.015 880.909 290.652 879.107 290.652ZM887.932 298H886.534V285.625H887.932V290.951C888.564 290.046 889.672 289.387 891.184 289.387C893.601 289.387 895.438 291.232 895.438 293.764C895.438 296.295 893.601 298.176 891.184 298.176C889.672 298.176 888.564 297.525 887.932 296.629V298ZM891.043 296.91C892.801 296.91 894.049 295.504 894.049 293.764C894.049 292.015 892.801 290.652 891.043 290.652C889.241 290.652 887.914 292.015 887.914 293.764C887.914 295.504 889.241 296.91 891.043 296.91ZM904.798 296.084L905.044 297.35C904.06 297.921 902.996 298.176 901.862 298.176C899.023 298.176 897.063 296.383 897.063 293.781C897.063 291.268 898.874 289.387 901.405 289.387C904.262 289.387 905.879 291.698 905.422 294.291H898.522C898.76 295.952 900.166 296.866 901.801 296.866C902.785 296.866 903.664 296.699 904.798 296.084ZM898.558 293.148H904.147C904.051 291.707 903.058 290.688 901.449 290.688C899.858 290.688 898.689 291.707 898.558 293.148ZM907.769 298V285.625H909.166V298H907.769Z" fill="#162C55"/>
<mask id="path-25-outside-7_1603_38906" maskUnits="userSpaceOnUse" x="943" y="256" width="144" height="73" fill="black">
<rect fill="white" x="943" y="256" width="144" height="73"/>
<path d="M943 256H1087V328H943V256Z"/>
</mask>
<path d="M1087 328V327H943V328V329H1087V328Z" fill="#ECEDED" mask="url(#path-25-outside-7_1603_38906)"/>
<path fill-rule="evenodd" clip-rule="evenodd" d="M996.915 285.995C997.112 286.258 997.27 286.548 997.384 286.857C998.814 290.759 997.314 293.535 997.249 293.649C996.312 295.487 994.963 297.084 993.306 298.317C991.649 299.551 989.73 300.387 987.697 300.761C986.845 300.915 985.982 300.995 985.117 301C980.913 301 978.749 298.932 978.119 298.204C977.94 297.998 977.843 297.734 977.844 297.462C977.841 297.284 977.894 297.11 977.994 296.963C977.195 296.285 976.564 295.432 976.149 294.472C975.95 293.899 975.95 293.276 976.149 292.703C976.209 292.568 976.297 292.448 976.409 292.351C976.52 292.255 976.652 292.184 976.794 292.144L977.599 291.93C977.676 291.908 977.754 291.892 977.834 291.88C977.239 291.013 976.374 289.628 976.334 288.94C976.308 288.649 976.38 288.358 976.539 288.113C976.65 287.951 976.8 287.819 976.974 287.728C977.148 287.637 977.342 287.589 977.539 287.59C977.587 287.582 977.636 287.582 977.684 287.59L978.579 287.859C978.869 287.968 979.128 288.063 979.398 288.153C983.108 289.399 987.212 289.488 991.606 288.427C992.115 288.074 992.564 287.642 992.935 287.146C993.065 286.927 993.185 286.737 993.29 286.583C993.39 286.395 993.478 286.202 993.555 286.005C993.61 285.368 993.61 284.728 993.555 284.091C993.546 283.977 993.559 283.863 993.594 283.754C993.629 283.646 993.686 283.545 993.76 283.458C993.834 283.372 993.924 283.302 994.025 283.251C994.127 283.201 994.237 283.171 994.35 283.164L996.5 283.005C996.704 282.985 996.91 283.028 997.089 283.129C997.268 283.23 997.411 283.383 997.499 283.568C997.59 283.75 997.624 283.956 997.599 284.158C997.573 284.36 997.488 284.55 997.354 284.704C997.132 284.968 996.862 285.19 996.56 285.357C996.642 285.588 996.762 285.803 996.915 285.995ZM977.504 288.571C977.448 288.581 977.398 288.612 977.364 288.656C977.333 288.716 977.321 288.784 977.329 288.85C977.354 289.299 978.304 290.844 979.023 291.84C983.787 291.791 987.247 291.178 989.286 289.997C989.351 289.962 989.426 289.912 989.501 289.862L989.501 289.862C986.023 290.453 982.453 290.193 979.098 289.104C978.819 289.01 978.544 288.91 978.269 288.805L977.504 288.571ZM977.044 293.096C976.972 293.443 976.995 293.803 977.109 294.138V294.128C977.507 294.98 978.093 295.731 978.824 296.326L979.238 296.081C979.393 295.988 979.562 295.92 979.738 295.882C990.191 293.48 991.621 290.355 991.801 289.752C991.817 289.695 991.835 289.643 991.853 289.59C991.867 289.547 991.882 289.504 991.896 289.458C991.551 289.702 991.171 289.962 990.731 290.261L990.591 290.355C990.511 290.405 990.428 290.458 990.344 290.512C990.158 290.631 989.966 290.754 989.791 290.854C987.437 292.234 983.617 292.882 978.119 292.847C978.027 292.844 977.936 292.856 977.849 292.882L977.044 293.096ZM992.69 297.466C994.217 296.339 995.471 294.885 996.36 293.211V293.201C996.39 293.146 997.709 290.654 996.435 287.201C996.354 286.991 996.245 286.793 996.11 286.613C995.752 286.182 995.539 285.651 995.5 285.093C995.493 284.985 995.522 284.879 995.582 284.789C995.641 284.699 995.728 284.631 995.83 284.594C996.116 284.478 996.371 284.297 996.575 284.066C996.58 284.058 996.583 284.049 996.583 284.039C996.583 284.029 996.58 284.02 996.575 284.011L996.535 283.986L994.535 284.136C994.693 286.314 994.436 286.675 994.324 286.832L994.32 286.837C994.307 286.854 994.294 286.871 994.28 286.888C994.231 286.95 994.175 287.02 994.1 287.161C994.005 287.34 993.905 287.505 993.795 287.659C993.357 288.404 993.01 289.199 992.76 290.026C992.386 291.277 990.391 294.467 979.983 296.844C979.913 296.86 979.845 296.887 979.783 296.924L978.889 297.457C978.886 297.47 978.886 297.483 978.889 297.497C979.538 298.264 982.138 300.691 987.537 299.724C989.402 299.365 991.163 298.593 992.69 297.466ZM994.119 291.346C994.24 291.293 994.377 291.29 994.5 291.337C994.617 291.39 994.71 291.485 994.758 291.604C994.807 291.723 994.807 291.856 994.76 291.975C994.67 292.219 992.401 297.831 984.622 298.304H984.592C984.46 298.308 984.331 298.259 984.234 298.169C984.138 298.078 984.081 297.953 984.077 297.821C984.073 297.688 984.122 297.56 984.213 297.464C984.304 297.368 984.43 297.311 984.562 297.307C991.706 296.879 993.77 291.835 993.855 291.621C993.903 291.498 993.998 291.4 994.119 291.346Z" fill="#162C55"/>
<path d="M1017.57 298H1009.11V286.064H1010.57V296.682H1017.57V298ZM1027.62 289.562V298H1026.22V296.611C1025.59 297.517 1024.48 298.176 1022.97 298.176C1020.55 298.176 1018.71 296.295 1018.71 293.755C1018.71 291.224 1020.55 289.387 1022.97 289.387C1024.48 289.387 1025.59 290.037 1026.22 290.942V289.562H1027.62ZM1023.11 290.652C1021.35 290.652 1020.1 292.015 1020.1 293.755C1020.1 295.504 1021.35 296.91 1023.11 296.91C1024.91 296.91 1026.24 295.504 1026.24 293.755C1026.24 292.015 1024.91 290.652 1023.11 290.652ZM1031.93 298H1030.53V285.625H1031.93V290.951C1032.56 290.046 1033.67 289.387 1035.18 289.387C1037.6 289.387 1039.44 291.232 1039.44 293.764C1039.44 296.295 1037.6 298.176 1035.18 298.176C1033.67 298.176 1032.56 297.525 1031.93 296.629V298ZM1035.04 296.91C1036.8 296.91 1038.05 295.504 1038.05 293.764C1038.05 292.015 1036.8 290.652 1035.04 290.652C1033.24 290.652 1031.91 292.015 1031.91 293.764C1031.91 295.504 1033.24 296.91 1035.04 296.91ZM1048.8 296.084L1049.04 297.35C1048.06 297.921 1047 298.176 1045.86 298.176C1043.02 298.176 1041.06 296.383 1041.06 293.781C1041.06 291.268 1042.87 289.387 1045.41 289.387C1048.26 289.387 1049.88 291.698 1049.42 294.291H1042.52C1042.76 295.952 1044.17 296.866 1045.8 296.866C1046.79 296.866 1047.66 296.699 1048.8 296.084ZM1042.56 293.148H1048.15C1048.05 291.707 1047.06 290.688 1045.45 290.688C1043.86 290.688 1042.69 291.707 1042.56 293.148ZM1051.77 298V285.625H1053.17V298H1051.77Z" fill="#162C55"/>
<mask id="path-29-outside-8_1603_38906" maskUnits="userSpaceOnUse" x="1087" y="256" width="144" height="73" fill="black">
<rect fill="white" x="1087" y="256" width="144" height="73"/>
<path d="M1087 256H1231V328H1087V256Z"/>
</mask>
<path d="M1231 328V327H1087V328V329H1231V328Z" fill="#ECEDED" mask="url(#path-29-outside-8_1603_38906)"/>
<path fill-rule="evenodd" clip-rule="evenodd" d="M1140.91 285.995C1141.11 286.258 1141.27 286.548 1141.38 286.857C1142.81 290.759 1141.31 293.535 1141.25 293.649C1140.31 295.487 1138.96 297.084 1137.31 298.317C1135.65 299.551 1133.73 300.387 1131.7 300.761C1130.85 300.915 1129.98 300.995 1129.12 301C1124.91 301 1122.75 298.932 1122.12 298.204C1121.94 297.998 1121.84 297.734 1121.84 297.462C1121.84 297.284 1121.89 297.11 1121.99 296.963C1121.2 296.285 1120.56 295.432 1120.15 294.472C1119.95 293.899 1119.95 293.276 1120.15 292.703C1120.21 292.568 1120.3 292.448 1120.41 292.351C1120.52 292.255 1120.65 292.184 1120.79 292.144L1121.6 291.93C1121.68 291.908 1121.75 291.892 1121.83 291.88C1121.24 291.013 1120.37 289.628 1120.33 288.94C1120.31 288.649 1120.38 288.358 1120.54 288.113C1120.65 287.951 1120.8 287.819 1120.97 287.728C1121.15 287.637 1121.34 287.589 1121.54 287.59C1121.59 287.582 1121.64 287.582 1121.68 287.59L1122.58 287.859C1122.87 287.968 1123.13 288.063 1123.4 288.153C1127.11 289.399 1131.21 289.488 1135.61 288.427C1136.12 288.074 1136.56 287.642 1136.94 287.146C1137.07 286.927 1137.19 286.737 1137.29 286.583C1137.39 286.395 1137.48 286.202 1137.56 286.005C1137.61 285.368 1137.61 284.728 1137.56 284.091C1137.55 283.977 1137.56 283.863 1137.59 283.754C1137.63 283.646 1137.69 283.545 1137.76 283.458C1137.83 283.372 1137.92 283.302 1138.03 283.251C1138.13 283.201 1138.24 283.171 1138.35 283.164L1140.5 283.005C1140.7 282.985 1140.91 283.028 1141.09 283.129C1141.27 283.23 1141.41 283.383 1141.5 283.568C1141.59 283.75 1141.62 283.956 1141.6 284.158C1141.57 284.36 1141.49 284.55 1141.35 284.704C1141.13 284.968 1140.86 285.19 1140.56 285.357C1140.64 285.588 1140.76 285.803 1140.91 285.995ZM1121.5 288.571C1121.45 288.581 1121.4 288.612 1121.36 288.656C1121.33 288.716 1121.32 288.784 1121.33 288.85C1121.35 289.299 1122.3 290.844 1123.02 291.84C1127.79 291.791 1131.25 291.178 1133.29 289.997C1133.35 289.962 1133.43 289.912 1133.5 289.862L1133.5 289.862C1130.02 290.453 1126.45 290.193 1123.1 289.104C1122.82 289.01 1122.54 288.91 1122.27 288.805L1121.5 288.571ZM1121.04 293.096C1120.97 293.443 1120.99 293.803 1121.11 294.138V294.128C1121.51 294.98 1122.09 295.731 1122.82 296.326L1123.24 296.081C1123.39 295.988 1123.56 295.92 1123.74 295.882C1134.19 293.48 1135.62 290.355 1135.8 289.752C1135.82 289.695 1135.83 289.643 1135.85 289.59C1135.87 289.547 1135.88 289.504 1135.9 289.458C1135.55 289.702 1135.17 289.962 1134.73 290.261L1134.59 290.355C1134.51 290.405 1134.43 290.458 1134.34 290.512C1134.16 290.631 1133.97 290.754 1133.79 290.854C1131.44 292.234 1127.62 292.882 1122.12 292.847C1122.03 292.844 1121.94 292.856 1121.85 292.882L1121.04 293.096ZM1136.69 297.466C1138.22 296.339 1139.47 294.885 1140.36 293.211V293.201C1140.39 293.146 1141.71 290.654 1140.43 287.201C1140.35 286.991 1140.24 286.793 1140.11 286.613C1139.75 286.182 1139.54 285.651 1139.5 285.093C1139.49 284.985 1139.52 284.879 1139.58 284.789C1139.64 284.699 1139.73 284.631 1139.83 284.594C1140.12 284.478 1140.37 284.297 1140.57 284.066C1140.58 284.058 1140.58 284.049 1140.58 284.039C1140.58 284.029 1140.58 284.02 1140.57 284.011L1140.53 283.986L1138.54 284.136C1138.69 286.314 1138.44 286.675 1138.32 286.832L1138.32 286.837C1138.31 286.854 1138.29 286.871 1138.28 286.888C1138.23 286.95 1138.17 287.02 1138.1 287.161C1138.01 287.34 1137.91 287.505 1137.8 287.659C1137.36 288.404 1137.01 289.199 1136.76 290.026C1136.39 291.277 1134.39 294.467 1123.98 296.844C1123.91 296.86 1123.85 296.887 1123.78 296.924L1122.89 297.457C1122.89 297.47 1122.89 297.483 1122.89 297.497C1123.54 298.264 1126.14 300.691 1131.54 299.724C1133.4 299.365 1135.16 298.593 1136.69 297.466ZM1138.12 291.346C1138.24 291.293 1138.38 291.29 1138.5 291.337C1138.62 291.39 1138.71 291.485 1138.76 291.604C1138.81 291.723 1138.81 291.856 1138.76 291.975C1138.67 292.219 1136.4 297.831 1128.62 298.304H1128.59C1128.46 298.308 1128.33 298.259 1128.23 298.169C1128.14 298.078 1128.08 297.953 1128.08 297.821C1128.07 297.688 1128.12 297.56 1128.21 297.464C1128.3 297.368 1128.43 297.311 1128.56 297.307C1135.71 296.879 1137.77 291.835 1137.86 291.621C1137.9 291.498 1138 291.4 1138.12 291.346Z" fill="#162C55"/>
<path d="M1161.57 298H1153.11V286.064H1154.57V296.682H1161.57V298ZM1171.62 289.562V298H1170.22V296.611C1169.59 297.517 1168.48 298.176 1166.97 298.176C1164.55 298.176 1162.71 296.295 1162.71 293.755C1162.71 291.224 1164.55 289.387 1166.97 289.387C1168.48 289.387 1169.59 290.037 1170.22 290.942V289.562H1171.62ZM1167.11 290.652C1165.35 290.652 1164.1 292.015 1164.1 293.755C1164.1 295.504 1165.35 296.91 1167.11 296.91C1168.91 296.91 1170.24 295.504 1170.24 293.755C1170.24 292.015 1168.91 290.652 1167.11 290.652ZM1175.93 298H1174.53V285.625H1175.93V290.951C1176.56 290.046 1177.67 289.387 1179.18 289.387C1181.6 289.387 1183.44 291.232 1183.44 293.764C1183.44 296.295 1181.6 298.176 1179.18 298.176C1177.67 298.176 1176.56 297.525 1175.93 296.629V298ZM1179.04 296.91C1180.8 296.91 1182.05 295.504 1182.05 293.764C1182.05 292.015 1180.8 290.652 1179.04 290.652C1177.24 290.652 1175.91 292.015 1175.91 293.764C1175.91 295.504 1177.24 296.91 1179.04 296.91ZM1192.8 296.084L1193.04 297.35C1192.06 297.921 1191 298.176 1189.86 298.176C1187.02 298.176 1185.06 296.383 1185.06 293.781C1185.06 291.268 1186.87 289.387 1189.41 289.387C1192.26 289.387 1193.88 291.698 1193.42 294.291H1186.52C1186.76 295.952 1188.17 296.866 1189.8 296.866C1190.79 296.866 1191.66 296.699 1192.8 296.084ZM1186.56 293.148H1192.15C1192.05 291.707 1191.06 290.688 1189.45 290.688C1187.86 290.688 1186.69 291.707 1186.56 293.148ZM1195.77 298V285.625H1197.17V298H1195.77Z" fill="#162C55"/>
</g>
</g>
<defs>
<filter id="filter0_dd_1603_38906" x="55" y="46" width="1490" height="322" filterUnits="userSpaceOnUse" color-interpolation-filters="sRGB">
<feFlood flood-opacity="0" result="BackgroundImageFix"/>
<feColorMatrix in="SourceAlpha" type="matrix" values="0 0 0 0 0 0 0 0 0 0 0 0 0 0 0 0 0 0 127 0" result="hardAlpha"/>
<feOffset/>
<feGaussianBlur stdDeviation="5"/>
<feComposite in2="hardAlpha" operator="out"/>
<feColorMatrix type="matrix" values="0 0 0 0 0.133333 0 0 0 0 0.0392157 0 0 0 0 0.2 0 0 0 0.05 0"/>
<feBlend mode="normal" in2="BackgroundImageFix" result="effect1_dropShadow_1603_38906"/>
<feColorMatrix in="SourceAlpha" type="matrix" values="0 0 0 0 0 0 0 0 0 0 0 0 0 0 0 0 0 0 127 0" result="hardAlpha"/>
<feOffset dy="15"/>
<feGaussianBlur stdDeviation="12.5"/>
<feComposite in2="hardAlpha" operator="out"/>
<feColorMatrix type="matrix" values="0 0 0 0 0.133333 0 0 0 0 0.0392157 0 0 0 0 0.2 0 0 0 0.05 0"/>
<feBlend mode="normal" in2="effect1_dropShadow_1603_38906" result="effect2_dropShadow_1603_38906"/>
<feBlend mode="normal" in="SourceGraphic" in2="effect2_dropShadow_1603_38906" result="shape"/>
</filter>
<clipPath id="clip0_1603_38906">
<rect x="80" y="56" width="1440" height="272" rx="24" fill="white"/>
</clipPath>
</defs>
</svg>
